G04 #@! TF.GenerationSoftware,KiCad,Pcbnew,6.0.0-d3dd2cf0fa~116~ubuntu21.10.1*
G04 #@! TF.CreationDate,2022-02-12T15:32:21+00:00*
G04 #@! TF.ProjectId,mobo,6d6f626f-2e6b-4696-9361-645f70636258,rev?*
G04 #@! TF.SameCoordinates,Original*
G04 #@! TF.FileFunction,Copper,L2,Bot*
G04 #@! TF.FilePolarity,Positive*
%FSLAX46Y46*%
G04 Gerber Fmt 4.6, Leading zero omitted, Abs format (unit mm)*
G04 Created by KiCad (PCBNEW 6.0.0-d3dd2cf0fa~116~ubuntu21.10.1) date 2022-02-12 15:32:21*
%MOMM*%
%LPD*%
G01*
G04 APERTURE LIST*
G04 #@! TA.AperFunction,ComponentPad*
%ADD10R,1.700000X1.700000*%
G04 #@! TD*
G04 #@! TA.AperFunction,ComponentPad*
%ADD11O,1.700000X1.700000*%
G04 #@! TD*
G04 #@! TA.AperFunction,ComponentPad*
%ADD12C,0.750000*%
G04 #@! TD*
G04 #@! TA.AperFunction,SMDPad,CuDef*
%ADD13R,5.000000X3.400000*%
G04 #@! TD*
G04 #@! TA.AperFunction,ViaPad*
%ADD14C,0.800000*%
G04 #@! TD*
G04 #@! TA.AperFunction,Conductor*
%ADD15C,0.250000*%
G04 #@! TD*
G04 #@! TA.AperFunction,Conductor*
%ADD16C,0.500000*%
G04 #@! TD*
G04 #@! TA.AperFunction,Conductor*
%ADD17C,0.200000*%
G04 #@! TD*
G04 #@! TA.AperFunction,Conductor*
%ADD18C,1.000000*%
G04 #@! TD*
G04 APERTURE END LIST*
D10*
X84582000Y-89916000D03*
D11*
X87122000Y-89916000D03*
D10*
X24628000Y-33528000D03*
D11*
X27168000Y-33528000D03*
D12*
X54645000Y-70581000D03*
X57645000Y-69081000D03*
D13*
X56145000Y-69831000D03*
D12*
X56145000Y-70581000D03*
X57645000Y-70581000D03*
X54645000Y-69081000D03*
X56145000Y-69081000D03*
D10*
X101600000Y-103505000D03*
D11*
X104140000Y-103505000D03*
X106680000Y-103505000D03*
X109220000Y-103505000D03*
X111760000Y-103505000D03*
X114300000Y-103505000D03*
D14*
X77900000Y-84020000D03*
X88630000Y-84630000D03*
X62992000Y-78232000D03*
X78330000Y-87620000D03*
X99600000Y-99700000D03*
X12700000Y-31496000D03*
X57150000Y-74549000D03*
X111379000Y-85090000D03*
X112268000Y-81407000D03*
X73215500Y-92075000D03*
X69723000Y-79248000D03*
X76800000Y-100450000D03*
X62000000Y-13900000D03*
X68900000Y-96393000D03*
X158400000Y-61100000D03*
X112649000Y-46736000D03*
X68072000Y-83820000D03*
X72072500Y-83629500D03*
X66167000Y-86868000D03*
X71526500Y-86770000D03*
X115170000Y-95040000D03*
X13716000Y-18288000D03*
X57404000Y-77724000D03*
X76500000Y-56500000D03*
X61976000Y-71628000D03*
X96330000Y-103850000D03*
X96901000Y-82677000D03*
X98806000Y-82677000D03*
X66400000Y-45600000D03*
X68499117Y-89570883D03*
X91186000Y-57277000D03*
X17780000Y-23368000D03*
X78590000Y-82370000D03*
X79640000Y-94850000D03*
X97620000Y-96940000D03*
X12192000Y-20828000D03*
X89916000Y-88519000D03*
X71600000Y-92400000D03*
X84580000Y-94700000D03*
X14478000Y-37338000D03*
X7366000Y-27940000D03*
X7366000Y-22098000D03*
X16510000Y-37338000D03*
X75300000Y-95800000D03*
X73800000Y-96300000D03*
X68600000Y-91200000D03*
X146000000Y-44400000D03*
X113845000Y-90390000D03*
X140381232Y-41148768D03*
X139638768Y-41891232D03*
X114895000Y-90390000D03*
X57404000Y-64516000D03*
X56769000Y-65532000D03*
X57975500Y-65849500D03*
X58674000Y-65151000D03*
X58800000Y-85310000D03*
X69088000Y-92138500D03*
X70357996Y-75057000D03*
X64135000Y-90424000D03*
X74168004Y-84455000D03*
X51816000Y-72644000D03*
X52578000Y-73660012D03*
X75438000Y-84328000D03*
X75184000Y-85979000D03*
X61087000Y-73533000D03*
X59944000Y-73025000D03*
X76454000Y-85852000D03*
X72160000Y-87550000D03*
X77180000Y-86840000D03*
X66000000Y-97900000D03*
X11500000Y-7000000D03*
X64500000Y-96000000D03*
X17000000Y-7000000D03*
X66000000Y-96000000D03*
X22500000Y-7000000D03*
X77050000Y-94750000D03*
X71120004Y-75819000D03*
X65024000Y-92329000D03*
X76810000Y-102310000D03*
X87250000Y-101610000D03*
X111214000Y-102162804D03*
X76300000Y-96271029D03*
D15*
X91186000Y-57404000D02*
X91186000Y-57277000D01*
X89916000Y-58674000D02*
X91186000Y-57404000D01*
X79640000Y-94850000D02*
X81730000Y-96940000D01*
X79054001Y-82834001D02*
X79054001Y-87967521D01*
X78590000Y-82370000D02*
X79054001Y-82834001D01*
X16256000Y-23368000D02*
X13716000Y-20828000D01*
X89916000Y-88519000D02*
X89916000Y-58674000D01*
X78677521Y-88344001D02*
X69725999Y-88344001D01*
X69725999Y-88344001D02*
X68499117Y-89570883D01*
X81730000Y-96940000D02*
X97620000Y-96940000D01*
X17780000Y-23368000D02*
X16256000Y-23368000D01*
X79054001Y-87967521D02*
X78677521Y-88344001D01*
X13716000Y-20828000D02*
X12192000Y-20828000D01*
X71600000Y-92400000D02*
X72865010Y-93665010D01*
X83545010Y-93665010D02*
X84580000Y-94700000D01*
X72865010Y-93665010D02*
X83545010Y-93665010D01*
X14478000Y-35052000D02*
X14478000Y-30480000D01*
X7874000Y-28448000D02*
X7366000Y-27940000D01*
X14478000Y-37338000D02*
X14478000Y-35052000D01*
X14478000Y-30480000D02*
X12446000Y-28448000D01*
X12446000Y-28448000D02*
X7874000Y-28448000D01*
X13208000Y-22606000D02*
X7874000Y-22606000D01*
X16510000Y-32766000D02*
X16510000Y-25908000D01*
X16510000Y-25908000D02*
X13208000Y-22606000D01*
X7874000Y-22606000D02*
X7366000Y-22098000D01*
X16510000Y-37338000D02*
X16510000Y-32766000D01*
X107696000Y-101981000D02*
X97663000Y-101981000D01*
X78629315Y-99695000D02*
X75300000Y-96365685D01*
X109220000Y-103505000D02*
X107696000Y-101981000D01*
X75300000Y-96365685D02*
X75300000Y-95800000D01*
X97663000Y-101981000D02*
X95377000Y-99695000D01*
X95377000Y-99695000D02*
X78629315Y-99695000D01*
X82770521Y-100558499D02*
X78624184Y-100558499D01*
X78624184Y-100558499D02*
X74365685Y-96300000D01*
X82796022Y-100584000D02*
X82770521Y-100558499D01*
X74365685Y-96300000D02*
X73800000Y-96300000D01*
X110363000Y-104902000D02*
X99060000Y-104902000D01*
X94742000Y-100584000D02*
X82796022Y-100584000D01*
X99060000Y-104902000D02*
X94742000Y-100584000D01*
X111760000Y-103505000D02*
X110363000Y-104902000D01*
D16*
X146000000Y-44400000D02*
X141097000Y-39497000D01*
X68999999Y-90800001D02*
X68600000Y-91200000D01*
X78605000Y-89400000D02*
X70400000Y-89400000D01*
X70400000Y-89400000D02*
X68999999Y-90800001D01*
X92075000Y-90424000D02*
X89408000Y-93091000D01*
X82296000Y-93091000D02*
X78605000Y-89400000D01*
X92075000Y-63125000D02*
X92075000Y-90424000D01*
X141097000Y-39497000D02*
X115703000Y-39497000D01*
X146000000Y-44400000D02*
X146000000Y-44400000D01*
X89408000Y-93091000D02*
X82296000Y-93091000D01*
X115703000Y-39497000D02*
X92075000Y-63125000D01*
D17*
X114145000Y-44276800D02*
X117546800Y-40875000D01*
X114145000Y-90090000D02*
X114145000Y-44276800D01*
X139683199Y-40875000D02*
X139956967Y-41148768D01*
X139956967Y-41148768D02*
X140381232Y-41148768D01*
X113845000Y-90390000D02*
X114145000Y-90090000D01*
X117546800Y-40875000D02*
X139683199Y-40875000D01*
X114595000Y-44463200D02*
X117733200Y-41325000D01*
X114595000Y-90090000D02*
X114595000Y-44463200D01*
X114895000Y-90390000D02*
X114595000Y-90090000D01*
X139496801Y-41325000D02*
X139638768Y-41466967D01*
X117733200Y-41325000D02*
X139496801Y-41325000D01*
X139638768Y-41466967D02*
X139638768Y-41891232D01*
D18*
X58547000Y-63373000D02*
X73025000Y-63373000D01*
X57404000Y-64516000D02*
X58547000Y-63373000D01*
X73025000Y-63373000D02*
X87122000Y-77470000D01*
X87122000Y-77470000D02*
X87122000Y-89916000D01*
X72136000Y-65151000D02*
X84582000Y-77597000D01*
X58674000Y-65151000D02*
X72136000Y-65151000D01*
X84582000Y-77597000D02*
X84582000Y-89916000D01*
D15*
X69088000Y-92138500D02*
X68173499Y-93053001D01*
X68175999Y-93050501D02*
X69088000Y-92138500D01*
X68173499Y-93053001D02*
X64676479Y-93053001D01*
X58800000Y-85310000D02*
X58800000Y-87176522D01*
X64676479Y-93053001D02*
X58800000Y-87176522D01*
X64135000Y-81279996D02*
X69957997Y-75456999D01*
X64135000Y-90424000D02*
X64135000Y-81279996D01*
X69957997Y-75456999D02*
X70357996Y-75057000D01*
X66421000Y-76327000D02*
X53594000Y-76327000D01*
X74168004Y-84455000D02*
X74168004Y-77597004D01*
X53594000Y-76327000D02*
X51816000Y-74549000D01*
X70866000Y-74295000D02*
X68453000Y-74295000D01*
X51816000Y-74549000D02*
X51816000Y-73209685D01*
X51816000Y-73209685D02*
X51816000Y-72644000D01*
X74168004Y-77597004D02*
X70866000Y-74295000D01*
X68453000Y-74295000D02*
X66421000Y-76327000D01*
X66167000Y-75692000D02*
X53975000Y-75692000D01*
X71639022Y-73798022D02*
X68060978Y-73798022D01*
X53975000Y-75692000D02*
X52578000Y-74295000D01*
X52578000Y-74295000D02*
X52578000Y-73660012D01*
X68060978Y-73798022D02*
X66167000Y-75692000D01*
X75438000Y-84328000D02*
X75438000Y-77597000D01*
X75438000Y-77597000D02*
X71639022Y-73798022D01*
X76327000Y-84836000D02*
X76327000Y-77343000D01*
X75184000Y-85979000D02*
X76327000Y-84836000D01*
X76327000Y-77343000D02*
X72117001Y-73133001D01*
X61486999Y-73133001D02*
X61087000Y-73533000D01*
X72117001Y-73133001D02*
X61486999Y-73133001D01*
X76853999Y-76853999D02*
X72625001Y-72625001D01*
X76853999Y-85452001D02*
X76853999Y-76853999D01*
X76454000Y-85852000D02*
X76853999Y-85452001D01*
X72625001Y-72625001D02*
X60343999Y-72625001D01*
X60343999Y-72625001D02*
X59944000Y-73025000D01*
X76470000Y-87550000D02*
X77180000Y-86840000D01*
X72160000Y-87550000D02*
X76470000Y-87550000D01*
X63500000Y-96100000D02*
X65300000Y-97900000D01*
X49400000Y-60800000D02*
X49400000Y-80700000D01*
X33100000Y-44500000D02*
X49400000Y-60800000D01*
X63500000Y-94800000D02*
X63500000Y-96100000D01*
X33100000Y-28600000D02*
X11500000Y-7000000D01*
X49400000Y-80700000D02*
X63500000Y-94800000D01*
X65300000Y-97900000D02*
X66000000Y-97900000D01*
X33100000Y-44500000D02*
X33100000Y-28600000D01*
X64500000Y-95000000D02*
X64500000Y-95434315D01*
X50000000Y-60500000D02*
X50000000Y-80500000D01*
X50000000Y-80500000D02*
X64500000Y-95000000D01*
X64500000Y-95434315D02*
X64500000Y-96000000D01*
X33800000Y-44300000D02*
X33800000Y-23800000D01*
X33800000Y-23800000D02*
X17000000Y-7000000D01*
X33800000Y-44300000D02*
X50000000Y-60500000D01*
X34500000Y-44250000D02*
X34500000Y-19000000D01*
X66000000Y-95600000D02*
X66000000Y-96000000D01*
X50500000Y-80100000D02*
X66000000Y-95600000D01*
X50500000Y-60250000D02*
X50500000Y-80100000D01*
X34500000Y-44250000D02*
X50500000Y-60250000D01*
X34500000Y-19000000D02*
X22500000Y-7000000D01*
X108795000Y-98000000D02*
X114300000Y-103505000D01*
X77050000Y-94750000D02*
X80300000Y-98000000D01*
X80300000Y-98000000D02*
X108795000Y-98000000D01*
X65024000Y-92329000D02*
X65024000Y-81915004D01*
X65024000Y-81915004D02*
X70720005Y-76218999D01*
X70720005Y-76218999D02*
X71120004Y-75819000D01*
X87250000Y-101610000D02*
X77510000Y-101610000D01*
X77510000Y-101610000D02*
X76810000Y-102310000D01*
X111214000Y-102162804D02*
X107895195Y-98843999D01*
X78872970Y-98843999D02*
X76699999Y-96671028D01*
X107895195Y-98843999D02*
X78872970Y-98843999D01*
X76699999Y-96671028D02*
X76300000Y-96271029D01*
G04 #@! TA.AperFunction,Conductor*
G36*
X105992650Y-5717313D02*
G01*
X105997410Y-5721674D01*
X115849349Y-15573613D01*
X115852925Y-15577756D01*
X115854983Y-15581966D01*
X115859990Y-15586611D01*
X115859991Y-15586612D01*
X115891534Y-15615872D01*
X115893534Y-15617798D01*
X115907600Y-15631864D01*
X115910413Y-15633793D01*
X115913036Y-15635973D01*
X115912938Y-15636091D01*
X115916093Y-15638654D01*
X115931904Y-15653321D01*
X115936917Y-15657971D01*
X115950155Y-15663252D01*
X115964592Y-15670961D01*
X115970718Y-15675163D01*
X115976352Y-15679028D01*
X116000854Y-15684843D01*
X116003991Y-15685587D01*
X116014327Y-15688855D01*
X116040720Y-15699385D01*
X116046993Y-15700000D01*
X116056068Y-15700000D01*
X116073154Y-15702000D01*
X116078441Y-15703255D01*
X116078443Y-15703255D01*
X116085092Y-15704833D01*
X116115636Y-15700676D01*
X116125615Y-15700000D01*
X156067278Y-15700000D01*
X156080127Y-15701124D01*
X156100000Y-15704628D01*
X156117423Y-15701556D01*
X156131309Y-15700439D01*
X157492877Y-15719537D01*
X157494905Y-15719593D01*
X158885709Y-15778145D01*
X158887736Y-15778260D01*
X160276273Y-15875791D01*
X160278316Y-15875963D01*
X161663629Y-16012404D01*
X161665675Y-16012635D01*
X162155064Y-16074738D01*
X163046546Y-16187867D01*
X163048601Y-16188157D01*
X164424046Y-16402053D01*
X164426092Y-16402401D01*
X165794934Y-16654778D01*
X165796970Y-16655182D01*
X166509360Y-16807301D01*
X167158308Y-16945873D01*
X167160268Y-16946321D01*
X168512909Y-17275076D01*
X168514900Y-17275590D01*
X168929899Y-17388871D01*
X169857709Y-17642132D01*
X169859703Y-17642706D01*
X170447052Y-17820876D01*
X171191774Y-18046785D01*
X171193720Y-18047406D01*
X171857426Y-18269249D01*
X172513869Y-18488664D01*
X172515828Y-18489349D01*
X173823110Y-18967470D01*
X173825049Y-18968210D01*
X175118419Y-19482810D01*
X175120337Y-19483605D01*
X176398742Y-20034268D01*
X176400636Y-20035116D01*
X177663065Y-20621403D01*
X177664935Y-20622303D01*
X178910481Y-21243794D01*
X178912325Y-21244747D01*
X178994780Y-21288820D01*
X180016213Y-21834787D01*
X180139907Y-21900903D01*
X180141715Y-21901902D01*
X181350455Y-22592254D01*
X181352184Y-22593273D01*
X181944889Y-22954200D01*
X182541133Y-23317283D01*
X182542890Y-23318388D01*
X183710963Y-24075391D01*
X183712689Y-24076544D01*
X184859102Y-24866032D01*
X184860792Y-24867231D01*
X184871339Y-24874939D01*
X185984626Y-25688571D01*
X185986284Y-25689819D01*
X186815882Y-26332575D01*
X187014299Y-26486304D01*
X187086616Y-26542334D01*
X187088228Y-26543619D01*
X187710200Y-27054058D01*
X188164240Y-27426679D01*
X188165826Y-27428018D01*
X189216634Y-28340897D01*
X189218182Y-28342280D01*
X189775631Y-28854688D01*
X190242989Y-29284285D01*
X190244488Y-29285702D01*
X191242484Y-30256090D01*
X191243910Y-30257516D01*
X192214289Y-31255503D01*
X192215715Y-31257011D01*
X193157720Y-32281818D01*
X193159103Y-32283366D01*
X194071982Y-33334174D01*
X194073321Y-33335760D01*
X194903139Y-34346896D01*
X194956372Y-34411761D01*
X194957657Y-34413373D01*
X195089213Y-34583170D01*
X195810181Y-35513716D01*
X195811429Y-35515374D01*
X196632767Y-36639205D01*
X196633966Y-36640895D01*
X196849660Y-36954103D01*
X197423456Y-37787311D01*
X197424609Y-37789037D01*
X198181612Y-38957110D01*
X198182717Y-38958867D01*
X198291303Y-39137183D01*
X198906727Y-40147816D01*
X198907746Y-40149545D01*
X199582685Y-41331298D01*
X199598093Y-41358276D01*
X199599091Y-41360083D01*
X199838913Y-41808758D01*
X200255253Y-42587675D01*
X200256206Y-42589519D01*
X200877697Y-43835065D01*
X200878597Y-43836935D01*
X201464884Y-45099364D01*
X201465732Y-45101258D01*
X202016395Y-46379663D01*
X202017190Y-46381581D01*
X202531790Y-47674951D01*
X202532530Y-47676890D01*
X203010651Y-48984172D01*
X203011336Y-48986131D01*
X203066278Y-49150506D01*
X203395878Y-50136595D01*
X203452589Y-50306263D01*
X203453215Y-50308226D01*
X203506535Y-50483998D01*
X203857294Y-51640297D01*
X203857868Y-51642291D01*
X204224407Y-52985090D01*
X204224924Y-52987091D01*
X204551507Y-54330792D01*
X204553672Y-54339700D01*
X204554127Y-54341692D01*
X204576822Y-54447976D01*
X204844818Y-55703030D01*
X204845222Y-55705066D01*
X205097599Y-57073908D01*
X205097947Y-57075954D01*
X205311843Y-58451399D01*
X205312133Y-58453454D01*
X205398053Y-59130523D01*
X205476212Y-59746433D01*
X205487364Y-59834317D01*
X205487596Y-59836371D01*
X205622280Y-61203839D01*
X205624036Y-61221672D01*
X205624209Y-61223727D01*
X205721513Y-62609017D01*
X205721739Y-62612241D01*
X205721855Y-62614291D01*
X205779380Y-63980692D01*
X205780406Y-64005072D01*
X205780463Y-64007123D01*
X205793712Y-64951638D01*
X205794740Y-65024962D01*
X205778096Y-65072767D01*
X205734618Y-65098688D01*
X205720747Y-65100000D01*
X136974000Y-65100000D01*
X136926434Y-65082687D01*
X136901124Y-65038850D01*
X136900000Y-65026000D01*
X136900000Y-59352749D01*
X170295572Y-59352749D01*
X170295704Y-59355492D01*
X170296333Y-59368588D01*
X170306859Y-59587721D01*
X170308408Y-59619980D01*
X170308942Y-59622666D01*
X170308943Y-59622672D01*
X170351042Y-59834317D01*
X170360602Y-59882378D01*
X170451008Y-60134179D01*
X170577639Y-60369851D01*
X170737714Y-60584217D01*
X170927716Y-60772569D01*
X171143471Y-60930767D01*
X171380239Y-61055337D01*
X171382828Y-61056241D01*
X171382830Y-61056242D01*
X171630226Y-61142637D01*
X171630232Y-61142639D01*
X171632819Y-61143542D01*
X171635521Y-61144055D01*
X171892964Y-61192932D01*
X171892969Y-61192933D01*
X171895663Y-61193444D01*
X171898403Y-61193552D01*
X171898406Y-61193552D01*
X172055964Y-61199742D01*
X172162995Y-61203947D01*
X172165724Y-61203648D01*
X172165728Y-61203648D01*
X172426208Y-61175121D01*
X172426213Y-61175120D01*
X172428944Y-61174821D01*
X172687666Y-61106705D01*
X172901756Y-61014725D01*
X172930953Y-61002181D01*
X172930955Y-61002180D01*
X172933478Y-61001096D01*
X173129680Y-60879683D01*
X173158644Y-60861760D01*
X173158648Y-60861757D01*
X173160980Y-60860314D01*
X173365174Y-60687451D01*
X173541575Y-60486304D01*
X173595895Y-60401854D01*
X173684820Y-60263605D01*
X173684823Y-60263600D01*
X173686306Y-60261294D01*
X173796189Y-60017362D01*
X173801927Y-59997018D01*
X173868067Y-59762504D01*
X173868068Y-59762499D01*
X173868810Y-59759868D01*
X173902573Y-59494469D01*
X173905047Y-59400000D01*
X173904191Y-59388472D01*
X173885423Y-59135926D01*
X173885423Y-59135923D01*
X173885220Y-59133197D01*
X173826175Y-58872255D01*
X173817553Y-58850082D01*
X173733975Y-58635164D01*
X173729209Y-58622907D01*
X173596452Y-58390631D01*
X173430820Y-58180528D01*
X173235953Y-57997215D01*
X173016131Y-57844719D01*
X172776183Y-57726390D01*
X172521380Y-57644827D01*
X172257320Y-57601822D01*
X172254586Y-57601786D01*
X172254584Y-57601786D01*
X172061581Y-57599260D01*
X171989805Y-57598320D01*
X171724710Y-57634398D01*
X171722082Y-57635164D01*
X171470489Y-57708496D01*
X171470484Y-57708498D01*
X171467859Y-57709263D01*
X171465374Y-57710409D01*
X171465373Y-57710409D01*
X171370033Y-57754361D01*
X171224896Y-57821270D01*
X171222602Y-57822774D01*
X171003455Y-57966453D01*
X171003452Y-57966455D01*
X171001157Y-57967960D01*
X170999109Y-57969788D01*
X170999105Y-57969791D01*
X170965472Y-57999810D01*
X170801558Y-58146109D01*
X170630483Y-58351804D01*
X170491691Y-58580526D01*
X170490630Y-58583055D01*
X170490630Y-58583056D01*
X170390739Y-58821270D01*
X170388231Y-58827250D01*
X170387555Y-58829913D01*
X170387554Y-58829915D01*
X170345462Y-58995656D01*
X170322376Y-59086557D01*
X170295572Y-59352749D01*
X136900000Y-59352749D01*
X136900000Y-45453198D01*
X136901423Y-45443170D01*
X136901173Y-45443146D01*
X136901840Y-45436344D01*
X136903740Y-45429782D01*
X136900276Y-45389785D01*
X136900000Y-45383400D01*
X136900000Y-45372095D01*
X136898315Y-45363047D01*
X136897340Y-45355884D01*
X136894686Y-45325244D01*
X136894097Y-45318440D01*
X136891098Y-45312304D01*
X136889729Y-45307369D01*
X136887831Y-45301630D01*
X136885986Y-45296849D01*
X136884735Y-45290130D01*
X136865009Y-45258128D01*
X136861521Y-45251797D01*
X136859456Y-45247571D01*
X136845017Y-45218034D01*
X136840005Y-45213385D01*
X136836939Y-45209257D01*
X136833128Y-45204617D01*
X136829677Y-45200811D01*
X136826091Y-45194993D01*
X136796172Y-45172242D01*
X136790638Y-45167590D01*
X136785756Y-45163061D01*
X136763083Y-45142029D01*
X136756738Y-45139497D01*
X136752429Y-45136773D01*
X136747137Y-45133779D01*
X136742571Y-45131483D01*
X136737131Y-45127346D01*
X136706699Y-45118533D01*
X136701034Y-45116893D01*
X136694197Y-45114545D01*
X136664135Y-45102552D01*
X136659280Y-45100615D01*
X136653007Y-45100000D01*
X136651196Y-45100000D01*
X136649620Y-45099923D01*
X136642924Y-45098805D01*
X136636343Y-45098160D01*
X136629782Y-45096260D01*
X136593942Y-45099364D01*
X136589785Y-45099724D01*
X136583400Y-45100000D01*
X116153198Y-45100000D01*
X116143170Y-45098577D01*
X116143146Y-45098827D01*
X116136344Y-45098160D01*
X116129782Y-45096260D01*
X116093942Y-45099364D01*
X116089785Y-45099724D01*
X116083400Y-45100000D01*
X116072095Y-45100000D01*
X116068741Y-45100625D01*
X116068737Y-45100625D01*
X116063047Y-45101685D01*
X116055884Y-45102660D01*
X116051355Y-45103052D01*
X116018440Y-45105903D01*
X116012304Y-45108902D01*
X116007369Y-45110271D01*
X116001630Y-45112169D01*
X115996849Y-45114014D01*
X115990130Y-45115265D01*
X115973612Y-45125447D01*
X115958128Y-45134991D01*
X115951802Y-45138476D01*
X115918034Y-45154983D01*
X115913385Y-45159995D01*
X115909257Y-45163061D01*
X115904617Y-45166872D01*
X115900811Y-45170323D01*
X115894993Y-45173909D01*
X115872464Y-45203536D01*
X115872242Y-45203828D01*
X115867590Y-45209362D01*
X115842029Y-45236917D01*
X115839497Y-45243262D01*
X115836773Y-45247571D01*
X115833779Y-45252863D01*
X115831483Y-45257429D01*
X115827346Y-45262869D01*
X115819452Y-45290130D01*
X115816893Y-45298966D01*
X115814545Y-45305803D01*
X115809504Y-45318440D01*
X115800615Y-45340720D01*
X115800000Y-45346993D01*
X115800000Y-45348804D01*
X115799923Y-45350380D01*
X115798805Y-45357076D01*
X115798160Y-45363657D01*
X115796260Y-45370218D01*
X115796850Y-45377025D01*
X115799724Y-45410215D01*
X115800000Y-45416600D01*
X115800000Y-105026000D01*
X115782687Y-105073566D01*
X115738850Y-105098876D01*
X115726000Y-105100000D01*
X110944834Y-105100000D01*
X110897268Y-105082687D01*
X110871958Y-105038850D01*
X110880748Y-104989000D01*
X110892508Y-104973674D01*
X111269416Y-104596767D01*
X111315293Y-104575375D01*
X111350954Y-104581102D01*
X111403077Y-104603496D01*
X111609239Y-104650146D01*
X111709310Y-104654078D01*
X111817054Y-104658311D01*
X111817058Y-104658311D01*
X111820449Y-104658444D01*
X111959881Y-104638228D01*
X112026278Y-104628601D01*
X112026279Y-104628601D01*
X112029636Y-104628114D01*
X112212357Y-104566088D01*
X112226584Y-104561259D01*
X112229792Y-104560170D01*
X112232744Y-104558517D01*
X112232748Y-104558515D01*
X112380487Y-104475776D01*
X112414214Y-104456888D01*
X112416819Y-104454721D01*
X112416824Y-104454718D01*
X112574119Y-104323896D01*
X112576727Y-104321727D01*
X112630147Y-104257497D01*
X112709718Y-104161824D01*
X112709721Y-104161819D01*
X112711888Y-104159214D01*
X112804060Y-103994631D01*
X112813515Y-103977748D01*
X112813517Y-103977744D01*
X112815170Y-103974792D01*
X112883114Y-103774636D01*
X112889214Y-103732566D01*
X112913131Y-103567611D01*
X112913132Y-103567603D01*
X112913444Y-103565449D01*
X112915027Y-103505000D01*
X112911939Y-103471392D01*
X112895997Y-103297892D01*
X112895996Y-103297887D01*
X112895686Y-103294513D01*
X112888272Y-103268222D01*
X112845133Y-103115265D01*
X112838311Y-103091075D01*
X112801408Y-103016244D01*
X112746321Y-102904539D01*
X112746319Y-102904536D01*
X112744822Y-102901500D01*
X112742799Y-102898791D01*
X112742796Y-102898786D01*
X112620384Y-102734857D01*
X112620383Y-102734856D01*
X112618352Y-102732136D01*
X112524754Y-102645614D01*
X112465632Y-102590962D01*
X112465630Y-102590961D01*
X112463136Y-102588655D01*
X112326842Y-102502660D01*
X112287240Y-102477673D01*
X112287238Y-102477672D01*
X112284371Y-102475863D01*
X112281224Y-102474607D01*
X112281221Y-102474606D01*
X112091199Y-102398795D01*
X112091196Y-102398794D01*
X112088045Y-102397537D01*
X111961988Y-102372463D01*
X111918714Y-102346203D01*
X111902443Y-102298271D01*
X111903163Y-102289458D01*
X111905286Y-102274545D01*
X111919087Y-102177573D01*
X111919242Y-102162804D01*
X111898885Y-101994580D01*
X111844536Y-101850750D01*
X111843918Y-101800135D01*
X111875979Y-101760964D01*
X111925718Y-101751566D01*
X111966085Y-101772267D01*
X113206964Y-103013146D01*
X113228356Y-103059022D01*
X113225310Y-103087414D01*
X113170213Y-103264856D01*
X113145369Y-103474765D01*
X113159193Y-103685686D01*
X113211224Y-103890556D01*
X113212640Y-103893628D01*
X113212642Y-103893633D01*
X113298298Y-104079436D01*
X113299717Y-104082513D01*
X113301675Y-104085283D01*
X113419752Y-104252359D01*
X113419756Y-104252363D01*
X113421711Y-104255130D01*
X113424141Y-104257497D01*
X113565790Y-104395486D01*
X113573118Y-104402625D01*
X113575941Y-104404511D01*
X113746047Y-104518172D01*
X113746052Y-104518175D01*
X113748869Y-104520057D01*
X113943077Y-104603496D01*
X114149239Y-104650146D01*
X114249310Y-104654078D01*
X114357054Y-104658311D01*
X114357058Y-104658311D01*
X114360449Y-104658444D01*
X114499881Y-104638228D01*
X114566278Y-104628601D01*
X114566279Y-104628601D01*
X114569636Y-104628114D01*
X114752357Y-104566088D01*
X114766584Y-104561259D01*
X114769792Y-104560170D01*
X114772744Y-104558517D01*
X114772748Y-104558515D01*
X114920487Y-104475776D01*
X114954214Y-104456888D01*
X114956819Y-104454721D01*
X114956824Y-104454718D01*
X115114119Y-104323896D01*
X115116727Y-104321727D01*
X115170147Y-104257497D01*
X115249718Y-104161824D01*
X115249721Y-104161819D01*
X115251888Y-104159214D01*
X115344060Y-103994631D01*
X115353515Y-103977748D01*
X115353517Y-103977744D01*
X115355170Y-103974792D01*
X115423114Y-103774636D01*
X115429214Y-103732566D01*
X115453131Y-103567611D01*
X115453132Y-103567603D01*
X115453444Y-103565449D01*
X115455027Y-103505000D01*
X115451939Y-103471392D01*
X115435997Y-103297892D01*
X115435996Y-103297887D01*
X115435686Y-103294513D01*
X115428272Y-103268222D01*
X115385133Y-103115265D01*
X115378311Y-103091075D01*
X115341408Y-103016244D01*
X115286321Y-102904539D01*
X115286319Y-102904536D01*
X115284822Y-102901500D01*
X115282799Y-102898791D01*
X115282796Y-102898786D01*
X115160384Y-102734857D01*
X115160383Y-102734856D01*
X115158352Y-102732136D01*
X115064754Y-102645614D01*
X115005632Y-102590962D01*
X115005630Y-102590961D01*
X115003136Y-102588655D01*
X114866842Y-102502660D01*
X114827240Y-102477673D01*
X114827238Y-102477672D01*
X114824371Y-102475863D01*
X114821224Y-102474607D01*
X114821221Y-102474606D01*
X114631199Y-102398795D01*
X114631196Y-102398794D01*
X114628045Y-102397537D01*
X114624718Y-102396875D01*
X114624714Y-102396874D01*
X114424056Y-102356961D01*
X114420733Y-102356300D01*
X114329734Y-102355109D01*
X114212772Y-102353578D01*
X114212767Y-102353578D01*
X114209378Y-102353534D01*
X114206033Y-102354109D01*
X114206030Y-102354109D01*
X114145623Y-102364489D01*
X114001057Y-102389330D01*
X113927757Y-102416372D01*
X113888044Y-102431023D01*
X113837425Y-102431244D01*
X113810105Y-102413923D01*
X109047982Y-97651800D01*
X109022988Y-97639065D01*
X109013094Y-97633002D01*
X108995110Y-97619935D01*
X108995109Y-97619934D01*
X108990397Y-97616511D01*
X108984860Y-97614712D01*
X108984858Y-97614711D01*
X108963718Y-97607843D01*
X108952988Y-97603398D01*
X108928001Y-97590666D01*
X108900293Y-97586278D01*
X108889007Y-97583568D01*
X108878436Y-97580133D01*
X108867870Y-97576700D01*
X108867868Y-97576700D01*
X108862329Y-97574900D01*
X98155258Y-97574900D01*
X98107692Y-97557587D01*
X98082382Y-97513750D01*
X98091172Y-97463900D01*
X98107199Y-97444630D01*
X98135734Y-97420259D01*
X98139127Y-97417361D01*
X98206581Y-97323489D01*
X98235404Y-97283377D01*
X98235404Y-97283376D01*
X98238008Y-97279753D01*
X98252507Y-97243687D01*
X98299548Y-97126667D01*
X98301211Y-97122530D01*
X98325087Y-96954769D01*
X98325242Y-96940000D01*
X98304885Y-96771776D01*
X98244988Y-96613264D01*
X98209655Y-96561854D01*
X98151541Y-96477297D01*
X98151539Y-96477295D01*
X98149010Y-96473615D01*
X98103492Y-96433060D01*
X98025825Y-96363861D01*
X98025823Y-96363859D01*
X98022491Y-96360891D01*
X97937465Y-96315872D01*
X97876678Y-96283687D01*
X97876677Y-96283687D01*
X97872736Y-96281600D01*
X97778733Y-96257988D01*
X97712715Y-96241405D01*
X97712712Y-96241405D01*
X97708390Y-96240319D01*
X97621238Y-96239863D01*
X97543399Y-96239455D01*
X97543396Y-96239455D01*
X97538941Y-96239432D01*
X97534606Y-96240473D01*
X97534604Y-96240473D01*
X97461649Y-96257988D01*
X97374172Y-96278989D01*
X97223595Y-96356708D01*
X97220237Y-96359637D01*
X97220236Y-96359638D01*
X97100812Y-96463819D01*
X97095903Y-96468101D01*
X97085115Y-96483450D01*
X97043602Y-96512411D01*
X97024573Y-96514900D01*
X81936735Y-96514900D01*
X81889169Y-96497587D01*
X81884409Y-96493226D01*
X80360128Y-94968945D01*
X80338736Y-94923069D01*
X80339192Y-94906193D01*
X80344746Y-94867168D01*
X80344746Y-94867162D01*
X80345087Y-94864769D01*
X80345242Y-94850000D01*
X80324885Y-94681776D01*
X80284391Y-94574613D01*
X80266564Y-94527434D01*
X80266563Y-94527432D01*
X80264988Y-94523264D01*
X80169010Y-94383615D01*
X80060905Y-94287297D01*
X80045825Y-94273861D01*
X80045823Y-94273859D01*
X80042491Y-94270891D01*
X79964334Y-94229509D01*
X79930398Y-94191951D01*
X79928543Y-94141366D01*
X79959638Y-94101423D01*
X79998961Y-94090110D01*
X83338276Y-94090110D01*
X83385842Y-94107423D01*
X83390602Y-94111784D01*
X83860235Y-94581417D01*
X83881627Y-94627293D01*
X83881276Y-94643402D01*
X83876585Y-94679036D01*
X83874797Y-94692615D01*
X83880867Y-94747597D01*
X83891907Y-94847597D01*
X83893391Y-94861043D01*
X83894924Y-94865232D01*
X83949817Y-95015232D01*
X83951625Y-95020173D01*
X83982409Y-95065985D01*
X84040617Y-95152608D01*
X84046135Y-95160820D01*
X84171467Y-95274862D01*
X84175390Y-95276992D01*
X84316459Y-95353587D01*
X84316463Y-95353589D01*
X84320383Y-95355717D01*
X84324697Y-95356849D01*
X84324700Y-95356850D01*
X84472801Y-95395703D01*
X84484288Y-95398717D01*
X84569003Y-95400048D01*
X84649262Y-95401309D01*
X84653718Y-95401379D01*
X84658061Y-95400384D01*
X84658064Y-95400384D01*
X84759306Y-95377196D01*
X84818892Y-95363549D01*
X84822877Y-95361545D01*
X84822879Y-95361544D01*
X84966289Y-95289416D01*
X84966291Y-95289415D01*
X84970275Y-95287411D01*
X85035084Y-95232059D01*
X85095734Y-95180259D01*
X85099127Y-95177361D01*
X85176149Y-95070173D01*
X85195404Y-95043377D01*
X85195404Y-95043376D01*
X85198008Y-95039753D01*
X85244915Y-94923069D01*
X85259548Y-94886667D01*
X85261211Y-94882530D01*
X85285087Y-94714769D01*
X85285242Y-94700000D01*
X85264885Y-94531776D01*
X85210291Y-94387297D01*
X85206564Y-94377434D01*
X85206563Y-94377432D01*
X85204988Y-94373264D01*
X85143374Y-94283615D01*
X85111541Y-94237297D01*
X85111539Y-94237295D01*
X85109010Y-94233615D01*
X85016577Y-94151260D01*
X84985825Y-94123861D01*
X84985823Y-94123859D01*
X84982491Y-94120891D01*
X84832736Y-94041600D01*
X84750563Y-94020959D01*
X84672715Y-94001405D01*
X84672712Y-94001405D01*
X84668390Y-94000319D01*
X84510943Y-93999495D01*
X84463468Y-93981934D01*
X84459004Y-93977822D01*
X84248608Y-93767426D01*
X84227216Y-93721550D01*
X84240317Y-93672655D01*
X84281781Y-93643621D01*
X84300934Y-93641100D01*
X89394102Y-93641100D01*
X89397201Y-93641165D01*
X89455212Y-93643597D01*
X89455215Y-93643597D01*
X89460255Y-93643808D01*
X89465165Y-93642656D01*
X89465168Y-93642656D01*
X89504976Y-93633319D01*
X89511831Y-93632049D01*
X89552326Y-93626502D01*
X89552329Y-93626501D01*
X89557324Y-93625817D01*
X89575361Y-93618012D01*
X89587850Y-93613881D01*
X89602078Y-93610544D01*
X89602080Y-93610543D01*
X89606992Y-93609391D01*
X89647233Y-93587268D01*
X89653495Y-93584200D01*
X89664289Y-93579529D01*
X89695646Y-93565960D01*
X89699568Y-93562784D01*
X89699570Y-93562783D01*
X89710929Y-93553586D01*
X89721843Y-93546252D01*
X89735666Y-93538652D01*
X89735667Y-93538651D01*
X89739067Y-93536782D01*
X89747180Y-93529779D01*
X89773616Y-93503343D01*
X89779372Y-93498160D01*
X89808857Y-93474284D01*
X89808859Y-93474282D01*
X89812776Y-93471110D01*
X89826195Y-93452228D01*
X89834182Y-93442777D01*
X92454159Y-90822800D01*
X92456396Y-90820655D01*
X92499129Y-90781361D01*
X92499132Y-90781357D01*
X92502844Y-90777944D01*
X92527049Y-90738906D01*
X92530997Y-90733162D01*
X92533585Y-90729753D01*
X92558761Y-90696584D01*
X92566000Y-90678302D01*
X92571906Y-90666559D01*
X92582266Y-90649849D01*
X92595080Y-90605742D01*
X92597334Y-90599160D01*
X92614244Y-90556451D01*
X92616299Y-90536897D01*
X92618833Y-90523984D01*
X92623233Y-90508840D01*
X92624315Y-90505116D01*
X92624731Y-90499451D01*
X92625001Y-90495780D01*
X92625001Y-90495770D01*
X92625100Y-90494427D01*
X92625100Y-90457049D01*
X92625505Y-90449314D01*
X92629472Y-90411569D01*
X92629999Y-90406558D01*
X92627608Y-90392419D01*
X92626136Y-90383720D01*
X92625100Y-90371378D01*
X92625100Y-70352749D01*
X100295572Y-70352749D01*
X100295704Y-70355492D01*
X100296333Y-70368588D01*
X100306859Y-70587721D01*
X100308408Y-70619980D01*
X100308942Y-70622666D01*
X100308943Y-70622672D01*
X100344329Y-70800568D01*
X100360602Y-70882378D01*
X100451008Y-71134179D01*
X100577639Y-71369851D01*
X100737714Y-71584217D01*
X100927716Y-71772569D01*
X101143471Y-71930767D01*
X101380239Y-72055337D01*
X101382828Y-72056241D01*
X101382830Y-72056242D01*
X101630226Y-72142637D01*
X101630232Y-72142639D01*
X101632819Y-72143542D01*
X101635521Y-72144055D01*
X101892964Y-72192932D01*
X101892969Y-72192933D01*
X101895663Y-72193444D01*
X101898403Y-72193552D01*
X101898406Y-72193552D01*
X102055964Y-72199742D01*
X102162995Y-72203947D01*
X102165724Y-72203648D01*
X102165728Y-72203648D01*
X102426208Y-72175121D01*
X102426213Y-72175120D01*
X102428944Y-72174821D01*
X102687666Y-72106705D01*
X102933478Y-72001096D01*
X103062718Y-71921120D01*
X103158644Y-71861760D01*
X103158648Y-71861757D01*
X103160980Y-71860314D01*
X103365174Y-71687451D01*
X103541575Y-71486304D01*
X103686306Y-71261294D01*
X103796189Y-71017362D01*
X103801086Y-71000000D01*
X103868067Y-70762504D01*
X103868068Y-70762499D01*
X103868810Y-70759868D01*
X103902573Y-70494469D01*
X103905047Y-70400000D01*
X103901740Y-70355492D01*
X103885423Y-70135926D01*
X103885423Y-70135923D01*
X103885220Y-70133197D01*
X103826175Y-69872255D01*
X103729209Y-69622907D01*
X103596452Y-69390631D01*
X103430820Y-69180528D01*
X103235953Y-68997215D01*
X103016131Y-68844719D01*
X102872962Y-68774116D01*
X102778647Y-68727605D01*
X102778646Y-68727605D01*
X102776183Y-68726390D01*
X102521380Y-68644827D01*
X102257320Y-68601822D01*
X102254586Y-68601786D01*
X102254584Y-68601786D01*
X102061581Y-68599260D01*
X101989805Y-68598320D01*
X101724710Y-68634398D01*
X101722082Y-68635164D01*
X101470489Y-68708496D01*
X101470484Y-68708498D01*
X101467859Y-68709263D01*
X101465374Y-68710409D01*
X101465373Y-68710409D01*
X101428072Y-68727605D01*
X101224896Y-68821270D01*
X101222602Y-68822774D01*
X101003455Y-68966453D01*
X101003452Y-68966455D01*
X101001157Y-68967960D01*
X100999109Y-68969788D01*
X100999105Y-68969791D01*
X100803609Y-69144278D01*
X100801558Y-69146109D01*
X100630483Y-69351804D01*
X100491691Y-69580526D01*
X100388231Y-69827250D01*
X100387555Y-69829913D01*
X100387554Y-69829915D01*
X100376120Y-69874939D01*
X100322376Y-70086557D01*
X100295572Y-70352749D01*
X92625100Y-70352749D01*
X92625100Y-63383511D01*
X92642413Y-63335945D01*
X92646774Y-63331185D01*
X95625210Y-60352749D01*
X100295572Y-60352749D01*
X100295704Y-60355492D01*
X100296333Y-60368588D01*
X100306859Y-60587721D01*
X100308408Y-60619980D01*
X100308942Y-60622666D01*
X100308943Y-60622672D01*
X100338376Y-60770639D01*
X100360602Y-60882378D01*
X100451008Y-61134179D01*
X100452305Y-61136593D01*
X100452306Y-61136595D01*
X100458504Y-61148130D01*
X100577639Y-61369851D01*
X100737714Y-61584217D01*
X100927716Y-61772569D01*
X101143471Y-61930767D01*
X101380239Y-62055337D01*
X101382828Y-62056241D01*
X101382830Y-62056242D01*
X101630226Y-62142637D01*
X101630232Y-62142639D01*
X101632819Y-62143542D01*
X101635521Y-62144055D01*
X101892964Y-62192932D01*
X101892969Y-62192933D01*
X101895663Y-62193444D01*
X101898403Y-62193552D01*
X101898406Y-62193552D01*
X102055964Y-62199742D01*
X102162995Y-62203947D01*
X102165724Y-62203648D01*
X102165728Y-62203648D01*
X102426208Y-62175121D01*
X102426213Y-62175120D01*
X102428944Y-62174821D01*
X102687666Y-62106705D01*
X102933478Y-62001096D01*
X103062718Y-61921120D01*
X103158644Y-61861760D01*
X103158648Y-61861757D01*
X103160980Y-61860314D01*
X103365174Y-61687451D01*
X103541575Y-61486304D01*
X103640457Y-61332575D01*
X103684820Y-61263605D01*
X103684823Y-61263600D01*
X103686306Y-61261294D01*
X103690149Y-61252764D01*
X103734258Y-61154845D01*
X103796189Y-61017362D01*
X103796933Y-61014725D01*
X103868067Y-60762504D01*
X103868068Y-60762499D01*
X103868810Y-60759868D01*
X103893366Y-60566844D01*
X103902338Y-60496318D01*
X103902338Y-60496314D01*
X103902573Y-60494469D01*
X103902848Y-60483998D01*
X103904998Y-60401854D01*
X103905047Y-60400000D01*
X103902971Y-60372054D01*
X103885423Y-60135926D01*
X103885423Y-60135923D01*
X103885220Y-60133197D01*
X103826175Y-59872255D01*
X103823767Y-59866061D01*
X103730202Y-59625461D01*
X103729209Y-59622907D01*
X103596452Y-59390631D01*
X103430820Y-59180528D01*
X103235953Y-58997215D01*
X103016131Y-58844719D01*
X102776183Y-58726390D01*
X102521380Y-58644827D01*
X102257320Y-58601822D01*
X102254586Y-58601786D01*
X102254584Y-58601786D01*
X102061581Y-58599260D01*
X101989805Y-58598320D01*
X101724710Y-58634398D01*
X101722082Y-58635164D01*
X101470489Y-58708496D01*
X101470484Y-58708498D01*
X101467859Y-58709263D01*
X101465374Y-58710409D01*
X101465373Y-58710409D01*
X101428072Y-58727605D01*
X101224896Y-58821270D01*
X101222602Y-58822774D01*
X101003455Y-58966453D01*
X101003452Y-58966455D01*
X101001157Y-58967960D01*
X100999109Y-58969788D01*
X100999105Y-58969791D01*
X100812967Y-59135926D01*
X100801558Y-59146109D01*
X100630483Y-59351804D01*
X100491691Y-59580526D01*
X100490630Y-59583055D01*
X100490630Y-59583056D01*
X100416487Y-59759868D01*
X100388231Y-59827250D01*
X100387555Y-59829913D01*
X100387554Y-59829915D01*
X100323716Y-60081282D01*
X100322376Y-60086557D01*
X100295572Y-60352749D01*
X95625210Y-60352749D01*
X106625210Y-49352749D01*
X110295572Y-49352749D01*
X110295704Y-49355492D01*
X110296333Y-49368588D01*
X110306859Y-49587721D01*
X110308408Y-49619980D01*
X110360602Y-49882378D01*
X110451008Y-50134179D01*
X110577639Y-50369851D01*
X110737714Y-50584217D01*
X110927716Y-50772569D01*
X111143471Y-50930767D01*
X111380239Y-51055337D01*
X111382828Y-51056241D01*
X111382830Y-51056242D01*
X111630226Y-51142637D01*
X111630232Y-51142639D01*
X111632819Y-51143542D01*
X111635521Y-51144055D01*
X111892964Y-51192932D01*
X111892969Y-51192933D01*
X111895663Y-51193444D01*
X111898403Y-51193552D01*
X111898406Y-51193552D01*
X112055964Y-51199742D01*
X112162995Y-51203947D01*
X112165724Y-51203648D01*
X112165728Y-51203648D01*
X112426208Y-51175121D01*
X112426213Y-51175120D01*
X112428944Y-51174821D01*
X112687666Y-51106705D01*
X112933478Y-51001096D01*
X113062718Y-50921120D01*
X113158644Y-50861760D01*
X113158648Y-50861757D01*
X113160980Y-50860314D01*
X113365174Y-50687451D01*
X113541575Y-50486304D01*
X113543054Y-50484005D01*
X113543059Y-50483998D01*
X113608663Y-50382004D01*
X113648956Y-50351365D01*
X113699517Y-50353793D01*
X113736687Y-50388153D01*
X113744900Y-50422036D01*
X113744900Y-89635666D01*
X113727587Y-89683232D01*
X113688175Y-89707621D01*
X113647173Y-89717465D01*
X113599172Y-89728989D01*
X113448595Y-89806708D01*
X113445237Y-89809637D01*
X113445236Y-89809638D01*
X113340425Y-89901071D01*
X113320903Y-89918101D01*
X113318335Y-89921755D01*
X113318334Y-89921756D01*
X113297007Y-89952101D01*
X113223468Y-90056737D01*
X113161914Y-90214613D01*
X113160388Y-90226205D01*
X113143766Y-90352469D01*
X113139797Y-90382615D01*
X113143062Y-90412192D01*
X113155404Y-90523984D01*
X113158391Y-90551043D01*
X113159924Y-90555232D01*
X113213123Y-90700603D01*
X113216625Y-90710173D01*
X113259282Y-90773654D01*
X113304755Y-90841325D01*
X113311135Y-90850820D01*
X113436467Y-90964862D01*
X113440390Y-90966992D01*
X113581459Y-91043587D01*
X113581463Y-91043589D01*
X113585383Y-91045717D01*
X113589697Y-91046849D01*
X113589700Y-91046850D01*
X113675317Y-91069311D01*
X113749288Y-91088717D01*
X113834003Y-91090048D01*
X113914262Y-91091309D01*
X113918718Y-91091379D01*
X113923061Y-91090384D01*
X113923064Y-91090384D01*
X114016622Y-91068956D01*
X114083892Y-91053549D01*
X114087877Y-91051545D01*
X114087879Y-91051544D01*
X114231289Y-90979416D01*
X114231291Y-90979415D01*
X114235275Y-90977411D01*
X114322352Y-90903040D01*
X114369765Y-90885313D01*
X114420213Y-90904577D01*
X114486467Y-90964862D01*
X114490390Y-90966992D01*
X114631459Y-91043587D01*
X114631463Y-91043589D01*
X114635383Y-91045717D01*
X114639697Y-91046849D01*
X114639700Y-91046850D01*
X114725317Y-91069311D01*
X114799288Y-91088717D01*
X114884003Y-91090048D01*
X114964262Y-91091309D01*
X114968718Y-91091379D01*
X114973061Y-91090384D01*
X114973064Y-91090384D01*
X115066622Y-91068956D01*
X115133892Y-91053549D01*
X115137877Y-91051545D01*
X115137879Y-91051544D01*
X115281289Y-90979416D01*
X115281291Y-90979415D01*
X115285275Y-90977411D01*
X115303484Y-90961859D01*
X115410734Y-90870259D01*
X115414127Y-90867361D01*
X115513008Y-90729753D01*
X115576211Y-90572530D01*
X115600087Y-90404769D01*
X115600242Y-90390000D01*
X115579885Y-90221776D01*
X115532617Y-90096686D01*
X115521564Y-90067434D01*
X115521563Y-90067432D01*
X115519988Y-90063264D01*
X115443588Y-89952101D01*
X115426541Y-89927297D01*
X115426539Y-89927295D01*
X115424010Y-89923615D01*
X115316647Y-89827958D01*
X115300825Y-89813861D01*
X115300823Y-89813859D01*
X115297491Y-89810891D01*
X115188934Y-89753413D01*
X115151676Y-89733686D01*
X115151675Y-89733686D01*
X115147736Y-89731600D01*
X115143409Y-89730513D01*
X115051072Y-89707319D01*
X115009157Y-89678940D01*
X114995100Y-89635549D01*
X114995100Y-44659579D01*
X115012413Y-44612013D01*
X115016774Y-44607253D01*
X117877253Y-41746774D01*
X117923129Y-41725382D01*
X117929579Y-41725100D01*
X138870083Y-41725100D01*
X138917649Y-41742413D01*
X138942959Y-41786250D01*
X138943450Y-41808758D01*
X138934147Y-41879422D01*
X138934147Y-41879427D01*
X138933565Y-41883847D01*
X138952159Y-42052275D01*
X139010393Y-42211405D01*
X139104903Y-42352052D01*
X139230235Y-42466094D01*
X139234158Y-42468224D01*
X139375227Y-42544819D01*
X139375231Y-42544821D01*
X139379151Y-42546949D01*
X139383465Y-42548081D01*
X139383468Y-42548082D01*
X139531569Y-42586935D01*
X139543056Y-42589949D01*
X139627771Y-42591280D01*
X139708030Y-42592541D01*
X139712486Y-42592611D01*
X139716829Y-42591616D01*
X139716832Y-42591616D01*
X139805085Y-42571403D01*
X139877660Y-42554781D01*
X139881645Y-42552777D01*
X139881647Y-42552776D01*
X140025057Y-42480648D01*
X140025059Y-42480647D01*
X140029043Y-42478643D01*
X140157895Y-42368593D01*
X140256776Y-42230985D01*
X140319979Y-42073762D01*
X140342842Y-41913119D01*
X140366684Y-41868467D01*
X140417266Y-41849555D01*
X140450493Y-41850077D01*
X140454950Y-41850147D01*
X140459293Y-41849152D01*
X140459296Y-41849152D01*
X140547549Y-41828939D01*
X140620124Y-41812317D01*
X140624109Y-41810313D01*
X140624111Y-41810312D01*
X140767521Y-41738184D01*
X140767523Y-41738183D01*
X140771507Y-41736179D01*
X140874482Y-41648230D01*
X140896966Y-41629027D01*
X140900359Y-41626129D01*
X140999240Y-41488521D01*
X141003648Y-41477557D01*
X141060780Y-41335435D01*
X141062443Y-41331298D01*
X141086319Y-41163537D01*
X141086474Y-41148768D01*
X141066117Y-40980544D01*
X141006220Y-40822032D01*
X140922350Y-40700000D01*
X140912773Y-40686065D01*
X140912771Y-40686063D01*
X140910242Y-40682383D01*
X140836657Y-40616821D01*
X140787057Y-40572629D01*
X140787055Y-40572627D01*
X140783723Y-40569659D01*
X140675328Y-40512267D01*
X140637910Y-40492455D01*
X140637909Y-40492455D01*
X140633968Y-40490368D01*
X140529021Y-40464007D01*
X140473947Y-40450173D01*
X140473944Y-40450173D01*
X140469622Y-40449087D01*
X140382469Y-40448631D01*
X140304631Y-40448223D01*
X140304628Y-40448223D01*
X140300173Y-40448200D01*
X140295838Y-40449241D01*
X140295836Y-40449241D01*
X140234331Y-40464007D01*
X140135404Y-40487757D01*
X140012110Y-40551394D01*
X140001958Y-40556634D01*
X139951750Y-40563066D01*
X139924971Y-40550946D01*
X139921303Y-40547278D01*
X139916111Y-40544632D01*
X139916109Y-40544631D01*
X139898088Y-40535448D01*
X139888190Y-40529383D01*
X139883993Y-40526334D01*
X139867105Y-40514064D01*
X139842315Y-40506009D01*
X139831596Y-40501569D01*
X139813570Y-40492384D01*
X139813568Y-40492383D01*
X139808378Y-40489739D01*
X139792632Y-40487245D01*
X139782638Y-40485662D01*
X139771350Y-40482952D01*
X139752106Y-40476700D01*
X139752104Y-40476700D01*
X139746568Y-40474901D01*
X139714690Y-40474901D01*
X139714686Y-40474900D01*
X117483431Y-40474900D01*
X117458646Y-40482953D01*
X117447358Y-40485663D01*
X117421621Y-40489739D01*
X117416432Y-40492383D01*
X117398405Y-40501568D01*
X117387677Y-40506011D01*
X117362894Y-40514064D01*
X117345620Y-40526614D01*
X117341809Y-40529383D01*
X117331911Y-40535448D01*
X117313886Y-40544633D01*
X117313884Y-40544635D01*
X117308696Y-40547278D01*
X117286155Y-40569819D01*
X117286151Y-40569822D01*
X113839822Y-44016151D01*
X113839819Y-44016155D01*
X113817278Y-44038696D01*
X113814635Y-44043884D01*
X113814633Y-44043886D01*
X113805448Y-44061911D01*
X113799383Y-44071809D01*
X113784064Y-44092894D01*
X113776009Y-44117684D01*
X113771569Y-44128403D01*
X113759739Y-44151621D01*
X113758828Y-44157374D01*
X113755662Y-44177361D01*
X113752952Y-44188649D01*
X113746700Y-44207893D01*
X113744901Y-44213431D01*
X113744901Y-44245307D01*
X113744900Y-44245313D01*
X113744900Y-48371759D01*
X113727587Y-48419325D01*
X113683750Y-48444635D01*
X113633900Y-48435845D01*
X113606653Y-48408479D01*
X113606617Y-48408416D01*
X113596452Y-48390631D01*
X113430820Y-48180528D01*
X113235953Y-47997215D01*
X113016131Y-47844719D01*
X112904147Y-47789495D01*
X112778647Y-47727605D01*
X112778646Y-47727605D01*
X112776183Y-47726390D01*
X112521380Y-47644827D01*
X112257320Y-47601822D01*
X112254586Y-47601786D01*
X112254584Y-47601786D01*
X112061581Y-47599260D01*
X111989805Y-47598320D01*
X111724710Y-47634398D01*
X111722082Y-47635164D01*
X111470489Y-47708496D01*
X111470484Y-47708498D01*
X111467859Y-47709263D01*
X111465374Y-47710409D01*
X111465373Y-47710409D01*
X111428072Y-47727605D01*
X111224896Y-47821270D01*
X111222602Y-47822774D01*
X111003455Y-47966453D01*
X111003452Y-47966455D01*
X111001157Y-47967960D01*
X110999109Y-47969788D01*
X110999105Y-47969791D01*
X110803609Y-48144278D01*
X110801558Y-48146109D01*
X110630483Y-48351804D01*
X110491691Y-48580526D01*
X110388231Y-48827250D01*
X110387555Y-48829913D01*
X110387554Y-48829915D01*
X110347881Y-48986131D01*
X110322376Y-49086557D01*
X110295572Y-49352749D01*
X106625210Y-49352749D01*
X115909185Y-40068774D01*
X115955061Y-40047382D01*
X115961511Y-40047100D01*
X140838489Y-40047100D01*
X140886055Y-40064413D01*
X140890815Y-40068774D01*
X145286367Y-44464326D01*
X145307594Y-44508531D01*
X145313391Y-44561043D01*
X145314924Y-44565232D01*
X145350769Y-44663181D01*
X145371625Y-44720173D01*
X145466135Y-44860820D01*
X145591467Y-44974862D01*
X145595390Y-44976992D01*
X145736459Y-45053587D01*
X145736463Y-45053589D01*
X145740383Y-45055717D01*
X145744697Y-45056849D01*
X145744700Y-45056850D01*
X145892801Y-45095703D01*
X145904288Y-45098717D01*
X145945468Y-45099364D01*
X146069262Y-45101309D01*
X146073718Y-45101379D01*
X146078061Y-45100384D01*
X146078064Y-45100384D01*
X146166317Y-45080171D01*
X146238892Y-45063549D01*
X146242877Y-45061545D01*
X146242879Y-45061544D01*
X146386289Y-44989416D01*
X146386291Y-44989415D01*
X146390275Y-44987411D01*
X146519127Y-44877361D01*
X146608502Y-44752982D01*
X146615404Y-44743377D01*
X146615404Y-44743376D01*
X146618008Y-44739753D01*
X146622734Y-44727998D01*
X146679548Y-44586667D01*
X146681211Y-44582530D01*
X146705087Y-44414769D01*
X146705242Y-44400000D01*
X146684885Y-44231776D01*
X146641769Y-44117673D01*
X146626564Y-44077434D01*
X146626563Y-44077432D01*
X146624988Y-44073264D01*
X146529010Y-43933615D01*
X146483492Y-43893060D01*
X146405825Y-43823861D01*
X146405823Y-43823859D01*
X146402491Y-43820891D01*
X146252736Y-43741600D01*
X146248408Y-43740513D01*
X146248403Y-43740511D01*
X146094721Y-43701908D01*
X146060423Y-43682464D01*
X141495800Y-39117841D01*
X141493655Y-39115604D01*
X141454361Y-39072871D01*
X141454357Y-39072868D01*
X141450944Y-39069156D01*
X141433308Y-39058221D01*
X141411911Y-39044954D01*
X141406172Y-39041010D01*
X141369585Y-39013239D01*
X141351306Y-39006002D01*
X141339557Y-39000092D01*
X141327134Y-38992390D01*
X141327130Y-38992388D01*
X141322849Y-38989734D01*
X141318015Y-38988330D01*
X141318007Y-38988326D01*
X141278752Y-38976921D01*
X141272159Y-38974664D01*
X141234140Y-38959612D01*
X141234137Y-38959611D01*
X141229451Y-38957756D01*
X141224439Y-38957229D01*
X141224438Y-38957229D01*
X141214136Y-38956147D01*
X141209895Y-38955701D01*
X141196987Y-38953168D01*
X141178116Y-38947685D01*
X141172735Y-38947290D01*
X141168780Y-38946999D01*
X141168770Y-38946999D01*
X141167427Y-38946900D01*
X141130043Y-38946900D01*
X141122308Y-38946495D01*
X141111356Y-38945344D01*
X141079559Y-38942002D01*
X141074593Y-38942842D01*
X141074590Y-38942842D01*
X141056725Y-38945864D01*
X141044384Y-38946900D01*
X115716898Y-38946900D01*
X115713799Y-38946835D01*
X115655788Y-38944403D01*
X115655785Y-38944403D01*
X115650745Y-38944192D01*
X115645835Y-38945344D01*
X115645832Y-38945344D01*
X115606024Y-38954681D01*
X115599169Y-38955951D01*
X115558674Y-38961498D01*
X115558671Y-38961499D01*
X115553676Y-38962183D01*
X115549047Y-38964186D01*
X115535639Y-38969988D01*
X115523150Y-38974119D01*
X115508922Y-38977456D01*
X115508920Y-38977457D01*
X115504008Y-38978609D01*
X115486333Y-38988326D01*
X115463767Y-39000732D01*
X115457505Y-39003800D01*
X115415354Y-39022040D01*
X115411432Y-39025216D01*
X115411430Y-39025217D01*
X115400071Y-39034414D01*
X115389157Y-39041748D01*
X115375334Y-39049348D01*
X115371933Y-39051218D01*
X115363820Y-39058221D01*
X115337384Y-39084657D01*
X115331628Y-39089840D01*
X115302143Y-39113716D01*
X115302141Y-39113718D01*
X115298224Y-39116890D01*
X115284805Y-39135772D01*
X115276818Y-39145223D01*
X91695841Y-62726200D01*
X91693604Y-62728345D01*
X91650871Y-62767639D01*
X91650868Y-62767643D01*
X91647156Y-62771056D01*
X91644496Y-62775346D01*
X91622954Y-62810089D01*
X91619010Y-62815828D01*
X91591239Y-62852415D01*
X91584336Y-62869850D01*
X91584002Y-62870693D01*
X91578092Y-62882443D01*
X91570390Y-62894866D01*
X91570388Y-62894870D01*
X91567734Y-62899151D01*
X91566330Y-62903985D01*
X91566326Y-62903993D01*
X91554921Y-62943248D01*
X91552664Y-62949841D01*
X91537612Y-62987860D01*
X91535756Y-62992549D01*
X91535229Y-62997561D01*
X91535229Y-62997562D01*
X91533701Y-63012104D01*
X91531168Y-63025013D01*
X91525685Y-63043884D01*
X91524900Y-63054573D01*
X91524900Y-63091957D01*
X91524495Y-63099692D01*
X91520002Y-63142441D01*
X91520842Y-63147407D01*
X91520842Y-63147410D01*
X91523864Y-63165275D01*
X91524900Y-63177616D01*
X91524900Y-90165489D01*
X91507587Y-90213055D01*
X91503226Y-90217815D01*
X89201815Y-92519226D01*
X89155939Y-92540618D01*
X89149489Y-92540900D01*
X82554511Y-92540900D01*
X82506945Y-92523587D01*
X82502185Y-92519226D01*
X79003800Y-89020841D01*
X79001655Y-89018604D01*
X78962361Y-88975871D01*
X78962357Y-88975868D01*
X78958944Y-88972156D01*
X78941308Y-88961221D01*
X78919911Y-88947954D01*
X78914172Y-88944010D01*
X78877585Y-88916239D01*
X78859306Y-88909002D01*
X78847557Y-88903092D01*
X78835134Y-88895390D01*
X78835130Y-88895388D01*
X78830849Y-88892734D01*
X78826015Y-88891330D01*
X78826007Y-88891326D01*
X78823049Y-88890467D01*
X78821453Y-88889299D01*
X78821397Y-88889274D01*
X78821402Y-88889262D01*
X78782202Y-88860571D01*
X78770129Y-88811412D01*
X78792479Y-88765995D01*
X78811250Y-88754764D01*
X78810522Y-88753335D01*
X78835509Y-88740603D01*
X78846239Y-88736158D01*
X78867379Y-88729290D01*
X78867381Y-88729289D01*
X78872918Y-88727490D01*
X78895618Y-88710997D01*
X78905509Y-88704936D01*
X78930503Y-88692201D01*
X79025721Y-88596983D01*
X79378250Y-88244455D01*
X79378253Y-88244451D01*
X79402201Y-88220503D01*
X79404842Y-88215320D01*
X79404844Y-88215317D01*
X79414933Y-88195515D01*
X79421001Y-88185614D01*
X79434065Y-88167634D01*
X79434068Y-88167627D01*
X79437490Y-88162918D01*
X79446158Y-88136239D01*
X79450603Y-88125509D01*
X79460690Y-88105712D01*
X79463335Y-88100522D01*
X79467723Y-88072814D01*
X79470434Y-88061524D01*
X79472133Y-88056297D01*
X79479101Y-88034850D01*
X79479101Y-82766672D01*
X79470433Y-82739994D01*
X79467723Y-82728706D01*
X79464246Y-82706753D01*
X79463335Y-82701000D01*
X79450603Y-82676012D01*
X79446158Y-82665283D01*
X79439290Y-82644143D01*
X79439289Y-82644141D01*
X79437490Y-82638604D01*
X79420997Y-82615904D01*
X79414936Y-82606013D01*
X79402201Y-82581019D01*
X79310128Y-82488946D01*
X79288736Y-82443070D01*
X79289192Y-82426194D01*
X79294746Y-82387168D01*
X79294746Y-82387162D01*
X79295087Y-82384769D01*
X79295242Y-82370000D01*
X79274885Y-82201776D01*
X79214988Y-82043264D01*
X79119010Y-81903615D01*
X79020067Y-81815460D01*
X78995825Y-81793861D01*
X78995823Y-81793859D01*
X78992491Y-81790891D01*
X78842736Y-81711600D01*
X78760563Y-81690960D01*
X78682715Y-81671405D01*
X78682712Y-81671405D01*
X78678390Y-81670319D01*
X78591238Y-81669863D01*
X78513399Y-81669455D01*
X78513396Y-81669455D01*
X78508941Y-81669432D01*
X78504606Y-81670473D01*
X78504604Y-81670473D01*
X78418301Y-81691193D01*
X78344172Y-81708989D01*
X78193595Y-81786708D01*
X78065903Y-81898101D01*
X78063335Y-81901755D01*
X78063334Y-81901756D01*
X78059440Y-81907297D01*
X77968468Y-82036737D01*
X77906914Y-82194613D01*
X77884797Y-82362615D01*
X77887243Y-82384769D01*
X77898744Y-82488946D01*
X77903391Y-82531043D01*
X77904924Y-82535232D01*
X77954543Y-82670820D01*
X77961625Y-82690173D01*
X78056135Y-82830820D01*
X78181467Y-82944862D01*
X78185390Y-82946992D01*
X78326459Y-83023587D01*
X78326463Y-83023589D01*
X78330383Y-83025717D01*
X78334697Y-83026849D01*
X78334700Y-83026850D01*
X78482801Y-83065703D01*
X78494288Y-83068717D01*
X78502434Y-83068845D01*
X78556064Y-83069688D01*
X78603352Y-83087746D01*
X78627970Y-83131976D01*
X78628901Y-83143679D01*
X78628901Y-87760786D01*
X78611588Y-87808352D01*
X78607227Y-87813112D01*
X78523113Y-87897227D01*
X78477237Y-87918619D01*
X78470787Y-87918901D01*
X76880933Y-87918901D01*
X76833367Y-87901588D01*
X76808057Y-87857751D01*
X76816847Y-87807901D01*
X76828607Y-87792575D01*
X77060336Y-87560846D01*
X77106212Y-87539454D01*
X77113824Y-87539181D01*
X77231803Y-87541035D01*
X77249262Y-87541309D01*
X77253718Y-87541379D01*
X77258061Y-87540384D01*
X77258064Y-87540384D01*
X77346317Y-87520171D01*
X77418892Y-87503549D01*
X77422877Y-87501545D01*
X77422879Y-87501544D01*
X77566289Y-87429416D01*
X77566291Y-87429415D01*
X77570275Y-87427411D01*
X77573667Y-87424514D01*
X77695734Y-87320259D01*
X77699127Y-87317361D01*
X77798008Y-87179753D01*
X77827019Y-87107587D01*
X77859548Y-87026667D01*
X77861211Y-87022530D01*
X77885087Y-86854769D01*
X77885242Y-86840000D01*
X77864885Y-86671776D01*
X77804988Y-86513264D01*
X77756573Y-86442819D01*
X77711541Y-86377297D01*
X77711539Y-86377295D01*
X77709010Y-86373615D01*
X77640775Y-86312820D01*
X77585825Y-86263861D01*
X77585823Y-86263859D01*
X77582491Y-86260891D01*
X77432736Y-86181600D01*
X77350563Y-86160960D01*
X77272715Y-86141405D01*
X77272712Y-86141405D01*
X77268390Y-86140319D01*
X77220686Y-86140069D01*
X77201939Y-86139971D01*
X77154465Y-86122409D01*
X77129385Y-86078440D01*
X77133153Y-86043181D01*
X77132393Y-86042977D01*
X77133548Y-86038667D01*
X77135211Y-86034530D01*
X77159087Y-85866769D01*
X77159242Y-85852000D01*
X77152335Y-85794924D01*
X77163808Y-85745624D01*
X77173473Y-85733709D01*
X77202199Y-85704983D01*
X77214934Y-85679989D01*
X77220997Y-85670095D01*
X77234064Y-85652111D01*
X77234065Y-85652110D01*
X77237488Y-85647398D01*
X77243085Y-85630173D01*
X77246156Y-85620719D01*
X77250601Y-85609989D01*
X77260688Y-85590192D01*
X77263333Y-85585002D01*
X77267721Y-85557294D01*
X77270432Y-85546004D01*
X77277299Y-85524871D01*
X77277299Y-85524869D01*
X77279099Y-85519330D01*
X77279099Y-76786669D01*
X77270431Y-76759991D01*
X77267721Y-76748704D01*
X77265343Y-76733689D01*
X77263333Y-76720998D01*
X77250596Y-76696000D01*
X77246157Y-76685283D01*
X77242881Y-76675200D01*
X77237488Y-76658602D01*
X77234066Y-76653893D01*
X77234064Y-76653888D01*
X77220999Y-76635906D01*
X77214931Y-76626005D01*
X77204842Y-76606203D01*
X77204840Y-76606200D01*
X77202199Y-76601017D01*
X77178251Y-76577069D01*
X77178248Y-76577065D01*
X72901934Y-72300752D01*
X72877983Y-72276801D01*
X72852989Y-72264066D01*
X72843095Y-72258003D01*
X72825111Y-72244936D01*
X72825110Y-72244935D01*
X72820398Y-72241512D01*
X72814861Y-72239713D01*
X72814859Y-72239712D01*
X72793719Y-72232844D01*
X72782989Y-72228399D01*
X72758002Y-72215667D01*
X72730294Y-72211279D01*
X72719008Y-72208569D01*
X72704783Y-72203947D01*
X72697871Y-72201701D01*
X72697869Y-72201701D01*
X72692330Y-72199901D01*
X70830451Y-72199901D01*
X70782885Y-72182588D01*
X70757575Y-72138751D01*
X70766365Y-72088901D01*
X70801240Y-72057910D01*
X70930953Y-72002181D01*
X70930955Y-72002180D01*
X70933478Y-72001096D01*
X71062718Y-71921120D01*
X71158644Y-71861760D01*
X71158648Y-71861757D01*
X71160980Y-71860314D01*
X71365174Y-71687451D01*
X71541575Y-71486304D01*
X71686306Y-71261294D01*
X71796189Y-71017362D01*
X71801086Y-71000000D01*
X71868067Y-70762504D01*
X71868068Y-70762499D01*
X71868810Y-70759868D01*
X71902573Y-70494469D01*
X71905047Y-70400000D01*
X71901740Y-70355492D01*
X71885423Y-70135926D01*
X71885423Y-70135923D01*
X71885220Y-70133197D01*
X71826175Y-69872255D01*
X71729209Y-69622907D01*
X71596452Y-69390631D01*
X71430820Y-69180528D01*
X71235953Y-68997215D01*
X71016131Y-68844719D01*
X70872962Y-68774116D01*
X70778647Y-68727605D01*
X70778646Y-68727605D01*
X70776183Y-68726390D01*
X70521380Y-68644827D01*
X70257320Y-68601822D01*
X70254586Y-68601786D01*
X70254584Y-68601786D01*
X70061581Y-68599260D01*
X69989805Y-68598320D01*
X69724710Y-68634398D01*
X69722082Y-68635164D01*
X69470489Y-68708496D01*
X69470484Y-68708498D01*
X69467859Y-68709263D01*
X69465374Y-68710409D01*
X69465373Y-68710409D01*
X69428072Y-68727605D01*
X69224896Y-68821270D01*
X69222602Y-68822774D01*
X69003455Y-68966453D01*
X69003452Y-68966455D01*
X69001157Y-68967960D01*
X68999109Y-68969788D01*
X68999105Y-68969791D01*
X68803609Y-69144278D01*
X68801558Y-69146109D01*
X68630483Y-69351804D01*
X68491691Y-69580526D01*
X68388231Y-69827250D01*
X68387555Y-69829913D01*
X68387554Y-69829915D01*
X68376120Y-69874939D01*
X68322376Y-70086557D01*
X68295572Y-70352749D01*
X68295704Y-70355492D01*
X68296333Y-70368588D01*
X68306859Y-70587721D01*
X68308408Y-70619980D01*
X68308942Y-70622666D01*
X68308943Y-70622672D01*
X68344329Y-70800568D01*
X68360602Y-70882378D01*
X68451008Y-71134179D01*
X68577639Y-71369851D01*
X68737714Y-71584217D01*
X68927716Y-71772569D01*
X69143471Y-71930767D01*
X69380239Y-72055337D01*
X69382831Y-72056242D01*
X69385351Y-72057338D01*
X69384954Y-72058250D01*
X69421447Y-72088069D01*
X69430886Y-72137800D01*
X69406150Y-72181963D01*
X69357849Y-72199901D01*
X60276670Y-72199901D01*
X60271131Y-72201701D01*
X60271129Y-72201701D01*
X60264217Y-72203947D01*
X60249992Y-72208569D01*
X60238706Y-72211279D01*
X60210998Y-72215667D01*
X60186011Y-72228399D01*
X60175281Y-72232844D01*
X60154141Y-72239712D01*
X60154139Y-72239713D01*
X60148602Y-72241512D01*
X60143890Y-72244935D01*
X60143889Y-72244936D01*
X60125905Y-72258003D01*
X60116011Y-72264066D01*
X60091017Y-72276801D01*
X60064281Y-72303537D01*
X60018405Y-72324929D01*
X60011568Y-72325210D01*
X59867399Y-72324455D01*
X59867396Y-72324455D01*
X59862941Y-72324432D01*
X59858606Y-72325473D01*
X59858604Y-72325473D01*
X59772301Y-72346193D01*
X59698172Y-72363989D01*
X59547595Y-72441708D01*
X59544237Y-72444637D01*
X59544236Y-72444638D01*
X59513325Y-72471604D01*
X59419903Y-72553101D01*
X59322468Y-72691737D01*
X59260914Y-72849613D01*
X59260332Y-72854036D01*
X59241047Y-73000526D01*
X59238797Y-73017615D01*
X59257391Y-73186043D01*
X59258924Y-73190232D01*
X59272229Y-73226588D01*
X59315625Y-73345173D01*
X59410135Y-73485820D01*
X59535467Y-73599862D01*
X59539390Y-73601992D01*
X59680459Y-73678587D01*
X59680463Y-73678589D01*
X59684383Y-73680717D01*
X59688697Y-73681849D01*
X59688700Y-73681850D01*
X59800256Y-73711116D01*
X59848288Y-73723717D01*
X59933003Y-73725048D01*
X60013262Y-73726309D01*
X60017718Y-73726379D01*
X60022061Y-73725384D01*
X60022064Y-73725384D01*
X60110317Y-73705171D01*
X60182892Y-73688549D01*
X60186877Y-73686545D01*
X60186879Y-73686544D01*
X60293255Y-73633042D01*
X60343529Y-73627136D01*
X60385836Y-73654927D01*
X60397883Y-73685501D01*
X60398883Y-73685266D01*
X60399901Y-73689608D01*
X60400391Y-73694043D01*
X60401924Y-73698232D01*
X60456249Y-73846679D01*
X60458625Y-73853173D01*
X60553135Y-73993820D01*
X60678467Y-74107862D01*
X60682390Y-74109992D01*
X60823459Y-74186587D01*
X60823463Y-74186589D01*
X60827383Y-74188717D01*
X60831697Y-74189849D01*
X60831700Y-74189850D01*
X60958526Y-74223122D01*
X60991288Y-74231717D01*
X61076003Y-74233048D01*
X61156262Y-74234309D01*
X61160718Y-74234379D01*
X61165061Y-74233384D01*
X61165064Y-74233384D01*
X61253317Y-74213171D01*
X61325892Y-74196549D01*
X61329877Y-74194545D01*
X61329879Y-74194544D01*
X61473289Y-74122416D01*
X61473291Y-74122415D01*
X61477275Y-74120411D01*
X61606127Y-74010361D01*
X61705008Y-73872753D01*
X61768211Y-73715530D01*
X61781569Y-73621674D01*
X61805412Y-73577022D01*
X61854831Y-73558101D01*
X67521065Y-73558101D01*
X67568631Y-73575414D01*
X67593941Y-73619251D01*
X67585151Y-73669101D01*
X67573391Y-73684427D01*
X66012592Y-75245226D01*
X65966716Y-75266618D01*
X65960266Y-75266900D01*
X54181735Y-75266900D01*
X54134169Y-75249587D01*
X54129409Y-75245226D01*
X53621596Y-74737413D01*
X53109983Y-74225801D01*
X53088591Y-74179925D01*
X53102215Y-74130293D01*
X53193404Y-74003389D01*
X53193404Y-74003388D01*
X53196008Y-73999765D01*
X53245610Y-73876377D01*
X53257548Y-73846679D01*
X53259211Y-73842542D01*
X53283087Y-73674781D01*
X53283242Y-73660012D01*
X53262885Y-73491788D01*
X53224324Y-73389741D01*
X53204564Y-73337446D01*
X53204563Y-73337444D01*
X53202988Y-73333276D01*
X53136478Y-73236503D01*
X53109541Y-73197309D01*
X53109539Y-73197307D01*
X53107010Y-73193627D01*
X53007335Y-73104820D01*
X52983825Y-73083873D01*
X52983823Y-73083871D01*
X52980491Y-73080903D01*
X52869337Y-73022050D01*
X52834678Y-73003699D01*
X52834677Y-73003699D01*
X52830736Y-73001612D01*
X52748563Y-72980972D01*
X52670715Y-72961417D01*
X52670712Y-72961417D01*
X52666390Y-72960331D01*
X52601254Y-72959990D01*
X52552778Y-72959736D01*
X52505303Y-72942174D01*
X52480224Y-72898205D01*
X52484506Y-72858137D01*
X52495547Y-72830671D01*
X52495548Y-72830666D01*
X52497211Y-72826530D01*
X52521087Y-72658769D01*
X52521242Y-72644000D01*
X52500885Y-72475776D01*
X52462324Y-72373729D01*
X52442564Y-72321434D01*
X52442563Y-72321432D01*
X52440988Y-72317264D01*
X52400259Y-72258003D01*
X52347541Y-72181297D01*
X52347539Y-72181295D01*
X52345010Y-72177615D01*
X52265422Y-72106705D01*
X52221825Y-72067861D01*
X52221823Y-72067859D01*
X52218491Y-72064891D01*
X52068736Y-71985600D01*
X51986563Y-71964959D01*
X51908715Y-71945405D01*
X51908712Y-71945405D01*
X51904390Y-71944319D01*
X51817238Y-71943863D01*
X51739399Y-71943455D01*
X51739396Y-71943455D01*
X51734941Y-71943432D01*
X51730606Y-71944473D01*
X51730604Y-71944473D01*
X51644301Y-71965193D01*
X51570172Y-71982989D01*
X51419595Y-72060708D01*
X51416237Y-72063637D01*
X51416236Y-72063638D01*
X51324053Y-72144055D01*
X51291903Y-72172101D01*
X51289335Y-72175755D01*
X51289334Y-72175756D01*
X51264368Y-72211279D01*
X51194468Y-72310737D01*
X51132914Y-72468613D01*
X51110797Y-72636615D01*
X51129391Y-72805043D01*
X51187625Y-72964173D01*
X51212053Y-73000526D01*
X51266064Y-73080903D01*
X51282135Y-73104820D01*
X51285431Y-73107819D01*
X51366703Y-73181770D01*
X51390233Y-73226588D01*
X51390900Y-73236503D01*
X51390900Y-74616329D01*
X51392700Y-74621868D01*
X51392700Y-74621870D01*
X51399567Y-74643003D01*
X51402278Y-74654293D01*
X51406666Y-74682001D01*
X51409311Y-74687191D01*
X51419398Y-74706988D01*
X51423843Y-74717718D01*
X51425799Y-74723737D01*
X51432511Y-74744397D01*
X51435934Y-74749109D01*
X51435935Y-74749110D01*
X51449002Y-74767094D01*
X51455065Y-74776988D01*
X51467800Y-74801982D01*
X53341018Y-76675200D01*
X53366012Y-76687935D01*
X53375903Y-76693996D01*
X53398603Y-76710489D01*
X53404140Y-76712288D01*
X53404142Y-76712289D01*
X53425282Y-76719157D01*
X53436011Y-76723602D01*
X53460999Y-76736334D01*
X53488707Y-76740722D01*
X53499993Y-76743432D01*
X53510563Y-76746866D01*
X53521130Y-76750300D01*
X53521132Y-76750300D01*
X53526671Y-76752100D01*
X66488329Y-76752100D01*
X66493868Y-76750300D01*
X66493870Y-76750300D01*
X66504437Y-76746866D01*
X66515007Y-76743432D01*
X66526293Y-76740722D01*
X66554001Y-76736334D01*
X66578989Y-76723602D01*
X66589718Y-76719157D01*
X66610858Y-76712289D01*
X66610860Y-76712288D01*
X66616397Y-76710489D01*
X66639097Y-76693996D01*
X66648988Y-76687935D01*
X66673982Y-76675200D01*
X68607408Y-74741774D01*
X68653284Y-74720382D01*
X68659734Y-74720100D01*
X69629605Y-74720100D01*
X69677171Y-74737413D01*
X69702481Y-74781250D01*
X69698550Y-74820980D01*
X69674910Y-74881613D01*
X69652793Y-75049615D01*
X69653283Y-75054050D01*
X69659970Y-75114624D01*
X69647982Y-75163803D01*
X69638743Y-75175070D01*
X63882018Y-80931796D01*
X63786800Y-81027014D01*
X63774065Y-81052008D01*
X63768004Y-81061899D01*
X63751511Y-81084599D01*
X63749712Y-81090136D01*
X63749711Y-81090138D01*
X63742843Y-81111278D01*
X63738398Y-81122007D01*
X63725666Y-81146995D01*
X63724755Y-81152748D01*
X63721278Y-81174701D01*
X63718568Y-81185989D01*
X63709900Y-81212667D01*
X63709900Y-89832094D01*
X63692587Y-89879660D01*
X63684547Y-89887857D01*
X63680880Y-89891056D01*
X63619551Y-89944557D01*
X63610903Y-89952101D01*
X63608335Y-89955755D01*
X63608334Y-89955756D01*
X63595322Y-89974270D01*
X63513468Y-90090737D01*
X63451914Y-90248613D01*
X63445377Y-90298271D01*
X63433466Y-90388748D01*
X63429797Y-90416615D01*
X63430287Y-90421050D01*
X63447010Y-90572530D01*
X63448391Y-90585043D01*
X63449924Y-90589232D01*
X63494183Y-90710173D01*
X63506625Y-90744173D01*
X63552684Y-90812716D01*
X63594780Y-90875362D01*
X63601135Y-90884820D01*
X63726467Y-90998862D01*
X63730390Y-91000992D01*
X63871459Y-91077587D01*
X63871463Y-91077589D01*
X63875383Y-91079717D01*
X63879697Y-91080849D01*
X63879700Y-91080850D01*
X64026240Y-91119294D01*
X64039288Y-91122717D01*
X64124003Y-91124048D01*
X64204262Y-91125309D01*
X64208718Y-91125379D01*
X64213061Y-91124384D01*
X64213064Y-91124384D01*
X64343839Y-91094432D01*
X64373892Y-91087549D01*
X64491652Y-91028322D01*
X64541924Y-91022417D01*
X64584231Y-91050208D01*
X64598900Y-91094432D01*
X64598900Y-91737094D01*
X64581587Y-91784660D01*
X64573546Y-91792858D01*
X64538007Y-91823861D01*
X64499903Y-91857101D01*
X64497335Y-91860755D01*
X64497334Y-91860756D01*
X64493440Y-91866297D01*
X64402468Y-91995737D01*
X64392550Y-92021174D01*
X64359144Y-92059201D01*
X64309107Y-92066859D01*
X64271280Y-92046619D01*
X59246774Y-87022114D01*
X59225382Y-86976238D01*
X59225100Y-86969788D01*
X59225100Y-85901782D01*
X59242413Y-85854216D01*
X59251041Y-85845512D01*
X59315734Y-85790259D01*
X59319127Y-85787361D01*
X59418008Y-85649753D01*
X59431906Y-85615182D01*
X59479548Y-85496667D01*
X59481211Y-85492530D01*
X59505087Y-85324769D01*
X59505242Y-85310000D01*
X59484885Y-85141776D01*
X59442596Y-85029862D01*
X59426564Y-84987434D01*
X59426563Y-84987432D01*
X59424988Y-84983264D01*
X59369729Y-84902862D01*
X59331541Y-84847297D01*
X59331539Y-84847295D01*
X59329010Y-84843615D01*
X59241329Y-84765494D01*
X59205825Y-84733861D01*
X59205823Y-84733859D01*
X59202491Y-84730891D01*
X59052736Y-84651600D01*
X58970563Y-84630960D01*
X58892715Y-84611405D01*
X58892712Y-84611405D01*
X58888390Y-84610319D01*
X58801237Y-84609863D01*
X58723399Y-84609455D01*
X58723396Y-84609455D01*
X58718941Y-84609432D01*
X58714606Y-84610473D01*
X58714604Y-84610473D01*
X58673955Y-84620232D01*
X58554172Y-84648989D01*
X58403595Y-84726708D01*
X58400237Y-84729637D01*
X58400236Y-84729638D01*
X58325594Y-84794753D01*
X58275903Y-84838101D01*
X58273335Y-84841755D01*
X58273334Y-84841756D01*
X58269440Y-84847297D01*
X58178468Y-84976737D01*
X58116914Y-85134613D01*
X58116332Y-85139036D01*
X58097844Y-85279473D01*
X58094797Y-85302615D01*
X58113391Y-85471043D01*
X58114924Y-85475232D01*
X58164239Y-85609989D01*
X58171625Y-85630173D01*
X58198451Y-85670095D01*
X58258309Y-85759173D01*
X58266135Y-85770820D01*
X58269431Y-85773819D01*
X58350703Y-85847770D01*
X58374233Y-85892588D01*
X58374900Y-85902503D01*
X58374900Y-87195066D01*
X58357587Y-87242632D01*
X58313750Y-87267942D01*
X58263900Y-87259152D01*
X58248574Y-87247392D01*
X50946774Y-79945592D01*
X50925382Y-79899716D01*
X50925100Y-79893266D01*
X50925100Y-71577077D01*
X53137001Y-71577077D01*
X53137219Y-71581091D01*
X53143247Y-71636594D01*
X53145376Y-71645550D01*
X53192977Y-71772525D01*
X53197991Y-71781683D01*
X53278931Y-71889681D01*
X53286319Y-71897069D01*
X53394317Y-71978009D01*
X53403475Y-71983023D01*
X53530447Y-72030623D01*
X53539407Y-72032753D01*
X53594911Y-72038783D01*
X53598921Y-72039000D01*
X55877952Y-72039000D01*
X55887948Y-72035362D01*
X55891000Y-72030075D01*
X55891000Y-72025951D01*
X56399000Y-72025951D01*
X56402638Y-72035947D01*
X56407925Y-72038999D01*
X58691077Y-72038999D01*
X58695091Y-72038781D01*
X58750594Y-72032753D01*
X58759550Y-72030624D01*
X58886525Y-71983023D01*
X58895683Y-71978009D01*
X59003681Y-71897069D01*
X59011069Y-71889681D01*
X59092009Y-71781683D01*
X59097023Y-71772525D01*
X59144623Y-71645553D01*
X59146753Y-71636593D01*
X59152783Y-71581089D01*
X59153000Y-71577079D01*
X59153000Y-70098048D01*
X59149362Y-70088052D01*
X59144075Y-70085000D01*
X58467367Y-70085000D01*
X58457371Y-70088638D01*
X58457168Y-70088991D01*
X58449571Y-70132074D01*
X58437811Y-70147400D01*
X57697326Y-70887884D01*
X57651449Y-70909276D01*
X57602555Y-70896175D01*
X57592674Y-70887884D01*
X56904226Y-70199437D01*
X56894587Y-70194942D01*
X56888688Y-70196523D01*
X56504210Y-70581000D01*
X56408226Y-70676984D01*
X56399000Y-70696770D01*
X56399000Y-72025951D01*
X55891000Y-72025951D01*
X55891000Y-70699258D01*
X55883533Y-70678743D01*
X55785790Y-70581000D01*
X55404226Y-70199437D01*
X55394587Y-70194942D01*
X55388688Y-70196523D01*
X54697326Y-70887884D01*
X54651449Y-70909276D01*
X54602555Y-70896175D01*
X54592674Y-70887884D01*
X53854367Y-70149578D01*
X53832975Y-70103702D01*
X53834204Y-70096733D01*
X53831841Y-70087913D01*
X54513256Y-70087913D01*
X54513713Y-70090502D01*
X54635774Y-70212564D01*
X54645413Y-70217058D01*
X54651312Y-70215478D01*
X54772563Y-70094226D01*
X54775507Y-70087913D01*
X57513256Y-70087913D01*
X57513713Y-70090502D01*
X57635774Y-70212564D01*
X57645413Y-70217058D01*
X57651312Y-70215478D01*
X57772563Y-70094226D01*
X57776162Y-70086508D01*
X57774009Y-70085000D01*
X57521259Y-70085000D01*
X57513256Y-70087913D01*
X54775507Y-70087913D01*
X54776162Y-70086508D01*
X54774009Y-70085000D01*
X54521259Y-70085000D01*
X54513256Y-70087913D01*
X53831841Y-70087913D01*
X53831790Y-70087723D01*
X53827901Y-70085000D01*
X53150049Y-70085000D01*
X53140053Y-70088638D01*
X53137001Y-70093925D01*
X53137001Y-71577077D01*
X50925100Y-71577077D01*
X50925100Y-69563952D01*
X53137000Y-69563952D01*
X53140638Y-69573948D01*
X53145925Y-69577000D01*
X53822633Y-69577000D01*
X53826776Y-69575492D01*
X54513838Y-69575492D01*
X54515991Y-69577000D01*
X54768741Y-69577000D01*
X54772884Y-69575492D01*
X57513838Y-69575492D01*
X57515991Y-69577000D01*
X57768741Y-69577000D01*
X57776744Y-69574087D01*
X57776287Y-69571498D01*
X57654226Y-69449436D01*
X57644587Y-69444942D01*
X57638688Y-69446522D01*
X57517437Y-69567774D01*
X57513838Y-69575492D01*
X54772884Y-69575492D01*
X54776744Y-69574087D01*
X54776287Y-69571498D01*
X54654226Y-69449436D01*
X54644587Y-69444942D01*
X54638688Y-69446522D01*
X54517437Y-69567774D01*
X54513838Y-69575492D01*
X53826776Y-69575492D01*
X53832629Y-69573362D01*
X53832832Y-69573009D01*
X53840429Y-69529926D01*
X53852189Y-69514600D01*
X54592674Y-68774116D01*
X54638551Y-68752724D01*
X54687445Y-68765825D01*
X54697326Y-68774116D01*
X55385774Y-69462563D01*
X55395413Y-69467058D01*
X55401312Y-69465477D01*
X55881774Y-68985016D01*
X55891000Y-68965230D01*
X55891000Y-68962742D01*
X56399000Y-68962742D01*
X56406467Y-68983257D01*
X56885774Y-69462563D01*
X56895413Y-69467058D01*
X56901312Y-69465477D01*
X57592674Y-68774116D01*
X57638551Y-68752724D01*
X57687445Y-68765825D01*
X57697326Y-68774116D01*
X58435633Y-69512422D01*
X58457025Y-69558298D01*
X58455796Y-69565267D01*
X58458210Y-69574277D01*
X58462099Y-69577000D01*
X59139951Y-69577000D01*
X59149947Y-69573362D01*
X59152999Y-69568075D01*
X59152999Y-68084923D01*
X59152781Y-68080909D01*
X59146753Y-68025406D01*
X59144624Y-68016450D01*
X59097023Y-67889475D01*
X59092009Y-67880317D01*
X59011069Y-67772319D01*
X59003681Y-67764931D01*
X58895683Y-67683991D01*
X58886525Y-67678977D01*
X58759553Y-67631377D01*
X58750593Y-67629247D01*
X58695089Y-67623217D01*
X58691079Y-67623000D01*
X56412048Y-67623000D01*
X56402052Y-67626638D01*
X56399000Y-67631925D01*
X56399000Y-68962742D01*
X55891000Y-68962742D01*
X55891000Y-67636049D01*
X55887362Y-67626053D01*
X55882075Y-67623001D01*
X53598923Y-67623001D01*
X53594909Y-67623219D01*
X53539406Y-67629247D01*
X53530450Y-67631376D01*
X53403475Y-67678977D01*
X53394317Y-67683991D01*
X53286319Y-67764931D01*
X53278931Y-67772319D01*
X53197991Y-67880317D01*
X53192977Y-67889475D01*
X53145377Y-68016447D01*
X53143247Y-68025407D01*
X53137217Y-68080911D01*
X53137000Y-68084921D01*
X53137000Y-69563952D01*
X50925100Y-69563952D01*
X50925100Y-65524615D01*
X56063797Y-65524615D01*
X56071258Y-65592198D01*
X56081474Y-65684735D01*
X56082391Y-65693043D01*
X56140625Y-65852173D01*
X56143113Y-65855875D01*
X56221665Y-65972774D01*
X56235135Y-65992820D01*
X56360467Y-66106862D01*
X56364390Y-66108992D01*
X56505459Y-66185587D01*
X56505463Y-66185589D01*
X56509383Y-66187717D01*
X56513697Y-66188849D01*
X56513700Y-66188850D01*
X56661801Y-66227703D01*
X56673288Y-66230717D01*
X56758003Y-66232048D01*
X56838262Y-66233309D01*
X56842718Y-66233379D01*
X56847061Y-66232384D01*
X56847064Y-66232384D01*
X56935317Y-66212171D01*
X57007892Y-66195549D01*
X57011877Y-66193545D01*
X57011879Y-66193544D01*
X57155289Y-66121416D01*
X57155291Y-66121415D01*
X57159275Y-66119411D01*
X57207418Y-66078293D01*
X57254831Y-66060566D01*
X57302547Y-66077463D01*
X57324970Y-66109132D01*
X57347125Y-66169673D01*
X57441635Y-66310320D01*
X57566967Y-66424362D01*
X57570890Y-66426492D01*
X57711959Y-66503087D01*
X57711963Y-66503089D01*
X57715883Y-66505217D01*
X57720197Y-66506349D01*
X57720200Y-66506350D01*
X57868301Y-66545203D01*
X57879788Y-66548217D01*
X57964503Y-66549548D01*
X58044762Y-66550809D01*
X58049218Y-66550879D01*
X58053561Y-66549884D01*
X58053564Y-66549884D01*
X58141817Y-66529671D01*
X58214392Y-66513049D01*
X58218377Y-66511045D01*
X58218379Y-66511044D01*
X58361789Y-66438916D01*
X58361791Y-66438915D01*
X58365775Y-66436911D01*
X58494627Y-66326861D01*
X58593508Y-66189253D01*
X58638114Y-66078293D01*
X58655048Y-66036167D01*
X58656711Y-66032030D01*
X58659181Y-66014674D01*
X58683023Y-65970022D01*
X58732443Y-65951100D01*
X71773936Y-65951100D01*
X71821502Y-65968413D01*
X71826262Y-65972774D01*
X83760226Y-77906738D01*
X83781618Y-77952614D01*
X83781900Y-77959064D01*
X83781900Y-88691901D01*
X83764587Y-88739467D01*
X83720750Y-88764777D01*
X83707900Y-88765901D01*
X83687414Y-88765901D01*
X83685247Y-88766159D01*
X83685242Y-88766159D01*
X83666762Y-88768357D01*
X83666761Y-88768357D01*
X83661248Y-88769013D01*
X83559077Y-88814396D01*
X83554251Y-88819230D01*
X83554250Y-88819231D01*
X83484919Y-88888683D01*
X83484918Y-88888685D01*
X83480094Y-88893517D01*
X83477333Y-88899763D01*
X83477332Y-88899764D01*
X83470869Y-88914383D01*
X83434890Y-88995766D01*
X83434246Y-89001294D01*
X83434245Y-89001296D01*
X83432227Y-89018604D01*
X83431900Y-89021413D01*
X83431901Y-90810586D01*
X83432159Y-90812753D01*
X83432159Y-90812758D01*
X83434357Y-90831238D01*
X83435013Y-90836752D01*
X83480396Y-90938923D01*
X83485230Y-90943749D01*
X83485231Y-90943750D01*
X83554683Y-91013081D01*
X83554685Y-91013082D01*
X83559517Y-91017906D01*
X83565763Y-91020667D01*
X83565764Y-91020668D01*
X83583077Y-91028322D01*
X83661766Y-91063110D01*
X83667294Y-91063754D01*
X83667296Y-91063755D01*
X83685284Y-91065852D01*
X83685288Y-91065852D01*
X83687413Y-91066100D01*
X84572905Y-91066100D01*
X85476586Y-91066099D01*
X85478753Y-91065841D01*
X85478758Y-91065841D01*
X85497238Y-91063643D01*
X85497239Y-91063643D01*
X85502752Y-91062987D01*
X85604923Y-91017604D01*
X85609750Y-91012769D01*
X85679081Y-90943317D01*
X85679082Y-90943315D01*
X85683906Y-90938483D01*
X85688023Y-90929172D01*
X85717239Y-90863085D01*
X85729110Y-90836234D01*
X85732100Y-90810587D01*
X85732099Y-89021414D01*
X85731541Y-89016716D01*
X85729643Y-89000762D01*
X85729643Y-89000761D01*
X85728987Y-88995248D01*
X85683604Y-88893077D01*
X85672117Y-88881610D01*
X85609317Y-88818919D01*
X85609315Y-88818918D01*
X85604483Y-88814094D01*
X85502234Y-88768890D01*
X85496706Y-88768246D01*
X85496704Y-88768245D01*
X85478716Y-88766148D01*
X85478712Y-88766148D01*
X85476587Y-88765900D01*
X85456100Y-88765900D01*
X85408534Y-88748587D01*
X85383224Y-88704750D01*
X85382100Y-88691900D01*
X85382100Y-77605915D01*
X85382104Y-77605140D01*
X85382999Y-77519766D01*
X85382999Y-77519763D01*
X85383042Y-77515633D01*
X85375028Y-77478570D01*
X85373431Y-77471182D01*
X85372221Y-77463792D01*
X85368859Y-77433823D01*
X85367154Y-77418617D01*
X85355221Y-77384350D01*
X85352776Y-77375652D01*
X85345982Y-77344229D01*
X85345108Y-77340186D01*
X85343362Y-77336441D01*
X85343358Y-77336430D01*
X85325891Y-77298974D01*
X85323073Y-77292035D01*
X85322928Y-77291617D01*
X85318861Y-77279939D01*
X85309483Y-77253008D01*
X85309481Y-77253005D01*
X85308122Y-77249101D01*
X85288892Y-77218327D01*
X85284586Y-77210395D01*
X85270997Y-77181253D01*
X85270996Y-77181251D01*
X85269248Y-77177503D01*
X85241384Y-77141581D01*
X85237099Y-77135440D01*
X85215194Y-77100384D01*
X85215192Y-77100382D01*
X85213001Y-77096875D01*
X85184838Y-77068515D01*
X85184079Y-77067704D01*
X85183607Y-77067095D01*
X85157897Y-77041385D01*
X85086518Y-76969506D01*
X85085541Y-76968886D01*
X85084154Y-76967642D01*
X72708062Y-64591550D01*
X72707517Y-64590999D01*
X72647782Y-64529999D01*
X72647781Y-64529998D01*
X72644887Y-64527043D01*
X72606659Y-64502406D01*
X72600590Y-64498045D01*
X72565052Y-64469676D01*
X72532384Y-64453883D01*
X72524508Y-64449464D01*
X72519431Y-64446192D01*
X72494004Y-64429806D01*
X72465483Y-64419425D01*
X72451282Y-64414256D01*
X72444386Y-64411343D01*
X72407170Y-64393353D01*
X72407168Y-64393352D01*
X72403444Y-64391552D01*
X72368086Y-64383389D01*
X72359433Y-64380826D01*
X72325328Y-64368413D01*
X72321224Y-64367895D01*
X72321222Y-64367894D01*
X72295438Y-64364637D01*
X72280214Y-64362713D01*
X72272846Y-64361401D01*
X72228543Y-64351173D01*
X72188561Y-64351034D01*
X72187471Y-64350998D01*
X72186701Y-64350900D01*
X72150263Y-64350900D01*
X72049043Y-64350547D01*
X72047914Y-64350799D01*
X72046054Y-64350900D01*
X58879265Y-64350900D01*
X58831699Y-64333587D01*
X58806389Y-64289750D01*
X58815179Y-64239900D01*
X58826939Y-64224574D01*
X58856739Y-64194774D01*
X58902615Y-64173382D01*
X58909065Y-64173100D01*
X72662936Y-64173100D01*
X72710502Y-64190413D01*
X72715262Y-64194774D01*
X86300226Y-77779738D01*
X86321618Y-77825614D01*
X86321900Y-77832064D01*
X86321900Y-89054317D01*
X86304587Y-89101883D01*
X86296692Y-89109953D01*
X86284173Y-89120932D01*
X86153313Y-89286927D01*
X86054894Y-89473990D01*
X86053888Y-89477229D01*
X86053887Y-89477232D01*
X86004729Y-89635549D01*
X85992213Y-89675856D01*
X85985081Y-89736115D01*
X85968092Y-89879660D01*
X85967369Y-89885765D01*
X85967591Y-89889152D01*
X85976692Y-90028004D01*
X85981193Y-90096686D01*
X86033224Y-90301556D01*
X86034640Y-90304628D01*
X86034642Y-90304633D01*
X86114556Y-90477980D01*
X86121717Y-90493513D01*
X86132549Y-90508840D01*
X86241752Y-90663359D01*
X86241756Y-90663363D01*
X86243711Y-90666130D01*
X86309397Y-90730119D01*
X86389801Y-90808445D01*
X86395118Y-90813625D01*
X86420679Y-90830704D01*
X86568047Y-90929172D01*
X86568052Y-90929175D01*
X86570869Y-90931057D01*
X86573989Y-90932398D01*
X86573990Y-90932398D01*
X86611536Y-90948529D01*
X86765077Y-91014496D01*
X86893640Y-91043587D01*
X86928805Y-91051544D01*
X86971239Y-91061146D01*
X87071310Y-91065078D01*
X87179054Y-91069311D01*
X87179058Y-91069311D01*
X87182449Y-91069444D01*
X87360786Y-91043587D01*
X87388278Y-91039601D01*
X87388279Y-91039601D01*
X87391636Y-91039114D01*
X87591792Y-90971170D01*
X87594744Y-90969517D01*
X87594748Y-90969515D01*
X87740625Y-90887819D01*
X87776214Y-90867888D01*
X87778819Y-90865721D01*
X87778824Y-90865718D01*
X87936119Y-90734896D01*
X87938727Y-90732727D01*
X87992147Y-90668497D01*
X88071718Y-90572824D01*
X88071721Y-90572819D01*
X88073888Y-90570214D01*
X88143608Y-90445721D01*
X88175515Y-90388748D01*
X88175517Y-90388744D01*
X88177170Y-90385792D01*
X88245114Y-90185636D01*
X88258502Y-90093299D01*
X88275131Y-89978611D01*
X88275132Y-89978603D01*
X88275444Y-89976449D01*
X88277027Y-89916000D01*
X88275655Y-89901071D01*
X88257997Y-89708892D01*
X88257996Y-89708887D01*
X88257686Y-89705513D01*
X88254231Y-89693260D01*
X88217634Y-89563498D01*
X88200311Y-89502075D01*
X88198811Y-89499033D01*
X88108321Y-89315539D01*
X88108319Y-89315536D01*
X88106822Y-89312500D01*
X88104799Y-89309791D01*
X88104796Y-89309786D01*
X87982384Y-89145857D01*
X87982383Y-89145856D01*
X87980352Y-89143136D01*
X87945869Y-89111260D01*
X87922692Y-89066258D01*
X87922100Y-89056920D01*
X87922100Y-88511615D01*
X89210797Y-88511615D01*
X89229391Y-88680043D01*
X89230924Y-88684232D01*
X89283460Y-88827791D01*
X89287625Y-88839173D01*
X89333968Y-88908140D01*
X89375198Y-88969496D01*
X89382135Y-88979820D01*
X89507467Y-89093862D01*
X89511390Y-89095992D01*
X89652459Y-89172587D01*
X89652463Y-89172589D01*
X89656383Y-89174717D01*
X89660697Y-89175849D01*
X89660700Y-89175850D01*
X89799102Y-89212159D01*
X89820288Y-89217717D01*
X89905003Y-89219048D01*
X89985262Y-89220309D01*
X89989718Y-89220379D01*
X89994061Y-89219384D01*
X89994064Y-89219384D01*
X90082317Y-89199171D01*
X90154892Y-89182549D01*
X90158877Y-89180545D01*
X90158879Y-89180544D01*
X90302289Y-89108416D01*
X90302291Y-89108415D01*
X90306275Y-89106411D01*
X90324484Y-89090859D01*
X90431734Y-88999259D01*
X90435127Y-88996361D01*
X90494034Y-88914383D01*
X90531404Y-88862377D01*
X90531404Y-88862376D01*
X90534008Y-88858753D01*
X90547797Y-88824453D01*
X90595548Y-88705667D01*
X90597211Y-88701530D01*
X90621087Y-88533769D01*
X90621242Y-88519000D01*
X90600885Y-88350776D01*
X90540988Y-88192264D01*
X90458894Y-88072816D01*
X90447541Y-88056297D01*
X90447539Y-88056295D01*
X90445010Y-88052615D01*
X90441678Y-88049646D01*
X90441675Y-88049643D01*
X90365873Y-87982107D01*
X90341875Y-87937539D01*
X90341100Y-87926856D01*
X90341100Y-58880734D01*
X90358413Y-58833168D01*
X90362774Y-58828408D01*
X91191372Y-57999810D01*
X91237248Y-57978418D01*
X91244853Y-57978145D01*
X91254798Y-57978302D01*
X91255263Y-57978309D01*
X91259718Y-57978379D01*
X91264061Y-57977384D01*
X91264064Y-57977384D01*
X91352317Y-57957171D01*
X91424892Y-57940549D01*
X91428877Y-57938545D01*
X91428879Y-57938544D01*
X91572289Y-57866416D01*
X91572291Y-57866415D01*
X91576275Y-57864411D01*
X91705127Y-57754361D01*
X91783835Y-57644827D01*
X91801404Y-57620377D01*
X91801404Y-57620376D01*
X91804008Y-57616753D01*
X91867211Y-57459530D01*
X91891087Y-57291769D01*
X91891242Y-57277000D01*
X91870885Y-57108776D01*
X91810988Y-56950264D01*
X91715010Y-56810615D01*
X91669492Y-56770060D01*
X91591825Y-56700861D01*
X91591823Y-56700859D01*
X91588491Y-56697891D01*
X91438736Y-56618600D01*
X91356563Y-56597959D01*
X91278715Y-56578405D01*
X91278712Y-56578405D01*
X91274390Y-56577319D01*
X91187238Y-56576863D01*
X91109399Y-56576455D01*
X91109396Y-56576455D01*
X91104941Y-56576432D01*
X91100606Y-56577473D01*
X91100604Y-56577473D01*
X91064466Y-56586149D01*
X90940172Y-56615989D01*
X90789595Y-56693708D01*
X90786237Y-56696637D01*
X90786236Y-56696638D01*
X90697337Y-56774190D01*
X90661903Y-56805101D01*
X90659335Y-56808755D01*
X90659334Y-56808756D01*
X90655440Y-56814297D01*
X90564468Y-56943737D01*
X90502914Y-57101613D01*
X90480797Y-57269615D01*
X90499391Y-57438043D01*
X90500093Y-57439962D01*
X90494200Y-57489381D01*
X90480475Y-57508342D01*
X89663018Y-58325800D01*
X89567800Y-58421018D01*
X89555065Y-58446012D01*
X89549004Y-58455903D01*
X89532511Y-58478603D01*
X89530712Y-58484140D01*
X89530711Y-58484142D01*
X89523843Y-58505282D01*
X89519398Y-58516011D01*
X89506666Y-58540999D01*
X89505755Y-58546752D01*
X89502278Y-58568705D01*
X89499567Y-58579997D01*
X89493602Y-58598356D01*
X89490900Y-58606671D01*
X89490900Y-87927094D01*
X89473587Y-87974660D01*
X89465546Y-87982858D01*
X89399595Y-88040391D01*
X89391903Y-88047101D01*
X89389335Y-88050755D01*
X89389334Y-88050756D01*
X89385440Y-88056297D01*
X89294468Y-88185737D01*
X89232914Y-88343613D01*
X89232332Y-88348036D01*
X89218028Y-88456691D01*
X89210797Y-88511615D01*
X87922100Y-88511615D01*
X87922100Y-77478963D01*
X87922104Y-77478188D01*
X87922999Y-77392768D01*
X87922999Y-77392765D01*
X87923042Y-77388634D01*
X87921193Y-77380078D01*
X87913431Y-77344182D01*
X87912221Y-77336792D01*
X87907615Y-77295726D01*
X87907615Y-77295725D01*
X87907154Y-77291617D01*
X87895224Y-77257358D01*
X87892779Y-77248661D01*
X87885983Y-77217227D01*
X87885982Y-77217224D01*
X87885109Y-77213186D01*
X87883362Y-77209439D01*
X87883360Y-77209434D01*
X87865889Y-77171969D01*
X87863071Y-77165029D01*
X87849483Y-77126007D01*
X87849480Y-77126001D01*
X87848122Y-77122101D01*
X87828895Y-77091330D01*
X87824585Y-77083393D01*
X87810997Y-77054253D01*
X87810996Y-77054251D01*
X87809248Y-77050503D01*
X87781384Y-77014581D01*
X87777099Y-77008440D01*
X87755194Y-76973384D01*
X87755192Y-76973382D01*
X87753001Y-76969875D01*
X87724838Y-76941515D01*
X87724079Y-76940704D01*
X87723607Y-76940095D01*
X87697897Y-76914385D01*
X87626518Y-76842506D01*
X87625541Y-76841886D01*
X87624154Y-76840642D01*
X73597062Y-62813550D01*
X73596517Y-62812999D01*
X73536782Y-62751999D01*
X73536781Y-62751998D01*
X73533887Y-62749043D01*
X73495659Y-62724406D01*
X73489590Y-62720045D01*
X73454052Y-62691676D01*
X73421384Y-62675883D01*
X73413508Y-62671464D01*
X73408431Y-62668192D01*
X73383004Y-62651806D01*
X73361487Y-62643975D01*
X73340282Y-62636256D01*
X73333386Y-62633343D01*
X73296170Y-62615353D01*
X73296168Y-62615352D01*
X73292444Y-62613552D01*
X73257086Y-62605389D01*
X73248433Y-62602826D01*
X73214328Y-62590413D01*
X73210224Y-62589895D01*
X73210222Y-62589894D01*
X73184438Y-62586637D01*
X73169214Y-62584713D01*
X73161846Y-62583401D01*
X73159152Y-62582779D01*
X73117543Y-62573173D01*
X73077561Y-62573034D01*
X73076471Y-62572998D01*
X73075701Y-62572900D01*
X73039263Y-62572900D01*
X72938043Y-62572547D01*
X72936914Y-62572799D01*
X72935054Y-62572900D01*
X58555915Y-62572900D01*
X58555140Y-62572896D01*
X58469766Y-62572001D01*
X58469763Y-62572001D01*
X58465633Y-62571958D01*
X58461597Y-62572831D01*
X58461594Y-62572831D01*
X58421182Y-62581569D01*
X58413792Y-62582779D01*
X58400905Y-62584225D01*
X58368617Y-62587846D01*
X58334351Y-62599779D01*
X58325652Y-62602224D01*
X58294232Y-62609017D01*
X58294230Y-62609018D01*
X58290186Y-62609892D01*
X58248967Y-62629112D01*
X58242042Y-62631924D01*
X58203005Y-62645518D01*
X58203002Y-62645520D01*
X58199101Y-62646878D01*
X58195597Y-62649067D01*
X58195596Y-62649068D01*
X58168334Y-62666104D01*
X58160391Y-62670416D01*
X58131252Y-62684003D01*
X58131249Y-62684005D01*
X58127502Y-62685752D01*
X58119865Y-62691676D01*
X58091563Y-62713629D01*
X58085424Y-62717911D01*
X58046875Y-62741999D01*
X58043941Y-62744913D01*
X58043938Y-62744915D01*
X58018515Y-62770162D01*
X58017704Y-62770921D01*
X58017095Y-62771393D01*
X57991424Y-62797064D01*
X57991241Y-62797246D01*
X57930964Y-62857104D01*
X57919506Y-62868482D01*
X57918886Y-62869459D01*
X57917642Y-62870846D01*
X56806327Y-63982161D01*
X56722676Y-64086948D01*
X56644552Y-64248556D01*
X56643621Y-64252587D01*
X56643620Y-64252591D01*
X56621003Y-64350559D01*
X56604173Y-64423457D01*
X56604074Y-64451913D01*
X56603587Y-64591550D01*
X56603547Y-64602957D01*
X56604449Y-64606991D01*
X56604449Y-64606994D01*
X56640422Y-64767933D01*
X56633902Y-64818130D01*
X56596641Y-64852393D01*
X56585479Y-64856030D01*
X56556071Y-64863091D01*
X56523172Y-64870989D01*
X56372595Y-64948708D01*
X56369237Y-64951637D01*
X56369236Y-64951638D01*
X56283994Y-65026000D01*
X56244903Y-65060101D01*
X56242335Y-65063755D01*
X56242334Y-65063756D01*
X56205200Y-65116592D01*
X56147468Y-65198737D01*
X56085914Y-65356613D01*
X56063797Y-65524615D01*
X50925100Y-65524615D01*
X50925100Y-60352749D01*
X68295572Y-60352749D01*
X68295704Y-60355492D01*
X68296333Y-60368588D01*
X68306859Y-60587721D01*
X68308408Y-60619980D01*
X68308942Y-60622666D01*
X68308943Y-60622672D01*
X68338376Y-60770639D01*
X68360602Y-60882378D01*
X68451008Y-61134179D01*
X68452305Y-61136593D01*
X68452306Y-61136595D01*
X68458504Y-61148130D01*
X68577639Y-61369851D01*
X68737714Y-61584217D01*
X68927716Y-61772569D01*
X69143471Y-61930767D01*
X69380239Y-62055337D01*
X69382828Y-62056241D01*
X69382830Y-62056242D01*
X69630226Y-62142637D01*
X69630232Y-62142639D01*
X69632819Y-62143542D01*
X69635521Y-62144055D01*
X69892964Y-62192932D01*
X69892969Y-62192933D01*
X69895663Y-62193444D01*
X69898403Y-62193552D01*
X69898406Y-62193552D01*
X70055964Y-62199742D01*
X70162995Y-62203947D01*
X70165724Y-62203648D01*
X70165728Y-62203648D01*
X70426208Y-62175121D01*
X70426213Y-62175120D01*
X70428944Y-62174821D01*
X70687666Y-62106705D01*
X70933478Y-62001096D01*
X71062718Y-61921120D01*
X71158644Y-61861760D01*
X71158648Y-61861757D01*
X71160980Y-61860314D01*
X71365174Y-61687451D01*
X71541575Y-61486304D01*
X71640457Y-61332575D01*
X71684820Y-61263605D01*
X71684823Y-61263600D01*
X71686306Y-61261294D01*
X71690149Y-61252764D01*
X71734258Y-61154845D01*
X71796189Y-61017362D01*
X71796933Y-61014725D01*
X71868067Y-60762504D01*
X71868068Y-60762499D01*
X71868810Y-60759868D01*
X71893366Y-60566844D01*
X71902338Y-60496318D01*
X71902338Y-60496314D01*
X71902573Y-60494469D01*
X71902848Y-60483998D01*
X71904998Y-60401854D01*
X71905047Y-60400000D01*
X71902971Y-60372054D01*
X71885423Y-60135926D01*
X71885423Y-60135923D01*
X71885220Y-60133197D01*
X71826175Y-59872255D01*
X71823767Y-59866061D01*
X71730202Y-59625461D01*
X71729209Y-59622907D01*
X71596452Y-59390631D01*
X71430820Y-59180528D01*
X71235953Y-58997215D01*
X71016131Y-58844719D01*
X70776183Y-58726390D01*
X70521380Y-58644827D01*
X70257320Y-58601822D01*
X70254586Y-58601786D01*
X70254584Y-58601786D01*
X70061581Y-58599260D01*
X69989805Y-58598320D01*
X69724710Y-58634398D01*
X69722082Y-58635164D01*
X69470489Y-58708496D01*
X69470484Y-58708498D01*
X69467859Y-58709263D01*
X69465374Y-58710409D01*
X69465373Y-58710409D01*
X69428072Y-58727605D01*
X69224896Y-58821270D01*
X69222602Y-58822774D01*
X69003455Y-58966453D01*
X69003452Y-58966455D01*
X69001157Y-58967960D01*
X68999109Y-58969788D01*
X68999105Y-58969791D01*
X68812967Y-59135926D01*
X68801558Y-59146109D01*
X68630483Y-59351804D01*
X68491691Y-59580526D01*
X68490630Y-59583055D01*
X68490630Y-59583056D01*
X68416487Y-59759868D01*
X68388231Y-59827250D01*
X68387555Y-59829913D01*
X68387554Y-59829915D01*
X68323716Y-60081282D01*
X68322376Y-60086557D01*
X68295572Y-60352749D01*
X50925100Y-60352749D01*
X50925100Y-60182671D01*
X50916432Y-60155993D01*
X50913722Y-60144705D01*
X50910245Y-60122752D01*
X50909334Y-60116999D01*
X50896602Y-60092011D01*
X50892157Y-60081282D01*
X50885289Y-60060142D01*
X50885288Y-60060140D01*
X50883489Y-60054603D01*
X50866996Y-60031903D01*
X50860935Y-60022012D01*
X50848200Y-59997018D01*
X46203931Y-55352749D01*
X47295572Y-55352749D01*
X47295704Y-55355492D01*
X47296333Y-55368588D01*
X47306859Y-55587721D01*
X47308408Y-55619980D01*
X47308942Y-55622666D01*
X47308943Y-55622672D01*
X47344329Y-55800568D01*
X47360602Y-55882378D01*
X47451008Y-56134179D01*
X47577639Y-56369851D01*
X47737714Y-56584217D01*
X47823019Y-56668782D01*
X47850278Y-56695803D01*
X47927716Y-56772569D01*
X48143471Y-56930767D01*
X48380239Y-57055337D01*
X48382828Y-57056241D01*
X48382830Y-57056242D01*
X48630226Y-57142637D01*
X48630232Y-57142639D01*
X48632819Y-57143542D01*
X48635521Y-57144055D01*
X48892964Y-57192932D01*
X48892969Y-57192933D01*
X48895663Y-57193444D01*
X48898403Y-57193552D01*
X48898406Y-57193552D01*
X49055964Y-57199742D01*
X49162995Y-57203947D01*
X49165724Y-57203648D01*
X49165728Y-57203648D01*
X49426208Y-57175121D01*
X49426213Y-57175120D01*
X49428944Y-57174821D01*
X49687666Y-57106705D01*
X49933478Y-57001096D01*
X50062718Y-56921120D01*
X50158644Y-56861760D01*
X50158648Y-56861757D01*
X50160980Y-56860314D01*
X50266908Y-56770639D01*
X50363075Y-56689228D01*
X50365174Y-56687451D01*
X50541575Y-56486304D01*
X50686306Y-56261294D01*
X50796189Y-56017362D01*
X50801086Y-56000000D01*
X50868067Y-55762504D01*
X50868068Y-55762499D01*
X50868810Y-55759868D01*
X50902573Y-55494469D01*
X50905047Y-55400000D01*
X50901740Y-55355492D01*
X50885423Y-55135926D01*
X50885423Y-55135923D01*
X50885220Y-55133197D01*
X50826175Y-54872255D01*
X50729209Y-54622907D01*
X50596452Y-54390631D01*
X50430820Y-54180528D01*
X50235953Y-53997215D01*
X50016131Y-53844719D01*
X49776183Y-53726390D01*
X49521380Y-53644827D01*
X49257320Y-53601822D01*
X49254586Y-53601786D01*
X49254584Y-53601786D01*
X49061581Y-53599260D01*
X48989805Y-53598320D01*
X48724710Y-53634398D01*
X48722082Y-53635164D01*
X48470489Y-53708496D01*
X48470484Y-53708498D01*
X48467859Y-53709263D01*
X48465374Y-53710409D01*
X48465373Y-53710409D01*
X48428072Y-53727605D01*
X48224896Y-53821270D01*
X48222602Y-53822774D01*
X48003455Y-53966453D01*
X48003452Y-53966455D01*
X48001157Y-53967960D01*
X47999109Y-53969788D01*
X47999105Y-53969791D01*
X47803609Y-54144278D01*
X47801558Y-54146109D01*
X47630483Y-54351804D01*
X47491691Y-54580526D01*
X47388231Y-54827250D01*
X47387555Y-54829913D01*
X47387554Y-54829915D01*
X47376120Y-54874939D01*
X47322376Y-55086557D01*
X47295572Y-55352749D01*
X46203931Y-55352749D01*
X34946774Y-44095592D01*
X34925382Y-44049716D01*
X34925100Y-44043266D01*
X34925100Y-38400000D01*
X82545128Y-38400000D01*
X82564602Y-38771585D01*
X82622810Y-39139099D01*
X82719116Y-39498516D01*
X82852463Y-39845897D01*
X83021391Y-40177436D01*
X83022443Y-40179055D01*
X83022443Y-40179056D01*
X83222239Y-40486715D01*
X83224048Y-40489501D01*
X83225259Y-40490996D01*
X83225263Y-40491002D01*
X83294617Y-40576647D01*
X83458215Y-40778674D01*
X83721326Y-41041785D01*
X83738806Y-41055940D01*
X84008998Y-41274737D01*
X84009004Y-41274741D01*
X84010499Y-41275952D01*
X84012116Y-41277002D01*
X84012120Y-41277005D01*
X84137267Y-41358276D01*
X84322564Y-41478609D01*
X84654103Y-41647537D01*
X85001484Y-41780884D01*
X85003355Y-41781385D01*
X85003357Y-41781386D01*
X85359023Y-41876687D01*
X85359027Y-41876688D01*
X85360901Y-41877190D01*
X85728415Y-41935398D01*
X85730338Y-41935499D01*
X85730340Y-41935499D01*
X86098073Y-41954771D01*
X86100000Y-41954872D01*
X86101927Y-41954771D01*
X86469660Y-41935499D01*
X86469662Y-41935499D01*
X86471585Y-41935398D01*
X86839099Y-41877190D01*
X86840973Y-41876688D01*
X86840977Y-41876687D01*
X87196643Y-41781386D01*
X87196645Y-41781385D01*
X87198516Y-41780884D01*
X87545897Y-41647537D01*
X87877436Y-41478609D01*
X88062733Y-41358276D01*
X88187880Y-41277005D01*
X88187884Y-41277002D01*
X88189501Y-41275952D01*
X88190996Y-41274741D01*
X88191002Y-41274737D01*
X88461194Y-41055940D01*
X88478674Y-41041785D01*
X88741785Y-40778674D01*
X88905383Y-40576647D01*
X88974737Y-40491002D01*
X88974741Y-40490996D01*
X88975952Y-40489501D01*
X88977762Y-40486715D01*
X89177557Y-40179056D01*
X89177557Y-40179055D01*
X89178609Y-40177436D01*
X89347537Y-39845897D01*
X89480884Y-39498516D01*
X89577190Y-39139099D01*
X89635398Y-38771585D01*
X89654872Y-38400000D01*
X89635969Y-38039309D01*
X89635499Y-38030340D01*
X89635499Y-38030338D01*
X89635398Y-38028415D01*
X89577190Y-37660901D01*
X89570648Y-37636484D01*
X89481386Y-37303357D01*
X89481385Y-37303355D01*
X89480884Y-37301484D01*
X89347537Y-36954103D01*
X89178609Y-36622564D01*
X88975952Y-36310499D01*
X88943811Y-36270807D01*
X88852678Y-36158268D01*
X88741785Y-36021326D01*
X88478674Y-35758215D01*
X88232256Y-35558670D01*
X88191002Y-35525263D01*
X88190996Y-35525259D01*
X88189501Y-35524048D01*
X88176145Y-35515374D01*
X87879056Y-35322443D01*
X87879055Y-35322443D01*
X87877436Y-35321391D01*
X87545897Y-35152463D01*
X87198516Y-35019116D01*
X87196643Y-35018614D01*
X86840977Y-34923313D01*
X86840973Y-34923312D01*
X86839099Y-34922810D01*
X86471585Y-34864602D01*
X86469662Y-34864501D01*
X86469660Y-34864501D01*
X86101927Y-34845229D01*
X86100000Y-34845128D01*
X86098073Y-34845229D01*
X85730340Y-34864501D01*
X85730338Y-34864501D01*
X85728415Y-34864602D01*
X85360901Y-34922810D01*
X85359027Y-34923312D01*
X85359023Y-34923313D01*
X85003357Y-35018614D01*
X85001484Y-35019116D01*
X84654103Y-35152463D01*
X84322564Y-35321391D01*
X84320945Y-35322443D01*
X84320944Y-35322443D01*
X84023856Y-35515374D01*
X84010499Y-35524048D01*
X84009004Y-35525259D01*
X84008998Y-35525263D01*
X83967744Y-35558670D01*
X83721326Y-35758215D01*
X83458215Y-36021326D01*
X83347322Y-36158268D01*
X83256190Y-36270807D01*
X83224048Y-36310499D01*
X83021391Y-36622564D01*
X82852463Y-36954103D01*
X82719116Y-37301484D01*
X82718615Y-37303355D01*
X82718614Y-37303357D01*
X82629353Y-37636484D01*
X82622810Y-37660901D01*
X82564602Y-38028415D01*
X82564501Y-38030338D01*
X82564501Y-38030340D01*
X82564031Y-38039309D01*
X82549984Y-38307338D01*
X82545128Y-38400000D01*
X34925100Y-38400000D01*
X34925100Y-25352749D01*
X36295572Y-25352749D01*
X36295704Y-25355492D01*
X36296333Y-25368588D01*
X36306859Y-25587721D01*
X36308408Y-25619980D01*
X36308942Y-25622666D01*
X36308943Y-25622672D01*
X36338211Y-25769809D01*
X36360602Y-25882378D01*
X36451008Y-26134179D01*
X36577639Y-26369851D01*
X36737714Y-26584217D01*
X36927716Y-26772569D01*
X37143471Y-26930767D01*
X37380239Y-27055337D01*
X37382828Y-27056241D01*
X37382830Y-27056242D01*
X37630226Y-27142637D01*
X37630232Y-27142639D01*
X37632819Y-27143542D01*
X37635521Y-27144055D01*
X37892964Y-27192932D01*
X37892969Y-27192933D01*
X37895663Y-27193444D01*
X37898403Y-27193552D01*
X37898406Y-27193552D01*
X38055964Y-27199742D01*
X38162995Y-27203947D01*
X38165724Y-27203648D01*
X38165728Y-27203648D01*
X38426208Y-27175121D01*
X38426213Y-27175120D01*
X38428944Y-27174821D01*
X38687666Y-27106705D01*
X38933478Y-27001096D01*
X39062718Y-26921120D01*
X39158644Y-26861760D01*
X39158648Y-26861757D01*
X39160980Y-26860314D01*
X39365174Y-26687451D01*
X39541575Y-26486304D01*
X39686306Y-26261294D01*
X39796189Y-26017362D01*
X39801086Y-26000000D01*
X39868067Y-25762504D01*
X39868068Y-25762499D01*
X39868810Y-25759868D01*
X39902573Y-25494469D01*
X39905047Y-25400000D01*
X39901740Y-25355492D01*
X39885423Y-25135926D01*
X39885423Y-25135923D01*
X39885220Y-25133197D01*
X39826175Y-24872255D01*
X39729209Y-24622907D01*
X39596452Y-24390631D01*
X39430820Y-24180528D01*
X39235953Y-23997215D01*
X39016131Y-23844719D01*
X38820140Y-23748067D01*
X38778647Y-23727605D01*
X38778646Y-23727605D01*
X38776183Y-23726390D01*
X38521380Y-23644827D01*
X38257320Y-23601822D01*
X38254586Y-23601786D01*
X38254584Y-23601786D01*
X38061581Y-23599260D01*
X37989805Y-23598320D01*
X37724710Y-23634398D01*
X37722082Y-23635164D01*
X37470489Y-23708496D01*
X37470484Y-23708498D01*
X37467859Y-23709263D01*
X37465374Y-23710409D01*
X37465373Y-23710409D01*
X37372365Y-23753286D01*
X37224896Y-23821270D01*
X37222602Y-23822774D01*
X37003455Y-23966453D01*
X37003452Y-23966455D01*
X37001157Y-23967960D01*
X36999109Y-23969788D01*
X36999105Y-23969791D01*
X36803609Y-24144278D01*
X36801558Y-24146109D01*
X36630483Y-24351804D01*
X36491691Y-24580526D01*
X36388231Y-24827250D01*
X36387555Y-24829913D01*
X36387554Y-24829915D01*
X36376120Y-24874939D01*
X36322376Y-25086557D01*
X36295572Y-25352749D01*
X34925100Y-25352749D01*
X34925100Y-18932671D01*
X34916432Y-18905993D01*
X34913722Y-18894705D01*
X34910245Y-18872752D01*
X34909334Y-18866999D01*
X34896602Y-18842011D01*
X34892157Y-18831282D01*
X34885289Y-18810142D01*
X34885288Y-18810140D01*
X34883489Y-18804603D01*
X34866996Y-18781903D01*
X34860935Y-18772012D01*
X34848200Y-18747018D01*
X29453931Y-13352749D01*
X106295572Y-13352749D01*
X106295704Y-13355492D01*
X106296333Y-13368588D01*
X106306859Y-13587721D01*
X106308408Y-13619980D01*
X106308942Y-13622666D01*
X106308943Y-13622672D01*
X106344329Y-13800568D01*
X106360602Y-13882378D01*
X106451008Y-14134179D01*
X106577639Y-14369851D01*
X106737714Y-14584217D01*
X106927716Y-14772569D01*
X107143471Y-14930767D01*
X107380239Y-15055337D01*
X107382828Y-15056241D01*
X107382830Y-15056242D01*
X107630226Y-15142637D01*
X107630232Y-15142639D01*
X107632819Y-15143542D01*
X107635521Y-15144055D01*
X107892964Y-15192932D01*
X107892969Y-15192933D01*
X107895663Y-15193444D01*
X107898403Y-15193552D01*
X107898406Y-15193552D01*
X108055964Y-15199742D01*
X108162995Y-15203947D01*
X108165724Y-15203648D01*
X108165728Y-15203648D01*
X108426208Y-15175121D01*
X108426213Y-15175120D01*
X108428944Y-15174821D01*
X108687666Y-15106705D01*
X108933478Y-15001096D01*
X109062718Y-14921120D01*
X109158644Y-14861760D01*
X109158648Y-14861757D01*
X109160980Y-14860314D01*
X109365174Y-14687451D01*
X109541575Y-14486304D01*
X109686306Y-14261294D01*
X109796189Y-14017362D01*
X109801086Y-14000000D01*
X109868067Y-13762504D01*
X109868068Y-13762499D01*
X109868810Y-13759868D01*
X109902573Y-13494469D01*
X109905047Y-13400000D01*
X109901740Y-13355492D01*
X109885423Y-13135926D01*
X109885423Y-13135923D01*
X109885220Y-13133197D01*
X109879226Y-13106705D01*
X109848283Y-12969958D01*
X109826175Y-12872255D01*
X109821532Y-12860314D01*
X109730202Y-12625461D01*
X109729209Y-12622907D01*
X109596452Y-12390631D01*
X109430820Y-12180528D01*
X109235953Y-11997215D01*
X109016131Y-11844719D01*
X108776183Y-11726390D01*
X108521380Y-11644827D01*
X108257320Y-11601822D01*
X108254586Y-11601786D01*
X108254584Y-11601786D01*
X108061581Y-11599260D01*
X107989805Y-11598320D01*
X107724710Y-11634398D01*
X107722082Y-11635164D01*
X107470489Y-11708496D01*
X107470484Y-11708498D01*
X107467859Y-11709263D01*
X107465374Y-11710409D01*
X107465373Y-11710409D01*
X107428072Y-11727605D01*
X107224896Y-11821270D01*
X107222602Y-11822774D01*
X107003455Y-11966453D01*
X107003452Y-11966455D01*
X107001157Y-11967960D01*
X106999109Y-11969788D01*
X106999105Y-11969791D01*
X106803609Y-12144278D01*
X106801558Y-12146109D01*
X106630483Y-12351804D01*
X106491691Y-12580526D01*
X106490630Y-12583055D01*
X106490630Y-12583056D01*
X106411161Y-12772569D01*
X106388231Y-12827250D01*
X106387555Y-12829913D01*
X106387554Y-12829915D01*
X106330630Y-13054058D01*
X106322376Y-13086557D01*
X106295572Y-13352749D01*
X29453931Y-13352749D01*
X27453931Y-11352749D01*
X94295572Y-11352749D01*
X94295704Y-11355492D01*
X94296333Y-11368588D01*
X94307536Y-11601822D01*
X94308408Y-11619980D01*
X94308942Y-11622666D01*
X94308943Y-11622672D01*
X94344329Y-11800568D01*
X94360602Y-11882378D01*
X94451008Y-12134179D01*
X94577639Y-12369851D01*
X94737714Y-12584217D01*
X94927716Y-12772569D01*
X95143471Y-12930767D01*
X95380239Y-13055337D01*
X95382828Y-13056241D01*
X95382830Y-13056242D01*
X95630226Y-13142637D01*
X95630232Y-13142639D01*
X95632819Y-13143542D01*
X95635521Y-13144055D01*
X95892964Y-13192932D01*
X95892969Y-13192933D01*
X95895663Y-13193444D01*
X95898403Y-13193552D01*
X95898406Y-13193552D01*
X96055964Y-13199742D01*
X96162995Y-13203947D01*
X96165724Y-13203648D01*
X96165728Y-13203648D01*
X96426208Y-13175121D01*
X96426213Y-13175120D01*
X96428944Y-13174821D01*
X96687666Y-13106705D01*
X96933478Y-13001096D01*
X97062718Y-12921120D01*
X97158644Y-12861760D01*
X97158648Y-12861757D01*
X97160980Y-12860314D01*
X97365174Y-12687451D01*
X97541575Y-12486304D01*
X97618038Y-12367429D01*
X97684820Y-12263605D01*
X97684823Y-12263600D01*
X97686306Y-12261294D01*
X97710956Y-12206574D01*
X97739018Y-12144278D01*
X97796189Y-12017362D01*
X97802311Y-11995656D01*
X97868067Y-11762504D01*
X97868068Y-11762499D01*
X97868810Y-11759868D01*
X97889357Y-11598356D01*
X97902338Y-11496318D01*
X97902338Y-11496314D01*
X97902573Y-11494469D01*
X97905047Y-11400000D01*
X97901740Y-11355492D01*
X97885423Y-11135926D01*
X97885423Y-11135923D01*
X97885220Y-11133197D01*
X97826175Y-10872255D01*
X97729209Y-10622907D01*
X97596452Y-10390631D01*
X97430820Y-10180528D01*
X97235953Y-9997215D01*
X97016131Y-9844719D01*
X96776183Y-9726390D01*
X96521380Y-9644827D01*
X96257320Y-9601822D01*
X96254586Y-9601786D01*
X96254584Y-9601786D01*
X96061581Y-9599260D01*
X95989805Y-9598320D01*
X95724710Y-9634398D01*
X95722082Y-9635164D01*
X95470489Y-9708496D01*
X95470484Y-9708498D01*
X95467859Y-9709263D01*
X95465374Y-9710409D01*
X95465373Y-9710409D01*
X95428072Y-9727605D01*
X95224896Y-9821270D01*
X95222602Y-9822774D01*
X95003455Y-9966453D01*
X95003452Y-9966455D01*
X95001157Y-9967960D01*
X94999109Y-9969788D01*
X94999105Y-9969791D01*
X94803609Y-10144278D01*
X94801558Y-10146109D01*
X94630483Y-10351804D01*
X94491691Y-10580526D01*
X94388231Y-10827250D01*
X94387555Y-10829913D01*
X94387554Y-10829915D01*
X94376120Y-10874939D01*
X94322376Y-11086557D01*
X94295572Y-11352749D01*
X27453931Y-11352749D01*
X23220128Y-7118946D01*
X23198736Y-7073070D01*
X23199192Y-7056194D01*
X23204746Y-7017168D01*
X23204746Y-7017162D01*
X23205087Y-7014769D01*
X23205242Y-7000000D01*
X23184885Y-6831776D01*
X23124988Y-6673264D01*
X23029010Y-6533615D01*
X22983492Y-6493060D01*
X22905825Y-6423861D01*
X22905823Y-6423859D01*
X22902491Y-6420891D01*
X22752736Y-6341600D01*
X22670563Y-6320960D01*
X22592715Y-6301405D01*
X22592712Y-6301405D01*
X22588390Y-6300319D01*
X22501237Y-6299863D01*
X22423399Y-6299455D01*
X22423396Y-6299455D01*
X22418941Y-6299432D01*
X22414606Y-6300473D01*
X22414604Y-6300473D01*
X22328301Y-6321193D01*
X22254172Y-6338989D01*
X22103595Y-6416708D01*
X21975903Y-6528101D01*
X21973335Y-6531755D01*
X21973334Y-6531756D01*
X21969440Y-6537297D01*
X21878468Y-6666737D01*
X21816914Y-6824613D01*
X21794797Y-6992615D01*
X21797243Y-7014769D01*
X21808744Y-7118946D01*
X21813391Y-7161043D01*
X21871625Y-7320173D01*
X21966135Y-7460820D01*
X22091467Y-7574862D01*
X22095390Y-7576992D01*
X22236459Y-7653587D01*
X22236463Y-7653589D01*
X22240383Y-7655717D01*
X22244697Y-7656849D01*
X22244700Y-7656850D01*
X22392801Y-7695703D01*
X22404288Y-7698717D01*
X22417312Y-7698922D01*
X22570651Y-7701331D01*
X22617939Y-7719389D01*
X22621814Y-7722996D01*
X34053226Y-19154408D01*
X34074618Y-19200284D01*
X34074900Y-19206734D01*
X34074900Y-23295066D01*
X34057587Y-23342632D01*
X34013750Y-23367942D01*
X33963900Y-23359152D01*
X33948574Y-23347392D01*
X17720128Y-7118946D01*
X17698736Y-7073070D01*
X17699192Y-7056194D01*
X17704746Y-7017168D01*
X17704746Y-7017162D01*
X17705087Y-7014769D01*
X17705242Y-7000000D01*
X17684885Y-6831776D01*
X17624988Y-6673264D01*
X17529010Y-6533615D01*
X17483492Y-6493060D01*
X17405825Y-6423861D01*
X17405823Y-6423859D01*
X17402491Y-6420891D01*
X17252736Y-6341600D01*
X17170563Y-6320960D01*
X17092715Y-6301405D01*
X17092712Y-6301405D01*
X17088390Y-6300319D01*
X17001237Y-6299863D01*
X16923399Y-6299455D01*
X16923396Y-6299455D01*
X16918941Y-6299432D01*
X16914606Y-6300473D01*
X16914604Y-6300473D01*
X16828301Y-6321193D01*
X16754172Y-6338989D01*
X16603595Y-6416708D01*
X16475903Y-6528101D01*
X16473335Y-6531755D01*
X16473334Y-6531756D01*
X16469440Y-6537297D01*
X16378468Y-6666737D01*
X16316914Y-6824613D01*
X16294797Y-6992615D01*
X16297243Y-7014769D01*
X16308744Y-7118946D01*
X16313391Y-7161043D01*
X16371625Y-7320173D01*
X16466135Y-7460820D01*
X16591467Y-7574862D01*
X16595390Y-7576992D01*
X16736459Y-7653587D01*
X16736463Y-7653589D01*
X16740383Y-7655717D01*
X16744697Y-7656849D01*
X16744700Y-7656850D01*
X16892801Y-7695703D01*
X16904288Y-7698717D01*
X16917312Y-7698922D01*
X17070651Y-7701331D01*
X17117939Y-7719389D01*
X17121814Y-7722996D01*
X33353226Y-23954408D01*
X33374618Y-24000284D01*
X33374900Y-24006734D01*
X33374900Y-28095066D01*
X33357587Y-28142632D01*
X33313750Y-28167942D01*
X33263900Y-28159152D01*
X33248574Y-28147392D01*
X12220128Y-7118946D01*
X12198736Y-7073070D01*
X12199192Y-7056194D01*
X12204746Y-7017168D01*
X12204746Y-7017162D01*
X12205087Y-7014769D01*
X12205242Y-7000000D01*
X12184885Y-6831776D01*
X12124988Y-6673264D01*
X12029010Y-6533615D01*
X11983492Y-6493060D01*
X11905825Y-6423861D01*
X11905823Y-6423859D01*
X11902491Y-6420891D01*
X11752736Y-6341600D01*
X11670563Y-6320960D01*
X11592715Y-6301405D01*
X11592712Y-6301405D01*
X11588390Y-6300319D01*
X11501237Y-6299863D01*
X11423399Y-6299455D01*
X11423396Y-6299455D01*
X11418941Y-6299432D01*
X11414606Y-6300473D01*
X11414604Y-6300473D01*
X11328301Y-6321193D01*
X11254172Y-6338989D01*
X11103595Y-6416708D01*
X10975903Y-6528101D01*
X10973335Y-6531755D01*
X10973334Y-6531756D01*
X10969440Y-6537297D01*
X10878468Y-6666737D01*
X10816914Y-6824613D01*
X10794797Y-6992615D01*
X10797243Y-7014769D01*
X10808744Y-7118946D01*
X10813391Y-7161043D01*
X10871625Y-7320173D01*
X10966135Y-7460820D01*
X11091467Y-7574862D01*
X11095390Y-7576992D01*
X11236459Y-7653587D01*
X11236463Y-7653589D01*
X11240383Y-7655717D01*
X11244697Y-7656849D01*
X11244700Y-7656850D01*
X11392801Y-7695703D01*
X11404288Y-7698717D01*
X11417312Y-7698922D01*
X11570651Y-7701331D01*
X11617939Y-7719389D01*
X11621814Y-7722996D01*
X32653226Y-28754408D01*
X32674618Y-28800284D01*
X32674900Y-28806734D01*
X32674900Y-44567329D01*
X32676700Y-44572868D01*
X32676700Y-44572870D01*
X32683567Y-44594003D01*
X32686278Y-44605293D01*
X32690666Y-44633001D01*
X32693311Y-44638191D01*
X32703398Y-44657988D01*
X32707843Y-44668718D01*
X32716511Y-44695397D01*
X32731470Y-44715985D01*
X32733002Y-44718094D01*
X32739065Y-44727988D01*
X32751800Y-44752982D01*
X48953226Y-60954408D01*
X48974618Y-61000284D01*
X48974900Y-61006734D01*
X48974900Y-80767329D01*
X48976700Y-80772868D01*
X48976700Y-80772870D01*
X48983567Y-80794003D01*
X48986278Y-80805293D01*
X48990666Y-80833001D01*
X48993311Y-80838191D01*
X49003398Y-80857988D01*
X49007843Y-80868718D01*
X49016511Y-80895397D01*
X49019934Y-80900109D01*
X49019935Y-80900110D01*
X49033002Y-80918094D01*
X49039065Y-80927988D01*
X49051800Y-80952982D01*
X49075751Y-80976933D01*
X63053226Y-94954409D01*
X63074618Y-95000285D01*
X63074900Y-95006735D01*
X63074900Y-96167329D01*
X63076700Y-96172868D01*
X63076700Y-96172870D01*
X63083567Y-96194003D01*
X63086278Y-96205293D01*
X63090666Y-96233001D01*
X63103398Y-96257988D01*
X63107843Y-96268718D01*
X63114172Y-96288197D01*
X63116511Y-96295397D01*
X63131470Y-96315985D01*
X63133002Y-96318094D01*
X63139065Y-96327988D01*
X63151800Y-96352982D01*
X65047018Y-98248200D01*
X65071476Y-98260662D01*
X65072011Y-98260935D01*
X65081911Y-98267001D01*
X65104603Y-98283488D01*
X65120709Y-98288721D01*
X65131282Y-98292157D01*
X65142008Y-98296600D01*
X65166999Y-98309334D01*
X65172751Y-98310245D01*
X65172754Y-98310246D01*
X65194704Y-98313722D01*
X65205995Y-98316433D01*
X65227129Y-98323300D01*
X65227132Y-98323300D01*
X65232670Y-98325100D01*
X65402703Y-98325100D01*
X65450269Y-98342413D01*
X65460574Y-98353878D01*
X65460732Y-98353741D01*
X65463649Y-98357120D01*
X65466135Y-98360820D01*
X65591467Y-98474862D01*
X65595390Y-98476992D01*
X65736459Y-98553587D01*
X65736463Y-98553589D01*
X65740383Y-98555717D01*
X65744697Y-98556849D01*
X65744700Y-98556850D01*
X65892801Y-98595703D01*
X65904288Y-98598717D01*
X65989003Y-98600048D01*
X66069262Y-98601309D01*
X66073718Y-98601379D01*
X66078061Y-98600384D01*
X66078064Y-98600384D01*
X66166317Y-98580171D01*
X66238892Y-98563549D01*
X66242877Y-98561545D01*
X66242879Y-98561544D01*
X66386289Y-98489416D01*
X66386291Y-98489415D01*
X66390275Y-98487411D01*
X66475487Y-98414633D01*
X66515734Y-98380259D01*
X66519127Y-98377361D01*
X66618008Y-98239753D01*
X66681211Y-98082530D01*
X66705087Y-97914769D01*
X66705242Y-97900000D01*
X66684885Y-97731776D01*
X66631564Y-97590666D01*
X66626564Y-97577434D01*
X66626563Y-97577432D01*
X66624988Y-97573264D01*
X66568439Y-97490985D01*
X66531541Y-97437297D01*
X66531539Y-97437295D01*
X66529010Y-97433615D01*
X66442383Y-97356433D01*
X66405825Y-97323861D01*
X66405823Y-97323859D01*
X66402491Y-97320891D01*
X66252736Y-97241600D01*
X66170563Y-97220959D01*
X66092715Y-97201405D01*
X66092712Y-97201405D01*
X66088390Y-97200319D01*
X66001237Y-97199863D01*
X65923399Y-97199455D01*
X65923396Y-97199455D01*
X65918941Y-97199432D01*
X65914606Y-97200473D01*
X65914604Y-97200473D01*
X65828301Y-97221193D01*
X65754172Y-97238989D01*
X65603595Y-97316708D01*
X65555180Y-97358943D01*
X65503095Y-97404379D01*
X65455869Y-97422601D01*
X65407979Y-97406205D01*
X65402123Y-97400941D01*
X64761966Y-96760784D01*
X64740574Y-96714908D01*
X64753675Y-96666013D01*
X64781040Y-96642351D01*
X64890275Y-96587411D01*
X64908484Y-96571859D01*
X65015734Y-96480259D01*
X65019127Y-96477361D01*
X65108502Y-96352982D01*
X65115404Y-96343377D01*
X65115404Y-96343376D01*
X65118008Y-96339753D01*
X65122734Y-96327998D01*
X65181211Y-96182530D01*
X65182198Y-96182927D01*
X65208564Y-96145277D01*
X65257459Y-96132178D01*
X65303335Y-96153573D01*
X65320498Y-96180463D01*
X65342078Y-96239432D01*
X65356554Y-96278989D01*
X65371625Y-96320173D01*
X65397583Y-96358803D01*
X65463305Y-96456608D01*
X65466135Y-96460820D01*
X65591467Y-96574862D01*
X65595390Y-96576992D01*
X65736459Y-96653587D01*
X65736463Y-96653589D01*
X65740383Y-96655717D01*
X65744697Y-96656849D01*
X65744700Y-96656850D01*
X65892801Y-96695703D01*
X65904288Y-96698717D01*
X65989003Y-96700048D01*
X66069262Y-96701309D01*
X66073718Y-96701379D01*
X66078061Y-96700384D01*
X66078064Y-96700384D01*
X66178551Y-96677369D01*
X66238892Y-96663549D01*
X66242877Y-96661545D01*
X66242879Y-96661544D01*
X66386289Y-96589416D01*
X66386292Y-96589414D01*
X66390275Y-96587411D01*
X66408484Y-96571859D01*
X66515734Y-96480259D01*
X66519127Y-96477361D01*
X66608502Y-96352982D01*
X66615404Y-96343377D01*
X66615404Y-96343376D01*
X66618008Y-96339753D01*
X66622734Y-96327998D01*
X66679548Y-96186667D01*
X66681211Y-96182530D01*
X66705087Y-96014769D01*
X66705242Y-96000000D01*
X66684885Y-95831776D01*
X66641404Y-95716708D01*
X66626564Y-95677434D01*
X66626563Y-95677432D01*
X66624988Y-95673264D01*
X66554943Y-95571348D01*
X66531541Y-95537297D01*
X66531539Y-95537295D01*
X66529010Y-95533615D01*
X66402491Y-95420891D01*
X66398990Y-95419037D01*
X66381613Y-95402020D01*
X66367000Y-95381907D01*
X66360932Y-95372006D01*
X66350843Y-95352204D01*
X66350841Y-95352201D01*
X66348200Y-95347018D01*
X66324252Y-95323070D01*
X66324249Y-95323066D01*
X64605610Y-93604427D01*
X64584218Y-93558551D01*
X64597319Y-93509656D01*
X64638783Y-93480622D01*
X64657936Y-93478101D01*
X68240828Y-93478101D01*
X68246367Y-93476301D01*
X68246369Y-93476301D01*
X68256935Y-93472868D01*
X68267506Y-93469433D01*
X68278792Y-93466723D01*
X68306500Y-93462335D01*
X68331488Y-93449603D01*
X68342217Y-93445158D01*
X68363357Y-93438290D01*
X68363359Y-93438289D01*
X68368896Y-93436490D01*
X68391596Y-93419997D01*
X68401487Y-93413936D01*
X68426481Y-93401201D01*
X68968336Y-92859346D01*
X69014212Y-92837954D01*
X69021824Y-92837681D01*
X69139803Y-92839535D01*
X69157262Y-92839809D01*
X69161718Y-92839879D01*
X69166061Y-92838884D01*
X69166064Y-92838884D01*
X69254317Y-92818671D01*
X69326892Y-92802049D01*
X69330877Y-92800045D01*
X69330879Y-92800044D01*
X69474289Y-92727916D01*
X69474291Y-92727915D01*
X69478275Y-92725911D01*
X69607127Y-92615861D01*
X69706008Y-92478253D01*
X69769211Y-92321030D01*
X69793087Y-92153269D01*
X69793242Y-92138500D01*
X69772885Y-91970276D01*
X69729597Y-91855717D01*
X69714564Y-91815934D01*
X69714563Y-91815932D01*
X69712988Y-91811764D01*
X69661505Y-91736856D01*
X69619541Y-91675797D01*
X69619539Y-91675795D01*
X69617010Y-91672115D01*
X69568213Y-91628639D01*
X69493825Y-91562361D01*
X69493823Y-91562359D01*
X69490491Y-91559391D01*
X69340736Y-91480100D01*
X69336414Y-91479014D01*
X69336413Y-91479014D01*
X69335768Y-91478852D01*
X69332858Y-91478121D01*
X69290943Y-91449745D01*
X69277073Y-91401063D01*
X69279405Y-91387199D01*
X69279547Y-91386670D01*
X69281211Y-91382530D01*
X69283298Y-91367870D01*
X69291966Y-91306957D01*
X69312902Y-91265057D01*
X70606185Y-89971774D01*
X70652061Y-89950382D01*
X70658511Y-89950100D01*
X78346489Y-89950100D01*
X78394055Y-89967413D01*
X78398815Y-89971774D01*
X81540625Y-93113584D01*
X81562017Y-93159460D01*
X81548916Y-93208355D01*
X81507452Y-93237389D01*
X81488299Y-93239910D01*
X73071745Y-93239910D01*
X73024179Y-93222597D01*
X73019419Y-93218236D01*
X72320128Y-92518945D01*
X72298736Y-92473069D01*
X72299192Y-92456193D01*
X72304746Y-92417168D01*
X72304746Y-92417162D01*
X72305087Y-92414769D01*
X72305242Y-92400000D01*
X72284885Y-92231776D01*
X72224988Y-92073264D01*
X72176191Y-92002264D01*
X72131541Y-91937297D01*
X72131539Y-91937295D01*
X72129010Y-91933615D01*
X72047235Y-91860756D01*
X72005825Y-91823861D01*
X72005823Y-91823859D01*
X72002491Y-91820891D01*
X71907772Y-91770740D01*
X71856678Y-91743687D01*
X71856677Y-91743687D01*
X71852736Y-91741600D01*
X71760031Y-91718314D01*
X71692715Y-91701405D01*
X71692712Y-91701405D01*
X71688390Y-91700319D01*
X71601238Y-91699863D01*
X71523399Y-91699455D01*
X71523396Y-91699455D01*
X71518941Y-91699432D01*
X71514606Y-91700473D01*
X71514604Y-91700473D01*
X71440291Y-91718314D01*
X71354172Y-91738989D01*
X71203595Y-91816708D01*
X71200237Y-91819637D01*
X71200236Y-91819638D01*
X71091790Y-91914242D01*
X71075903Y-91928101D01*
X71073335Y-91931755D01*
X71073334Y-91931756D01*
X71069440Y-91937297D01*
X70978468Y-92066737D01*
X70916914Y-92224613D01*
X70894797Y-92392615D01*
X70897243Y-92414769D01*
X70908775Y-92519226D01*
X70913391Y-92561043D01*
X70914924Y-92565232D01*
X70937755Y-92627619D01*
X70971625Y-92720173D01*
X70974113Y-92723875D01*
X71051395Y-92838884D01*
X71066135Y-92860820D01*
X71191467Y-92974862D01*
X71195390Y-92976992D01*
X71336459Y-93053587D01*
X71336463Y-93053589D01*
X71340383Y-93055717D01*
X71344697Y-93056849D01*
X71344700Y-93056850D01*
X71492801Y-93095703D01*
X71504288Y-93098717D01*
X71516681Y-93098912D01*
X71670650Y-93101331D01*
X71717938Y-93119389D01*
X71721813Y-93122996D01*
X72588076Y-93989259D01*
X72588080Y-93989262D01*
X72612028Y-94013210D01*
X72617211Y-94015851D01*
X72617214Y-94015853D01*
X72637016Y-94025942D01*
X72646917Y-94032010D01*
X72664899Y-94045075D01*
X72664904Y-94045077D01*
X72669613Y-94048499D01*
X72696297Y-94057169D01*
X72707011Y-94061607D01*
X72732009Y-94074344D01*
X72759718Y-94078733D01*
X72771002Y-94081442D01*
X72781572Y-94084876D01*
X72792139Y-94088310D01*
X72792141Y-94088310D01*
X72797680Y-94090110D01*
X76544004Y-94090110D01*
X76591570Y-94107423D01*
X76616880Y-94151260D01*
X76608090Y-94201110D01*
X76592651Y-94219873D01*
X76525903Y-94278101D01*
X76523335Y-94281755D01*
X76523334Y-94281756D01*
X76519440Y-94287297D01*
X76428468Y-94416737D01*
X76366914Y-94574613D01*
X76365971Y-94581776D01*
X76348782Y-94712348D01*
X76344797Y-94742615D01*
X76347243Y-94764769D01*
X76362856Y-94906193D01*
X76363391Y-94911043D01*
X76364924Y-94915232D01*
X76410493Y-95039753D01*
X76421625Y-95070173D01*
X76424113Y-95073875D01*
X76512180Y-95204934D01*
X76516135Y-95210820D01*
X76641467Y-95324862D01*
X76650391Y-95329707D01*
X76786459Y-95403587D01*
X76786463Y-95403589D01*
X76790383Y-95405717D01*
X76794697Y-95406849D01*
X76794700Y-95406850D01*
X76925006Y-95441035D01*
X76954288Y-95448717D01*
X76967312Y-95448922D01*
X77120651Y-95451331D01*
X77167939Y-95469389D01*
X77171814Y-95472996D01*
X79991391Y-98292573D01*
X80012783Y-98338449D01*
X79999682Y-98387344D01*
X79958218Y-98416378D01*
X79939065Y-98418899D01*
X79079704Y-98418899D01*
X79032138Y-98401586D01*
X79027378Y-98397225D01*
X77020128Y-96389975D01*
X76998736Y-96344099D01*
X76999192Y-96327223D01*
X77004746Y-96288197D01*
X77004746Y-96288191D01*
X77005087Y-96285798D01*
X77005242Y-96271029D01*
X76984885Y-96102805D01*
X76924988Y-95944293D01*
X76851447Y-95837290D01*
X76831541Y-95808326D01*
X76831539Y-95808324D01*
X76829010Y-95804644D01*
X76738341Y-95723861D01*
X76705825Y-95694890D01*
X76705823Y-95694888D01*
X76702491Y-95691920D01*
X76613793Y-95644957D01*
X76556678Y-95614716D01*
X76556677Y-95614716D01*
X76552736Y-95612629D01*
X76470563Y-95591989D01*
X76392715Y-95572434D01*
X76392712Y-95572434D01*
X76388390Y-95571348D01*
X76301237Y-95570892D01*
X76223399Y-95570484D01*
X76223396Y-95570484D01*
X76218941Y-95570461D01*
X76214606Y-95571502D01*
X76214604Y-95571502D01*
X76093930Y-95600473D01*
X76054172Y-95610018D01*
X76053929Y-95610143D01*
X76004783Y-95610488D01*
X75965780Y-95578222D01*
X75960382Y-95566932D01*
X75926564Y-95477434D01*
X75926563Y-95477432D01*
X75924988Y-95473264D01*
X75877100Y-95403587D01*
X75831541Y-95337297D01*
X75831539Y-95337295D01*
X75829010Y-95333615D01*
X75763067Y-95274862D01*
X75705825Y-95223861D01*
X75705823Y-95223859D01*
X75702491Y-95220891D01*
X75598791Y-95165985D01*
X75556678Y-95143687D01*
X75556677Y-95143687D01*
X75552736Y-95141600D01*
X75470563Y-95120959D01*
X75392715Y-95101405D01*
X75392712Y-95101405D01*
X75388390Y-95100319D01*
X75301238Y-95099863D01*
X75223399Y-95099455D01*
X75223396Y-95099455D01*
X75218941Y-95099432D01*
X75214606Y-95100473D01*
X75214604Y-95100473D01*
X75128301Y-95121193D01*
X75054172Y-95138989D01*
X74903595Y-95216708D01*
X74900237Y-95219637D01*
X74900236Y-95219638D01*
X74779616Y-95324862D01*
X74775903Y-95328101D01*
X74773335Y-95331755D01*
X74773334Y-95331756D01*
X74769440Y-95337297D01*
X74678468Y-95466737D01*
X74616914Y-95624613D01*
X74594797Y-95792615D01*
X74596882Y-95811506D01*
X74597134Y-95813785D01*
X74585145Y-95862964D01*
X74544350Y-95892931D01*
X74501894Y-95892301D01*
X74498686Y-95890666D01*
X74492932Y-95889755D01*
X74492930Y-95889754D01*
X74477329Y-95887283D01*
X74470978Y-95886278D01*
X74459692Y-95883568D01*
X74449122Y-95880134D01*
X74438555Y-95876700D01*
X74438553Y-95876700D01*
X74433014Y-95874900D01*
X74396318Y-95874900D01*
X74348752Y-95857587D01*
X74335332Y-95842813D01*
X74331536Y-95837290D01*
X74331535Y-95837289D01*
X74329010Y-95833615D01*
X74287970Y-95797050D01*
X74205825Y-95723861D01*
X74205823Y-95723859D01*
X74202491Y-95720891D01*
X74083639Y-95657962D01*
X74056678Y-95643687D01*
X74056677Y-95643687D01*
X74052736Y-95641600D01*
X73970563Y-95620960D01*
X73892715Y-95601405D01*
X73892712Y-95601405D01*
X73888390Y-95600319D01*
X73801238Y-95599863D01*
X73723399Y-95599455D01*
X73723396Y-95599455D01*
X73718941Y-95599432D01*
X73714606Y-95600473D01*
X73714604Y-95600473D01*
X73651616Y-95615595D01*
X73554172Y-95638989D01*
X73403595Y-95716708D01*
X73400237Y-95719637D01*
X73400236Y-95719638D01*
X73292314Y-95813785D01*
X73275903Y-95828101D01*
X73273335Y-95831755D01*
X73273334Y-95831756D01*
X73243012Y-95874900D01*
X73178468Y-95966737D01*
X73116914Y-96124613D01*
X73112118Y-96161043D01*
X73099356Y-96257988D01*
X73094797Y-96292615D01*
X73113391Y-96461043D01*
X73114924Y-96465232D01*
X73169097Y-96613264D01*
X73171625Y-96620173D01*
X73266135Y-96760820D01*
X73391467Y-96874862D01*
X73395390Y-96876992D01*
X73536459Y-96953587D01*
X73536463Y-96953589D01*
X73540383Y-96955717D01*
X73544697Y-96956849D01*
X73544700Y-96956850D01*
X73692801Y-96995703D01*
X73704288Y-96998717D01*
X73789003Y-97000048D01*
X73869262Y-97001309D01*
X73873718Y-97001379D01*
X73878061Y-97000384D01*
X73878064Y-97000384D01*
X73966317Y-96980171D01*
X74038892Y-96963549D01*
X74042877Y-96961545D01*
X74042879Y-96961544D01*
X74186289Y-96889416D01*
X74186291Y-96889415D01*
X74190275Y-96887411D01*
X74208484Y-96871859D01*
X74225441Y-96857377D01*
X74272854Y-96839651D01*
X74320569Y-96856548D01*
X74325825Y-96861322D01*
X78371202Y-100906699D01*
X78396196Y-100919434D01*
X78406087Y-100925495D01*
X78428787Y-100941988D01*
X78434324Y-100943787D01*
X78434326Y-100943788D01*
X78455466Y-100950656D01*
X78466195Y-100955101D01*
X78491183Y-100967833D01*
X78518891Y-100972221D01*
X78530177Y-100974931D01*
X78540747Y-100978365D01*
X78551314Y-100981799D01*
X78551316Y-100981799D01*
X78556855Y-100983599D01*
X82626150Y-100983599D01*
X82651998Y-100989804D01*
X82652295Y-100988890D01*
X82657828Y-100990688D01*
X82663021Y-100993334D01*
X82668775Y-100994245D01*
X82668777Y-100994246D01*
X82684378Y-100996717D01*
X82690729Y-100997722D01*
X82702015Y-101000432D01*
X82712585Y-101003866D01*
X82723152Y-101007300D01*
X82723154Y-101007300D01*
X82728693Y-101009100D01*
X86676570Y-101009100D01*
X86724136Y-101026413D01*
X86749446Y-101070250D01*
X86740656Y-101120100D01*
X86731565Y-101132613D01*
X86729262Y-101135171D01*
X86725903Y-101138101D01*
X86715115Y-101153450D01*
X86673602Y-101182411D01*
X86654573Y-101184900D01*
X77442670Y-101184900D01*
X77437132Y-101186700D01*
X77437129Y-101186700D01*
X77415995Y-101193567D01*
X77404704Y-101196278D01*
X77382754Y-101199754D01*
X77382751Y-101199755D01*
X77376999Y-101200666D01*
X77353808Y-101212482D01*
X77352007Y-101213400D01*
X77341282Y-101217843D01*
X77330710Y-101221278D01*
X77314603Y-101226512D01*
X77293822Y-101241610D01*
X77291910Y-101242999D01*
X77282011Y-101249065D01*
X77257018Y-101261800D01*
X76930281Y-101588537D01*
X76884405Y-101609929D01*
X76877568Y-101610210D01*
X76733399Y-101609455D01*
X76733396Y-101609455D01*
X76728941Y-101609432D01*
X76724606Y-101610473D01*
X76724604Y-101610473D01*
X76675141Y-101622348D01*
X76564172Y-101648989D01*
X76413595Y-101726708D01*
X76410237Y-101729637D01*
X76410236Y-101729638D01*
X76333400Y-101796667D01*
X76285903Y-101838101D01*
X76188468Y-101976737D01*
X76126914Y-102134613D01*
X76119169Y-102193444D01*
X76109655Y-102265717D01*
X76104797Y-102302615D01*
X76112508Y-102372463D01*
X76122447Y-102462490D01*
X76123391Y-102471043D01*
X76124924Y-102475232D01*
X76177875Y-102619925D01*
X76181625Y-102630173D01*
X76227968Y-102699140D01*
X76253857Y-102737666D01*
X76276135Y-102770820D01*
X76401467Y-102884862D01*
X76405390Y-102886992D01*
X76546459Y-102963587D01*
X76546463Y-102963589D01*
X76550383Y-102965717D01*
X76554697Y-102966849D01*
X76554700Y-102966850D01*
X76702801Y-103005703D01*
X76714288Y-103008717D01*
X76799003Y-103010048D01*
X76879262Y-103011309D01*
X76883718Y-103011379D01*
X76888061Y-103010384D01*
X76888064Y-103010384D01*
X76976317Y-102990171D01*
X77048892Y-102973549D01*
X77052877Y-102971545D01*
X77052879Y-102971544D01*
X77196289Y-102899416D01*
X77196291Y-102899415D01*
X77200275Y-102897411D01*
X77218484Y-102881859D01*
X77325734Y-102790259D01*
X77329127Y-102787361D01*
X77428008Y-102649753D01*
X77444422Y-102608923D01*
X77489548Y-102496667D01*
X77491211Y-102492530D01*
X77515087Y-102324769D01*
X77515242Y-102310000D01*
X77508335Y-102252924D01*
X77519808Y-102203624D01*
X77529473Y-102191709D01*
X77664408Y-102056774D01*
X77710284Y-102035382D01*
X77716734Y-102035100D01*
X86652703Y-102035100D01*
X86700269Y-102052413D01*
X86710574Y-102063878D01*
X86710732Y-102063741D01*
X86713649Y-102067120D01*
X86716135Y-102070820D01*
X86841467Y-102184862D01*
X86845390Y-102186992D01*
X86986459Y-102263587D01*
X86986463Y-102263589D01*
X86990383Y-102265717D01*
X86994697Y-102266849D01*
X86994700Y-102266850D01*
X87131029Y-102302615D01*
X87154288Y-102308717D01*
X87235948Y-102310000D01*
X87319262Y-102311309D01*
X87323718Y-102311379D01*
X87328061Y-102310384D01*
X87328064Y-102310384D01*
X87419430Y-102289458D01*
X87488892Y-102273549D01*
X87492877Y-102271545D01*
X87492879Y-102271544D01*
X87636289Y-102199416D01*
X87636291Y-102199415D01*
X87640275Y-102197411D01*
X87666373Y-102175121D01*
X87765734Y-102090259D01*
X87769127Y-102087361D01*
X87868008Y-101949753D01*
X87904677Y-101858537D01*
X87929548Y-101796667D01*
X87931211Y-101792530D01*
X87955087Y-101624769D01*
X87955242Y-101610000D01*
X87934885Y-101441776D01*
X87874988Y-101283264D01*
X87834748Y-101224714D01*
X87781541Y-101147297D01*
X87781539Y-101147295D01*
X87779010Y-101143615D01*
X87775677Y-101140645D01*
X87775674Y-101140642D01*
X87773101Y-101138350D01*
X87749104Y-101093781D01*
X87759370Y-101044214D01*
X87799095Y-101012842D01*
X87822329Y-101009100D01*
X94535266Y-101009100D01*
X94582832Y-101026413D01*
X94587592Y-101030774D01*
X98530491Y-104973674D01*
X98551883Y-105019550D01*
X98538782Y-105068445D01*
X98497318Y-105097479D01*
X98478165Y-105100000D01*
X96754917Y-105100000D01*
X96707351Y-105082687D01*
X96702591Y-105078326D01*
X94850651Y-103226387D01*
X94847075Y-103222244D01*
X94845017Y-103218034D01*
X94832017Y-103205974D01*
X94808466Y-103184128D01*
X94806466Y-103182202D01*
X94792400Y-103168136D01*
X94789587Y-103166207D01*
X94786964Y-103164027D01*
X94787062Y-103163909D01*
X94783907Y-103161346D01*
X94768096Y-103146679D01*
X94768095Y-103146678D01*
X94763083Y-103142029D01*
X94749845Y-103136748D01*
X94735408Y-103129039D01*
X94729283Y-103124837D01*
X94729280Y-103124835D01*
X94723648Y-103120972D01*
X94699597Y-103115265D01*
X94696003Y-103114412D01*
X94685670Y-103111144D01*
X94659280Y-103100615D01*
X94653007Y-103100000D01*
X94643929Y-103100000D01*
X94626843Y-103098000D01*
X94621560Y-103096746D01*
X94621558Y-103096746D01*
X94614909Y-103095168D01*
X94588527Y-103098758D01*
X94584369Y-103099324D01*
X94574391Y-103100000D01*
X89654473Y-103100000D01*
X89649014Y-103099599D01*
X89644584Y-103098078D01*
X89637760Y-103098334D01*
X89637759Y-103098334D01*
X89594765Y-103099948D01*
X89591989Y-103100000D01*
X89572095Y-103100000D01*
X89568743Y-103100624D01*
X89565349Y-103100938D01*
X89565331Y-103100743D01*
X89561292Y-103101205D01*
X89532904Y-103102270D01*
X89526628Y-103104966D01*
X89526625Y-103104967D01*
X89519805Y-103107897D01*
X89504146Y-103112655D01*
X89490130Y-103115265D01*
X89484315Y-103118849D01*
X89484316Y-103118849D01*
X89465944Y-103130174D01*
X89456329Y-103135169D01*
X89430220Y-103146386D01*
X89425349Y-103150386D01*
X89418929Y-103156806D01*
X89405436Y-103167472D01*
X89394993Y-103173909D01*
X89390857Y-103179348D01*
X89376339Y-103198440D01*
X89369761Y-103205974D01*
X87497410Y-105078326D01*
X87451534Y-105099718D01*
X87445084Y-105100000D01*
X76724917Y-105100000D01*
X76677351Y-105082687D01*
X76672591Y-105078326D01*
X74820651Y-103226387D01*
X74817075Y-103222244D01*
X74815017Y-103218034D01*
X74802017Y-103205974D01*
X74778466Y-103184128D01*
X74776466Y-103182202D01*
X74762400Y-103168136D01*
X74759587Y-103166207D01*
X74756964Y-103164027D01*
X74757062Y-103163909D01*
X74753907Y-103161346D01*
X74738096Y-103146679D01*
X74738095Y-103146678D01*
X74733083Y-103142029D01*
X74719845Y-103136748D01*
X74705408Y-103129039D01*
X74699283Y-103124837D01*
X74699280Y-103124835D01*
X74693648Y-103120972D01*
X74669597Y-103115265D01*
X74666003Y-103114412D01*
X74655670Y-103111144D01*
X74629280Y-103100615D01*
X74623007Y-103100000D01*
X74613929Y-103100000D01*
X74596843Y-103098000D01*
X74591560Y-103096746D01*
X74591558Y-103096746D01*
X74584909Y-103095168D01*
X74558527Y-103098758D01*
X74554369Y-103099324D01*
X74544391Y-103100000D01*
X69624473Y-103100000D01*
X69619014Y-103099599D01*
X69614584Y-103098078D01*
X69607760Y-103098334D01*
X69607759Y-103098334D01*
X69564765Y-103099948D01*
X69561989Y-103100000D01*
X69542095Y-103100000D01*
X69538743Y-103100624D01*
X69535349Y-103100938D01*
X69535331Y-103100743D01*
X69531292Y-103101205D01*
X69502904Y-103102270D01*
X69496628Y-103104966D01*
X69496625Y-103104967D01*
X69489805Y-103107897D01*
X69474146Y-103112655D01*
X69460130Y-103115265D01*
X69454315Y-103118849D01*
X69454316Y-103118849D01*
X69435944Y-103130174D01*
X69426329Y-103135169D01*
X69400220Y-103146386D01*
X69395349Y-103150386D01*
X69388929Y-103156806D01*
X69375436Y-103167472D01*
X69364993Y-103173909D01*
X69360857Y-103179348D01*
X69346339Y-103198440D01*
X69339761Y-103205974D01*
X67467410Y-105078326D01*
X67421534Y-105099718D01*
X67415084Y-105100000D01*
X61254917Y-105100000D01*
X61207351Y-105082687D01*
X61202591Y-105078326D01*
X56477014Y-100352749D01*
X60295572Y-100352749D01*
X60295704Y-100355492D01*
X60296333Y-100368588D01*
X60306859Y-100587721D01*
X60308408Y-100619980D01*
X60308942Y-100622666D01*
X60308943Y-100622672D01*
X60344329Y-100800568D01*
X60360602Y-100882378D01*
X60451008Y-101134179D01*
X60452305Y-101136593D01*
X60452306Y-101136595D01*
X60482918Y-101193567D01*
X60577639Y-101369851D01*
X60737714Y-101584217D01*
X60927716Y-101772569D01*
X61143471Y-101930767D01*
X61380239Y-102055337D01*
X61382828Y-102056241D01*
X61382830Y-102056242D01*
X61630226Y-102142637D01*
X61630232Y-102142639D01*
X61632819Y-102143542D01*
X61635521Y-102144055D01*
X61892964Y-102192932D01*
X61892969Y-102192933D01*
X61895663Y-102193444D01*
X61898403Y-102193552D01*
X61898406Y-102193552D01*
X62047668Y-102199416D01*
X62162995Y-102203947D01*
X62165724Y-102203648D01*
X62165728Y-102203648D01*
X62426208Y-102175121D01*
X62426213Y-102175120D01*
X62428944Y-102174821D01*
X62687666Y-102106705D01*
X62933478Y-102001096D01*
X63062718Y-101921120D01*
X63158644Y-101861760D01*
X63158648Y-101861757D01*
X63160980Y-101860314D01*
X63365174Y-101687451D01*
X63541575Y-101486304D01*
X63640457Y-101332575D01*
X63684820Y-101263605D01*
X63684823Y-101263600D01*
X63686306Y-101261294D01*
X63715594Y-101196278D01*
X63740157Y-101141749D01*
X63796189Y-101017362D01*
X63799027Y-101007300D01*
X63868067Y-100762504D01*
X63868068Y-100762499D01*
X63868810Y-100759868D01*
X63902573Y-100494469D01*
X63905047Y-100400000D01*
X63901740Y-100355492D01*
X63885423Y-100135926D01*
X63885423Y-100135923D01*
X63885220Y-100133197D01*
X63882257Y-100120100D01*
X63848283Y-99969958D01*
X63826175Y-99872255D01*
X63729209Y-99622907D01*
X63596452Y-99390631D01*
X63430820Y-99180528D01*
X63235953Y-98997215D01*
X63016131Y-98844719D01*
X62776183Y-98726390D01*
X62521380Y-98644827D01*
X62257320Y-98601822D01*
X62254586Y-98601786D01*
X62254584Y-98601786D01*
X62061581Y-98599260D01*
X61989805Y-98598320D01*
X61724710Y-98634398D01*
X61722082Y-98635164D01*
X61470489Y-98708496D01*
X61470484Y-98708498D01*
X61467859Y-98709263D01*
X61465374Y-98710409D01*
X61465373Y-98710409D01*
X61428072Y-98727605D01*
X61224896Y-98821270D01*
X61222602Y-98822774D01*
X61003455Y-98966453D01*
X61003452Y-98966455D01*
X61001157Y-98967960D01*
X60999109Y-98969788D01*
X60999105Y-98969791D01*
X60803609Y-99144278D01*
X60801558Y-99146109D01*
X60630483Y-99351804D01*
X60491691Y-99580526D01*
X60388231Y-99827250D01*
X60387555Y-99829913D01*
X60387554Y-99829915D01*
X60376120Y-99874939D01*
X60322376Y-100086557D01*
X60295572Y-100352749D01*
X56477014Y-100352749D01*
X47279674Y-91155410D01*
X47258282Y-91109534D01*
X47258000Y-91103084D01*
X47258000Y-90210749D01*
X50153572Y-90210749D01*
X50153970Y-90219036D01*
X50154333Y-90226588D01*
X50165403Y-90457049D01*
X50166408Y-90477980D01*
X50166942Y-90480666D01*
X50166943Y-90480672D01*
X50199631Y-90645003D01*
X50218602Y-90740378D01*
X50309008Y-90992179D01*
X50310305Y-90994593D01*
X50310306Y-90994595D01*
X50324159Y-91020377D01*
X50435639Y-91227851D01*
X50595714Y-91442217D01*
X50785716Y-91630569D01*
X51001471Y-91788767D01*
X51238239Y-91913337D01*
X51240828Y-91914241D01*
X51240830Y-91914242D01*
X51488226Y-92000637D01*
X51488232Y-92000639D01*
X51490819Y-92001542D01*
X51493521Y-92002055D01*
X51750964Y-92050932D01*
X51750969Y-92050933D01*
X51753663Y-92051444D01*
X51756403Y-92051552D01*
X51756406Y-92051552D01*
X51913964Y-92057742D01*
X52020995Y-92061947D01*
X52023724Y-92061648D01*
X52023728Y-92061648D01*
X52284208Y-92033121D01*
X52284213Y-92033120D01*
X52286944Y-92032821D01*
X52545666Y-91964705D01*
X52740400Y-91881041D01*
X52788953Y-91860181D01*
X52788955Y-91860180D01*
X52791478Y-91859096D01*
X52934260Y-91770740D01*
X53016644Y-91719760D01*
X53016648Y-91719757D01*
X53018980Y-91718314D01*
X53223174Y-91545451D01*
X53399575Y-91344304D01*
X53483765Y-91213416D01*
X53542820Y-91121605D01*
X53542823Y-91121600D01*
X53544306Y-91119294D01*
X53555506Y-91094432D01*
X53585286Y-91028322D01*
X53654189Y-90875362D01*
X53655628Y-90870259D01*
X53726067Y-90620504D01*
X53726068Y-90620499D01*
X53726810Y-90617868D01*
X53755491Y-90392419D01*
X53760338Y-90354318D01*
X53760338Y-90354314D01*
X53760573Y-90352469D01*
X53761043Y-90334542D01*
X53762673Y-90272262D01*
X53763047Y-90258000D01*
X53762350Y-90248613D01*
X53743423Y-89993926D01*
X53743423Y-89993923D01*
X53743220Y-89991197D01*
X53684175Y-89730255D01*
X53680544Y-89720916D01*
X53621265Y-89568481D01*
X53587209Y-89480907D01*
X53454452Y-89248631D01*
X53288820Y-89038528D01*
X53093953Y-88855215D01*
X52874131Y-88702719D01*
X52634183Y-88584390D01*
X52379380Y-88502827D01*
X52115320Y-88459822D01*
X52112586Y-88459786D01*
X52112584Y-88459786D01*
X51919581Y-88457260D01*
X51847805Y-88456320D01*
X51582710Y-88492398D01*
X51580082Y-88493164D01*
X51328489Y-88566496D01*
X51328484Y-88566498D01*
X51325859Y-88567263D01*
X51323374Y-88568409D01*
X51323373Y-88568409D01*
X51085384Y-88678123D01*
X51082896Y-88679270D01*
X51080602Y-88680774D01*
X50861455Y-88824453D01*
X50861452Y-88824455D01*
X50859157Y-88825960D01*
X50857109Y-88827788D01*
X50857105Y-88827791D01*
X50661609Y-89002278D01*
X50659558Y-89004109D01*
X50657804Y-89006218D01*
X50657802Y-89006220D01*
X50622869Y-89048223D01*
X50488483Y-89209804D01*
X50349691Y-89438526D01*
X50348630Y-89441055D01*
X50348630Y-89441056D01*
X50266560Y-89636772D01*
X50246231Y-89685250D01*
X50245555Y-89687913D01*
X50245554Y-89687915D01*
X50185695Y-89923615D01*
X50180376Y-89944557D01*
X50164726Y-90099978D01*
X50155778Y-90188846D01*
X50153572Y-90210749D01*
X47258000Y-90210749D01*
X47258000Y-61312472D01*
X47258401Y-61307013D01*
X47259922Y-61302583D01*
X47258052Y-61252764D01*
X47258000Y-61249988D01*
X47258000Y-61230095D01*
X47257376Y-61226743D01*
X47257062Y-61223349D01*
X47257257Y-61223331D01*
X47256795Y-61219290D01*
X47255986Y-61197731D01*
X47255730Y-61190904D01*
X47253034Y-61184628D01*
X47253033Y-61184625D01*
X47250103Y-61177805D01*
X47245345Y-61162145D01*
X47242735Y-61148130D01*
X47227825Y-61123942D01*
X47222829Y-61114325D01*
X47219856Y-61107405D01*
X47211614Y-61088220D01*
X47207613Y-61083349D01*
X47201197Y-61076933D01*
X47190530Y-61063438D01*
X47187678Y-61058811D01*
X47187676Y-61058809D01*
X47184091Y-61052993D01*
X47159556Y-61034336D01*
X47152022Y-61027758D01*
X26350651Y-40226387D01*
X26347075Y-40222244D01*
X26345017Y-40218034D01*
X26334283Y-40208076D01*
X26308466Y-40184128D01*
X26306466Y-40182202D01*
X26292400Y-40168136D01*
X26289587Y-40166207D01*
X26286964Y-40164027D01*
X26287062Y-40163909D01*
X26283907Y-40161346D01*
X26268096Y-40146679D01*
X26268095Y-40146678D01*
X26263083Y-40142029D01*
X26249845Y-40136748D01*
X26235408Y-40129039D01*
X26229283Y-40124837D01*
X26229280Y-40124835D01*
X26223648Y-40120972D01*
X26207664Y-40117179D01*
X26196003Y-40114412D01*
X26185670Y-40111144D01*
X26159280Y-40100615D01*
X26153007Y-40100000D01*
X26143929Y-40100000D01*
X26126843Y-40098000D01*
X26121560Y-40096746D01*
X26121558Y-40096746D01*
X26114909Y-40095168D01*
X26094099Y-40098000D01*
X26084369Y-40099324D01*
X26074391Y-40100000D01*
X9790917Y-40100000D01*
X9743351Y-40082687D01*
X9738591Y-40078326D01*
X6421674Y-36761410D01*
X6400282Y-36715534D01*
X6400000Y-36709084D01*
X6400000Y-27932615D01*
X6660797Y-27932615D01*
X6668853Y-28005587D01*
X6677849Y-28087071D01*
X6679391Y-28101043D01*
X6680924Y-28105232D01*
X6696353Y-28147392D01*
X6737625Y-28260173D01*
X6832135Y-28400820D01*
X6957467Y-28514862D01*
X6961390Y-28516992D01*
X7102459Y-28593587D01*
X7102463Y-28593589D01*
X7106383Y-28595717D01*
X7110697Y-28596849D01*
X7110700Y-28596850D01*
X7258801Y-28635703D01*
X7270288Y-28638717D01*
X7283312Y-28638922D01*
X7436651Y-28641331D01*
X7483939Y-28659389D01*
X7487814Y-28662996D01*
X7621018Y-28796200D01*
X7645476Y-28808662D01*
X7646011Y-28808935D01*
X7655911Y-28815001D01*
X7678603Y-28831488D01*
X7694710Y-28836722D01*
X7705282Y-28840157D01*
X7716008Y-28844600D01*
X7740999Y-28857334D01*
X7746751Y-28858245D01*
X7746754Y-28858246D01*
X7768704Y-28861722D01*
X7779995Y-28864433D01*
X7801129Y-28871300D01*
X7801132Y-28871300D01*
X7806670Y-28873100D01*
X12239266Y-28873100D01*
X12286832Y-28890413D01*
X12291592Y-28894774D01*
X14031226Y-30634408D01*
X14052618Y-30680284D01*
X14052900Y-30686734D01*
X14052900Y-36746094D01*
X14035587Y-36793660D01*
X14027547Y-36801857D01*
X13953903Y-36866101D01*
X13951335Y-36869755D01*
X13951334Y-36869756D01*
X13947440Y-36875297D01*
X13856468Y-37004737D01*
X13794914Y-37162613D01*
X13772797Y-37330615D01*
X13791391Y-37499043D01*
X13849625Y-37658173D01*
X13944135Y-37798820D01*
X14069467Y-37912862D01*
X14073390Y-37914992D01*
X14214459Y-37991587D01*
X14214463Y-37991589D01*
X14218383Y-37993717D01*
X14222697Y-37994849D01*
X14222700Y-37994850D01*
X14370801Y-38033703D01*
X14382288Y-38036717D01*
X14467003Y-38038048D01*
X14547262Y-38039309D01*
X14551718Y-38039379D01*
X14556061Y-38038384D01*
X14556064Y-38038384D01*
X14644317Y-38018171D01*
X14716892Y-38001549D01*
X14720877Y-37999545D01*
X14720879Y-37999544D01*
X14864289Y-37927416D01*
X14864291Y-37927415D01*
X14868275Y-37925411D01*
X14997127Y-37815361D01*
X15096008Y-37677753D01*
X15102783Y-37660901D01*
X15157548Y-37524667D01*
X15159211Y-37520530D01*
X15183087Y-37352769D01*
X15183242Y-37338000D01*
X15162885Y-37169776D01*
X15118075Y-37051191D01*
X15104564Y-37015434D01*
X15104563Y-37015432D01*
X15102988Y-37011264D01*
X15047890Y-36931096D01*
X15009541Y-36875297D01*
X15009539Y-36875295D01*
X15007010Y-36871615D01*
X15003678Y-36868646D01*
X15003675Y-36868643D01*
X14927873Y-36801107D01*
X14903875Y-36756539D01*
X14903100Y-36745856D01*
X14903100Y-30412671D01*
X14894432Y-30385993D01*
X14891722Y-30374705D01*
X14888245Y-30352752D01*
X14887334Y-30346999D01*
X14874602Y-30322011D01*
X14870157Y-30311282D01*
X14863289Y-30290142D01*
X14863288Y-30290140D01*
X14861489Y-30284603D01*
X14844996Y-30261903D01*
X14838935Y-30252012D01*
X14826200Y-30227018D01*
X12698982Y-28099800D01*
X12673988Y-28087065D01*
X12664094Y-28081002D01*
X12646110Y-28067935D01*
X12646109Y-28067934D01*
X12641397Y-28064511D01*
X12635860Y-28062712D01*
X12635858Y-28062711D01*
X12614718Y-28055843D01*
X12603988Y-28051398D01*
X12579001Y-28038666D01*
X12551293Y-28034278D01*
X12540007Y-28031568D01*
X12529437Y-28028134D01*
X12518870Y-28024700D01*
X12518868Y-28024700D01*
X12513329Y-28022900D01*
X8145153Y-28022900D01*
X8097587Y-28005587D01*
X8072277Y-27961750D01*
X8071157Y-27948126D01*
X8071217Y-27942421D01*
X8071217Y-27942415D01*
X8071242Y-27940000D01*
X8050885Y-27771776D01*
X7990988Y-27613264D01*
X7895010Y-27473615D01*
X7842330Y-27426679D01*
X7771825Y-27363861D01*
X7771823Y-27363859D01*
X7768491Y-27360891D01*
X7618736Y-27281600D01*
X7536563Y-27260960D01*
X7458715Y-27241405D01*
X7458712Y-27241405D01*
X7454390Y-27240319D01*
X7367237Y-27239863D01*
X7289399Y-27239455D01*
X7289396Y-27239455D01*
X7284941Y-27239432D01*
X7280606Y-27240473D01*
X7280604Y-27240473D01*
X7194301Y-27261193D01*
X7120172Y-27278989D01*
X6969595Y-27356708D01*
X6966237Y-27359637D01*
X6966236Y-27359638D01*
X6845645Y-27464837D01*
X6841903Y-27468101D01*
X6839335Y-27471755D01*
X6839334Y-27471756D01*
X6835440Y-27477297D01*
X6744468Y-27606737D01*
X6682914Y-27764613D01*
X6660797Y-27932615D01*
X6400000Y-27932615D01*
X6400000Y-22090615D01*
X6660797Y-22090615D01*
X6668853Y-22163587D01*
X6677849Y-22245071D01*
X6679391Y-22259043D01*
X6737625Y-22418173D01*
X6832135Y-22558820D01*
X6957467Y-22672862D01*
X6961390Y-22674992D01*
X7102459Y-22751587D01*
X7102463Y-22751589D01*
X7106383Y-22753717D01*
X7110697Y-22754849D01*
X7110700Y-22754850D01*
X7232498Y-22786803D01*
X7270288Y-22796717D01*
X7283312Y-22796922D01*
X7436651Y-22799331D01*
X7483939Y-22817389D01*
X7487814Y-22820996D01*
X7621018Y-22954200D01*
X7645476Y-22966662D01*
X7646011Y-22966935D01*
X7655911Y-22973001D01*
X7678603Y-22989488D01*
X7694709Y-22994721D01*
X7705282Y-22998157D01*
X7716008Y-23002600D01*
X7740999Y-23015334D01*
X7746751Y-23016245D01*
X7746754Y-23016246D01*
X7768704Y-23019722D01*
X7779995Y-23022433D01*
X7801129Y-23029300D01*
X7801132Y-23029300D01*
X7806670Y-23031100D01*
X13001266Y-23031100D01*
X13048832Y-23048413D01*
X13053592Y-23052774D01*
X16063226Y-26062409D01*
X16084618Y-26108285D01*
X16084900Y-26114735D01*
X16084900Y-36746094D01*
X16067587Y-36793660D01*
X16059547Y-36801857D01*
X15985903Y-36866101D01*
X15983335Y-36869755D01*
X15983334Y-36869756D01*
X15979440Y-36875297D01*
X15888468Y-37004737D01*
X15826914Y-37162613D01*
X15804797Y-37330615D01*
X15823391Y-37499043D01*
X15881625Y-37658173D01*
X15976135Y-37798820D01*
X16101467Y-37912862D01*
X16105390Y-37914992D01*
X16246459Y-37991587D01*
X16246463Y-37991589D01*
X16250383Y-37993717D01*
X16254697Y-37994849D01*
X16254700Y-37994850D01*
X16402801Y-38033703D01*
X16414288Y-38036717D01*
X16499003Y-38038048D01*
X16579262Y-38039309D01*
X16583718Y-38039379D01*
X16588061Y-38038384D01*
X16588064Y-38038384D01*
X16676317Y-38018171D01*
X16748892Y-38001549D01*
X16752877Y-37999545D01*
X16752879Y-37999544D01*
X16896289Y-37927416D01*
X16896291Y-37927415D01*
X16900275Y-37925411D01*
X17029127Y-37815361D01*
X17128008Y-37677753D01*
X17134783Y-37660901D01*
X17189548Y-37524667D01*
X17191211Y-37520530D01*
X17215087Y-37352769D01*
X17215242Y-37338000D01*
X17194885Y-37169776D01*
X17150075Y-37051191D01*
X17136564Y-37015434D01*
X17136563Y-37015432D01*
X17134988Y-37011264D01*
X17079890Y-36931096D01*
X17041541Y-36875297D01*
X17041539Y-36875295D01*
X17039010Y-36871615D01*
X17035678Y-36868646D01*
X17035675Y-36868643D01*
X16959873Y-36801107D01*
X16935875Y-36756539D01*
X16935100Y-36745856D01*
X16935100Y-32633413D01*
X23477900Y-32633413D01*
X23477901Y-34422586D01*
X23478159Y-34424753D01*
X23478159Y-34424758D01*
X23480357Y-34443238D01*
X23481013Y-34448752D01*
X23526396Y-34550923D01*
X23531230Y-34555749D01*
X23531231Y-34555750D01*
X23600683Y-34625081D01*
X23600685Y-34625082D01*
X23605517Y-34629906D01*
X23707766Y-34675110D01*
X23713294Y-34675754D01*
X23713296Y-34675755D01*
X23731284Y-34677852D01*
X23731288Y-34677852D01*
X23733413Y-34678100D01*
X24618905Y-34678100D01*
X25522586Y-34678099D01*
X25524753Y-34677841D01*
X25524758Y-34677841D01*
X25543238Y-34675643D01*
X25543239Y-34675643D01*
X25548752Y-34674987D01*
X25650923Y-34629604D01*
X25696189Y-34584259D01*
X25725081Y-34555317D01*
X25725082Y-34555315D01*
X25729906Y-34550483D01*
X25734023Y-34541172D01*
X25762075Y-34477718D01*
X25775110Y-34448234D01*
X25778100Y-34422587D01*
X25778099Y-33497765D01*
X26013369Y-33497765D01*
X26027193Y-33708686D01*
X26079224Y-33913556D01*
X26080640Y-33916628D01*
X26080642Y-33916633D01*
X26166298Y-34102436D01*
X26167717Y-34105513D01*
X26169675Y-34108283D01*
X26287752Y-34275359D01*
X26287756Y-34275363D01*
X26289711Y-34278130D01*
X26292141Y-34280497D01*
X26435801Y-34420445D01*
X26441118Y-34425625D01*
X26443941Y-34427511D01*
X26614047Y-34541172D01*
X26614052Y-34541175D01*
X26616869Y-34543057D01*
X26619989Y-34544398D01*
X26619990Y-34544398D01*
X26659483Y-34561366D01*
X26811077Y-34626496D01*
X27017239Y-34673146D01*
X27117310Y-34677078D01*
X27225054Y-34681311D01*
X27225058Y-34681311D01*
X27228449Y-34681444D01*
X27367881Y-34661228D01*
X27434278Y-34651601D01*
X27434279Y-34651601D01*
X27437636Y-34651114D01*
X27637792Y-34583170D01*
X27640744Y-34581517D01*
X27640748Y-34581515D01*
X27819253Y-34481546D01*
X27822214Y-34479888D01*
X27824819Y-34477721D01*
X27824824Y-34477718D01*
X27982119Y-34346896D01*
X27984727Y-34344727D01*
X28038147Y-34280497D01*
X28117718Y-34184824D01*
X28117721Y-34184819D01*
X28119888Y-34182214D01*
X28223170Y-33997792D01*
X28291114Y-33797636D01*
X28321444Y-33588449D01*
X28323027Y-33528000D01*
X28305363Y-33335760D01*
X28303997Y-33320892D01*
X28303996Y-33320887D01*
X28303686Y-33317513D01*
X28296272Y-33291222D01*
X28247231Y-33117338D01*
X28246311Y-33114075D01*
X28152822Y-32924500D01*
X28150799Y-32921791D01*
X28150796Y-32921786D01*
X28028384Y-32757857D01*
X28028383Y-32757856D01*
X28026352Y-32755136D01*
X27940125Y-32675428D01*
X27873632Y-32613962D01*
X27873630Y-32613961D01*
X27871136Y-32611655D01*
X27692371Y-32498863D01*
X27689224Y-32497607D01*
X27689221Y-32497606D01*
X27499199Y-32421795D01*
X27499196Y-32421794D01*
X27496045Y-32420537D01*
X27492718Y-32419875D01*
X27492714Y-32419874D01*
X27292056Y-32379961D01*
X27288733Y-32379300D01*
X27197734Y-32378109D01*
X27080772Y-32376578D01*
X27080767Y-32376578D01*
X27077378Y-32376534D01*
X27074033Y-32377109D01*
X27074030Y-32377109D01*
X26973217Y-32394432D01*
X26869057Y-32412330D01*
X26670748Y-32485490D01*
X26489092Y-32593564D01*
X26486548Y-32595795D01*
X26486544Y-32595798D01*
X26441210Y-32635555D01*
X26330173Y-32732932D01*
X26199313Y-32898927D01*
X26100894Y-33085990D01*
X26038213Y-33287856D01*
X26013369Y-33497765D01*
X25778099Y-33497765D01*
X25778099Y-32633414D01*
X25775707Y-32613296D01*
X25775643Y-32612762D01*
X25775643Y-32612761D01*
X25774987Y-32607248D01*
X25729604Y-32505077D01*
X25724769Y-32500250D01*
X25655317Y-32430919D01*
X25655315Y-32430918D01*
X25650483Y-32426094D01*
X25637914Y-32420537D01*
X25553608Y-32383266D01*
X25548234Y-32380890D01*
X25542706Y-32380246D01*
X25542704Y-32380245D01*
X25524716Y-32378148D01*
X25524712Y-32378148D01*
X25522587Y-32377900D01*
X24637095Y-32377900D01*
X23733414Y-32377901D01*
X23731247Y-32378159D01*
X23731242Y-32378159D01*
X23712762Y-32380357D01*
X23712761Y-32380357D01*
X23707248Y-32381013D01*
X23605077Y-32426396D01*
X23600251Y-32431230D01*
X23600250Y-32431231D01*
X23530919Y-32500683D01*
X23530918Y-32500685D01*
X23526094Y-32505517D01*
X23480890Y-32607766D01*
X23480246Y-32613294D01*
X23480245Y-32613296D01*
X23478153Y-32631242D01*
X23477900Y-32633413D01*
X16935100Y-32633413D01*
X16935100Y-25840671D01*
X16926432Y-25813993D01*
X16923722Y-25802705D01*
X16920245Y-25780752D01*
X16919334Y-25774999D01*
X16906602Y-25750011D01*
X16902157Y-25739282D01*
X16895289Y-25718142D01*
X16895288Y-25718140D01*
X16893489Y-25712603D01*
X16890067Y-25707894D01*
X16890064Y-25707887D01*
X16877000Y-25689907D01*
X16870932Y-25680006D01*
X16860843Y-25660204D01*
X16860841Y-25660201D01*
X16858200Y-25655018D01*
X16834252Y-25631070D01*
X16834249Y-25631066D01*
X13484933Y-22281751D01*
X13460982Y-22257800D01*
X13435988Y-22245065D01*
X13426094Y-22239002D01*
X13408110Y-22225935D01*
X13408109Y-22225934D01*
X13403397Y-22222511D01*
X13397860Y-22220712D01*
X13397858Y-22220711D01*
X13376718Y-22213843D01*
X13365988Y-22209398D01*
X13341001Y-22196666D01*
X13313293Y-22192278D01*
X13302007Y-22189568D01*
X13291437Y-22186134D01*
X13280870Y-22182700D01*
X13280868Y-22182700D01*
X13275329Y-22180900D01*
X8145153Y-22180900D01*
X8097587Y-22163587D01*
X8072277Y-22119750D01*
X8071157Y-22106126D01*
X8071217Y-22100421D01*
X8071217Y-22100415D01*
X8071242Y-22098000D01*
X8050885Y-21929776D01*
X7990988Y-21771264D01*
X7895010Y-21631615D01*
X7779146Y-21528384D01*
X7771825Y-21521861D01*
X7771823Y-21521859D01*
X7768491Y-21518891D01*
X7618736Y-21439600D01*
X7522436Y-21415411D01*
X7458715Y-21399405D01*
X7458712Y-21399405D01*
X7454390Y-21398319D01*
X7367237Y-21397863D01*
X7289399Y-21397455D01*
X7289396Y-21397455D01*
X7284941Y-21397432D01*
X7280606Y-21398473D01*
X7280604Y-21398473D01*
X7194301Y-21419193D01*
X7120172Y-21436989D01*
X6969595Y-21514708D01*
X6966237Y-21517637D01*
X6966236Y-21517638D01*
X6952858Y-21529309D01*
X6841903Y-21626101D01*
X6839335Y-21629755D01*
X6839334Y-21629756D01*
X6835440Y-21635297D01*
X6744468Y-21764737D01*
X6682914Y-21922613D01*
X6660797Y-22090615D01*
X6400000Y-22090615D01*
X6400000Y-20820615D01*
X11486797Y-20820615D01*
X11505391Y-20989043D01*
X11563625Y-21148173D01*
X11566113Y-21151875D01*
X11654842Y-21283919D01*
X11658135Y-21288820D01*
X11783467Y-21402862D01*
X11787390Y-21404992D01*
X11928459Y-21481587D01*
X11928463Y-21481589D01*
X11932383Y-21483717D01*
X11936697Y-21484849D01*
X11936700Y-21484850D01*
X12058498Y-21516803D01*
X12096288Y-21526717D01*
X12181003Y-21528048D01*
X12261262Y-21529309D01*
X12265718Y-21529379D01*
X12270061Y-21528384D01*
X12270064Y-21528384D01*
X12358317Y-21508171D01*
X12430892Y-21491549D01*
X12434877Y-21489545D01*
X12434879Y-21489544D01*
X12578289Y-21417416D01*
X12578291Y-21417415D01*
X12582275Y-21415411D01*
X12711127Y-21305361D01*
X12726535Y-21283918D01*
X12768350Y-21255393D01*
X12786629Y-21253100D01*
X13509266Y-21253100D01*
X13556832Y-21270413D01*
X13561592Y-21274774D01*
X16003018Y-23716200D01*
X16025401Y-23727605D01*
X16028011Y-23728935D01*
X16037911Y-23735001D01*
X16060603Y-23751488D01*
X16076709Y-23756721D01*
X16087282Y-23760157D01*
X16098008Y-23764600D01*
X16122999Y-23777334D01*
X16128751Y-23778245D01*
X16128754Y-23778246D01*
X16150704Y-23781722D01*
X16161995Y-23784433D01*
X16183129Y-23791300D01*
X16183132Y-23791300D01*
X16188670Y-23793100D01*
X17182703Y-23793100D01*
X17230269Y-23810413D01*
X17240574Y-23821878D01*
X17240732Y-23821741D01*
X17243649Y-23825120D01*
X17246135Y-23828820D01*
X17371467Y-23942862D01*
X17375390Y-23944992D01*
X17516459Y-24021587D01*
X17516463Y-24021589D01*
X17520383Y-24023717D01*
X17524697Y-24024849D01*
X17524700Y-24024850D01*
X17661170Y-24060652D01*
X17684288Y-24066717D01*
X17769003Y-24068048D01*
X17849262Y-24069309D01*
X17853718Y-24069379D01*
X17858061Y-24068384D01*
X17858064Y-24068384D01*
X17946317Y-24048171D01*
X18018892Y-24031549D01*
X18022877Y-24029545D01*
X18022879Y-24029544D01*
X18166289Y-23957416D01*
X18166291Y-23957415D01*
X18170275Y-23955411D01*
X18299127Y-23845361D01*
X18398008Y-23707753D01*
X18427189Y-23635164D01*
X18459548Y-23554667D01*
X18461211Y-23550530D01*
X18485087Y-23382769D01*
X18485242Y-23368000D01*
X18464885Y-23199776D01*
X18426324Y-23097729D01*
X18406564Y-23045434D01*
X18406563Y-23045432D01*
X18404988Y-23041264D01*
X18342322Y-22950084D01*
X18311541Y-22905297D01*
X18311539Y-22905295D01*
X18309010Y-22901615D01*
X18194209Y-22799331D01*
X18185825Y-22791861D01*
X18185823Y-22791859D01*
X18182491Y-22788891D01*
X18032736Y-22709600D01*
X17950563Y-22688960D01*
X17872715Y-22669405D01*
X17872712Y-22669405D01*
X17868390Y-22668319D01*
X17781238Y-22667863D01*
X17703399Y-22667455D01*
X17703396Y-22667455D01*
X17698941Y-22667432D01*
X17694606Y-22668473D01*
X17694604Y-22668473D01*
X17608301Y-22689193D01*
X17534172Y-22706989D01*
X17383595Y-22784708D01*
X17380237Y-22787637D01*
X17380236Y-22787638D01*
X17369749Y-22796787D01*
X17255903Y-22896101D01*
X17245115Y-22911450D01*
X17203602Y-22940411D01*
X17184573Y-22942900D01*
X16462734Y-22942900D01*
X16415168Y-22925587D01*
X16410408Y-22921226D01*
X13968982Y-20479800D01*
X13943988Y-20467065D01*
X13934094Y-20461002D01*
X13916110Y-20447935D01*
X13916109Y-20447934D01*
X13911397Y-20444511D01*
X13905860Y-20442712D01*
X13905858Y-20442711D01*
X13884718Y-20435843D01*
X13873988Y-20431398D01*
X13849001Y-20418666D01*
X13821293Y-20414278D01*
X13810007Y-20411568D01*
X13799437Y-20408134D01*
X13788870Y-20404700D01*
X13788868Y-20404700D01*
X13783329Y-20402900D01*
X12788318Y-20402900D01*
X12740752Y-20385587D01*
X12727332Y-20370813D01*
X12723536Y-20365290D01*
X12723535Y-20365289D01*
X12721010Y-20361615D01*
X12711527Y-20353166D01*
X12597825Y-20251861D01*
X12597823Y-20251859D01*
X12594491Y-20248891D01*
X12444736Y-20169600D01*
X12362563Y-20148960D01*
X12284715Y-20129405D01*
X12284712Y-20129405D01*
X12280390Y-20128319D01*
X12193238Y-20127863D01*
X12115399Y-20127455D01*
X12115396Y-20127455D01*
X12110941Y-20127432D01*
X12106606Y-20128473D01*
X12106604Y-20128473D01*
X12020301Y-20149193D01*
X11946172Y-20166989D01*
X11795595Y-20244708D01*
X11667903Y-20356101D01*
X11665335Y-20359755D01*
X11665334Y-20359756D01*
X11661445Y-20365290D01*
X11570468Y-20494737D01*
X11508914Y-20652613D01*
X11486797Y-20820615D01*
X6400000Y-20820615D01*
X6400000Y-9089945D01*
X6417313Y-9042379D01*
X6421682Y-9037612D01*
X6666579Y-8792785D01*
X8635308Y-6824613D01*
X9738567Y-5721667D01*
X9784446Y-5700281D01*
X9790885Y-5700000D01*
X105945084Y-5700000D01*
X105992650Y-5717313D01*
G37*
G04 #@! TD.AperFunction*
G04 #@! TA.AperFunction,Conductor*
G36*
X107736027Y-99286412D02*
G01*
X107740787Y-99290773D01*
X110494235Y-102044221D01*
X110515627Y-102090097D01*
X110515276Y-102106206D01*
X110510361Y-102143542D01*
X110508797Y-102155419D01*
X110518094Y-102239633D01*
X110526015Y-102311379D01*
X110527391Y-102323847D01*
X110528924Y-102328036D01*
X110583022Y-102475863D01*
X110585625Y-102482977D01*
X110624241Y-102540444D01*
X110667561Y-102604911D01*
X110680135Y-102623624D01*
X110803560Y-102735931D01*
X110803561Y-102735932D01*
X110805467Y-102737666D01*
X110805064Y-102738109D01*
X110831932Y-102777053D01*
X110827170Y-102827448D01*
X110818436Y-102841521D01*
X110801737Y-102862704D01*
X110791313Y-102875927D01*
X110692894Y-103062990D01*
X110691888Y-103066229D01*
X110691887Y-103066232D01*
X110644706Y-103218182D01*
X110630213Y-103264856D01*
X110605369Y-103474765D01*
X110619193Y-103685686D01*
X110671224Y-103890556D01*
X110672643Y-103893633D01*
X110672644Y-103893637D01*
X110681828Y-103913558D01*
X110686021Y-103964003D01*
X110666952Y-103996866D01*
X110208592Y-104455226D01*
X110162716Y-104476618D01*
X110156266Y-104476900D01*
X110054854Y-104476900D01*
X110007288Y-104459587D01*
X109981978Y-104415750D01*
X109990768Y-104365900D01*
X110007535Y-104346006D01*
X110034119Y-104323896D01*
X110036727Y-104321727D01*
X110090147Y-104257497D01*
X110169718Y-104161824D01*
X110169721Y-104161819D01*
X110171888Y-104159214D01*
X110264060Y-103994631D01*
X110273515Y-103977748D01*
X110273517Y-103977744D01*
X110275170Y-103974792D01*
X110343114Y-103774636D01*
X110349214Y-103732566D01*
X110373131Y-103567611D01*
X110373132Y-103567603D01*
X110373444Y-103565449D01*
X110375027Y-103505000D01*
X110371939Y-103471392D01*
X110355997Y-103297892D01*
X110355996Y-103297887D01*
X110355686Y-103294513D01*
X110348272Y-103268222D01*
X110305133Y-103115265D01*
X110298311Y-103091075D01*
X110261408Y-103016244D01*
X110206321Y-102904539D01*
X110206319Y-102904536D01*
X110204822Y-102901500D01*
X110202799Y-102898791D01*
X110202796Y-102898786D01*
X110080384Y-102734857D01*
X110080383Y-102734856D01*
X110078352Y-102732136D01*
X109984754Y-102645614D01*
X109925632Y-102590962D01*
X109925630Y-102590961D01*
X109923136Y-102588655D01*
X109786842Y-102502660D01*
X109747240Y-102477673D01*
X109747238Y-102477672D01*
X109744371Y-102475863D01*
X109741224Y-102474607D01*
X109741221Y-102474606D01*
X109551199Y-102398795D01*
X109551196Y-102398794D01*
X109548045Y-102397537D01*
X109544718Y-102396875D01*
X109544714Y-102396874D01*
X109344056Y-102356961D01*
X109340733Y-102356300D01*
X109249734Y-102355109D01*
X109132772Y-102353578D01*
X109132767Y-102353578D01*
X109129378Y-102353534D01*
X109126033Y-102354109D01*
X109126030Y-102354109D01*
X109065623Y-102364489D01*
X108921057Y-102389330D01*
X108847757Y-102416372D01*
X108808044Y-102431023D01*
X108757425Y-102431244D01*
X108730105Y-102413923D01*
X107948982Y-101632800D01*
X107923988Y-101620065D01*
X107914094Y-101614002D01*
X107911916Y-101612419D01*
X107891397Y-101597511D01*
X107885860Y-101595712D01*
X107885858Y-101595711D01*
X107864718Y-101588843D01*
X107853988Y-101584398D01*
X107849317Y-101582018D01*
X107829001Y-101571666D01*
X107801293Y-101567278D01*
X107790007Y-101564568D01*
X107779437Y-101561134D01*
X107768870Y-101557700D01*
X107768868Y-101557700D01*
X107763329Y-101555900D01*
X97869735Y-101555900D01*
X97822169Y-101538587D01*
X97817409Y-101534226D01*
X95678607Y-99395425D01*
X95657215Y-99349549D01*
X95670316Y-99300654D01*
X95711780Y-99271620D01*
X95730933Y-99269099D01*
X107688461Y-99269099D01*
X107736027Y-99286412D01*
G37*
G04 #@! TD.AperFunction*
G04 #@! TA.AperFunction,Conductor*
G36*
X95217832Y-100137413D02*
G01*
X95222592Y-100141774D01*
X97386066Y-102305249D01*
X97386070Y-102305252D01*
X97410018Y-102329200D01*
X97415201Y-102331841D01*
X97415204Y-102331843D01*
X97435006Y-102341932D01*
X97444907Y-102348000D01*
X97462887Y-102361064D01*
X97462894Y-102361067D01*
X97467603Y-102364489D01*
X97473140Y-102366288D01*
X97473142Y-102366289D01*
X97494282Y-102373157D01*
X97505011Y-102377602D01*
X97529999Y-102390334D01*
X97557707Y-102394722D01*
X97568993Y-102397432D01*
X97579563Y-102400866D01*
X97590130Y-102404300D01*
X97590132Y-102404300D01*
X97595671Y-102406100D01*
X100193971Y-102406100D01*
X100241537Y-102423413D01*
X100266847Y-102467250D01*
X100263262Y-102506075D01*
X100250378Y-102540444D01*
X100248247Y-102549407D01*
X100242217Y-102604911D01*
X100242000Y-102608921D01*
X100242000Y-103237952D01*
X100245638Y-103247948D01*
X100250925Y-103251000D01*
X101780000Y-103251000D01*
X101827566Y-103268313D01*
X101852876Y-103312150D01*
X101854000Y-103325000D01*
X101854000Y-103685000D01*
X101836687Y-103732566D01*
X101792850Y-103757876D01*
X101780000Y-103759000D01*
X100255049Y-103759000D01*
X100245053Y-103762638D01*
X100242001Y-103767925D01*
X100242001Y-104402900D01*
X100224688Y-104450466D01*
X100180851Y-104475776D01*
X100168001Y-104476900D01*
X99266735Y-104476900D01*
X99219169Y-104459587D01*
X99214409Y-104455226D01*
X95018933Y-100259751D01*
X95005608Y-100246426D01*
X94984216Y-100200550D01*
X94997317Y-100151655D01*
X95038781Y-100122621D01*
X95057934Y-100120100D01*
X95170266Y-100120100D01*
X95217832Y-100137413D01*
G37*
G04 #@! TD.AperFunction*
G04 #@! TA.AperFunction,Conductor*
G36*
X71920477Y-75951415D02*
G01*
X71927133Y-75957315D01*
X73721230Y-77751412D01*
X73742622Y-77797288D01*
X73742904Y-77803738D01*
X73742904Y-83863094D01*
X73725591Y-83910660D01*
X73717551Y-83918857D01*
X73643907Y-83983101D01*
X73641339Y-83986755D01*
X73641338Y-83986756D01*
X73618329Y-84019495D01*
X73546472Y-84121737D01*
X73484918Y-84279613D01*
X73462801Y-84447615D01*
X73463291Y-84452050D01*
X73480761Y-84610296D01*
X73481395Y-84616043D01*
X73482928Y-84620232D01*
X73524511Y-84733861D01*
X73539629Y-84775173D01*
X73583623Y-84840643D01*
X73625432Y-84902862D01*
X73634139Y-84915820D01*
X73759471Y-85029862D01*
X73763394Y-85031992D01*
X73904463Y-85108587D01*
X73904467Y-85108589D01*
X73908387Y-85110717D01*
X73912701Y-85111849D01*
X73912704Y-85111850D01*
X74026776Y-85141776D01*
X74072292Y-85153717D01*
X74157007Y-85155048D01*
X74237266Y-85156309D01*
X74241722Y-85156379D01*
X74246065Y-85155384D01*
X74246068Y-85155384D01*
X74354907Y-85130456D01*
X74406896Y-85118549D01*
X74410881Y-85116545D01*
X74410883Y-85116544D01*
X74554293Y-85044416D01*
X74554295Y-85044415D01*
X74558279Y-85042411D01*
X74687131Y-84932361D01*
X74786012Y-84794753D01*
X74787349Y-84795713D01*
X74820662Y-84766552D01*
X74871270Y-84765494D01*
X74902712Y-84786703D01*
X74904135Y-84788820D01*
X75029467Y-84902862D01*
X75033390Y-84904992D01*
X75174459Y-84981587D01*
X75174463Y-84981589D01*
X75178383Y-84983717D01*
X75182697Y-84984849D01*
X75182700Y-84984850D01*
X75328970Y-85023223D01*
X75342288Y-85026717D01*
X75357383Y-85026954D01*
X75404671Y-85045011D01*
X75429290Y-85089241D01*
X75419718Y-85138946D01*
X75408547Y-85153271D01*
X75304281Y-85257537D01*
X75258405Y-85278929D01*
X75251568Y-85279210D01*
X75107399Y-85278455D01*
X75107396Y-85278455D01*
X75102941Y-85278432D01*
X75098606Y-85279473D01*
X75098604Y-85279473D01*
X75012301Y-85300193D01*
X74938172Y-85317989D01*
X74787595Y-85395708D01*
X74784237Y-85398637D01*
X74784236Y-85398638D01*
X74671864Y-85496667D01*
X74659903Y-85507101D01*
X74657335Y-85510755D01*
X74657334Y-85510756D01*
X74628667Y-85551545D01*
X74562468Y-85645737D01*
X74500914Y-85803613D01*
X74478797Y-85971615D01*
X74497391Y-86140043D01*
X74498924Y-86144232D01*
X74541616Y-86260891D01*
X74555625Y-86299173D01*
X74566810Y-86315818D01*
X74641428Y-86426862D01*
X74650135Y-86439820D01*
X74775467Y-86553862D01*
X74779390Y-86555992D01*
X74920459Y-86632587D01*
X74920463Y-86632589D01*
X74924383Y-86634717D01*
X74928697Y-86635849D01*
X74928700Y-86635850D01*
X75049740Y-86667604D01*
X75088288Y-86677717D01*
X75173003Y-86679048D01*
X75253262Y-86680309D01*
X75257718Y-86680379D01*
X75262061Y-86679384D01*
X75262064Y-86679384D01*
X75378234Y-86652777D01*
X75422892Y-86642549D01*
X75426877Y-86640545D01*
X75426879Y-86640544D01*
X75570289Y-86568416D01*
X75570291Y-86568415D01*
X75574275Y-86566411D01*
X75703127Y-86456361D01*
X75802008Y-86318753D01*
X75803347Y-86319715D01*
X75836644Y-86290555D01*
X75887252Y-86289486D01*
X75918712Y-86310702D01*
X75920135Y-86312820D01*
X75923426Y-86315815D01*
X75923429Y-86315818D01*
X75990995Y-86377297D01*
X76045467Y-86426862D01*
X76049390Y-86428992D01*
X76190459Y-86505587D01*
X76190463Y-86505589D01*
X76194383Y-86507717D01*
X76198697Y-86508849D01*
X76198700Y-86508850D01*
X76346801Y-86547703D01*
X76358288Y-86550717D01*
X76364510Y-86550815D01*
X76433748Y-86551903D01*
X76481036Y-86569961D01*
X76505654Y-86614191D01*
X76501529Y-86652776D01*
X76496914Y-86664613D01*
X76474797Y-86832615D01*
X76481309Y-86891600D01*
X76481974Y-86897625D01*
X76469985Y-86946804D01*
X76460747Y-86958071D01*
X76315592Y-87103226D01*
X76269716Y-87124618D01*
X76263266Y-87124900D01*
X72756318Y-87124900D01*
X72708752Y-87107587D01*
X72695332Y-87092813D01*
X72691536Y-87087290D01*
X72691535Y-87087289D01*
X72689010Y-87083615D01*
X72619983Y-87022114D01*
X72565825Y-86973861D01*
X72565823Y-86973859D01*
X72562491Y-86970891D01*
X72477465Y-86925872D01*
X72416678Y-86893687D01*
X72416677Y-86893687D01*
X72412736Y-86891600D01*
X72330563Y-86870959D01*
X72252715Y-86851405D01*
X72252712Y-86851405D01*
X72248390Y-86850319D01*
X72161238Y-86849863D01*
X72083399Y-86849455D01*
X72083396Y-86849455D01*
X72078941Y-86849432D01*
X72074606Y-86850473D01*
X72074604Y-86850473D01*
X72056710Y-86854769D01*
X71914172Y-86888989D01*
X71763595Y-86966708D01*
X71760237Y-86969637D01*
X71760236Y-86969638D01*
X71694863Y-87026667D01*
X71635903Y-87078101D01*
X71633335Y-87081755D01*
X71633334Y-87081756D01*
X71629445Y-87087290D01*
X71538468Y-87216737D01*
X71476914Y-87374613D01*
X71454797Y-87542615D01*
X71473391Y-87711043D01*
X71474924Y-87715232D01*
X71513070Y-87819470D01*
X71513158Y-87870089D01*
X71480689Y-87908922D01*
X71443577Y-87918901D01*
X69658670Y-87918901D01*
X69653131Y-87920701D01*
X69653129Y-87920701D01*
X69642562Y-87924135D01*
X69631992Y-87927569D01*
X69620706Y-87930279D01*
X69592998Y-87934667D01*
X69587362Y-87937539D01*
X69568011Y-87947399D01*
X69557281Y-87951844D01*
X69536141Y-87958712D01*
X69536139Y-87958713D01*
X69530602Y-87960512D01*
X69525893Y-87963934D01*
X69525886Y-87963937D01*
X69507906Y-87977001D01*
X69498005Y-87983069D01*
X69478203Y-87993158D01*
X69478200Y-87993160D01*
X69473017Y-87995801D01*
X69449069Y-88019749D01*
X69449065Y-88019752D01*
X68619397Y-88849420D01*
X68573521Y-88870812D01*
X68566684Y-88871093D01*
X68422516Y-88870338D01*
X68422513Y-88870338D01*
X68418058Y-88870315D01*
X68413723Y-88871356D01*
X68413721Y-88871356D01*
X68371010Y-88881610D01*
X68253289Y-88909872D01*
X68155533Y-88960328D01*
X68111958Y-88982819D01*
X68102712Y-88987591D01*
X68099354Y-88990520D01*
X68099353Y-88990521D01*
X67978450Y-89095992D01*
X67975020Y-89098984D01*
X67877585Y-89237620D01*
X67816031Y-89395496D01*
X67805271Y-89477232D01*
X67800456Y-89513808D01*
X67793914Y-89563498D01*
X67798433Y-89604433D01*
X67811293Y-89720916D01*
X67812508Y-89731926D01*
X67814041Y-89736115D01*
X67868806Y-89885765D01*
X67870742Y-89891056D01*
X67892621Y-89923615D01*
X67936237Y-89988523D01*
X67965252Y-90031703D01*
X68090584Y-90145745D01*
X68094507Y-90147875D01*
X68235576Y-90224470D01*
X68235580Y-90224472D01*
X68239500Y-90226600D01*
X68243814Y-90227732D01*
X68243817Y-90227733D01*
X68391918Y-90266586D01*
X68403405Y-90269600D01*
X68413479Y-90269758D01*
X68572307Y-90272254D01*
X68619595Y-90290312D01*
X68644213Y-90334542D01*
X68634641Y-90384247D01*
X68623470Y-90398571D01*
X68538525Y-90483516D01*
X68503474Y-90503145D01*
X68479753Y-90508840D01*
X68354172Y-90538989D01*
X68203595Y-90616708D01*
X68200237Y-90619637D01*
X68200236Y-90619638D01*
X68092211Y-90713875D01*
X68075903Y-90728101D01*
X68073335Y-90731755D01*
X68073334Y-90731756D01*
X68043888Y-90773654D01*
X67978468Y-90866737D01*
X67916914Y-91024613D01*
X67911030Y-91069311D01*
X67904450Y-91119294D01*
X67894797Y-91192615D01*
X67898420Y-91225429D01*
X67912642Y-91354255D01*
X67913391Y-91361043D01*
X67914924Y-91365232D01*
X67957724Y-91482186D01*
X67971625Y-91520173D01*
X67988611Y-91545451D01*
X68046897Y-91632190D01*
X68066135Y-91660820D01*
X68191467Y-91774862D01*
X68195390Y-91776992D01*
X68336459Y-91853587D01*
X68336463Y-91853589D01*
X68340383Y-91855717D01*
X68355349Y-91859643D01*
X68356576Y-91859965D01*
X68398191Y-91888782D01*
X68411548Y-91937607D01*
X68407618Y-91954629D01*
X68407644Y-91954636D01*
X68407374Y-91955686D01*
X68406743Y-91958421D01*
X68406535Y-91958953D01*
X68406533Y-91958960D01*
X68404914Y-91963113D01*
X68382797Y-92131115D01*
X68389974Y-92196125D01*
X68377985Y-92245304D01*
X68368750Y-92256567D01*
X68325775Y-92299543D01*
X68019091Y-92606227D01*
X67973215Y-92627619D01*
X67966765Y-92627901D01*
X65767933Y-92627901D01*
X65720367Y-92610588D01*
X65695057Y-92566751D01*
X65699274Y-92526298D01*
X65703548Y-92515668D01*
X65703549Y-92515664D01*
X65705211Y-92511530D01*
X65729087Y-92343769D01*
X65729242Y-92329000D01*
X65708885Y-92160776D01*
X65670324Y-92058729D01*
X65650564Y-92006434D01*
X65650563Y-92006432D01*
X65648988Y-92002264D01*
X65604551Y-91937607D01*
X65555541Y-91866297D01*
X65555539Y-91866295D01*
X65553010Y-91862615D01*
X65549678Y-91859646D01*
X65549675Y-91859643D01*
X65473873Y-91792107D01*
X65449875Y-91747539D01*
X65449100Y-91736856D01*
X65449100Y-82121738D01*
X65466413Y-82074172D01*
X65470774Y-82069412D01*
X71000340Y-76539846D01*
X71046216Y-76518454D01*
X71053828Y-76518181D01*
X71171807Y-76520035D01*
X71189266Y-76520309D01*
X71193722Y-76520379D01*
X71198065Y-76519384D01*
X71198068Y-76519384D01*
X71286321Y-76499171D01*
X71358896Y-76482549D01*
X71362881Y-76480545D01*
X71362883Y-76480544D01*
X71506293Y-76408416D01*
X71506295Y-76408415D01*
X71510279Y-76406411D01*
X71639131Y-76296361D01*
X71738012Y-76158753D01*
X71801215Y-76001530D01*
X71801843Y-75997117D01*
X71802999Y-75992803D01*
X71804719Y-75993264D01*
X71825396Y-75954554D01*
X71872366Y-75935681D01*
X71920477Y-75951415D01*
G37*
G04 #@! TD.AperFunction*
M02*
