G04 #@! TF.GenerationSoftware,KiCad,Pcbnew,6.0.0-d3dd2cf0fa~116~ubuntu21.10.1*
G04 #@! TF.CreationDate,2022-02-12T15:32:37+00:00*
G04 #@! TF.ProjectId,indexingWheel,696e6465-7869-46e6-9757-6865656c2e6b,rev?*
G04 #@! TF.SameCoordinates,Original*
G04 #@! TF.FileFunction,Profile,NP*
%FSLAX46Y46*%
G04 Gerber Fmt 4.6, Leading zero omitted, Abs format (unit mm)*
G04 Created by KiCad (PCBNEW 6.0.0-d3dd2cf0fa~116~ubuntu21.10.1) date 2022-02-12 15:32:37*
%MOMM*%
%LPD*%
G01*
G04 APERTURE LIST*
G04 #@! TA.AperFunction,Profile*
%ADD10C,0.050000*%
G04 #@! TD*
G04 APERTURE END LIST*
D10*
X149826858Y-116405081D02*
G75*
G03*
X150413858Y-116012081I97001J489999D01*
G01*
X171092858Y-98452081D02*
G75*
G03*
X170592858Y-97952081I-500001J-1D01*
G01*
X159749858Y-81976081D02*
X160211858Y-82168081D01*
X143369858Y-109485081D02*
X141248858Y-111607081D01*
X147503858Y-111541081D02*
G75*
G03*
X146850855Y-111812089I-191000J-462000D01*
G01*
X145903858Y-80039081D02*
X145518858Y-79109081D01*
X160211858Y-115236080D02*
G75*
G03*
X160482858Y-114583081I-190999J461999D01*
G01*
X139312858Y-101188081D02*
X139410858Y-101678081D01*
X170402858Y-96024081D02*
G75*
G03*
X170796858Y-95436081I-97000J491000D01*
G01*
X138125858Y-107801081D02*
X140619858Y-106134081D01*
X142400858Y-115604081D02*
G75*
G03*
X144979867Y-116982558I10691956J16901920D01*
G01*
X162815858Y-108778081D02*
G75*
G03*
X162814864Y-109485087I353002J-354000D01*
G01*
X136746858Y-87178081D02*
X135909858Y-86619081D01*
X133580858Y-94311081D02*
X132593858Y-94115081D01*
X162884858Y-83597081D02*
X163300858Y-83874081D01*
X155770858Y-116012081D02*
X155185858Y-113070081D01*
X140187858Y-110546081D02*
G75*
G03*
X140187858Y-111254081I353999J-354000D01*
G01*
X172604858Y-103093081D02*
X173591858Y-103289081D01*
X160482858Y-82821081D02*
X159334858Y-85593081D01*
X169438858Y-87178081D02*
G75*
G03*
X167583652Y-84917627I-16346078J-11524066D01*
G01*
X166201858Y-92460081D02*
X168973858Y-91312081D01*
X138601858Y-84918081D02*
X137889858Y-84206081D01*
X172799858Y-102112081D02*
X173786858Y-102309081D01*
X152342858Y-116202081D02*
X152342858Y-113202081D01*
X155578858Y-112482080D02*
G75*
G03*
X155186860Y-113070090I98001J-490001D01*
G01*
X153592858Y-118696081D02*
G75*
G03*
X156503119Y-118409444I-500014J19994142D01*
G01*
X165565858Y-106134081D02*
X168059858Y-107801081D01*
X139312859Y-101188081D02*
G75*
G03*
X138724849Y-100796083I-490001J-98001D01*
G01*
X143369858Y-88626081D02*
G75*
G03*
X143370852Y-87919075I-353002J354000D01*
G01*
X142400858Y-115604081D02*
X141841858Y-116441081D01*
X164732858Y-90023081D02*
X167226858Y-88356081D01*
X140253858Y-93113081D02*
X140062858Y-93575081D01*
X153842858Y-113202081D02*
G75*
G03*
X153342858Y-112702081I-500001J-1D01*
G01*
X170592858Y-99452081D02*
G75*
G03*
X171092858Y-98952081I-1J500001D01*
G01*
X166122859Y-93575081D02*
G75*
G03*
X166775866Y-93846078I461999J190999D01*
G01*
X163168858Y-88979081D02*
G75*
G03*
X163875864Y-88980075I354000J353002D01*
G01*
X138592858Y-99452081D02*
X135592858Y-99452081D01*
X163784858Y-81800081D02*
X164343858Y-80963081D01*
X138596858Y-83499081D02*
G75*
G03*
X137890858Y-84207081I-353000J-354000D01*
G01*
X162884858Y-83597081D02*
G75*
G03*
X162192858Y-83735081I-277000J-414999D01*
G01*
X153592858Y-118696081D02*
X153592858Y-119702081D01*
X145106858Y-110204081D02*
G75*
G03*
X144413853Y-110341088I-278000J-415001D01*
G01*
X140062857Y-103829081D02*
G75*
G03*
X139409850Y-103558084I-461999J-190999D01*
G01*
X156656858Y-112777081D02*
X157242858Y-115719081D01*
X171372858Y-90589081D02*
X172302858Y-90204081D01*
X156849858Y-116307081D02*
X156358858Y-116405081D01*
X162815858Y-87919081D02*
X164936858Y-85797081D01*
X165175858Y-81519081D02*
G75*
G03*
X164343858Y-80963081I-416000J278000D01*
G01*
X166775858Y-103558081D02*
X169547858Y-104706081D01*
X170402858Y-96024081D02*
X167460858Y-96609081D01*
X139409858Y-93846082D02*
G75*
G03*
X140062858Y-93575081I191000J462000D01*
G01*
X149682858Y-118409081D02*
G75*
G03*
X152593063Y-118695684I3410012J19707108D01*
G01*
X165931858Y-104291081D02*
X166122858Y-103829081D01*
X167460858Y-100795081D02*
X170402858Y-101380081D01*
X149335858Y-81097081D02*
X149826858Y-80999081D01*
X132398858Y-102309081D02*
G75*
G03*
X132594858Y-103289081I98000J-490000D01*
G01*
X138724858Y-96609081D02*
X135782858Y-96024081D01*
X135487858Y-102459081D02*
X135389858Y-101968081D01*
X164616858Y-115048081D02*
X165175858Y-115885081D01*
X164616858Y-82356081D02*
X165175858Y-81519081D01*
X147965858Y-85672081D02*
X147503858Y-85863081D01*
X150999858Y-113070081D02*
G75*
G03*
X150606858Y-112481081I-491000J98000D01*
G01*
X141568858Y-82356081D02*
X141009858Y-81519081D01*
X170795858Y-101968081D02*
G75*
G03*
X170402858Y-101381081I-489999J97001D01*
G01*
X138958858Y-88356081D02*
X141452858Y-90023081D01*
X169547858Y-92698080D02*
G75*
G03*
X169818858Y-92045081I-190999J461999D01*
G01*
X152592858Y-78708081D02*
X152592858Y-77702081D01*
X167588858Y-113905081D02*
G75*
G03*
X168294858Y-113197081I353000J354000D01*
G01*
X169438858Y-110226081D02*
X170275858Y-110785081D01*
X160211858Y-115236081D02*
X159749858Y-115428081D01*
X138601858Y-84918081D02*
G75*
G03*
X136746720Y-87178561I14490921J-13783936D01*
G01*
X161771858Y-110342081D02*
G75*
G03*
X161079858Y-110204081I-415000J-276999D01*
G01*
X139308858Y-84211081D02*
X138596858Y-83499081D01*
X163875858Y-108425081D02*
G75*
G03*
X163169858Y-108425081I-353000J-353001D01*
G01*
X171755858Y-91513081D02*
X172685858Y-91128081D01*
X155185858Y-84334081D02*
X155770858Y-81392081D01*
X146435858Y-115428082D02*
G75*
G03*
X147088858Y-115157081I191000J462000D01*
G01*
X150414858Y-81392081D02*
G75*
G03*
X149826858Y-80998081I-491000J-97000D01*
G01*
X167167858Y-95138081D02*
X170109858Y-94552081D01*
X164594858Y-106688081D02*
G75*
G03*
X164731865Y-107381086I415001J-278000D01*
G01*
X163168858Y-88979081D02*
X162815858Y-88626081D01*
X152592858Y-78708081D02*
G75*
G03*
X149682597Y-78994718I500014J-19994142D01*
G01*
X132092858Y-98202081D02*
G75*
G03*
X132092858Y-99202081I0J-500000D01*
G01*
X161205858Y-116982081D02*
G75*
G03*
X163784798Y-115603607I-8113035J18280063D01*
G01*
X144979858Y-116982081D02*
X144594858Y-117912081D01*
X135782858Y-101380081D02*
G75*
G03*
X135388858Y-101968081I97000J-491000D01*
G01*
X149485858Y-78008081D02*
G75*
G03*
X148505858Y-78204081I-490000J-98000D01*
G01*
X171372858Y-106815081D02*
X172302858Y-107200081D01*
X164616858Y-115048081D02*
G75*
G03*
X166877312Y-113192875I-11524066J16346078D01*
G01*
X133499858Y-106276081D02*
G75*
G03*
X133883858Y-107200081I192000J-462000D01*
G01*
X167460858Y-100795081D02*
G75*
G03*
X166871858Y-101188081I-98000J-491000D01*
G01*
X169818858Y-105359081D02*
X169626858Y-105821081D01*
X149335858Y-81097082D02*
G75*
G03*
X148943858Y-81685081I97999J-489999D01*
G01*
X159334858Y-111811081D02*
X160482858Y-114583081D01*
X162815858Y-87919081D02*
G75*
G03*
X162815858Y-88625081I353001J-353000D01*
G01*
X166774858Y-101678081D02*
X166872858Y-101188081D01*
X145522858Y-86923081D02*
G75*
G03*
X145660853Y-86229074I-278000J416000D01*
G01*
X170275858Y-110785081D02*
G75*
G03*
X170831858Y-109953081I278000J416000D01*
G01*
X140253858Y-93113081D02*
G75*
G03*
X139982850Y-92460078I-462000J191000D01*
G01*
X135389858Y-95436081D02*
X135487858Y-94945081D01*
X167592858Y-97952081D02*
X170592858Y-97952081D01*
X134812858Y-106815081D02*
X133882858Y-107200081D01*
X166775858Y-103558080D02*
G75*
G03*
X166122858Y-103829081I-191000J-462000D01*
G01*
X163784858Y-81800081D02*
G75*
G03*
X161205849Y-80421604I-10691956J-16901920D01*
G01*
X153842858Y-81202081D02*
G75*
G03*
X153342858Y-80702081I-500001J-1D01*
G01*
X170109858Y-102852081D02*
X167167858Y-102266081D01*
X146850858Y-85593081D02*
X145702858Y-82821081D01*
X135909858Y-86619081D02*
G75*
G03*
X135353858Y-87451081I-278000J-416000D01*
G01*
X137211858Y-91312081D02*
X139983858Y-92460081D01*
X152342858Y-84202081D02*
G75*
G03*
X152842858Y-84702081I500001J1D01*
G01*
X136190858Y-88010081D02*
G75*
G03*
X134812381Y-90589090I16901920J-10691956D01*
G01*
X153342858Y-116702081D02*
G75*
G03*
X153842858Y-116202081I-1J500001D01*
G01*
X167920858Y-88494081D02*
G75*
G03*
X167226858Y-88356081I-416000J-278000D01*
G01*
X139983858Y-104944081D02*
X137211858Y-106092081D01*
X164936858Y-111607081D02*
G75*
G03*
X165644858Y-111607081I354000J353999D01*
G01*
X159096859Y-115157081D02*
G75*
G03*
X159749858Y-115428081I461999J190999D01*
G01*
X133385858Y-95292081D02*
G75*
G03*
X133099255Y-98202286I19707108J-3410012D01*
G01*
X157948857Y-85019081D02*
G75*
G03*
X158219858Y-85672081I462000J-191000D01*
G01*
X166876858Y-84211081D02*
G75*
G03*
X164616378Y-82355943I-13783936J-14490921D01*
G01*
X136637858Y-104706081D02*
X139409858Y-103558081D01*
X152842858Y-80702081D02*
X153342858Y-80702081D01*
X138125858Y-107801081D02*
G75*
G03*
X137986858Y-108494081I277000J-416000D01*
G01*
X155185858Y-84334081D02*
G75*
G03*
X155578858Y-84923081I491000J-98000D01*
G01*
X172685858Y-91128081D02*
G75*
G03*
X172301858Y-90204081I-192000J462000D01*
G01*
X166872857Y-96216081D02*
G75*
G03*
X167460867Y-96608079I490001J98001D01*
G01*
X156502858Y-78995081D02*
G75*
G03*
X153592653Y-78708478I-3410012J-19707108D01*
G01*
X156068858Y-85020081D02*
G75*
G03*
X156657860Y-84627072I98001J490998D01*
G01*
X162815858Y-108778081D02*
X163168858Y-108425081D01*
X173086858Y-98202081D02*
G75*
G03*
X172800221Y-95291820I-19994142J-500014D01*
G01*
X141248858Y-85797081D02*
G75*
G03*
X140540858Y-85797081I-354000J-353999D01*
G01*
X157679858Y-78203081D02*
G75*
G03*
X156699858Y-78009081I-490000J97000D01*
G01*
X133580858Y-103093081D02*
G75*
G03*
X134429744Y-105891462I19512129J4391039D01*
G01*
X169626857Y-91583081D02*
G75*
G03*
X168973858Y-91312081I-461999J-190999D01*
G01*
X168059858Y-89603081D02*
X165565858Y-91270081D01*
X144594858Y-117912081D02*
G75*
G03*
X145518858Y-118294081I462000J-191000D01*
G01*
X169994858Y-88010081D02*
X170831858Y-87451081D01*
X157483858Y-79190081D02*
X157679858Y-78203081D01*
X142884858Y-83874081D02*
X143300858Y-83597081D01*
X171755858Y-105891081D02*
X172685858Y-106276081D01*
X151125858Y-96852081D02*
G75*
G03*
X151126226Y-100552472I1967001J-1850000D01*
G01*
X136558859Y-105821081D02*
G75*
G03*
X137211858Y-106092081I461999J190999D01*
G01*
X148236859Y-112385081D02*
G75*
G03*
X147965858Y-111732081I-462000J191000D01*
G01*
X134812858Y-90589081D02*
X133882858Y-90204081D01*
X144413858Y-87062081D02*
G75*
G03*
X145105858Y-87200081I415000J276999D01*
G01*
X157483858Y-118214081D02*
G75*
G03*
X160282239Y-117365195I-4391039J19512129D01*
G01*
X139017858Y-102266080D02*
G75*
G03*
X139409858Y-101678081I-97999J489999D01*
G01*
X148942858Y-115719081D02*
X149528858Y-112777081D01*
X168197858Y-108494081D02*
X167920858Y-108910081D01*
X133385858Y-102112081D02*
X132398858Y-102309081D01*
X166774858Y-101678081D02*
G75*
G03*
X167167867Y-102267083I490998J-98001D01*
G01*
X136190858Y-109394081D02*
X135353858Y-109953081D01*
X143300858Y-113807081D02*
G75*
G03*
X143992858Y-113669081I277000J414999D01*
G01*
X163875858Y-108425081D02*
X165997858Y-110546081D01*
X149528858Y-84627081D02*
X148942858Y-81685081D01*
X163300858Y-113530081D02*
X162884858Y-113807081D01*
X167092858Y-98952081D02*
G75*
G03*
X167592867Y-99452081I500000J0D01*
G01*
X149682858Y-78995081D02*
X149485858Y-78008081D01*
X133882858Y-90204081D02*
G75*
G03*
X133500858Y-91128081I-191000J-462000D01*
G01*
X141568858Y-115048081D02*
X141009858Y-115885081D01*
X165643858Y-85797081D02*
G75*
G03*
X164936858Y-85798081I-353000J-354002D01*
G01*
X139092858Y-98452081D02*
G75*
G03*
X138592849Y-97952081I-500000J0D01*
G01*
X171092858Y-98452081D02*
X171092858Y-98952081D01*
X158681858Y-85863081D02*
X158219858Y-85672081D01*
X151125858Y-100552081D02*
X155059858Y-100552081D01*
X167092858Y-98952081D02*
X167092858Y-98452081D01*
X142309858Y-88979081D02*
X140187858Y-86858081D01*
X167583858Y-112486081D02*
G75*
G03*
X169438996Y-110225601I-14490921J13783936D01*
G01*
X145702858Y-114583081D02*
X146850858Y-111811081D01*
X169438858Y-87178081D02*
X170275858Y-86619081D01*
X160662858Y-110481081D02*
X161078858Y-110204081D01*
X153592858Y-77702081D02*
G75*
G03*
X152592858Y-77702081I-500000J0D01*
G01*
X151125858Y-96852081D02*
X155059858Y-96852081D01*
X141452858Y-107381081D02*
G75*
G03*
X141590858Y-106689081I-276999J415000D01*
G01*
X147965858Y-85672080D02*
G75*
G03*
X148236855Y-85019073I-190999J461999D01*
G01*
X168295858Y-84206081D02*
G75*
G03*
X167587858Y-83500081I-354000J353000D01*
G01*
X169994858Y-109394081D02*
X170831858Y-109953081D01*
X152342858Y-116202081D02*
G75*
G03*
X152842858Y-116702081I500001J1D01*
G01*
X141313858Y-106272081D02*
X141590858Y-106688081D01*
X167167858Y-95138082D02*
G75*
G03*
X166775858Y-95726081I97999J-489999D01*
G01*
X153842858Y-113202081D02*
X153842858Y-116202081D01*
X140187858Y-86151081D02*
X140541858Y-85797081D01*
X140541858Y-111607081D02*
X140187858Y-111253081D01*
X160281858Y-80039081D02*
G75*
G03*
X157483498Y-79190249I-7188986J-18662944D01*
G01*
X143369858Y-88626081D02*
X143016858Y-88979081D01*
X149528859Y-84627081D02*
G75*
G03*
X150116858Y-85019081I489999J97999D01*
G01*
X139308858Y-113193081D02*
G75*
G03*
X141569338Y-115048219I13783936J14490921D01*
G01*
X141313858Y-106272081D02*
G75*
G03*
X140619851Y-106134086I-416000J-278000D01*
G01*
X170795858Y-101968081D02*
X170697858Y-102459081D01*
X143300858Y-113807081D02*
X142884858Y-113530081D01*
X152842858Y-80702081D02*
G75*
G03*
X152342858Y-81202081I1J-500001D01*
G01*
X173086858Y-98202081D02*
X174092858Y-98202081D01*
X145973858Y-82168081D02*
X146435858Y-81976081D01*
X136746858Y-110226081D02*
G75*
G03*
X138602064Y-112486535I16346078J11524066D01*
G01*
X160281858Y-117365081D02*
X160666858Y-118295081D01*
X162191858Y-113669081D02*
X160524858Y-111175081D01*
X165997858Y-111253081D02*
G75*
G03*
X165996858Y-110546081I-354002J353000D01*
G01*
X161205858Y-80422081D02*
X161590858Y-79492081D01*
X136366857Y-92045081D02*
G75*
G03*
X136637858Y-92698081I462000J-191000D01*
G01*
X140541858Y-111607081D02*
G75*
G03*
X141248858Y-111606081I353000J354002D01*
G01*
X160662858Y-110481081D02*
G75*
G03*
X160524863Y-111175088I278000J-416000D01*
G01*
X137211858Y-91312080D02*
G75*
G03*
X136558858Y-91583081I-191000J-462000D01*
G01*
X164343858Y-116441081D02*
G75*
G03*
X165175858Y-115885081I416000J278000D01*
G01*
X165997858Y-111253081D02*
X165643858Y-111607081D01*
X139308858Y-113193081D02*
X138596858Y-113905081D01*
X138601858Y-112486081D02*
X137889858Y-113198081D01*
X165565858Y-106134081D02*
G75*
G03*
X164871858Y-106272081I-278000J-416000D01*
G01*
X136746858Y-110226081D02*
X135909858Y-110785081D01*
X152592858Y-119702081D02*
G75*
G03*
X153592858Y-119702081I500000J0D01*
G01*
X152842858Y-112702081D02*
G75*
G03*
X152342858Y-113202090I0J-500000D01*
G01*
X160524858Y-86229081D02*
G75*
G03*
X160662858Y-86923081I416000J-278000D01*
G01*
X157483858Y-118214081D02*
X157679858Y-119201081D01*
X161078858Y-87200081D02*
G75*
G03*
X161771863Y-87063074I278000J415001D01*
G01*
X135092858Y-98952081D02*
G75*
G03*
X135592858Y-99452081I500001J1D01*
G01*
X170697858Y-94945081D02*
X170795858Y-95436081D01*
X136190858Y-88010081D02*
X135353858Y-87451081D01*
X167226858Y-109048081D02*
X164732858Y-107381081D01*
X156502858Y-78995081D02*
X156699858Y-78008081D01*
X169547858Y-92698081D02*
X166775858Y-93846081D01*
X136558858Y-105821081D02*
X136366858Y-105359081D01*
X150414858Y-81392081D02*
X150999858Y-84334081D01*
X133098858Y-99202081D02*
X132092858Y-99202081D01*
X143016858Y-108425081D02*
X143369858Y-108778081D01*
X139410858Y-95726081D02*
X139312858Y-96216081D01*
X170109858Y-102852081D02*
G75*
G03*
X170698858Y-102459081I98000J491000D01*
G01*
X135487859Y-102459081D02*
G75*
G03*
X136075858Y-102851081I489999J97999D01*
G01*
X166876858Y-113193081D02*
X167588858Y-113905081D01*
X164732858Y-90023081D02*
G75*
G03*
X164594858Y-90715081I276999J-415000D01*
G01*
X144979858Y-80422081D02*
X144594858Y-79492081D01*
X147503858Y-111541081D02*
X147965858Y-111732081D01*
X136366858Y-92045081D02*
X136558858Y-91583081D01*
X141452858Y-107381081D02*
X138958858Y-109048081D01*
X162191858Y-113669081D02*
G75*
G03*
X162884858Y-113808081I416000J277000D01*
G01*
X167583858Y-112486081D02*
X168295858Y-113198081D01*
X168973858Y-106092081D02*
X166201858Y-104944081D01*
X155578858Y-112482081D02*
X156068858Y-112384081D01*
X158219858Y-111732082D02*
G75*
G03*
X157948861Y-112385089I190999J-461999D01*
G01*
X145973858Y-82168082D02*
G75*
G03*
X145702858Y-82821081I190999J-461999D01*
G01*
X140187858Y-110546081D02*
X142309858Y-108425081D01*
X171372858Y-90589081D02*
G75*
G03*
X169994384Y-88010141I-18280063J-8113035D01*
G01*
X133098858Y-99202081D02*
G75*
G03*
X133385495Y-102112342I19994142J500014D01*
G01*
X168973858Y-106092082D02*
G75*
G03*
X169626858Y-105821081I191000J462000D01*
G01*
X147088857Y-82247081D02*
G75*
G03*
X146435858Y-81976081I-461999J-190999D01*
G01*
X135353858Y-109953081D02*
G75*
G03*
X135909858Y-110785081I278000J-416000D01*
G01*
X166872858Y-96216081D02*
X166774858Y-95726081D01*
X134429858Y-91513081D02*
X133499858Y-91128081D01*
X149826858Y-116405081D02*
X149335858Y-116307081D01*
X148505858Y-119201081D02*
G75*
G03*
X149485858Y-119395081I490000J-97000D01*
G01*
X161771858Y-110342081D02*
X163438858Y-112836081D01*
X164871858Y-91132081D02*
G75*
G03*
X165565865Y-91270076I416000J278000D01*
G01*
X161590858Y-79492081D02*
G75*
G03*
X160666858Y-79110081I-462000J191000D01*
G01*
X146850858Y-85593081D02*
G75*
G03*
X147504858Y-85863081I462000J191999D01*
G01*
X172799858Y-102112081D02*
G75*
G03*
X173086461Y-99201876I-19707108J3410012D01*
G01*
X148942858Y-115719081D02*
G75*
G03*
X149335858Y-116308081I491000J-98000D01*
G01*
X135592858Y-97952081D02*
X138592858Y-97952081D01*
X168059858Y-89603081D02*
G75*
G03*
X168198858Y-88910081I-277000J416000D01*
G01*
X165643858Y-85797081D02*
X165997858Y-86151081D01*
X172799858Y-95292081D02*
X173786858Y-95095081D01*
X132593858Y-94115081D02*
G75*
G03*
X132399858Y-95095081I-97000J-490000D01*
G01*
X136075858Y-94552081D02*
X139017858Y-95138081D01*
X174092858Y-99202081D02*
G75*
G03*
X174092858Y-98202081I0J500000D01*
G01*
X158219858Y-111732081D02*
X158681858Y-111541081D01*
X135782858Y-101380081D02*
X138724858Y-100795081D01*
X157242858Y-81685081D02*
X156656858Y-84627081D01*
X139409858Y-93846081D02*
X136637858Y-92698081D01*
X136637858Y-104706082D02*
G75*
G03*
X136366858Y-105359081I190999J-461999D01*
G01*
X157242858Y-81685081D02*
G75*
G03*
X156849858Y-81096081I-491000J98000D01*
G01*
X161205858Y-116982081D02*
X161590858Y-117912081D01*
X165997858Y-86858081D02*
G75*
G03*
X165997858Y-86150081I-353999J354000D01*
G01*
X165997858Y-86858081D02*
X163875858Y-88979081D01*
X137889858Y-113198081D02*
G75*
G03*
X138597858Y-113904081I354000J-353000D01*
G01*
X160666858Y-118295081D02*
G75*
G03*
X161590858Y-117911081I462000J192000D01*
G01*
X144979858Y-80422081D02*
G75*
G03*
X142400918Y-81800555I8113035J-18280063D01*
G01*
X159749858Y-81976080D02*
G75*
G03*
X159096858Y-82247081I-191000J-462000D01*
G01*
X159096858Y-115157081D02*
X157948858Y-112385081D01*
X141841858Y-80963081D02*
G75*
G03*
X141009858Y-81519081I-416000J-278000D01*
G01*
X143016858Y-108425081D02*
G75*
G03*
X142309852Y-108424087I-354000J-353002D01*
G01*
X156068858Y-85020081D02*
X155578858Y-84922081D01*
X137987858Y-88910081D02*
X138264858Y-88494081D01*
X145522858Y-86923081D02*
X145106858Y-87200081D01*
X145903858Y-117365081D02*
G75*
G03*
X148702218Y-118213913I7188986J18662944D01*
G01*
X173591858Y-103289081D02*
G75*
G03*
X173785858Y-102309081I97000J490000D01*
G01*
X155059858Y-100552081D02*
G75*
G03*
X155059490Y-96851690I-1967001J1850000D01*
G01*
X160524858Y-86229081D02*
X162191858Y-83735081D01*
X145660858Y-111175081D02*
X143993858Y-113669081D01*
X170697857Y-94945081D02*
G75*
G03*
X170109858Y-94553081I-489999J-97999D01*
G01*
X153592858Y-78708081D02*
X153592858Y-77702081D01*
X167226858Y-109048081D02*
G75*
G03*
X167920858Y-108910081I278000J416000D01*
G01*
X163438858Y-84568081D02*
G75*
G03*
X163300858Y-83874081I-416000J278000D01*
G01*
X169626858Y-91583081D02*
X169818858Y-92045081D01*
X145106858Y-110204081D02*
X145522858Y-110481081D01*
X148236858Y-112385081D02*
X147088858Y-115157081D01*
X135592858Y-97952081D02*
G75*
G03*
X135092858Y-98452081I1J-500001D01*
G01*
X140619858Y-91270081D02*
G75*
G03*
X141313858Y-91132081I278000J416000D01*
G01*
X143993858Y-83735081D02*
G75*
G03*
X143300858Y-83596081I-416000J-277000D01*
G01*
X166876858Y-84211081D02*
X167588858Y-83499081D01*
X146435858Y-115428081D02*
X145973858Y-115236081D01*
X165931858Y-104291081D02*
G75*
G03*
X166202866Y-104944084I462000J-191000D01*
G01*
X164594858Y-106688081D02*
X164871858Y-106272081D01*
X150116858Y-112384081D02*
G75*
G03*
X149527856Y-112777090I-98001J-490998D01*
G01*
X152342858Y-84202081D02*
X152342858Y-81202081D01*
X169818859Y-105359081D02*
G75*
G03*
X169547858Y-104706081I-462000J191000D01*
G01*
X149682858Y-118409081D02*
X149485858Y-119396081D01*
X145702857Y-114583081D02*
G75*
G03*
X145973858Y-115236081I462000J-191000D01*
G01*
X156358858Y-80999081D02*
X156849858Y-81097081D01*
X134812858Y-106815081D02*
G75*
G03*
X136191332Y-109394021I18280063J8113035D01*
G01*
X147088858Y-82247081D02*
X148236858Y-85019081D01*
X167592858Y-97952081D02*
G75*
G03*
X167092858Y-98452081I1J-500001D01*
G01*
X135389858Y-95436081D02*
G75*
G03*
X135782858Y-96023081I489999J-97001D01*
G01*
X141568858Y-82356081D02*
G75*
G03*
X139308404Y-84211287I11524066J-16346078D01*
G01*
X135092858Y-98952081D02*
X135092858Y-98452081D01*
X156849858Y-116307080D02*
G75*
G03*
X157241858Y-115719081I-97999J489999D01*
G01*
X141590858Y-90716081D02*
G75*
G03*
X141453851Y-90023076I-415001J278000D01*
G01*
X140062858Y-103829081D02*
X140253858Y-104291081D01*
X145903858Y-117365081D02*
X145518858Y-118295081D01*
X157948858Y-85019081D02*
X159096858Y-82247081D01*
X160281858Y-80039081D02*
X160666858Y-79109081D01*
X170592858Y-99452081D02*
X167592858Y-99452081D01*
X141009858Y-115885081D02*
G75*
G03*
X141841858Y-116441081I416000J-278000D01*
G01*
X138958858Y-88356081D02*
G75*
G03*
X138264858Y-88494081I-278000J-416000D01*
G01*
X136075858Y-94552081D02*
G75*
G03*
X135486858Y-94945081I-98000J-491000D01*
G01*
X133385858Y-95292081D02*
X132398858Y-95095081D01*
X143369858Y-109485081D02*
G75*
G03*
X143369858Y-108779081I-353001J353000D01*
G01*
X170831858Y-87451081D02*
G75*
G03*
X170275858Y-86619081I-278000J416000D01*
G01*
X164936858Y-111607081D02*
X162815858Y-109485081D01*
X150606858Y-84922081D02*
X150116858Y-85020081D01*
X172604858Y-94311081D02*
X173591858Y-94115081D01*
X156656857Y-112777081D02*
G75*
G03*
X156068858Y-112385081I-489999J-97999D01*
G01*
X167920858Y-88494081D02*
X168197858Y-88910081D01*
X148701858Y-79190081D02*
X148505858Y-78203081D01*
X133098858Y-98202081D02*
X132092858Y-98202081D01*
X158681858Y-85863081D02*
G75*
G03*
X159334861Y-85592073I191000J462000D01*
G01*
X160482859Y-82821081D02*
G75*
G03*
X160211858Y-82168081I-462000J191000D01*
G01*
X139017858Y-102266081D02*
X136075858Y-102852081D01*
X138264858Y-108910081D02*
G75*
G03*
X138958858Y-109048081I416000J278000D01*
G01*
X168197858Y-108494081D02*
G75*
G03*
X168059858Y-107802081I-414999J277000D01*
G01*
X138724858Y-96609081D02*
G75*
G03*
X139313858Y-96216081I98000J491000D01*
G01*
X159334858Y-111811081D02*
G75*
G03*
X158680858Y-111541081I-462000J-191999D01*
G01*
X163784858Y-115604081D02*
X164343858Y-116441081D01*
X141590858Y-90716081D02*
X141313858Y-91132081D01*
X150606858Y-84922082D02*
G75*
G03*
X150998856Y-84334072I-98001J490001D01*
G01*
X156502858Y-118409081D02*
X156699858Y-119396081D01*
X142884858Y-83874081D02*
G75*
G03*
X142746858Y-84568081I278000J-416000D01*
G01*
X169994858Y-109394081D02*
G75*
G03*
X171373335Y-106815072I-16901920J10691956D01*
G01*
X142746858Y-112836081D02*
G75*
G03*
X142884858Y-113530081I416000J-278000D01*
G01*
X161078858Y-87200081D02*
X160662858Y-86923081D01*
X166201858Y-92460081D02*
G75*
G03*
X165931858Y-93114081I191999J-462000D01*
G01*
X138264858Y-108910081D02*
X137987858Y-108494081D01*
X139092858Y-98452081D02*
X139092858Y-98952081D01*
X140619858Y-91270081D02*
X138125858Y-89603081D01*
X140187858Y-86151081D02*
G75*
G03*
X140188858Y-86858081I354002J-353000D01*
G01*
X171755858Y-105891081D02*
G75*
G03*
X172604690Y-103092721I-18662944J7188986D01*
G01*
X156699858Y-119396081D02*
G75*
G03*
X157679858Y-119200081I490000J98000D01*
G01*
X139410858Y-95726081D02*
G75*
G03*
X139017849Y-95137079I-490998J98001D01*
G01*
X134429858Y-91513081D02*
G75*
G03*
X133581026Y-94311441I18662944J-7188986D01*
G01*
X148701858Y-118214081D02*
X148505858Y-119201081D01*
X167583858Y-84918081D02*
X168295858Y-84206081D01*
X145518858Y-79109081D02*
G75*
G03*
X144594858Y-79493081I-462000J-192000D01*
G01*
X142746858Y-112836081D02*
X144413858Y-110342081D01*
X153342858Y-84702081D02*
X152842858Y-84702081D01*
X152592858Y-118696081D02*
X152592858Y-119702081D01*
X173786858Y-95095081D02*
G75*
G03*
X173590858Y-94115081I-98000J490000D01*
G01*
X142309858Y-88979081D02*
G75*
G03*
X143015858Y-88979081I353000J353001D01*
G01*
X163300858Y-113530081D02*
G75*
G03*
X163438858Y-112836081I-278000J416000D01*
G01*
X164871858Y-91132081D02*
X164594858Y-90716081D01*
X137987858Y-88910081D02*
G75*
G03*
X138125858Y-89602081I414999J-277000D01*
G01*
X144413858Y-87062081D02*
X142746858Y-84568081D01*
X153842858Y-81202081D02*
X153842858Y-84202081D01*
X139983858Y-104944081D02*
G75*
G03*
X140253858Y-104290081I-191999J462000D01*
G01*
X172604858Y-94311081D02*
G75*
G03*
X171755972Y-91512700I-19512129J-4391039D01*
G01*
X150116858Y-112384081D02*
X150606858Y-112482081D01*
X133580858Y-103093081D02*
X132593858Y-103289081D01*
X148701858Y-79190081D02*
G75*
G03*
X145903477Y-80038967I4391039J-19512129D01*
G01*
X153342858Y-84702081D02*
G75*
G03*
X153842858Y-84202072I0J500000D01*
G01*
X156358858Y-80999081D02*
G75*
G03*
X155771858Y-81392081I-97001J-489999D01*
G01*
X143993858Y-83735081D02*
X145660858Y-86229081D01*
X173086858Y-99202081D02*
X174092858Y-99202081D01*
X150999858Y-113070081D02*
X150414858Y-116012081D01*
X163438858Y-84568081D02*
X161771858Y-87062081D01*
X145660858Y-111175081D02*
G75*
G03*
X145522858Y-110481081I-416000J278000D01*
G01*
X142400858Y-81800081D02*
X141841858Y-80963081D01*
X134429858Y-105891081D02*
X133499858Y-106276081D01*
X141248858Y-85797081D02*
X143369858Y-87919081D01*
X152842858Y-112702081D02*
X153342858Y-112702081D01*
X166122858Y-93575081D02*
X165931858Y-93113081D01*
X153342858Y-116702081D02*
X152842858Y-116702081D01*
X155770858Y-116012081D02*
G75*
G03*
X156358858Y-116406081I491000J97000D01*
G01*
X172302858Y-107200081D02*
G75*
G03*
X172684858Y-106276081I191000J462000D01*
G01*
X138592858Y-99452081D02*
G75*
G03*
X139092858Y-98952081I-1J500001D01*
G01*
M02*
