G04 #@! TF.GenerationSoftware,KiCad,Pcbnew,6.0.0-d3dd2cf0fa~116~ubuntu21.10.1*
G04 #@! TF.CreationDate,2022-02-12T15:34:00+00:00*
G04 #@! TF.ProjectId,ringLight,72696e67-4c69-4676-9874-2e6b69636164,04*
G04 #@! TF.SameCoordinates,PX7bfa480PY7270e00*
G04 #@! TF.FileFunction,Copper,L2,Bot*
G04 #@! TF.FilePolarity,Positive*
%FSLAX46Y46*%
G04 Gerber Fmt 4.6, Leading zero omitted, Abs format (unit mm)*
G04 Created by KiCad (PCBNEW 6.0.0-d3dd2cf0fa~116~ubuntu21.10.1) date 2022-02-12 15:34:00*
%MOMM*%
%LPD*%
G01*
G04 APERTURE LIST*
G04 Aperture macros list*
%AMRoundRect*
0 Rectangle with rounded corners*
0 $1 Rounding radius*
0 $2 $3 $4 $5 $6 $7 $8 $9 X,Y pos of 4 corners*
0 Add a 4 corners polygon primitive as box body*
4,1,4,$2,$3,$4,$5,$6,$7,$8,$9,$2,$3,0*
0 Add four circle primitives for the rounded corners*
1,1,$1+$1,$2,$3*
1,1,$1+$1,$4,$5*
1,1,$1+$1,$6,$7*
1,1,$1+$1,$8,$9*
0 Add four rect primitives between the rounded corners*
20,1,$1+$1,$2,$3,$4,$5,0*
20,1,$1+$1,$4,$5,$6,$7,0*
20,1,$1+$1,$6,$7,$8,$9,0*
20,1,$1+$1,$8,$9,$2,$3,0*%
G04 Aperture macros list end*
G04 #@! TA.AperFunction,ComponentPad*
%ADD10RoundRect,0.250000X0.600000X0.725000X-0.600000X0.725000X-0.600000X-0.725000X0.600000X-0.725000X0*%
G04 #@! TD*
G04 #@! TA.AperFunction,ComponentPad*
%ADD11O,1.700000X1.950000*%
G04 #@! TD*
G04 #@! TA.AperFunction,ViaPad*
%ADD12C,1.000000*%
G04 #@! TD*
G04 #@! TA.AperFunction,ViaPad*
%ADD13C,0.800000*%
G04 #@! TD*
G04 #@! TA.AperFunction,Conductor*
%ADD14C,0.500000*%
G04 #@! TD*
G04 APERTURE END LIST*
D10*
X152500000Y-77850000D03*
D11*
X150000000Y-77850000D03*
X147500000Y-77850000D03*
D10*
X152500000Y-72475000D03*
D11*
X150000000Y-72475000D03*
X147500000Y-72475000D03*
D12*
X164500000Y-93500000D03*
X156500000Y-114500000D03*
X135400000Y-106300000D03*
X164750000Y-105750000D03*
X144205909Y-114750000D03*
X159700000Y-93800000D03*
X158900000Y-87700000D03*
X143600000Y-85400000D03*
X135200000Y-94200000D03*
D13*
X151750000Y-80750000D03*
X154500000Y-74500000D03*
D12*
X150100000Y-86900000D03*
D13*
X153000000Y-80750000D03*
X154500000Y-76250000D03*
D12*
X150000000Y-82200000D03*
X161500000Y-84750000D03*
D13*
X156000000Y-88250000D03*
D14*
X156000000Y-88250000D02*
X156500000Y-87750000D01*
X152550000Y-84750000D02*
X150000000Y-82200000D01*
X161500000Y-84750000D02*
X156500000Y-84750000D01*
X156500000Y-84750000D02*
X152550000Y-84750000D01*
X156500000Y-87750000D02*
X156500000Y-84750000D01*
G04 #@! TA.AperFunction,Conductor*
G36*
X155228161Y-70151527D02*
G01*
X155250000Y-70154986D01*
X155259640Y-70153459D01*
X155268148Y-70153459D01*
X155284333Y-70154520D01*
X155324401Y-70159795D01*
X155355668Y-70168173D01*
X155409921Y-70190645D01*
X155437950Y-70206828D01*
X155473887Y-70234404D01*
X155484538Y-70242577D01*
X155507423Y-70265462D01*
X155543172Y-70312050D01*
X155559356Y-70340081D01*
X155581827Y-70394331D01*
X155590205Y-70425599D01*
X155595480Y-70465667D01*
X155596541Y-70481852D01*
X155596541Y-70490360D01*
X155595014Y-70500000D01*
X155598531Y-70522204D01*
X155600056Y-70541424D01*
X155614063Y-80886902D01*
X155612701Y-80905397D01*
X155610587Y-80919541D01*
X155610587Y-80919547D01*
X155609145Y-80929195D01*
X155619283Y-80989771D01*
X155619285Y-80989783D01*
X155619419Y-80990603D01*
X155629121Y-81051331D01*
X155629809Y-81052677D01*
X155630058Y-81054165D01*
X155634329Y-81062369D01*
X155658367Y-81108546D01*
X155658786Y-81109359D01*
X155682579Y-81155900D01*
X155682583Y-81155906D01*
X155686798Y-81164150D01*
X155687868Y-81165217D01*
X155688565Y-81166556D01*
X155732444Y-81209676D01*
X155732958Y-81210186D01*
X155776515Y-81253624D01*
X155777861Y-81254307D01*
X155778939Y-81255367D01*
X155787255Y-81259513D01*
X155787256Y-81259514D01*
X155833905Y-81282772D01*
X155834723Y-81283184D01*
X155881230Y-81306802D01*
X155881233Y-81306803D01*
X155889490Y-81310996D01*
X155890986Y-81311231D01*
X155892334Y-81311903D01*
X155908921Y-81314382D01*
X155930509Y-81319620D01*
X156719970Y-81588060D01*
X156725157Y-81589954D01*
X157535321Y-81906452D01*
X157540414Y-81908573D01*
X157788030Y-82018289D01*
X158335672Y-82260944D01*
X158340684Y-82263300D01*
X159119410Y-82650824D01*
X159124311Y-82653402D01*
X159884910Y-83075282D01*
X159889692Y-83078075D01*
X160630750Y-83533528D01*
X160635374Y-83536514D01*
X161008285Y-83789315D01*
X161052727Y-83843223D01*
X161060970Y-83912604D01*
X161030394Y-83975428D01*
X161011587Y-83992268D01*
X160896040Y-84076218D01*
X160830234Y-84099698D01*
X160823155Y-84099900D01*
X156573177Y-84099900D01*
X156549941Y-84097703D01*
X156548810Y-84097487D01*
X156548801Y-84097486D01*
X156541145Y-84096026D01*
X156483540Y-84099650D01*
X156483466Y-84099655D01*
X156475680Y-84099900D01*
X152870642Y-84099900D01*
X152803603Y-84080215D01*
X152782961Y-84063581D01*
X150934426Y-82215046D01*
X150900941Y-82153723D01*
X150898786Y-82140327D01*
X150885959Y-82018289D01*
X150885280Y-82011828D01*
X150826812Y-81831880D01*
X150732207Y-81668020D01*
X150605602Y-81527411D01*
X150452529Y-81416197D01*
X150279678Y-81339239D01*
X150249151Y-81332750D01*
X150100967Y-81301252D01*
X150100962Y-81301252D01*
X150094604Y-81299900D01*
X149905396Y-81299900D01*
X149899038Y-81301252D01*
X149899033Y-81301252D01*
X149750849Y-81332750D01*
X149720322Y-81339239D01*
X149547471Y-81416197D01*
X149394398Y-81527411D01*
X149267793Y-81668020D01*
X149173188Y-81831880D01*
X149114720Y-82011828D01*
X149094942Y-82200000D01*
X149114720Y-82388172D01*
X149173188Y-82568120D01*
X149267793Y-82731980D01*
X149394398Y-82872589D01*
X149547471Y-82983803D01*
X149720322Y-83060761D01*
X149726684Y-83062113D01*
X149726683Y-83062113D01*
X149899033Y-83098748D01*
X149899038Y-83098748D01*
X149905396Y-83100100D01*
X149929357Y-83100100D01*
X149996396Y-83119785D01*
X150017038Y-83136419D01*
X152033015Y-85152395D01*
X152040878Y-85161036D01*
X152040929Y-85161097D01*
X152045108Y-85167683D01*
X152050792Y-85173021D01*
X152050794Y-85173023D01*
X152096123Y-85215589D01*
X152098920Y-85218300D01*
X152119232Y-85238612D01*
X152122699Y-85241301D01*
X152131588Y-85248892D01*
X152164844Y-85280122D01*
X152183428Y-85290339D01*
X152199683Y-85301017D01*
X152216442Y-85314016D01*
X152223597Y-85317112D01*
X152223600Y-85317114D01*
X152258311Y-85332134D01*
X152268795Y-85337270D01*
X152308780Y-85359252D01*
X152329321Y-85364526D01*
X152347723Y-85370827D01*
X152360024Y-85376150D01*
X152360026Y-85376150D01*
X152367186Y-85379249D01*
X152374893Y-85380470D01*
X152374894Y-85380470D01*
X152386669Y-85382335D01*
X152412254Y-85386387D01*
X152423674Y-85388752D01*
X152467873Y-85400100D01*
X152489077Y-85400100D01*
X152508475Y-85401627D01*
X152529418Y-85404944D01*
X152537184Y-85404210D01*
X152537186Y-85404210D01*
X152574843Y-85400650D01*
X152586513Y-85400100D01*
X155725900Y-85400100D01*
X155792939Y-85419785D01*
X155838694Y-85472589D01*
X155849900Y-85524100D01*
X155849900Y-87367083D01*
X155830215Y-87434122D01*
X155777411Y-87479877D01*
X155765861Y-87484467D01*
X155663743Y-87519231D01*
X155663735Y-87519235D01*
X155657178Y-87521467D01*
X155651276Y-87525098D01*
X155523559Y-87603670D01*
X155504292Y-87615523D01*
X155376043Y-87741113D01*
X155278806Y-87891996D01*
X155217413Y-88060672D01*
X155216545Y-88067545D01*
X155216544Y-88067548D01*
X155195784Y-88231878D01*
X155194915Y-88238758D01*
X155212432Y-88417403D01*
X155269091Y-88587727D01*
X155362078Y-88741266D01*
X155486770Y-88870389D01*
X155636970Y-88968677D01*
X155805213Y-89031246D01*
X155983138Y-89054986D01*
X155990039Y-89054358D01*
X155990041Y-89054358D01*
X156097641Y-89044566D01*
X156161901Y-89038718D01*
X156332616Y-88983249D01*
X156338569Y-88979700D01*
X156338574Y-88979698D01*
X156437067Y-88920984D01*
X156486801Y-88891336D01*
X156491815Y-88886561D01*
X156491818Y-88886559D01*
X156554308Y-88827051D01*
X156616791Y-88767549D01*
X156634253Y-88741266D01*
X156712291Y-88623809D01*
X156712292Y-88623808D01*
X156716125Y-88618038D01*
X156779867Y-88450236D01*
X156784022Y-88420670D01*
X156812844Y-88357024D01*
X156819134Y-88350247D01*
X156902401Y-88266980D01*
X156911042Y-88259117D01*
X156911097Y-88259072D01*
X156917683Y-88254892D01*
X156923021Y-88249208D01*
X156923023Y-88249206D01*
X156965589Y-88203877D01*
X156968300Y-88201080D01*
X156988612Y-88180768D01*
X156991302Y-88177299D01*
X156998894Y-88168410D01*
X157030122Y-88135156D01*
X157040339Y-88116571D01*
X157051017Y-88100317D01*
X157059237Y-88089719D01*
X157064016Y-88083558D01*
X157076738Y-88054160D01*
X157082134Y-88041689D01*
X157087270Y-88031205D01*
X157109252Y-87991220D01*
X157114526Y-87970679D01*
X157120827Y-87952277D01*
X157126150Y-87939976D01*
X157126150Y-87939974D01*
X157129249Y-87932814D01*
X157136387Y-87887746D01*
X157138752Y-87876326D01*
X157150100Y-87832127D01*
X157150100Y-87810923D01*
X157151627Y-87791525D01*
X157153723Y-87778291D01*
X157154944Y-87770582D01*
X157150650Y-87725157D01*
X157150100Y-87713487D01*
X157150100Y-85524100D01*
X157169785Y-85457061D01*
X157222589Y-85411306D01*
X157274100Y-85400100D01*
X160823155Y-85400100D01*
X160896040Y-85423782D01*
X161047471Y-85533803D01*
X161220322Y-85610761D01*
X161226684Y-85612113D01*
X161226683Y-85612113D01*
X161399033Y-85648748D01*
X161399038Y-85648748D01*
X161405396Y-85650100D01*
X161594604Y-85650100D01*
X161600962Y-85648748D01*
X161600967Y-85648748D01*
X161773317Y-85612113D01*
X161773316Y-85612113D01*
X161779678Y-85610761D01*
X161952529Y-85533803D01*
X162105602Y-85422589D01*
X162136066Y-85388755D01*
X162227860Y-85286808D01*
X162227861Y-85286807D01*
X162232207Y-85281980D01*
X162326812Y-85118120D01*
X162360798Y-85013521D01*
X162400235Y-84955846D01*
X162464594Y-84928647D01*
X162533440Y-84940561D01*
X162557187Y-84955817D01*
X162735229Y-85101292D01*
X162739418Y-85104873D01*
X163208116Y-85524100D01*
X163387740Y-85684765D01*
X163391784Y-85688548D01*
X164013555Y-86296795D01*
X164017426Y-86300755D01*
X164611408Y-86936145D01*
X164615099Y-86940274D01*
X165180140Y-87601576D01*
X165183637Y-87605860D01*
X165622403Y-88168410D01*
X165718559Y-88291694D01*
X165721859Y-88296125D01*
X166052704Y-88761777D01*
X166225658Y-89005203D01*
X166228764Y-89009788D01*
X166700386Y-89740631D01*
X166703284Y-89745350D01*
X167141808Y-90496529D01*
X167144492Y-90501373D01*
X167424264Y-91033885D01*
X167549026Y-91271355D01*
X167551485Y-91276300D01*
X167772277Y-91746411D01*
X167921260Y-92063628D01*
X167923501Y-92068692D01*
X168244179Y-92839130D01*
X168257726Y-92871678D01*
X168259737Y-92876827D01*
X168495346Y-93522776D01*
X168557799Y-93693999D01*
X168559575Y-93699229D01*
X168759692Y-94334677D01*
X168820849Y-94528876D01*
X168822389Y-94534178D01*
X168914022Y-94878043D01*
X169046361Y-95374668D01*
X169047667Y-95380050D01*
X169233884Y-96229689D01*
X169234948Y-96235123D01*
X169372887Y-97033437D01*
X169383042Y-97092211D01*
X169383862Y-97097679D01*
X169428656Y-97450085D01*
X169493540Y-97960538D01*
X169494116Y-97966046D01*
X169534766Y-98462053D01*
X169565162Y-98832952D01*
X169565490Y-98838467D01*
X169574945Y-99093150D01*
X169597758Y-99707701D01*
X169597839Y-99713235D01*
X169595658Y-100001758D01*
X169591265Y-100582984D01*
X169591100Y-100588520D01*
X169545696Y-101457160D01*
X169545283Y-101462682D01*
X169461145Y-102328376D01*
X169460487Y-102333875D01*
X169337774Y-103195006D01*
X169336872Y-103200457D01*
X169253669Y-103642094D01*
X169175840Y-104055208D01*
X169174694Y-104060626D01*
X168975649Y-104907370D01*
X168974261Y-104912732D01*
X168737618Y-105749711D01*
X168735993Y-105755004D01*
X168462215Y-106580588D01*
X168460355Y-106585805D01*
X168149985Y-107398350D01*
X168147894Y-107403478D01*
X167803020Y-108197979D01*
X167801552Y-108201360D01*
X167799234Y-108206389D01*
X167417620Y-108987995D01*
X167415080Y-108992916D01*
X167332747Y-109144035D01*
X167039884Y-109681571D01*
X166998939Y-109756723D01*
X166996186Y-109761517D01*
X166546345Y-110505999D01*
X166543400Y-110510634D01*
X166213304Y-111005580D01*
X166060780Y-111234273D01*
X166057605Y-111238811D01*
X165543161Y-111940170D01*
X165539787Y-111944561D01*
X164994540Y-112622254D01*
X164990973Y-112626490D01*
X164416015Y-113279159D01*
X164412291Y-113283202D01*
X163808724Y-113909591D01*
X163804814Y-113913471D01*
X163173907Y-114512261D01*
X163169806Y-114515982D01*
X162512822Y-115085981D01*
X162508559Y-115089516D01*
X161826772Y-115629619D01*
X161822356Y-115632960D01*
X161117109Y-116142102D01*
X161112558Y-116145234D01*
X160730234Y-116396066D01*
X160385311Y-116622360D01*
X160380614Y-116625294D01*
X159632779Y-117069479D01*
X159627956Y-117072200D01*
X158861034Y-117482552D01*
X158856094Y-117485055D01*
X158071616Y-117860754D01*
X158066570Y-117863034D01*
X157864672Y-117948866D01*
X157266076Y-118203344D01*
X157260964Y-118205383D01*
X156446101Y-118509601D01*
X156440871Y-118511422D01*
X155613221Y-118778958D01*
X155607915Y-118780543D01*
X155040883Y-118936245D01*
X154769157Y-119010858D01*
X154763807Y-119012199D01*
X154117941Y-119158880D01*
X153915580Y-119204837D01*
X153910154Y-119205942D01*
X153054217Y-119360508D01*
X153048759Y-119361369D01*
X152578371Y-119424777D01*
X152186732Y-119477570D01*
X152181229Y-119478187D01*
X151314880Y-119555783D01*
X151309355Y-119556153D01*
X150492526Y-119592660D01*
X150440444Y-119594988D01*
X150434908Y-119595112D01*
X149565092Y-119595112D01*
X149559556Y-119594988D01*
X149507474Y-119592660D01*
X148690645Y-119556153D01*
X148685120Y-119555783D01*
X147818771Y-119478187D01*
X147813268Y-119477570D01*
X147421629Y-119424777D01*
X146951241Y-119361369D01*
X146945783Y-119360508D01*
X146089846Y-119205942D01*
X146084420Y-119204837D01*
X145882059Y-119158880D01*
X145236193Y-119012199D01*
X145230843Y-119010858D01*
X144959117Y-118936245D01*
X144392085Y-118780543D01*
X144386779Y-118778958D01*
X143559129Y-118511422D01*
X143553899Y-118509601D01*
X142739036Y-118205383D01*
X142733924Y-118203344D01*
X142135328Y-117948866D01*
X141933430Y-117863034D01*
X141928384Y-117860754D01*
X141143906Y-117485055D01*
X141138966Y-117482552D01*
X140372044Y-117072200D01*
X140367221Y-117069479D01*
X139619386Y-116625294D01*
X139614689Y-116622360D01*
X139269766Y-116396066D01*
X138887442Y-116145234D01*
X138882891Y-116142102D01*
X138177644Y-115632960D01*
X138173228Y-115629619D01*
X137491441Y-115089516D01*
X137487178Y-115085981D01*
X136830194Y-114515982D01*
X136826093Y-114512261D01*
X136195186Y-113913471D01*
X136191276Y-113909591D01*
X135587709Y-113283202D01*
X135583985Y-113279159D01*
X135009027Y-112626490D01*
X135005460Y-112622254D01*
X134460213Y-111944561D01*
X134456839Y-111940170D01*
X133942395Y-111238811D01*
X133939220Y-111234273D01*
X133786696Y-111005580D01*
X133456600Y-110510634D01*
X133453655Y-110505999D01*
X133003814Y-109761517D01*
X133001061Y-109756723D01*
X132960117Y-109681571D01*
X132667253Y-109144035D01*
X132584920Y-108992916D01*
X132582380Y-108987995D01*
X132200766Y-108206389D01*
X132198448Y-108201360D01*
X132196981Y-108197979D01*
X131852106Y-107403478D01*
X131850015Y-107398350D01*
X131539645Y-106585805D01*
X131537785Y-106580588D01*
X131264007Y-105755004D01*
X131262382Y-105749711D01*
X131025739Y-104912732D01*
X131024351Y-104907370D01*
X130825306Y-104060626D01*
X130824160Y-104055208D01*
X130746331Y-103642094D01*
X130663128Y-103200457D01*
X130662226Y-103195006D01*
X130539513Y-102333875D01*
X130538855Y-102328376D01*
X130454717Y-101462682D01*
X130454304Y-101457160D01*
X130408900Y-100588520D01*
X130408735Y-100582984D01*
X130404342Y-100001758D01*
X130402270Y-99727631D01*
X139598631Y-99727631D01*
X139599819Y-100000000D01*
X139601403Y-100363127D01*
X139642967Y-100997269D01*
X139723167Y-101627690D01*
X139841704Y-102252040D01*
X139998135Y-102867989D01*
X140191877Y-103473239D01*
X140192562Y-103475000D01*
X140192565Y-103475009D01*
X140258918Y-103645636D01*
X140422207Y-104065532D01*
X140422995Y-104067242D01*
X140422997Y-104067246D01*
X140498171Y-104230310D01*
X140688266Y-104642659D01*
X140989062Y-105202467D01*
X141323472Y-105742868D01*
X141690249Y-106261846D01*
X141691432Y-106263320D01*
X142086843Y-106755993D01*
X142086853Y-106756005D01*
X142088025Y-106757465D01*
X142515316Y-107227875D01*
X142970528Y-107671323D01*
X143451962Y-108086153D01*
X143453474Y-108087303D01*
X143453478Y-108087306D01*
X143599021Y-108197979D01*
X143957823Y-108470819D01*
X144486225Y-108823885D01*
X144559619Y-108866687D01*
X145033554Y-109143079D01*
X145033564Y-109143085D01*
X145035194Y-109144035D01*
X145310643Y-109282873D01*
X145600971Y-109429211D01*
X145600982Y-109429216D01*
X145602684Y-109430074D01*
X146186579Y-109680934D01*
X146784698Y-109895681D01*
X146958168Y-109946243D01*
X147392992Y-110072983D01*
X147393007Y-110072987D01*
X147394812Y-110073513D01*
X148014645Y-110213767D01*
X148016485Y-110214067D01*
X148016497Y-110214069D01*
X148588313Y-110307195D01*
X148641883Y-110315919D01*
X148955866Y-110347536D01*
X149272306Y-110379400D01*
X149272322Y-110379401D01*
X149274188Y-110379589D01*
X149909201Y-110404539D01*
X149911086Y-110404498D01*
X149911100Y-110404498D01*
X150261816Y-110396845D01*
X150544552Y-110390675D01*
X150546420Y-110390520D01*
X150546435Y-110390519D01*
X151175970Y-110338209D01*
X151175969Y-110338209D01*
X151177872Y-110338051D01*
X151332590Y-110315618D01*
X151804925Y-110247133D01*
X151804939Y-110247131D01*
X151806798Y-110246861D01*
X152117891Y-110182153D01*
X152427134Y-110117831D01*
X152427140Y-110117830D01*
X152428984Y-110117446D01*
X152430799Y-110116951D01*
X152430808Y-110116949D01*
X152692625Y-110045569D01*
X153042109Y-109950289D01*
X153043892Y-109949684D01*
X153043901Y-109949681D01*
X153642094Y-109746621D01*
X153642095Y-109746621D01*
X153643885Y-109746013D01*
X153645626Y-109745301D01*
X153645636Y-109745297D01*
X154185821Y-109524301D01*
X154232068Y-109505381D01*
X154661188Y-109298398D01*
X154802775Y-109230105D01*
X154802783Y-109230101D01*
X154804464Y-109229290D01*
X155358938Y-108918770D01*
X155893420Y-108574979D01*
X155894934Y-108573869D01*
X155894944Y-108573862D01*
X156114954Y-108412544D01*
X156405918Y-108199201D01*
X156894519Y-107792836D01*
X156895886Y-107791550D01*
X156895894Y-107791543D01*
X157356034Y-107358685D01*
X157357400Y-107357400D01*
X157488245Y-107218308D01*
X157791543Y-106895894D01*
X157791550Y-106895886D01*
X157792836Y-106894519D01*
X158199201Y-106405918D01*
X158574979Y-105893420D01*
X158918770Y-105358938D01*
X159229290Y-104804464D01*
X159307336Y-104642659D01*
X159329376Y-104596963D01*
X159505381Y-104232068D01*
X159597100Y-104007877D01*
X159745297Y-103645636D01*
X159745301Y-103645626D01*
X159746013Y-103643885D01*
X159896533Y-103200469D01*
X159949681Y-103043901D01*
X159949684Y-103043892D01*
X159950289Y-103042109D01*
X160117446Y-102428984D01*
X160154251Y-102252040D01*
X160246476Y-101808648D01*
X160246861Y-101806798D01*
X160272561Y-101629553D01*
X160337778Y-101179754D01*
X160338051Y-101177872D01*
X160390675Y-100544552D01*
X160404935Y-100000000D01*
X160396005Y-99707701D01*
X160385586Y-99366688D01*
X160385586Y-99366684D01*
X160385528Y-99364794D01*
X160336658Y-98832952D01*
X160327552Y-98733848D01*
X160327551Y-98733840D01*
X160327378Y-98731957D01*
X160230703Y-98103851D01*
X160167233Y-97811523D01*
X160096265Y-97484663D01*
X160096262Y-97484650D01*
X160095864Y-97482818D01*
X159923363Y-96871176D01*
X159713844Y-96271205D01*
X159697566Y-96232385D01*
X159468818Y-95686884D01*
X159468814Y-95686874D01*
X159468088Y-95685144D01*
X159347441Y-95440495D01*
X159187850Y-95116878D01*
X159187848Y-95116874D01*
X159187012Y-95115179D01*
X159050519Y-94876365D01*
X158872599Y-94565069D01*
X158872589Y-94565053D01*
X158871665Y-94563436D01*
X158523224Y-94031974D01*
X158274762Y-93699243D01*
X158144128Y-93524304D01*
X158142987Y-93522776D01*
X158141768Y-93521336D01*
X158141760Y-93521326D01*
X157833739Y-93157477D01*
X157732374Y-93037740D01*
X157731072Y-93036380D01*
X157731064Y-93036371D01*
X157294211Y-92580029D01*
X157292915Y-92578675D01*
X156826252Y-92147296D01*
X156824782Y-92146095D01*
X156824774Y-92146088D01*
X156335593Y-91746411D01*
X156335592Y-91746410D01*
X156334123Y-91745210D01*
X155818366Y-91373918D01*
X155280904Y-91034805D01*
X154723742Y-90729135D01*
X154722027Y-90728326D01*
X154722011Y-90728318D01*
X154150685Y-90458864D01*
X154150671Y-90458858D01*
X154148958Y-90458050D01*
X153883270Y-90352051D01*
X153560480Y-90223270D01*
X153560470Y-90223266D01*
X153558697Y-90222559D01*
X153284711Y-90132212D01*
X152956960Y-90024136D01*
X152956953Y-90024134D01*
X152955161Y-90023543D01*
X152340601Y-89861743D01*
X152338746Y-89861374D01*
X152338733Y-89861371D01*
X151945345Y-89783121D01*
X151717310Y-89737762D01*
X151406000Y-89695395D01*
X151089495Y-89652320D01*
X151089486Y-89652319D01*
X151087612Y-89652064D01*
X150565338Y-89613252D01*
X150455742Y-89605108D01*
X150455739Y-89605108D01*
X150453857Y-89604968D01*
X150451967Y-89604943D01*
X150451961Y-89604943D01*
X150097800Y-89600307D01*
X149818409Y-89596650D01*
X149183638Y-89627140D01*
X148551913Y-89696325D01*
X148550059Y-89696644D01*
X148550056Y-89696644D01*
X148294067Y-89740631D01*
X147925590Y-89803947D01*
X147307005Y-89949605D01*
X147059365Y-90024136D01*
X146700266Y-90132212D01*
X146700258Y-90132215D01*
X146698466Y-90132754D01*
X146696715Y-90133400D01*
X146696703Y-90133404D01*
X146104034Y-90352051D01*
X146104026Y-90352054D01*
X146102243Y-90352712D01*
X145520560Y-90608659D01*
X144955587Y-90899639D01*
X144409432Y-91224567D01*
X144407865Y-91225634D01*
X143885695Y-91581167D01*
X143885685Y-91581174D01*
X143884133Y-91582231D01*
X143381647Y-91971296D01*
X142903851Y-92390312D01*
X142452527Y-92837715D01*
X142029357Y-93311837D01*
X142028197Y-93313308D01*
X142028194Y-93313312D01*
X141726036Y-93696599D01*
X141635922Y-93810908D01*
X141273687Y-94333066D01*
X141272715Y-94334667D01*
X141272709Y-94334677D01*
X140944985Y-94874751D01*
X140944006Y-94876365D01*
X140943125Y-94878039D01*
X140943123Y-94878043D01*
X140679004Y-95380050D01*
X140648106Y-95438777D01*
X140387094Y-96018204D01*
X140161941Y-96612485D01*
X139973488Y-97219402D01*
X139973033Y-97221262D01*
X139877279Y-97612577D01*
X139822438Y-97836692D01*
X139822103Y-97838547D01*
X139822100Y-97838559D01*
X139773791Y-98105711D01*
X139709354Y-98462053D01*
X139634659Y-99093150D01*
X139634552Y-99095038D01*
X139599607Y-99710451D01*
X139598631Y-99727631D01*
X130402270Y-99727631D01*
X130402161Y-99713235D01*
X130402242Y-99707701D01*
X130425055Y-99093150D01*
X130434510Y-98838467D01*
X130434838Y-98832952D01*
X130465235Y-98462053D01*
X130505884Y-97966046D01*
X130506460Y-97960538D01*
X130571344Y-97450085D01*
X130616138Y-97097679D01*
X130616958Y-97092211D01*
X130627114Y-97033437D01*
X130765052Y-96235123D01*
X130766116Y-96229689D01*
X130952333Y-95380050D01*
X130953639Y-95374668D01*
X131085978Y-94878043D01*
X131177611Y-94534178D01*
X131179151Y-94528876D01*
X131240309Y-94334677D01*
X131440425Y-93699229D01*
X131442201Y-93693999D01*
X131504655Y-93522776D01*
X131740263Y-92876827D01*
X131742274Y-92871678D01*
X131755822Y-92839130D01*
X132076499Y-92068692D01*
X132078740Y-92063628D01*
X132227723Y-91746411D01*
X132448515Y-91276300D01*
X132450974Y-91271355D01*
X132575737Y-91033885D01*
X132855508Y-90501373D01*
X132858192Y-90496529D01*
X133296716Y-89745350D01*
X133299614Y-89740631D01*
X133771236Y-89009788D01*
X133774342Y-89005203D01*
X133947296Y-88761777D01*
X134278141Y-88296125D01*
X134281441Y-88291694D01*
X134377598Y-88168410D01*
X134816363Y-87605860D01*
X134819860Y-87601576D01*
X135384901Y-86940274D01*
X135388592Y-86936145D01*
X135982574Y-86300755D01*
X135986445Y-86296795D01*
X136608216Y-85688548D01*
X136612260Y-85684765D01*
X136791884Y-85524100D01*
X137260582Y-85104873D01*
X137264749Y-85101310D01*
X137673967Y-84766942D01*
X137938331Y-84550933D01*
X137942697Y-84547526D01*
X138640134Y-84027806D01*
X138644647Y-84024597D01*
X139364598Y-83536533D01*
X139369250Y-83533528D01*
X140110308Y-83078075D01*
X140115090Y-83075282D01*
X140875689Y-82653402D01*
X140880590Y-82650824D01*
X141659316Y-82263300D01*
X141664328Y-82260944D01*
X142211970Y-82018289D01*
X142459586Y-81908573D01*
X142464679Y-81906452D01*
X143274843Y-81589954D01*
X143280030Y-81588060D01*
X144069491Y-81319620D01*
X144091079Y-81314382D01*
X144098483Y-81313276D01*
X144098486Y-81313275D01*
X144107666Y-81311903D01*
X144109017Y-81311229D01*
X144110510Y-81310995D01*
X144165367Y-81283137D01*
X144165987Y-81282825D01*
X144212745Y-81259514D01*
X144212749Y-81259511D01*
X144221061Y-81255367D01*
X144222139Y-81254307D01*
X144223485Y-81253624D01*
X144266911Y-81210315D01*
X144267556Y-81209676D01*
X144304827Y-81173050D01*
X144304828Y-81173049D01*
X144311435Y-81166556D01*
X144312133Y-81165215D01*
X144313202Y-81164149D01*
X144317420Y-81155900D01*
X144341132Y-81109517D01*
X144341550Y-81108706D01*
X144365656Y-81062398D01*
X144369942Y-81054165D01*
X144370191Y-81052675D01*
X144370879Y-81051330D01*
X144380568Y-80990689D01*
X144380570Y-80990674D01*
X144380718Y-80989771D01*
X144389244Y-80938821D01*
X144390855Y-80929195D01*
X144389413Y-80919547D01*
X144389413Y-80919541D01*
X144387299Y-80905397D01*
X144385937Y-80886902D01*
X144389491Y-78261918D01*
X146385973Y-78261918D01*
X146420240Y-78383417D01*
X146424297Y-78393987D01*
X146512748Y-78573348D01*
X146518667Y-78583006D01*
X146638318Y-78743238D01*
X146645899Y-78751658D01*
X146792750Y-78887405D01*
X146801735Y-78894300D01*
X146970865Y-79001013D01*
X146980956Y-79006154D01*
X147083441Y-79047042D01*
X147097258Y-79048345D01*
X147100000Y-79043583D01*
X147100000Y-79035452D01*
X147900000Y-79035452D01*
X147903910Y-79048769D01*
X147909898Y-79049630D01*
X147991879Y-79019386D01*
X148002090Y-79014516D01*
X148173965Y-78912262D01*
X148183123Y-78905608D01*
X148333482Y-78773746D01*
X148341272Y-78765537D01*
X148465084Y-78608482D01*
X148471249Y-78598989D01*
X148564367Y-78422000D01*
X148568699Y-78411542D01*
X148578101Y-78381262D01*
X148616781Y-78323075D01*
X148680778Y-78295038D01*
X148749774Y-78306050D01*
X148801864Y-78352617D01*
X148816128Y-78385315D01*
X148823568Y-78412511D01*
X148919637Y-78613925D01*
X148922859Y-78618408D01*
X148922859Y-78618409D01*
X149012558Y-78743238D01*
X149049855Y-78795143D01*
X149053816Y-78798981D01*
X149053819Y-78798985D01*
X149170713Y-78912262D01*
X149210107Y-78950437D01*
X149214691Y-78953517D01*
X149214693Y-78953519D01*
X149390738Y-79071817D01*
X149390741Y-79071819D01*
X149395325Y-79074899D01*
X149599657Y-79164594D01*
X149816643Y-79216688D01*
X149822158Y-79217006D01*
X150033908Y-79229216D01*
X150033909Y-79229216D01*
X150039425Y-79229534D01*
X150150193Y-79216129D01*
X150255477Y-79203389D01*
X150255481Y-79203388D01*
X150260961Y-79202725D01*
X150278182Y-79197427D01*
X150468971Y-79138733D01*
X150468977Y-79138731D01*
X150474248Y-79137109D01*
X150672545Y-79034761D01*
X150849583Y-78898914D01*
X150999767Y-78733864D01*
X151036934Y-78674615D01*
X151089234Y-78628285D01*
X151158280Y-78617585D01*
X151222149Y-78645913D01*
X151261053Y-78705913D01*
X151269100Y-78733609D01*
X151298626Y-78835238D01*
X151382237Y-78976618D01*
X151498382Y-79092763D01*
X151639762Y-79176374D01*
X151647255Y-79178551D01*
X151791407Y-79220432D01*
X151791411Y-79220433D01*
X151797494Y-79222200D01*
X151834344Y-79225100D01*
X153165656Y-79225100D01*
X153202506Y-79222200D01*
X153208589Y-79220433D01*
X153208593Y-79220432D01*
X153352745Y-79178551D01*
X153360238Y-79176374D01*
X153501618Y-79092763D01*
X153617763Y-78976618D01*
X153701374Y-78835238D01*
X153714326Y-78790658D01*
X153745432Y-78683593D01*
X153745433Y-78683589D01*
X153747200Y-78677506D01*
X153750100Y-78640656D01*
X153750100Y-77059344D01*
X153747200Y-77022494D01*
X153738913Y-76993968D01*
X153703551Y-76872255D01*
X153701374Y-76864762D01*
X153617763Y-76723382D01*
X153501618Y-76607237D01*
X153360238Y-76523626D01*
X153352745Y-76521449D01*
X153208593Y-76479568D01*
X153208589Y-76479567D01*
X153202506Y-76477800D01*
X153165656Y-76474900D01*
X151834344Y-76474900D01*
X151797494Y-76477800D01*
X151791411Y-76479567D01*
X151791407Y-76479568D01*
X151647255Y-76521449D01*
X151639762Y-76523626D01*
X151498382Y-76607237D01*
X151382237Y-76723382D01*
X151298626Y-76864762D01*
X151274344Y-76948342D01*
X151261088Y-76993968D01*
X151223482Y-77052854D01*
X151160009Y-77082060D01*
X151090823Y-77072314D01*
X151041314Y-77031732D01*
X150953368Y-76909342D01*
X150953367Y-76909341D01*
X150950145Y-76904857D01*
X150946184Y-76901019D01*
X150946181Y-76901015D01*
X150793860Y-76753407D01*
X150793858Y-76753406D01*
X150789893Y-76749563D01*
X150742719Y-76717863D01*
X150609262Y-76628183D01*
X150609259Y-76628181D01*
X150604675Y-76625101D01*
X150400343Y-76535406D01*
X150183357Y-76483312D01*
X150118427Y-76479568D01*
X149966092Y-76470784D01*
X149966091Y-76470784D01*
X149960575Y-76470466D01*
X149857050Y-76482994D01*
X149744523Y-76496611D01*
X149744519Y-76496612D01*
X149739039Y-76497275D01*
X149733757Y-76498900D01*
X149531029Y-76561267D01*
X149531023Y-76561269D01*
X149525752Y-76562891D01*
X149327455Y-76665239D01*
X149150417Y-76801086D01*
X149000233Y-76966136D01*
X148997302Y-76970808D01*
X148997300Y-76970811D01*
X148884582Y-77150497D01*
X148884579Y-77150502D01*
X148881650Y-77155172D01*
X148813145Y-77325587D01*
X148769876Y-77380447D01*
X148703817Y-77403205D01*
X148635940Y-77386636D01*
X148587797Y-77336000D01*
X148582186Y-77321740D01*
X148581797Y-77321889D01*
X148575703Y-77306013D01*
X148487252Y-77126652D01*
X148481333Y-77116994D01*
X148361682Y-76956762D01*
X148354101Y-76948342D01*
X148207250Y-76812595D01*
X148198265Y-76805700D01*
X148029135Y-76698987D01*
X148019044Y-76693846D01*
X147916559Y-76652958D01*
X147902742Y-76651655D01*
X147900000Y-76656417D01*
X147900000Y-79035452D01*
X147100000Y-79035452D01*
X147100000Y-78267830D01*
X147095596Y-78252831D01*
X147094226Y-78251644D01*
X147086668Y-78250000D01*
X146400442Y-78250000D01*
X146387125Y-78253910D01*
X146385973Y-78261918D01*
X144389491Y-78261918D01*
X144390594Y-77446851D01*
X146386213Y-77446851D01*
X146392836Y-77450000D01*
X147082170Y-77450000D01*
X147097169Y-77445596D01*
X147098356Y-77444226D01*
X147100000Y-77436668D01*
X147100000Y-76664548D01*
X147096090Y-76651231D01*
X147090102Y-76650370D01*
X147008121Y-76680614D01*
X146997910Y-76685484D01*
X146826035Y-76787738D01*
X146816877Y-76794392D01*
X146666518Y-76926254D01*
X146658728Y-76934463D01*
X146534916Y-77091518D01*
X146528751Y-77101011D01*
X146435633Y-77278000D01*
X146431300Y-77288461D01*
X146386428Y-77432973D01*
X146386213Y-77446851D01*
X144390594Y-77446851D01*
X144396768Y-72886918D01*
X146385973Y-72886918D01*
X146420240Y-73008417D01*
X146424297Y-73018987D01*
X146512748Y-73198348D01*
X146518667Y-73208006D01*
X146638318Y-73368238D01*
X146645899Y-73376658D01*
X146792750Y-73512405D01*
X146801735Y-73519300D01*
X146970865Y-73626013D01*
X146980956Y-73631154D01*
X147083441Y-73672042D01*
X147097258Y-73673345D01*
X147100000Y-73668583D01*
X147100000Y-73660452D01*
X147900000Y-73660452D01*
X147903910Y-73673769D01*
X147909898Y-73674630D01*
X147991879Y-73644386D01*
X148002090Y-73639516D01*
X148173965Y-73537262D01*
X148183123Y-73530608D01*
X148333482Y-73398746D01*
X148341272Y-73390537D01*
X148465084Y-73233482D01*
X148471249Y-73223989D01*
X148564367Y-73047000D01*
X148568699Y-73036542D01*
X148578101Y-73006262D01*
X148616781Y-72948075D01*
X148680778Y-72920038D01*
X148749774Y-72931050D01*
X148801864Y-72977617D01*
X148816128Y-73010315D01*
X148823568Y-73037511D01*
X148919637Y-73238925D01*
X148922859Y-73243408D01*
X148922859Y-73243409D01*
X149012558Y-73368238D01*
X149049855Y-73420143D01*
X149053816Y-73423981D01*
X149053819Y-73423985D01*
X149170713Y-73537262D01*
X149210107Y-73575437D01*
X149214691Y-73578517D01*
X149214693Y-73578519D01*
X149390738Y-73696817D01*
X149390741Y-73696819D01*
X149395325Y-73699899D01*
X149599657Y-73789594D01*
X149816643Y-73841688D01*
X149822158Y-73842006D01*
X150033908Y-73854216D01*
X150033909Y-73854216D01*
X150039425Y-73854534D01*
X150150193Y-73841130D01*
X150255477Y-73828389D01*
X150255481Y-73828388D01*
X150260961Y-73827725D01*
X150278182Y-73822427D01*
X150468971Y-73763733D01*
X150468977Y-73763731D01*
X150474248Y-73762109D01*
X150672545Y-73659761D01*
X150849583Y-73523914D01*
X150999767Y-73358864D01*
X151036934Y-73299615D01*
X151089234Y-73253285D01*
X151158280Y-73242585D01*
X151222149Y-73270913D01*
X151261053Y-73330913D01*
X151269100Y-73358609D01*
X151298626Y-73460238D01*
X151382237Y-73601618D01*
X151498382Y-73717763D01*
X151639762Y-73801374D01*
X151647255Y-73803551D01*
X151791407Y-73845432D01*
X151791411Y-73845433D01*
X151797494Y-73847200D01*
X151834344Y-73850100D01*
X153165656Y-73850100D01*
X153202506Y-73847200D01*
X153208589Y-73845433D01*
X153208593Y-73845432D01*
X153352745Y-73803551D01*
X153360238Y-73801374D01*
X153501618Y-73717763D01*
X153617763Y-73601618D01*
X153701374Y-73460238D01*
X153714326Y-73415658D01*
X153745432Y-73308593D01*
X153745433Y-73308589D01*
X153747200Y-73302506D01*
X153750100Y-73265656D01*
X153750100Y-71684344D01*
X153747200Y-71647494D01*
X153738913Y-71618968D01*
X153703551Y-71497255D01*
X153701374Y-71489762D01*
X153617763Y-71348382D01*
X153501618Y-71232237D01*
X153360238Y-71148626D01*
X153352745Y-71146449D01*
X153208593Y-71104568D01*
X153208589Y-71104567D01*
X153202506Y-71102800D01*
X153165656Y-71099900D01*
X151834344Y-71099900D01*
X151797494Y-71102800D01*
X151791411Y-71104567D01*
X151791407Y-71104568D01*
X151647255Y-71146449D01*
X151639762Y-71148626D01*
X151498382Y-71232237D01*
X151382237Y-71348382D01*
X151298626Y-71489762D01*
X151274344Y-71573342D01*
X151261088Y-71618968D01*
X151223482Y-71677854D01*
X151160009Y-71707060D01*
X151090823Y-71697314D01*
X151041314Y-71656732D01*
X150953368Y-71534342D01*
X150953367Y-71534341D01*
X150950145Y-71529857D01*
X150946184Y-71526019D01*
X150946181Y-71526015D01*
X150793860Y-71378407D01*
X150793858Y-71378406D01*
X150789893Y-71374563D01*
X150742719Y-71342863D01*
X150609262Y-71253183D01*
X150609259Y-71253181D01*
X150604675Y-71250101D01*
X150400343Y-71160406D01*
X150183357Y-71108312D01*
X150118427Y-71104568D01*
X149966092Y-71095784D01*
X149966091Y-71095784D01*
X149960575Y-71095466D01*
X149857050Y-71107994D01*
X149744523Y-71121611D01*
X149744519Y-71121612D01*
X149739039Y-71122275D01*
X149733757Y-71123900D01*
X149531029Y-71186267D01*
X149531023Y-71186269D01*
X149525752Y-71187891D01*
X149327455Y-71290239D01*
X149150417Y-71426086D01*
X149000233Y-71591136D01*
X148997302Y-71595808D01*
X148997300Y-71595811D01*
X148884582Y-71775497D01*
X148884579Y-71775502D01*
X148881650Y-71780172D01*
X148813145Y-71950587D01*
X148769876Y-72005447D01*
X148703817Y-72028205D01*
X148635940Y-72011636D01*
X148587797Y-71961000D01*
X148582186Y-71946740D01*
X148581797Y-71946889D01*
X148575703Y-71931013D01*
X148487252Y-71751652D01*
X148481333Y-71741994D01*
X148361682Y-71581762D01*
X148354101Y-71573342D01*
X148207250Y-71437595D01*
X148198265Y-71430700D01*
X148029135Y-71323987D01*
X148019044Y-71318846D01*
X147916559Y-71277958D01*
X147902742Y-71276655D01*
X147900000Y-71281417D01*
X147900000Y-73660452D01*
X147100000Y-73660452D01*
X147100000Y-72892830D01*
X147095596Y-72877831D01*
X147094226Y-72876644D01*
X147086668Y-72875000D01*
X146400442Y-72875000D01*
X146387125Y-72878910D01*
X146385973Y-72886918D01*
X144396768Y-72886918D01*
X144397872Y-72071851D01*
X146386213Y-72071851D01*
X146392836Y-72075000D01*
X147082170Y-72075000D01*
X147097169Y-72070596D01*
X147098356Y-72069226D01*
X147100000Y-72061668D01*
X147100000Y-71289548D01*
X147096090Y-71276231D01*
X147090102Y-71275370D01*
X147008121Y-71305614D01*
X146997910Y-71310484D01*
X146826035Y-71412738D01*
X146816877Y-71419392D01*
X146666518Y-71551254D01*
X146658728Y-71559463D01*
X146534916Y-71716518D01*
X146528751Y-71726011D01*
X146435633Y-71903000D01*
X146431300Y-71913461D01*
X146386428Y-72057973D01*
X146386213Y-72071851D01*
X144397872Y-72071851D01*
X144399944Y-70541424D01*
X144401469Y-70522204D01*
X144404986Y-70500000D01*
X144403459Y-70490360D01*
X144403459Y-70481852D01*
X144404520Y-70465667D01*
X144409795Y-70425599D01*
X144418173Y-70394331D01*
X144440644Y-70340081D01*
X144456828Y-70312050D01*
X144492577Y-70265462D01*
X144515462Y-70242577D01*
X144526113Y-70234404D01*
X144562050Y-70206828D01*
X144590079Y-70190645D01*
X144644332Y-70168173D01*
X144675599Y-70159795D01*
X144715667Y-70154520D01*
X144731852Y-70153459D01*
X144740360Y-70153459D01*
X144750000Y-70154986D01*
X144759641Y-70153459D01*
X144771840Y-70151527D01*
X144791237Y-70150000D01*
X155208763Y-70150000D01*
X155228161Y-70151527D01*
G37*
G04 #@! TD.AperFunction*
M02*
