G04 #@! TF.GenerationSoftware,KiCad,Pcbnew,6.0.0-d3dd2cf0fa~116~ubuntu21.10.1*
G04 #@! TF.CreationDate,2022-02-12T15:34:00+00:00*
G04 #@! TF.ProjectId,ringLight,72696e67-4c69-4676-9874-2e6b69636164,04*
G04 #@! TF.SameCoordinates,PX7bfa480PY7270e00*
G04 #@! TF.FileFunction,Legend,Bot*
G04 #@! TF.FilePolarity,Positive*
%FSLAX46Y46*%
G04 Gerber Fmt 4.6, Leading zero omitted, Abs format (unit mm)*
G04 Created by KiCad (PCBNEW 6.0.0-d3dd2cf0fa~116~ubuntu21.10.1) date 2022-02-12 15:34:00*
%MOMM*%
%LPD*%
G01*
G04 APERTURE LIST*
%ADD10C,0.150000*%
%ADD11C,0.010000*%
G04 APERTURE END LIST*
D10*
X155357142Y-115752380D02*
X155357142Y-114752380D01*
X154976190Y-114752380D01*
X154880952Y-114800000D01*
X154833333Y-114847619D01*
X154785714Y-114942857D01*
X154785714Y-115085714D01*
X154833333Y-115180952D01*
X154880952Y-115228571D01*
X154976190Y-115276190D01*
X155357142Y-115276190D01*
X153785714Y-115657142D02*
X153833333Y-115704761D01*
X153976190Y-115752380D01*
X154071428Y-115752380D01*
X154214285Y-115704761D01*
X154309523Y-115609523D01*
X154357142Y-115514285D01*
X154404761Y-115323809D01*
X154404761Y-115180952D01*
X154357142Y-114990476D01*
X154309523Y-114895238D01*
X154214285Y-114800000D01*
X154071428Y-114752380D01*
X153976190Y-114752380D01*
X153833333Y-114800000D01*
X153785714Y-114847619D01*
X153023809Y-115228571D02*
X152880952Y-115276190D01*
X152833333Y-115323809D01*
X152785714Y-115419047D01*
X152785714Y-115561904D01*
X152833333Y-115657142D01*
X152880952Y-115704761D01*
X152976190Y-115752380D01*
X153357142Y-115752380D01*
X153357142Y-114752380D01*
X153023809Y-114752380D01*
X152928571Y-114800000D01*
X152880952Y-114847619D01*
X152833333Y-114942857D01*
X152833333Y-115038095D01*
X152880952Y-115133333D01*
X152928571Y-115180952D01*
X153023809Y-115228571D01*
X153357142Y-115228571D01*
X152357142Y-115371428D02*
X151595238Y-115371428D01*
X150928571Y-114752380D02*
X150833333Y-114752380D01*
X150738095Y-114800000D01*
X150690476Y-114847619D01*
X150642857Y-114942857D01*
X150595238Y-115133333D01*
X150595238Y-115371428D01*
X150642857Y-115561904D01*
X150690476Y-115657142D01*
X150738095Y-115704761D01*
X150833333Y-115752380D01*
X150928571Y-115752380D01*
X151023809Y-115704761D01*
X151071428Y-115657142D01*
X151119047Y-115561904D01*
X151166666Y-115371428D01*
X151166666Y-115133333D01*
X151119047Y-114942857D01*
X151071428Y-114847619D01*
X151023809Y-114800000D01*
X150928571Y-114752380D01*
X149976190Y-114752380D02*
X149880952Y-114752380D01*
X149785714Y-114800000D01*
X149738095Y-114847619D01*
X149690476Y-114942857D01*
X149642857Y-115133333D01*
X149642857Y-115371428D01*
X149690476Y-115561904D01*
X149738095Y-115657142D01*
X149785714Y-115704761D01*
X149880952Y-115752380D01*
X149976190Y-115752380D01*
X150071428Y-115704761D01*
X150119047Y-115657142D01*
X150166666Y-115561904D01*
X150214285Y-115371428D01*
X150214285Y-115133333D01*
X150166666Y-114942857D01*
X150119047Y-114847619D01*
X150071428Y-114800000D01*
X149976190Y-114752380D01*
X149023809Y-114752380D02*
X148928571Y-114752380D01*
X148833333Y-114800000D01*
X148785714Y-114847619D01*
X148738095Y-114942857D01*
X148690476Y-115133333D01*
X148690476Y-115371428D01*
X148738095Y-115561904D01*
X148785714Y-115657142D01*
X148833333Y-115704761D01*
X148928571Y-115752380D01*
X149023809Y-115752380D01*
X149119047Y-115704761D01*
X149166666Y-115657142D01*
X149214285Y-115561904D01*
X149261904Y-115371428D01*
X149261904Y-115133333D01*
X149214285Y-114942857D01*
X149166666Y-114847619D01*
X149119047Y-114800000D01*
X149023809Y-114752380D01*
X148309523Y-114847619D02*
X148261904Y-114800000D01*
X148166666Y-114752380D01*
X147928571Y-114752380D01*
X147833333Y-114800000D01*
X147785714Y-114847619D01*
X147738095Y-114942857D01*
X147738095Y-115038095D01*
X147785714Y-115180952D01*
X148357142Y-115752380D01*
X147738095Y-115752380D01*
X147309523Y-115371428D02*
X146547619Y-115371428D01*
X145880952Y-114752380D02*
X145785714Y-114752380D01*
X145690476Y-114800000D01*
X145642857Y-114847619D01*
X145595238Y-114942857D01*
X145547619Y-115133333D01*
X145547619Y-115371428D01*
X145595238Y-115561904D01*
X145642857Y-115657142D01*
X145690476Y-115704761D01*
X145785714Y-115752380D01*
X145880952Y-115752380D01*
X145976190Y-115704761D01*
X146023809Y-115657142D01*
X146071428Y-115561904D01*
X146119047Y-115371428D01*
X146119047Y-115133333D01*
X146071428Y-114942857D01*
X146023809Y-114847619D01*
X145976190Y-114800000D01*
X145880952Y-114752380D01*
X144690476Y-115085714D02*
X144690476Y-115752380D01*
X144928571Y-114704761D02*
X145166666Y-115419047D01*
X144547619Y-115419047D01*
X152928005Y-117180952D02*
X153017291Y-117133333D01*
X153058958Y-117085714D01*
X153094672Y-116990476D01*
X153088720Y-116942857D01*
X153029196Y-116847619D01*
X152975625Y-116800000D01*
X152874434Y-116752380D01*
X152683958Y-116752380D01*
X152594672Y-116800000D01*
X152553005Y-116847619D01*
X152517291Y-116942857D01*
X152523244Y-116990476D01*
X152582767Y-117085714D01*
X152636339Y-117133333D01*
X152737529Y-117180952D01*
X152928005Y-117180952D01*
X153029196Y-117228571D01*
X153082767Y-117276190D01*
X153142291Y-117371428D01*
X153166101Y-117561904D01*
X153130386Y-117657142D01*
X153088720Y-117704761D01*
X152999434Y-117752380D01*
X152808958Y-117752380D01*
X152707767Y-117704761D01*
X152654196Y-117657142D01*
X152594672Y-117561904D01*
X152570863Y-117371428D01*
X152606577Y-117276190D01*
X152648244Y-117228571D01*
X152737529Y-117180952D01*
X152189910Y-117752380D02*
X152064910Y-116752380D01*
X152112529Y-117133333D02*
X152011339Y-117085714D01*
X151820863Y-117085714D01*
X151731577Y-117133333D01*
X151689910Y-117180952D01*
X151654196Y-117276190D01*
X151689910Y-117561904D01*
X151749434Y-117657142D01*
X151803005Y-117704761D01*
X151904196Y-117752380D01*
X152094672Y-117752380D01*
X152183958Y-117704761D01*
X151285148Y-117752380D02*
X151160148Y-116752380D01*
X151207767Y-117133333D02*
X151106577Y-117085714D01*
X150916101Y-117085714D01*
X150826815Y-117133333D01*
X150785148Y-117180952D01*
X150749434Y-117276190D01*
X150785148Y-117561904D01*
X150844672Y-117657142D01*
X150898244Y-117704761D01*
X150999434Y-117752380D01*
X151189910Y-117752380D01*
X151279196Y-117704761D01*
X149868482Y-117085714D02*
X149951815Y-117752380D01*
X150058958Y-116704761D02*
X150386339Y-117419047D01*
X149767291Y-117419047D01*
X148826815Y-116752380D02*
X149303005Y-116752380D01*
X149410148Y-117228571D01*
X149356577Y-117180952D01*
X149255386Y-117133333D01*
X149017291Y-117133333D01*
X148928005Y-117180952D01*
X148886339Y-117228571D01*
X148850625Y-117323809D01*
X148880386Y-117561904D01*
X148939910Y-117657142D01*
X148993482Y-117704761D01*
X149094672Y-117752380D01*
X149332767Y-117752380D01*
X149422053Y-117704761D01*
X149463720Y-117657142D01*
X147874434Y-116752380D02*
X148350625Y-116752380D01*
X148457767Y-117228571D01*
X148404196Y-117180952D01*
X148303005Y-117133333D01*
X148064910Y-117133333D01*
X147975625Y-117180952D01*
X147933958Y-117228571D01*
X147898244Y-117323809D01*
X147928005Y-117561904D01*
X147987529Y-117657142D01*
X148041101Y-117704761D01*
X148142291Y-117752380D01*
X148380386Y-117752380D01*
X148469672Y-117704761D01*
X148511339Y-117657142D01*
X147308958Y-117180952D02*
X147398244Y-117133333D01*
X147439910Y-117085714D01*
X147475625Y-116990476D01*
X147469672Y-116942857D01*
X147410148Y-116847619D01*
X147356577Y-116800000D01*
X147255386Y-116752380D01*
X147064910Y-116752380D01*
X146975625Y-116800000D01*
X146933958Y-116847619D01*
X146898244Y-116942857D01*
X146904196Y-116990476D01*
X146963720Y-117085714D01*
X147017291Y-117133333D01*
X147118482Y-117180952D01*
X147308958Y-117180952D01*
X147410148Y-117228571D01*
X147463720Y-117276190D01*
X147523244Y-117371428D01*
X147547053Y-117561904D01*
X147511339Y-117657142D01*
X147469672Y-117704761D01*
X147380386Y-117752380D01*
X147189910Y-117752380D01*
X147088720Y-117704761D01*
X147035148Y-117657142D01*
X146975625Y-117561904D01*
X146951815Y-117371428D01*
X146987529Y-117276190D01*
X147029196Y-117228571D01*
X147118482Y-117180952D01*
D11*
X134827561Y-99657805D02*
X134823611Y-99837722D01*
X134823611Y-99837722D02*
X134643695Y-99841671D01*
X134643695Y-99841671D02*
X134463778Y-99845621D01*
X134463778Y-99845621D02*
X134463778Y-100168490D01*
X134463778Y-100168490D02*
X134643695Y-100172439D01*
X134643695Y-100172439D02*
X134823611Y-100176389D01*
X134823611Y-100176389D02*
X134827561Y-100356305D01*
X134827561Y-100356305D02*
X134831510Y-100536222D01*
X134831510Y-100536222D02*
X135154379Y-100536222D01*
X135154379Y-100536222D02*
X135158329Y-100356305D01*
X135158329Y-100356305D02*
X135162278Y-100176389D01*
X135162278Y-100176389D02*
X135342195Y-100172439D01*
X135342195Y-100172439D02*
X135522111Y-100168490D01*
X135522111Y-100168490D02*
X135522111Y-99845621D01*
X135522111Y-99845621D02*
X135342195Y-99841671D01*
X135342195Y-99841671D02*
X135162278Y-99837722D01*
X135162278Y-99837722D02*
X135158329Y-99657805D01*
X135158329Y-99657805D02*
X135154379Y-99477889D01*
X135154379Y-99477889D02*
X134831510Y-99477889D01*
X134831510Y-99477889D02*
X134827561Y-99657805D01*
X134827561Y-99657805D02*
X134827561Y-99657805D01*
G36*
X135158329Y-99657805D02*
G01*
X135162278Y-99837722D01*
X135342195Y-99841671D01*
X135522111Y-99845621D01*
X135522111Y-100168490D01*
X135342195Y-100172439D01*
X135162278Y-100176389D01*
X135158329Y-100356305D01*
X135154379Y-100536222D01*
X134831510Y-100536222D01*
X134827561Y-100356305D01*
X134823611Y-100176389D01*
X134643695Y-100172439D01*
X134463778Y-100168490D01*
X134463778Y-99845621D01*
X134643695Y-99841671D01*
X134823611Y-99837722D01*
X134827561Y-99657805D01*
X134831510Y-99477889D01*
X135154379Y-99477889D01*
X135158329Y-99657805D01*
G37*
X135158329Y-99657805D02*
X135162278Y-99837722D01*
X135342195Y-99841671D01*
X135522111Y-99845621D01*
X135522111Y-100168490D01*
X135342195Y-100172439D01*
X135162278Y-100176389D01*
X135158329Y-100356305D01*
X135154379Y-100536222D01*
X134831510Y-100536222D01*
X134827561Y-100356305D01*
X134823611Y-100176389D01*
X134643695Y-100172439D01*
X134463778Y-100168490D01*
X134463778Y-99845621D01*
X134643695Y-99841671D01*
X134823611Y-99837722D01*
X134827561Y-99657805D01*
X134831510Y-99477889D01*
X135154379Y-99477889D01*
X135158329Y-99657805D01*
X134830667Y-97456102D02*
X134736131Y-97465788D01*
X134736131Y-97465788D02*
X134477040Y-97506461D01*
X134477040Y-97506461D02*
X134221730Y-97575028D01*
X134221730Y-97575028D02*
X133970021Y-97671540D01*
X133970021Y-97671540D02*
X133849945Y-97728050D01*
X133849945Y-97728050D02*
X133707326Y-97803651D01*
X133707326Y-97803651D02*
X133580466Y-97881262D01*
X133580466Y-97881262D02*
X133462187Y-97966129D01*
X133462187Y-97966129D02*
X133345309Y-98063492D01*
X133345309Y-98063492D02*
X133222655Y-98178597D01*
X133222655Y-98178597D02*
X133193446Y-98207557D01*
X133193446Y-98207557D02*
X133073614Y-98332508D01*
X133073614Y-98332508D02*
X132972706Y-98450062D01*
X132972706Y-98450062D02*
X132885478Y-98567398D01*
X132885478Y-98567398D02*
X132806688Y-98691694D01*
X132806688Y-98691694D02*
X132731091Y-98830130D01*
X132731091Y-98830130D02*
X132713939Y-98864055D01*
X132713939Y-98864055D02*
X132603939Y-99114092D01*
X132603939Y-99114092D02*
X132521911Y-99367644D01*
X132521911Y-99367644D02*
X132467801Y-99624891D01*
X132467801Y-99624891D02*
X132451677Y-99750241D01*
X132451677Y-99750241D02*
X132441992Y-99844778D01*
X132441992Y-99844778D02*
X132149556Y-99844778D01*
X132149556Y-99844778D02*
X132149556Y-100169333D01*
X132149556Y-100169333D02*
X132442601Y-100169333D01*
X132442601Y-100169333D02*
X132452465Y-100264583D01*
X132452465Y-100264583D02*
X132492341Y-100521009D01*
X132492341Y-100521009D02*
X132558523Y-100771033D01*
X132558523Y-100771033D02*
X132651764Y-101017208D01*
X132651764Y-101017208D02*
X132713939Y-101150055D01*
X132713939Y-101150055D02*
X132789540Y-101292674D01*
X132789540Y-101292674D02*
X132867152Y-101419534D01*
X132867152Y-101419534D02*
X132952018Y-101537813D01*
X132952018Y-101537813D02*
X133049381Y-101654691D01*
X133049381Y-101654691D02*
X133164486Y-101777345D01*
X133164486Y-101777345D02*
X133193446Y-101806554D01*
X133193446Y-101806554D02*
X133318397Y-101926386D01*
X133318397Y-101926386D02*
X133435951Y-102027294D01*
X133435951Y-102027294D02*
X133553287Y-102114522D01*
X133553287Y-102114522D02*
X133677584Y-102193312D01*
X133677584Y-102193312D02*
X133816020Y-102268909D01*
X133816020Y-102268909D02*
X133849945Y-102286061D01*
X133849945Y-102286061D02*
X134099981Y-102396061D01*
X134099981Y-102396061D02*
X134353534Y-102478089D01*
X134353534Y-102478089D02*
X134610780Y-102532199D01*
X134610780Y-102532199D02*
X134736131Y-102548323D01*
X134736131Y-102548323D02*
X134830667Y-102558008D01*
X134830667Y-102558008D02*
X134830667Y-102850444D01*
X134830667Y-102850444D02*
X135155222Y-102850444D01*
X135155222Y-102850444D02*
X135155222Y-102558008D01*
X135155222Y-102558008D02*
X135249759Y-102548323D01*
X135249759Y-102548323D02*
X135508849Y-102507649D01*
X135508849Y-102507649D02*
X135764160Y-102439083D01*
X135764160Y-102439083D02*
X136015868Y-102342570D01*
X136015868Y-102342570D02*
X136135945Y-102286061D01*
X136135945Y-102286061D02*
X136278563Y-102210460D01*
X136278563Y-102210460D02*
X136405423Y-102132848D01*
X136405423Y-102132848D02*
X136523702Y-102047982D01*
X136523702Y-102047982D02*
X136640580Y-101950619D01*
X136640580Y-101950619D02*
X136763235Y-101835514D01*
X136763235Y-101835514D02*
X136792443Y-101806554D01*
X136792443Y-101806554D02*
X136912275Y-101681603D01*
X136912275Y-101681603D02*
X137013183Y-101564049D01*
X137013183Y-101564049D02*
X137100411Y-101446713D01*
X137100411Y-101446713D02*
X137179202Y-101322416D01*
X137179202Y-101322416D02*
X137254798Y-101183980D01*
X137254798Y-101183980D02*
X137271950Y-101150055D01*
X137271950Y-101150055D02*
X137381950Y-100900019D01*
X137381950Y-100900019D02*
X137463979Y-100646466D01*
X137463979Y-100646466D02*
X137518088Y-100389220D01*
X137518088Y-100389220D02*
X137534212Y-100263869D01*
X137534212Y-100263869D02*
X137543898Y-100169333D01*
X137543898Y-100169333D02*
X137836333Y-100169333D01*
X137836333Y-100169333D02*
X137836333Y-99844778D01*
X137836333Y-99844778D02*
X137543898Y-99844778D01*
X137543898Y-99844778D02*
X137205231Y-99844778D01*
X137205231Y-99844778D02*
X135790222Y-99844778D01*
X135790222Y-99844778D02*
X135790222Y-100169333D01*
X135790222Y-100169333D02*
X137205231Y-100169333D01*
X137205231Y-100169333D02*
X137195524Y-100264583D01*
X137195524Y-100264583D02*
X137159639Y-100484313D01*
X137159639Y-100484313D02*
X137097594Y-100704567D01*
X137097594Y-100704567D02*
X137011111Y-100921475D01*
X137011111Y-100921475D02*
X136901907Y-101131165D01*
X136901907Y-101131165D02*
X136771704Y-101329766D01*
X136771704Y-101329766D02*
X136659801Y-101470858D01*
X136659801Y-101470858D02*
X136506596Y-101628821D01*
X136506596Y-101628821D02*
X136331950Y-101773377D01*
X136331950Y-101773377D02*
X136140543Y-101901804D01*
X136140543Y-101901804D02*
X135937055Y-102011383D01*
X135937055Y-102011383D02*
X135726165Y-102099390D01*
X135726165Y-102099390D02*
X135512554Y-102163106D01*
X135512554Y-102163106D02*
X135443468Y-102178102D01*
X135443468Y-102178102D02*
X135370237Y-102192329D01*
X135370237Y-102192329D02*
X135317880Y-102201925D01*
X135317880Y-102201925D02*
X135279620Y-102207910D01*
X135279620Y-102207910D02*
X135248682Y-102211303D01*
X135248682Y-102211303D02*
X135218287Y-102213125D01*
X135218287Y-102213125D02*
X135208139Y-102213523D01*
X135208139Y-102213523D02*
X135155222Y-102215444D01*
X135155222Y-102215444D02*
X135155222Y-101721555D01*
X135155222Y-101721555D02*
X134830667Y-101721555D01*
X134830667Y-101721555D02*
X134830667Y-102219342D01*
X134830667Y-102219342D02*
X134735417Y-102209635D01*
X134735417Y-102209635D02*
X134516702Y-102173883D01*
X134516702Y-102173883D02*
X134297910Y-102112335D01*
X134297910Y-102112335D02*
X134083091Y-102027114D01*
X134083091Y-102027114D02*
X133876294Y-101920343D01*
X133876294Y-101920343D02*
X133681569Y-101794146D01*
X133681569Y-101794146D02*
X133502967Y-101650645D01*
X133502967Y-101650645D02*
X133344537Y-101491964D01*
X133344537Y-101491964D02*
X133326088Y-101470858D01*
X133326088Y-101470858D02*
X133181078Y-101283270D01*
X133181078Y-101283270D02*
X133055763Y-101081651D01*
X133055763Y-101081651D02*
X132951861Y-100869873D01*
X132951861Y-100869873D02*
X132871093Y-100651808D01*
X132871093Y-100651808D02*
X132815176Y-100431326D01*
X132815176Y-100431326D02*
X132790365Y-100264583D01*
X132790365Y-100264583D02*
X132780658Y-100169333D01*
X132780658Y-100169333D02*
X133278445Y-100169333D01*
X133278445Y-100169333D02*
X133278445Y-99844778D01*
X133278445Y-99844778D02*
X132780658Y-99844778D01*
X132780658Y-99844778D02*
X132790365Y-99749528D01*
X132790365Y-99749528D02*
X132826251Y-99529798D01*
X132826251Y-99529798D02*
X132888295Y-99309544D01*
X132888295Y-99309544D02*
X132974778Y-99092636D01*
X132974778Y-99092636D02*
X133083982Y-98882946D01*
X133083982Y-98882946D02*
X133214186Y-98684345D01*
X133214186Y-98684345D02*
X133326088Y-98543253D01*
X133326088Y-98543253D02*
X133481669Y-98382797D01*
X133481669Y-98382797D02*
X133657937Y-98237253D01*
X133657937Y-98237253D02*
X133850841Y-98108743D01*
X133850841Y-98108743D02*
X134056331Y-97999391D01*
X134056331Y-97999391D02*
X134270357Y-97911319D01*
X134270357Y-97911319D02*
X134488869Y-97846651D01*
X134488869Y-97846651D02*
X134707818Y-97807509D01*
X134707818Y-97807509D02*
X134735417Y-97804476D01*
X134735417Y-97804476D02*
X134830667Y-97794769D01*
X134830667Y-97794769D02*
X134830667Y-99209778D01*
X134830667Y-99209778D02*
X135155222Y-99209778D01*
X135155222Y-99209778D02*
X135155222Y-97794769D01*
X135155222Y-97794769D02*
X135250472Y-97804476D01*
X135250472Y-97804476D02*
X135469187Y-97840228D01*
X135469187Y-97840228D02*
X135687979Y-97901776D01*
X135687979Y-97901776D02*
X135902798Y-97986997D01*
X135902798Y-97986997D02*
X136109595Y-98093767D01*
X136109595Y-98093767D02*
X136304320Y-98219965D01*
X136304320Y-98219965D02*
X136482922Y-98363466D01*
X136482922Y-98363466D02*
X136641352Y-98522147D01*
X136641352Y-98522147D02*
X136659801Y-98543253D01*
X136659801Y-98543253D02*
X136804811Y-98730841D01*
X136804811Y-98730841D02*
X136930126Y-98932460D01*
X136930126Y-98932460D02*
X137034028Y-99144238D01*
X137034028Y-99144238D02*
X137114796Y-99362303D01*
X137114796Y-99362303D02*
X137170713Y-99582784D01*
X137170713Y-99582784D02*
X137195524Y-99749528D01*
X137195524Y-99749528D02*
X137205231Y-99844778D01*
X137205231Y-99844778D02*
X137543898Y-99844778D01*
X137543898Y-99844778D02*
X137534212Y-99750241D01*
X137534212Y-99750241D02*
X137493539Y-99491151D01*
X137493539Y-99491151D02*
X137424972Y-99235840D01*
X137424972Y-99235840D02*
X137328460Y-98984132D01*
X137328460Y-98984132D02*
X137271950Y-98864055D01*
X137271950Y-98864055D02*
X137196349Y-98721437D01*
X137196349Y-98721437D02*
X137118738Y-98594577D01*
X137118738Y-98594577D02*
X137033871Y-98476298D01*
X137033871Y-98476298D02*
X136936508Y-98359420D01*
X136936508Y-98359420D02*
X136821403Y-98236765D01*
X136821403Y-98236765D02*
X136792443Y-98207557D01*
X136792443Y-98207557D02*
X136667492Y-98087725D01*
X136667492Y-98087725D02*
X136549938Y-97986817D01*
X136549938Y-97986817D02*
X136432602Y-97899589D01*
X136432602Y-97899589D02*
X136308306Y-97820798D01*
X136308306Y-97820798D02*
X136169870Y-97745202D01*
X136169870Y-97745202D02*
X136135945Y-97728050D01*
X136135945Y-97728050D02*
X135885908Y-97618050D01*
X135885908Y-97618050D02*
X135632356Y-97536021D01*
X135632356Y-97536021D02*
X135375109Y-97481912D01*
X135375109Y-97481912D02*
X135249759Y-97465788D01*
X135249759Y-97465788D02*
X135155222Y-97456102D01*
X135155222Y-97456102D02*
X135155222Y-97163667D01*
X135155222Y-97163667D02*
X134830667Y-97163667D01*
X134830667Y-97163667D02*
X134830667Y-97456102D01*
X134830667Y-97456102D02*
X134830667Y-97456102D01*
G36*
X137836333Y-100169333D02*
G01*
X137543898Y-100169333D01*
X137534212Y-100263869D01*
X137518088Y-100389220D01*
X137463979Y-100646466D01*
X137381950Y-100900019D01*
X137271950Y-101150055D01*
X137254798Y-101183980D01*
X137179202Y-101322416D01*
X137100411Y-101446713D01*
X137013183Y-101564049D01*
X136912275Y-101681603D01*
X136792443Y-101806554D01*
X136763235Y-101835514D01*
X136640580Y-101950619D01*
X136523702Y-102047982D01*
X136405423Y-102132848D01*
X136278563Y-102210460D01*
X136135945Y-102286061D01*
X136015868Y-102342570D01*
X135764160Y-102439083D01*
X135508849Y-102507649D01*
X135249759Y-102548323D01*
X135155222Y-102558008D01*
X135155222Y-102850444D01*
X134830667Y-102850444D01*
X134830667Y-102558008D01*
X134736131Y-102548323D01*
X134610780Y-102532199D01*
X134353534Y-102478089D01*
X134099981Y-102396061D01*
X133849945Y-102286061D01*
X133816020Y-102268909D01*
X133677584Y-102193312D01*
X133553287Y-102114522D01*
X133435951Y-102027294D01*
X133318397Y-101926386D01*
X133193446Y-101806554D01*
X133164486Y-101777345D01*
X133049381Y-101654691D01*
X132952018Y-101537813D01*
X132867152Y-101419534D01*
X132789540Y-101292674D01*
X132713939Y-101150055D01*
X132651764Y-101017208D01*
X132558523Y-100771033D01*
X132492341Y-100521009D01*
X132452465Y-100264583D01*
X132442601Y-100169333D01*
X132780658Y-100169333D01*
X132790365Y-100264583D01*
X132815176Y-100431326D01*
X132871093Y-100651808D01*
X132951861Y-100869873D01*
X133055763Y-101081651D01*
X133181078Y-101283270D01*
X133326088Y-101470858D01*
X133344537Y-101491964D01*
X133502967Y-101650645D01*
X133681569Y-101794146D01*
X133876294Y-101920343D01*
X134083091Y-102027114D01*
X134297910Y-102112335D01*
X134516702Y-102173883D01*
X134735417Y-102209635D01*
X134830667Y-102219342D01*
X134830667Y-101721555D01*
X135155222Y-101721555D01*
X135155222Y-102215444D01*
X135208139Y-102213523D01*
X135218287Y-102213125D01*
X135248682Y-102211303D01*
X135279620Y-102207910D01*
X135317880Y-102201925D01*
X135370237Y-102192329D01*
X135443468Y-102178102D01*
X135512554Y-102163106D01*
X135726165Y-102099390D01*
X135937055Y-102011383D01*
X136140543Y-101901804D01*
X136331950Y-101773377D01*
X136506596Y-101628821D01*
X136659801Y-101470858D01*
X136771704Y-101329766D01*
X136901907Y-101131165D01*
X137011111Y-100921475D01*
X137097594Y-100704567D01*
X137159639Y-100484313D01*
X137195524Y-100264583D01*
X137205231Y-100169333D01*
X135790222Y-100169333D01*
X135790222Y-99844778D01*
X137205231Y-99844778D01*
X137195524Y-99749528D01*
X137170713Y-99582784D01*
X137114796Y-99362303D01*
X137034028Y-99144238D01*
X136930126Y-98932460D01*
X136804811Y-98730841D01*
X136659801Y-98543253D01*
X136641352Y-98522147D01*
X136482922Y-98363466D01*
X136304320Y-98219965D01*
X136109595Y-98093767D01*
X135902798Y-97986997D01*
X135687979Y-97901776D01*
X135469187Y-97840228D01*
X135250472Y-97804476D01*
X135155222Y-97794769D01*
X135155222Y-99209778D01*
X134830667Y-99209778D01*
X134830667Y-97794769D01*
X134735417Y-97804476D01*
X134707818Y-97807509D01*
X134488869Y-97846651D01*
X134270357Y-97911319D01*
X134056331Y-97999391D01*
X133850841Y-98108743D01*
X133657937Y-98237253D01*
X133481669Y-98382797D01*
X133326088Y-98543253D01*
X133214186Y-98684345D01*
X133083982Y-98882946D01*
X132974778Y-99092636D01*
X132888295Y-99309544D01*
X132826251Y-99529798D01*
X132790365Y-99749528D01*
X132780658Y-99844778D01*
X133278445Y-99844778D01*
X133278445Y-100169333D01*
X132780658Y-100169333D01*
X132442601Y-100169333D01*
X132149556Y-100169333D01*
X132149556Y-99844778D01*
X132441992Y-99844778D01*
X132451677Y-99750241D01*
X132467801Y-99624891D01*
X132521911Y-99367644D01*
X132603939Y-99114092D01*
X132713939Y-98864055D01*
X132731091Y-98830130D01*
X132806688Y-98691694D01*
X132885478Y-98567398D01*
X132972706Y-98450062D01*
X133073614Y-98332508D01*
X133193446Y-98207557D01*
X133222655Y-98178597D01*
X133345309Y-98063492D01*
X133462187Y-97966129D01*
X133580466Y-97881262D01*
X133707326Y-97803651D01*
X133849945Y-97728050D01*
X133970021Y-97671540D01*
X134221730Y-97575028D01*
X134477040Y-97506461D01*
X134736131Y-97465788D01*
X134830667Y-97456102D01*
X134830667Y-97163667D01*
X135155222Y-97163667D01*
X135155222Y-97456102D01*
X135249759Y-97465788D01*
X135375109Y-97481912D01*
X135632356Y-97536021D01*
X135885908Y-97618050D01*
X136135945Y-97728050D01*
X136169870Y-97745202D01*
X136308306Y-97820798D01*
X136432602Y-97899589D01*
X136549938Y-97986817D01*
X136667492Y-98087725D01*
X136792443Y-98207557D01*
X136821403Y-98236765D01*
X136936508Y-98359420D01*
X137033871Y-98476298D01*
X137118738Y-98594577D01*
X137196349Y-98721437D01*
X137271950Y-98864055D01*
X137328460Y-98984132D01*
X137424972Y-99235840D01*
X137493539Y-99491151D01*
X137534212Y-99750241D01*
X137543898Y-99844778D01*
X137836333Y-99844778D01*
X137836333Y-100169333D01*
G37*
X137836333Y-100169333D02*
X137543898Y-100169333D01*
X137534212Y-100263869D01*
X137518088Y-100389220D01*
X137463979Y-100646466D01*
X137381950Y-100900019D01*
X137271950Y-101150055D01*
X137254798Y-101183980D01*
X137179202Y-101322416D01*
X137100411Y-101446713D01*
X137013183Y-101564049D01*
X136912275Y-101681603D01*
X136792443Y-101806554D01*
X136763235Y-101835514D01*
X136640580Y-101950619D01*
X136523702Y-102047982D01*
X136405423Y-102132848D01*
X136278563Y-102210460D01*
X136135945Y-102286061D01*
X136015868Y-102342570D01*
X135764160Y-102439083D01*
X135508849Y-102507649D01*
X135249759Y-102548323D01*
X135155222Y-102558008D01*
X135155222Y-102850444D01*
X134830667Y-102850444D01*
X134830667Y-102558008D01*
X134736131Y-102548323D01*
X134610780Y-102532199D01*
X134353534Y-102478089D01*
X134099981Y-102396061D01*
X133849945Y-102286061D01*
X133816020Y-102268909D01*
X133677584Y-102193312D01*
X133553287Y-102114522D01*
X133435951Y-102027294D01*
X133318397Y-101926386D01*
X133193446Y-101806554D01*
X133164486Y-101777345D01*
X133049381Y-101654691D01*
X132952018Y-101537813D01*
X132867152Y-101419534D01*
X132789540Y-101292674D01*
X132713939Y-101150055D01*
X132651764Y-101017208D01*
X132558523Y-100771033D01*
X132492341Y-100521009D01*
X132452465Y-100264583D01*
X132442601Y-100169333D01*
X132780658Y-100169333D01*
X132790365Y-100264583D01*
X132815176Y-100431326D01*
X132871093Y-100651808D01*
X132951861Y-100869873D01*
X133055763Y-101081651D01*
X133181078Y-101283270D01*
X133326088Y-101470858D01*
X133344537Y-101491964D01*
X133502967Y-101650645D01*
X133681569Y-101794146D01*
X133876294Y-101920343D01*
X134083091Y-102027114D01*
X134297910Y-102112335D01*
X134516702Y-102173883D01*
X134735417Y-102209635D01*
X134830667Y-102219342D01*
X134830667Y-101721555D01*
X135155222Y-101721555D01*
X135155222Y-102215444D01*
X135208139Y-102213523D01*
X135218287Y-102213125D01*
X135248682Y-102211303D01*
X135279620Y-102207910D01*
X135317880Y-102201925D01*
X135370237Y-102192329D01*
X135443468Y-102178102D01*
X135512554Y-102163106D01*
X135726165Y-102099390D01*
X135937055Y-102011383D01*
X136140543Y-101901804D01*
X136331950Y-101773377D01*
X136506596Y-101628821D01*
X136659801Y-101470858D01*
X136771704Y-101329766D01*
X136901907Y-101131165D01*
X137011111Y-100921475D01*
X137097594Y-100704567D01*
X137159639Y-100484313D01*
X137195524Y-100264583D01*
X137205231Y-100169333D01*
X135790222Y-100169333D01*
X135790222Y-99844778D01*
X137205231Y-99844778D01*
X137195524Y-99749528D01*
X137170713Y-99582784D01*
X137114796Y-99362303D01*
X137034028Y-99144238D01*
X136930126Y-98932460D01*
X136804811Y-98730841D01*
X136659801Y-98543253D01*
X136641352Y-98522147D01*
X136482922Y-98363466D01*
X136304320Y-98219965D01*
X136109595Y-98093767D01*
X135902798Y-97986997D01*
X135687979Y-97901776D01*
X135469187Y-97840228D01*
X135250472Y-97804476D01*
X135155222Y-97794769D01*
X135155222Y-99209778D01*
X134830667Y-99209778D01*
X134830667Y-97794769D01*
X134735417Y-97804476D01*
X134707818Y-97807509D01*
X134488869Y-97846651D01*
X134270357Y-97911319D01*
X134056331Y-97999391D01*
X133850841Y-98108743D01*
X133657937Y-98237253D01*
X133481669Y-98382797D01*
X133326088Y-98543253D01*
X133214186Y-98684345D01*
X133083982Y-98882946D01*
X132974778Y-99092636D01*
X132888295Y-99309544D01*
X132826251Y-99529798D01*
X132790365Y-99749528D01*
X132780658Y-99844778D01*
X133278445Y-99844778D01*
X133278445Y-100169333D01*
X132780658Y-100169333D01*
X132442601Y-100169333D01*
X132149556Y-100169333D01*
X132149556Y-99844778D01*
X132441992Y-99844778D01*
X132451677Y-99750241D01*
X132467801Y-99624891D01*
X132521911Y-99367644D01*
X132603939Y-99114092D01*
X132713939Y-98864055D01*
X132731091Y-98830130D01*
X132806688Y-98691694D01*
X132885478Y-98567398D01*
X132972706Y-98450062D01*
X133073614Y-98332508D01*
X133193446Y-98207557D01*
X133222655Y-98178597D01*
X133345309Y-98063492D01*
X133462187Y-97966129D01*
X133580466Y-97881262D01*
X133707326Y-97803651D01*
X133849945Y-97728050D01*
X133970021Y-97671540D01*
X134221730Y-97575028D01*
X134477040Y-97506461D01*
X134736131Y-97465788D01*
X134830667Y-97456102D01*
X134830667Y-97163667D01*
X135155222Y-97163667D01*
X135155222Y-97456102D01*
X135249759Y-97465788D01*
X135375109Y-97481912D01*
X135632356Y-97536021D01*
X135885908Y-97618050D01*
X136135945Y-97728050D01*
X136169870Y-97745202D01*
X136308306Y-97820798D01*
X136432602Y-97899589D01*
X136549938Y-97986817D01*
X136667492Y-98087725D01*
X136792443Y-98207557D01*
X136821403Y-98236765D01*
X136936508Y-98359420D01*
X137033871Y-98476298D01*
X137118738Y-98594577D01*
X137196349Y-98721437D01*
X137271950Y-98864055D01*
X137328460Y-98984132D01*
X137424972Y-99235840D01*
X137493539Y-99491151D01*
X137534212Y-99750241D01*
X137543898Y-99844778D01*
X137836333Y-99844778D01*
X137836333Y-100169333D01*
G36*
X145326095Y-112591415D02*
G01*
X145371815Y-112704763D01*
X145323238Y-112816205D01*
X145205128Y-112865735D01*
X145089875Y-112815253D01*
X145044155Y-112704763D01*
X145087970Y-112592367D01*
X145206080Y-112539980D01*
X145326095Y-112591415D01*
G37*
G36*
X157265385Y-111515108D02*
G01*
X157380963Y-111532253D01*
X157494304Y-111560643D01*
X157604316Y-111600006D01*
X157709940Y-111649963D01*
X157810160Y-111710032D01*
X157904008Y-111779634D01*
X157990583Y-111858101D01*
X158069049Y-111944676D01*
X158138652Y-112038524D01*
X158198721Y-112138743D01*
X158248678Y-112244368D01*
X158288041Y-112354380D01*
X158316431Y-112467721D01*
X158333576Y-112583298D01*
X158339309Y-112700000D01*
X158333576Y-112816702D01*
X158316431Y-112932279D01*
X158288041Y-113045620D01*
X158248678Y-113155632D01*
X158198721Y-113261257D01*
X158138652Y-113361476D01*
X158069049Y-113455324D01*
X157990583Y-113541899D01*
X157904008Y-113620366D01*
X157810160Y-113689968D01*
X157709940Y-113750037D01*
X157604316Y-113799994D01*
X157494304Y-113839357D01*
X157380963Y-113867747D01*
X157265385Y-113884892D01*
X157148684Y-113890625D01*
X142651316Y-113890625D01*
X142534615Y-113884892D01*
X142419037Y-113867747D01*
X142305696Y-113839357D01*
X142195684Y-113799994D01*
X142090060Y-113750038D01*
X141989840Y-113689969D01*
X141895992Y-113620366D01*
X141809417Y-113541899D01*
X141730951Y-113455325D01*
X141661348Y-113361476D01*
X141601279Y-113261257D01*
X141551322Y-113155632D01*
X141511959Y-113045620D01*
X141483569Y-112932279D01*
X141466424Y-112816702D01*
X141460691Y-112700000D01*
X141466424Y-112583298D01*
X141483569Y-112467721D01*
X141503643Y-112387580D01*
X142651475Y-112387580D01*
X142664334Y-112484259D01*
X142702910Y-112534265D01*
X142753393Y-112550457D01*
X142819115Y-112553315D01*
X142942940Y-112545695D01*
X142942940Y-112808585D01*
X142926748Y-112882880D01*
X142865788Y-112905740D01*
X142797208Y-112908598D01*
X142746725Y-112926695D01*
X142702910Y-113054330D01*
X142716245Y-113151009D01*
X142756250Y-113201015D01*
X142806733Y-113217208D01*
X142870550Y-113220065D01*
X142992047Y-113210117D01*
X143092377Y-113180272D01*
X143171540Y-113130530D01*
X143228690Y-113057082D01*
X143229625Y-113054330D01*
X143554445Y-113054330D01*
X143557303Y-113120053D01*
X143575400Y-113170535D01*
X143624454Y-113207683D01*
X143722085Y-113220065D01*
X143816383Y-113207683D01*
X143866865Y-113170535D01*
X143884963Y-113119100D01*
X143887820Y-113050520D01*
X143887820Y-112717145D01*
X143931635Y-112595225D01*
X144043078Y-112551410D01*
X144162140Y-112592367D01*
X144221195Y-112684760D01*
X144221195Y-113054330D01*
X144224053Y-113120053D01*
X144242150Y-113170535D01*
X144291204Y-113207683D01*
X144388835Y-113220065D01*
X144485514Y-113207206D01*
X144535520Y-113168630D01*
X144536766Y-113164820D01*
X144706970Y-113164820D01*
X144723903Y-113301451D01*
X144774703Y-113419243D01*
X144859370Y-113518198D01*
X144965203Y-113592810D01*
X145079503Y-113637578D01*
X145202270Y-113652500D01*
X145343716Y-113634879D01*
X145478495Y-113582015D01*
X145577079Y-113514864D01*
X145609940Y-113454380D01*
X145552790Y-113322935D01*
X145496593Y-113267690D01*
X145449920Y-113252450D01*
X145394675Y-113275310D01*
X145299425Y-113328174D01*
X145196555Y-113345795D01*
X145078445Y-113288645D01*
X145032725Y-113151485D01*
X145032725Y-113094335D01*
X145126546Y-113165773D01*
X145263230Y-113189585D01*
X145366418Y-113173393D01*
X145465160Y-113124815D01*
X145547255Y-113054330D01*
X145821395Y-113054330D01*
X145824253Y-113120053D01*
X145842350Y-113170535D01*
X145891404Y-113207683D01*
X145989035Y-113220065D01*
X146085714Y-113207206D01*
X146135720Y-113168630D01*
X146151913Y-113119100D01*
X146153668Y-113078143D01*
X146278595Y-113078143D01*
X146288120Y-113159105D01*
X146320505Y-113201015D01*
X146419565Y-113220065D01*
X147105365Y-113220065D01*
X147211093Y-113201968D01*
X147245633Y-113164820D01*
X147907370Y-113164820D01*
X147924303Y-113301451D01*
X147975103Y-113419243D01*
X148059770Y-113518198D01*
X148165603Y-113592810D01*
X148279903Y-113637578D01*
X148402670Y-113652500D01*
X148544116Y-113634879D01*
X148678895Y-113582015D01*
X148777479Y-113514864D01*
X148810340Y-113454380D01*
X148753190Y-113322935D01*
X148696993Y-113267690D01*
X148650320Y-113252450D01*
X148595075Y-113275310D01*
X148499825Y-113328174D01*
X148396955Y-113345795D01*
X148278845Y-113288645D01*
X148233125Y-113151485D01*
X148233125Y-113094335D01*
X148326946Y-113165773D01*
X148463630Y-113189585D01*
X148566818Y-113173393D01*
X148665560Y-113124815D01*
X148749874Y-113052425D01*
X149021795Y-113052425D01*
X149024653Y-113118148D01*
X149040845Y-113166725D01*
X149091328Y-113205301D01*
X149189435Y-113218160D01*
X149296115Y-113200539D01*
X149345645Y-113147675D01*
X149357075Y-113050520D01*
X149357075Y-112715240D01*
X149401843Y-112593320D01*
X149521858Y-112549505D01*
X149643778Y-112595225D01*
X149690450Y-112715240D01*
X149690450Y-113052425D01*
X149693308Y-113118148D01*
X149711405Y-113166725D01*
X149760459Y-113205301D01*
X149858090Y-113218160D01*
X149954769Y-113205301D01*
X150004775Y-113166725D01*
X150020968Y-113116243D01*
X150023659Y-113054330D01*
X150176225Y-113054330D01*
X150179083Y-113120053D01*
X150197180Y-113170535D01*
X150246234Y-113207683D01*
X150343865Y-113220065D01*
X150440544Y-113207206D01*
X150490550Y-113168630D01*
X150506743Y-113119100D01*
X150508294Y-113082905D01*
X150614375Y-113082905D01*
X150643903Y-113149580D01*
X150732485Y-113204825D01*
X150830593Y-113231495D01*
X150891553Y-113213397D01*
X150926795Y-113176250D01*
X150951772Y-113121852D01*
X151001302Y-113006917D01*
X151075385Y-112831445D01*
X151134440Y-112835255D01*
X151374470Y-112835255D01*
X151374470Y-113050520D01*
X151377328Y-113116243D01*
X151395425Y-113166725D01*
X151445908Y-113205301D01*
X151544015Y-113218160D01*
X151649743Y-113200539D01*
X151700225Y-113147675D01*
X151711655Y-113048615D01*
X151711655Y-113047663D01*
X152298395Y-113047663D01*
X152366975Y-113163868D01*
X152483180Y-113231495D01*
X152599385Y-113162915D01*
X152808935Y-112951460D01*
X153020390Y-113162915D01*
X153135643Y-113231495D01*
X153251848Y-113163868D01*
X153321380Y-113047663D01*
X153252800Y-112930505D01*
X153041345Y-112717145D01*
X153159345Y-112598082D01*
X153397580Y-112598082D01*
X153412106Y-112700000D01*
X153455683Y-112771438D01*
X153584270Y-112827635D01*
X154035755Y-112827635D01*
X153972890Y-112917170D01*
X153847160Y-112953365D01*
X153748576Y-112947650D01*
X153673805Y-112930505D01*
X153652850Y-112922885D01*
X153576650Y-112901930D01*
X153471875Y-112987655D01*
X153447110Y-113075285D01*
X153472470Y-113149461D01*
X153548551Y-113202444D01*
X153675353Y-113234233D01*
X153852875Y-113244830D01*
X153985987Y-113232686D01*
X154103383Y-113196253D01*
X154200776Y-113139817D01*
X154273880Y-113067665D01*
X154283386Y-113052425D01*
X154517720Y-113052425D01*
X154520578Y-113118148D01*
X154538675Y-113166725D01*
X154593206Y-113205301D01*
X154699648Y-113218160D01*
X154802756Y-113194824D01*
X154847285Y-113124815D01*
X154943011Y-113193395D01*
X155070170Y-113216255D01*
X155181083Y-113199639D01*
X155285223Y-113149792D01*
X155382590Y-113066713D01*
X155393227Y-113052425D01*
X155656910Y-113052425D01*
X155659768Y-113118148D01*
X155675960Y-113166725D01*
X155726443Y-113205301D01*
X155824550Y-113218160D01*
X155931230Y-113200539D01*
X155980760Y-113147675D01*
X155992190Y-113050520D01*
X155992190Y-112715240D01*
X156036958Y-112593320D01*
X156156973Y-112549505D01*
X156278893Y-112595225D01*
X156325565Y-112715240D01*
X156325565Y-113052425D01*
X156328423Y-113118148D01*
X156346520Y-113166725D01*
X156395574Y-113205301D01*
X156493205Y-113218160D01*
X156589884Y-113205301D01*
X156639890Y-113166725D01*
X156656083Y-113116243D01*
X156658857Y-113052425D01*
X156811340Y-113052425D01*
X156814198Y-113119100D01*
X156832295Y-113168630D01*
X156882778Y-113207206D01*
X156980885Y-113220065D01*
X157086613Y-113201968D01*
X157137095Y-113147675D01*
X157148525Y-113050520D01*
X157148525Y-111991340D01*
X157145668Y-111925617D01*
X157127570Y-111875135D01*
X157077088Y-111836559D01*
X156978980Y-111823700D01*
X156872776Y-111841321D01*
X156820865Y-111894185D01*
X156811340Y-111993245D01*
X156811340Y-113052425D01*
X156658857Y-113052425D01*
X156658940Y-113050520D01*
X156658940Y-112376150D01*
X156656083Y-112312332D01*
X156637985Y-112263755D01*
X156587979Y-112228036D01*
X156491300Y-112216130D01*
X156397479Y-112227084D01*
X156348425Y-112259945D01*
X156329375Y-112338050D01*
X156295085Y-112299950D01*
X156243650Y-112259945D01*
X156100775Y-112216130D01*
X155980866Y-112232322D01*
X155875138Y-112280900D01*
X155783593Y-112361862D01*
X155713213Y-112466108D01*
X155670986Y-112584536D01*
X155656910Y-112717145D01*
X155656910Y-113052425D01*
X155393227Y-113052425D01*
X155460907Y-112961514D01*
X155507897Y-112845309D01*
X155523560Y-112718098D01*
X155507791Y-112590780D01*
X155460483Y-112474257D01*
X155381638Y-112368530D01*
X155283953Y-112284922D01*
X155180131Y-112234757D01*
X155070170Y-112218035D01*
X154944916Y-112241847D01*
X154851095Y-112313285D01*
X154851095Y-111913235D01*
X154848238Y-111847512D01*
X154831093Y-111797982D01*
X154780610Y-111758930D01*
X154684408Y-111747500D01*
X154588205Y-111758930D01*
X154537723Y-111798935D01*
X154520578Y-111849417D01*
X154517720Y-111915140D01*
X154517720Y-113052425D01*
X154283386Y-113052425D01*
X154340555Y-112960773D01*
X154380560Y-112845838D01*
X154393895Y-112722860D01*
X154376644Y-112573529D01*
X154324892Y-112445577D01*
X154238638Y-112339002D01*
X154126560Y-112259098D01*
X153997338Y-112211156D01*
X153850970Y-112195175D01*
X153727383Y-112206843D01*
X153621418Y-112241847D01*
X153533073Y-112300188D01*
X153462350Y-112381865D01*
X153413773Y-112485449D01*
X153397580Y-112598082D01*
X153159345Y-112598082D01*
X153252800Y-112503785D01*
X153321380Y-112386627D01*
X153251848Y-112269470D01*
X153135643Y-112200890D01*
X153020390Y-112269470D01*
X152808935Y-112482830D01*
X152599385Y-112269470D01*
X152483180Y-112200890D01*
X152366975Y-112269470D01*
X152298395Y-112386627D01*
X152366975Y-112503785D01*
X152578430Y-112717145D01*
X152366975Y-112930505D01*
X152298395Y-113047663D01*
X151711655Y-113047663D01*
X151711655Y-111991340D01*
X151708798Y-111925617D01*
X151690700Y-111875135D01*
X151640218Y-111836559D01*
X151542110Y-111823700D01*
X151130630Y-111823700D01*
X151019928Y-111837247D01*
X150911343Y-111877887D01*
X150804875Y-111945620D01*
X150735343Y-112015152D01*
X150679145Y-112105640D01*
X150641998Y-112212320D01*
X150629615Y-112330430D01*
X150645490Y-112465473D01*
X150693115Y-112583583D01*
X150772490Y-112684760D01*
X150739470Y-112762865D01*
X150696290Y-112862560D01*
X150642950Y-112983845D01*
X150614375Y-113082905D01*
X150508294Y-113082905D01*
X150509600Y-113052425D01*
X150509600Y-112383770D01*
X150506743Y-112318047D01*
X150490550Y-112267565D01*
X150440068Y-112230417D01*
X150341960Y-112218035D01*
X150212420Y-112250420D01*
X150178130Y-112332335D01*
X150176225Y-112387580D01*
X150176225Y-113054330D01*
X150023659Y-113054330D01*
X150023825Y-113050520D01*
X150023825Y-112376150D01*
X150020968Y-112312332D01*
X150002870Y-112263755D01*
X149952864Y-112228036D01*
X149856185Y-112216130D01*
X149762364Y-112227084D01*
X149713310Y-112259945D01*
X149694260Y-112338050D01*
X149659970Y-112299950D01*
X149608535Y-112259945D01*
X149465660Y-112216130D01*
X149345751Y-112232322D01*
X149240023Y-112280900D01*
X149148478Y-112361862D01*
X149078098Y-112466108D01*
X149035871Y-112584536D01*
X149021795Y-112717145D01*
X149021795Y-113052425D01*
X148749874Y-113052425D01*
X148759858Y-113043853D01*
X148836587Y-112941300D01*
X148882624Y-112827953D01*
X148897970Y-112703810D01*
X148882518Y-112579562D01*
X148836163Y-112465897D01*
X148758905Y-112362815D01*
X148663232Y-112281323D01*
X148561632Y-112232428D01*
X148454105Y-112216130D01*
X148335995Y-112239942D01*
X148262653Y-112283757D01*
X148231220Y-112320905D01*
X148192168Y-112239942D01*
X148084535Y-112212320D01*
X147975950Y-112223750D01*
X147927373Y-112262802D01*
X147910228Y-112311380D01*
X147907370Y-112376150D01*
X147907370Y-113164820D01*
X147245633Y-113164820D01*
X147261575Y-113147675D01*
X147273005Y-113050520D01*
X147273005Y-111991340D01*
X147270148Y-111925617D01*
X147266392Y-111915140D01*
X150176225Y-111915140D01*
X150179083Y-111980862D01*
X150196228Y-112030392D01*
X150246710Y-112069445D01*
X150342913Y-112080875D01*
X150439115Y-112069445D01*
X150489598Y-112029440D01*
X150506743Y-111978957D01*
X150509600Y-111913235D01*
X150506743Y-111847512D01*
X150490550Y-111798935D01*
X150440068Y-111760359D01*
X150341960Y-111747500D01*
X150245758Y-111760359D01*
X150197180Y-111798935D01*
X150179083Y-111849417D01*
X150176225Y-111915140D01*
X147266392Y-111915140D01*
X147252050Y-111875135D01*
X147201568Y-111836559D01*
X147103460Y-111823700D01*
X146997256Y-111841321D01*
X146945345Y-111894185D01*
X146935820Y-111993245D01*
X146935820Y-112938125D01*
X146417660Y-112938125D01*
X146326220Y-112952412D01*
X146288120Y-112997180D01*
X146278595Y-113078143D01*
X146153668Y-113078143D01*
X146154770Y-113052425D01*
X146154770Y-112383770D01*
X146151913Y-112318047D01*
X146135720Y-112267565D01*
X146085238Y-112230417D01*
X145987130Y-112218035D01*
X145857590Y-112250420D01*
X145823300Y-112332335D01*
X145821395Y-112387580D01*
X145821395Y-113054330D01*
X145547255Y-113054330D01*
X145559458Y-113043853D01*
X145636187Y-112941300D01*
X145682224Y-112827953D01*
X145697570Y-112703810D01*
X145682118Y-112579562D01*
X145635763Y-112465897D01*
X145558505Y-112362815D01*
X145462832Y-112281323D01*
X145361232Y-112232428D01*
X145253705Y-112216130D01*
X145135595Y-112239942D01*
X145062253Y-112283757D01*
X145030820Y-112320905D01*
X144991768Y-112239942D01*
X144884135Y-112212320D01*
X144775550Y-112223750D01*
X144726973Y-112262802D01*
X144709828Y-112311380D01*
X144706970Y-112376150D01*
X144706970Y-113164820D01*
X144536766Y-113164820D01*
X144551713Y-113119100D01*
X144554570Y-113052425D01*
X144554570Y-111915140D01*
X145821395Y-111915140D01*
X145824253Y-111980862D01*
X145841398Y-112030392D01*
X145891880Y-112069445D01*
X145988083Y-112080875D01*
X146084285Y-112069445D01*
X146134768Y-112029440D01*
X146151913Y-111978957D01*
X146154770Y-111913235D01*
X146151913Y-111847512D01*
X146135720Y-111798935D01*
X146085238Y-111760359D01*
X145987130Y-111747500D01*
X145890928Y-111760359D01*
X145842350Y-111798935D01*
X145824253Y-111849417D01*
X145821395Y-111915140D01*
X144554570Y-111915140D01*
X144554570Y-111913235D01*
X144551713Y-111847512D01*
X144535520Y-111798935D01*
X144485038Y-111760359D01*
X144386930Y-111747500D01*
X144290728Y-111760359D01*
X144242150Y-111798935D01*
X144224053Y-111849417D01*
X144221195Y-111915140D01*
X144221195Y-112336145D01*
X144117849Y-112248991D01*
X143998310Y-112219940D01*
X143878401Y-112236027D01*
X143772673Y-112284287D01*
X143681128Y-112364720D01*
X143610748Y-112468437D01*
X143568521Y-112586547D01*
X143554445Y-112719050D01*
X143554445Y-113054330D01*
X143229625Y-113054330D01*
X143262980Y-112956117D01*
X143274410Y-112827635D01*
X143274410Y-112545695D01*
X143352515Y-112551410D01*
X143422048Y-112519025D01*
X143449670Y-112408535D01*
X143440145Y-112295187D01*
X143413475Y-112244705D01*
X143337275Y-112219940D01*
X143274410Y-112227560D01*
X143274410Y-112031345D01*
X143271553Y-111966575D01*
X143253455Y-111920855D01*
X143204401Y-111885136D01*
X143106770Y-111873230D01*
X143003424Y-111890851D01*
X142952465Y-111943715D01*
X142942940Y-112040870D01*
X142942940Y-112227560D01*
X142816258Y-112219940D01*
X142751488Y-112222797D01*
X142701005Y-112240895D01*
X142663858Y-112289949D01*
X142651475Y-112387580D01*
X141503643Y-112387580D01*
X141511959Y-112354380D01*
X141551322Y-112244368D01*
X141601279Y-112138743D01*
X141661348Y-112038524D01*
X141730951Y-111944675D01*
X141809417Y-111858101D01*
X141895992Y-111779634D01*
X141989840Y-111710031D01*
X142090060Y-111649962D01*
X142195684Y-111600006D01*
X142305696Y-111560643D01*
X142419037Y-111532253D01*
X142534615Y-111515108D01*
X142651316Y-111509375D01*
X157148684Y-111509375D01*
X157265385Y-111515108D01*
G37*
G36*
X153978605Y-112546647D02*
G01*
X154039565Y-112654280D01*
X153799535Y-112654280D01*
X153727145Y-112593320D01*
X153760483Y-112522835D01*
X153855733Y-112496165D01*
X153978605Y-112546647D01*
G37*
G36*
X148526495Y-112591415D02*
G01*
X148572215Y-112704763D01*
X148523638Y-112816205D01*
X148405528Y-112865735D01*
X148290275Y-112815253D01*
X148244555Y-112704763D01*
X148288370Y-112592367D01*
X148406480Y-112539980D01*
X148526495Y-112591415D01*
G37*
G36*
X151374470Y-112498070D02*
G01*
X151130630Y-112498070D01*
X151020140Y-112456160D01*
X150964895Y-112330430D01*
X151020140Y-112203747D01*
X151134440Y-112160885D01*
X151374470Y-112160885D01*
X151374470Y-112498070D01*
G37*
G36*
X155144465Y-112603797D02*
G01*
X155190185Y-112719050D01*
X155140655Y-112833350D01*
X155020640Y-112884785D01*
X154903483Y-112833350D01*
X154856810Y-112720003D01*
X154901578Y-112604750D01*
X155022545Y-112551410D01*
X155144465Y-112603797D01*
G37*
G36*
X147568937Y-74287637D02*
G01*
X147627159Y-74327999D01*
X147666092Y-74386458D01*
X147679070Y-74454205D01*
X147679070Y-74545645D01*
X147319025Y-74545645D01*
X147319025Y-74453252D01*
X147331765Y-74388006D01*
X147369984Y-74329427D01*
X147427491Y-74287994D01*
X147498095Y-74274182D01*
X147568937Y-74287637D01*
G37*
G36*
X148055793Y-76149230D02*
G01*
X148047751Y-76203444D01*
X148034434Y-76256608D01*
X148015971Y-76308211D01*
X147992538Y-76357756D01*
X147964361Y-76404766D01*
X147931713Y-76448787D01*
X147894907Y-76489396D01*
X147854298Y-76526202D01*
X147810276Y-76558851D01*
X147763267Y-76587027D01*
X147713722Y-76610460D01*
X147662119Y-76628924D01*
X147608955Y-76642241D01*
X147554741Y-76650283D01*
X147500000Y-76652972D01*
X147445259Y-76650283D01*
X147391045Y-76642241D01*
X147337881Y-76628924D01*
X147286278Y-76610460D01*
X147236733Y-76587027D01*
X147189724Y-76558851D01*
X147145702Y-76526202D01*
X147105093Y-76489396D01*
X147068287Y-76448787D01*
X147035639Y-76404766D01*
X147007462Y-76357756D01*
X146984029Y-76308211D01*
X146965566Y-76256608D01*
X146952249Y-76203444D01*
X146944207Y-76149230D01*
X146941517Y-76094489D01*
X146941517Y-75742937D01*
X147139955Y-75742937D01*
X147146652Y-75811577D01*
X147166744Y-75875573D01*
X147200230Y-75934926D01*
X147247111Y-75989635D01*
X147303458Y-76035474D01*
X147365340Y-76068216D01*
X147432759Y-76087862D01*
X147505715Y-76094410D01*
X147578313Y-76087742D01*
X147644661Y-76067740D01*
X147704758Y-76034402D01*
X147758604Y-75987730D01*
X147802984Y-75932009D01*
X147834685Y-75871525D01*
X147853705Y-75806279D01*
X147860045Y-75736270D01*
X147851790Y-75662716D01*
X147827025Y-75591913D01*
X147785750Y-75523862D01*
X147743364Y-75498145D01*
X147689548Y-75520052D01*
X147651686Y-75555533D01*
X147639065Y-75587680D01*
X147665259Y-75645782D01*
X147684904Y-75689597D01*
X147691453Y-75741032D01*
X147678713Y-75809374D01*
X147640494Y-75869620D01*
X147581677Y-75911768D01*
X147507144Y-75925817D01*
X147454968Y-75919467D01*
X147408295Y-75900417D01*
X147367126Y-75868667D01*
X147323907Y-75807707D01*
X147309500Y-75739127D01*
X147313786Y-75689359D01*
X147326645Y-75644830D01*
X147430467Y-75644830D01*
X147430467Y-75720077D01*
X147438087Y-75761987D01*
X147460471Y-75778180D01*
X147500476Y-75781990D01*
X147540958Y-75777704D01*
X147561913Y-75761987D01*
X147570485Y-75716267D01*
X147570485Y-75548627D01*
X147543815Y-75485762D01*
X147490475Y-75476237D01*
X147280925Y-75476237D01*
X147222822Y-75502907D01*
X147186568Y-75547913D01*
X147160672Y-75602920D01*
X147145134Y-75667928D01*
X147139955Y-75742937D01*
X146941517Y-75742937D01*
X146941517Y-75317170D01*
X147149480Y-75317170D01*
X147155909Y-75364795D01*
X147175197Y-75389560D01*
X147200915Y-75398609D01*
X147234252Y-75400037D01*
X147765748Y-75400037D01*
X147818611Y-75390989D01*
X147840995Y-75363842D01*
X147846710Y-75317170D01*
X147841471Y-75271926D01*
X147829565Y-75248590D01*
X147804800Y-75226682D01*
X147718837Y-75163394D01*
X147643193Y-75107514D01*
X147577867Y-75059042D01*
X147522860Y-75017979D01*
X147478172Y-74984324D01*
X147443802Y-74958077D01*
X147765748Y-74958077D01*
X147818611Y-74949029D01*
X147840995Y-74921882D01*
X147846710Y-74876639D01*
X147841948Y-74832824D01*
X147830518Y-74808059D01*
X147810515Y-74796152D01*
X147761938Y-74790437D01*
X147233300Y-74790437D01*
X147199962Y-74791866D01*
X147175197Y-74800915D01*
X147155909Y-74826156D01*
X147149480Y-74875210D01*
X147155195Y-74926645D01*
X147173292Y-74950457D01*
X147263039Y-75017820D01*
X147341779Y-75077034D01*
X147409512Y-75128099D01*
X147466239Y-75171014D01*
X147511959Y-75205780D01*
X147546673Y-75232397D01*
X147233300Y-75232397D01*
X147199962Y-75233826D01*
X147175197Y-75242875D01*
X147155909Y-75268116D01*
X147149480Y-75317170D01*
X146941517Y-75317170D01*
X146941517Y-74630417D01*
X147150432Y-74630417D01*
X147156386Y-74677566D01*
X147174245Y-74702807D01*
X147235205Y-74714237D01*
X147764795Y-74714237D01*
X147798133Y-74712809D01*
X147822898Y-74703760D01*
X147842186Y-74678519D01*
X147848615Y-74629465D01*
X147847663Y-74453252D01*
X147841441Y-74386280D01*
X147822778Y-74323474D01*
X147791673Y-74264836D01*
X147748126Y-74210365D01*
X147695501Y-74164526D01*
X147637160Y-74131784D01*
X147573104Y-74112138D01*
X147503334Y-74105590D01*
X147433295Y-74111990D01*
X147368436Y-74131188D01*
X147308756Y-74163186D01*
X147254255Y-74207984D01*
X147208833Y-74261889D01*
X147176388Y-74321212D01*
X147156921Y-74385952D01*
X147150432Y-74456110D01*
X147150432Y-74630417D01*
X146941517Y-74630417D01*
X146941517Y-74105511D01*
X146944207Y-74050770D01*
X146952249Y-73996556D01*
X146965566Y-73943392D01*
X146984029Y-73891789D01*
X147007462Y-73842244D01*
X147035639Y-73795234D01*
X147068287Y-73751213D01*
X147105093Y-73710604D01*
X147145702Y-73673798D01*
X147189724Y-73641149D01*
X147236733Y-73612973D01*
X147286278Y-73589540D01*
X147337881Y-73571076D01*
X147391045Y-73557759D01*
X147445259Y-73549717D01*
X147500000Y-73547028D01*
X147554741Y-73549717D01*
X147608955Y-73557759D01*
X147662119Y-73571076D01*
X147713722Y-73589540D01*
X147763267Y-73612973D01*
X147810276Y-73641149D01*
X147854298Y-73673798D01*
X147894907Y-73710604D01*
X147931713Y-73751213D01*
X147964361Y-73795234D01*
X147992538Y-73842244D01*
X148015971Y-73891789D01*
X148034434Y-73943392D01*
X148047751Y-73996556D01*
X148055793Y-74050770D01*
X148058483Y-74105511D01*
X148058483Y-76094489D01*
X148055793Y-76149230D01*
G37*
G36*
X153102109Y-75927620D02*
G01*
X153093397Y-75986351D01*
X153078971Y-76043946D01*
X153058968Y-76099849D01*
X153033582Y-76153523D01*
X153003058Y-76204450D01*
X152967689Y-76252139D01*
X152927816Y-76296133D01*
X152883822Y-76336006D01*
X152836133Y-76371375D01*
X152785206Y-76401899D01*
X152731532Y-76427285D01*
X152675629Y-76447288D01*
X152618034Y-76461714D01*
X152559303Y-76470426D01*
X152500000Y-76473340D01*
X152440697Y-76470426D01*
X152381966Y-76461714D01*
X152324371Y-76447288D01*
X152268468Y-76427285D01*
X152214794Y-76401899D01*
X152163867Y-76371375D01*
X152116178Y-76336006D01*
X152072184Y-76296133D01*
X152032311Y-76252139D01*
X151996942Y-76204450D01*
X151966418Y-76153523D01*
X151941032Y-76099849D01*
X151921029Y-76043946D01*
X151906603Y-75986351D01*
X151897891Y-75927620D01*
X151894977Y-75868317D01*
X151894977Y-75593752D01*
X152109951Y-75593752D01*
X152112918Y-75640960D01*
X152121818Y-75685589D01*
X152151226Y-75755757D01*
X152183730Y-75802191D01*
X152215202Y-75832115D01*
X152226553Y-75841402D01*
X152285886Y-75868231D01*
X152316455Y-75857138D01*
X152355537Y-75823860D01*
X152380302Y-75769171D01*
X152367404Y-75734603D01*
X152328709Y-75688685D01*
X152295173Y-75647410D01*
X152279179Y-75597880D01*
X152287892Y-75544566D01*
X152314033Y-75512578D01*
X152357601Y-75501915D01*
X152397328Y-75528228D01*
X152420546Y-75593752D01*
X152429961Y-75634511D01*
X152443763Y-75678366D01*
X152461176Y-75722221D01*
X152481426Y-75762980D01*
X152509416Y-75798966D01*
X152550046Y-75828504D01*
X152601769Y-75848238D01*
X152663036Y-75854817D01*
X152720993Y-75847307D01*
X152773791Y-75824778D01*
X152821429Y-75787229D01*
X152858978Y-75736724D01*
X152881507Y-75675328D01*
X152889017Y-75603039D01*
X152885018Y-75543835D01*
X152873023Y-75490049D01*
X152840519Y-75419365D01*
X152820913Y-75393568D01*
X152770351Y-75361580D01*
X152713598Y-75386345D01*
X152674903Y-75421945D01*
X152662004Y-75458577D01*
X152682642Y-75512234D01*
X152692961Y-75524101D01*
X152706375Y-75540095D01*
X152719789Y-75595300D01*
X152703795Y-75651021D01*
X152659425Y-75673207D01*
X152613506Y-75646894D01*
X152589773Y-75581370D01*
X152581905Y-75540353D01*
X152570683Y-75495724D01*
X152556366Y-75451095D01*
X152539211Y-75410078D01*
X152513801Y-75374092D01*
X152474719Y-75344554D01*
X152423512Y-75324820D01*
X152361729Y-75318242D01*
X152298655Y-75324949D01*
X152243579Y-75345070D01*
X152198306Y-75376027D01*
X152164641Y-75415238D01*
X152134258Y-75472220D01*
X152116028Y-75531725D01*
X152109951Y-75593752D01*
X151894977Y-75593752D01*
X151894977Y-75160365D01*
X152120270Y-75160365D01*
X152130073Y-75217634D01*
X152159481Y-75244978D01*
X152212107Y-75251170D01*
X152785829Y-75251170D01*
X152821429Y-75249622D01*
X152848774Y-75239819D01*
X152869669Y-75212474D01*
X152876634Y-75159333D01*
X152867090Y-75101806D01*
X152838455Y-75073687D01*
X152784798Y-75068528D01*
X152211075Y-75068528D01*
X152174959Y-75070076D01*
X152148131Y-75079878D01*
X152127235Y-75107223D01*
X152120270Y-75160365D01*
X151894977Y-75160365D01*
X151894977Y-74620694D01*
X152109951Y-74620694D01*
X152117207Y-74695054D01*
X152138973Y-74764383D01*
X152175250Y-74828681D01*
X152226037Y-74887950D01*
X152287079Y-74937609D01*
X152354119Y-74973079D01*
X152427156Y-74994362D01*
X152506191Y-75001456D01*
X152584839Y-74994233D01*
X152656716Y-74972563D01*
X152721821Y-74936448D01*
X152780154Y-74885886D01*
X152828233Y-74825521D01*
X152862575Y-74759997D01*
X152883180Y-74689314D01*
X152890049Y-74613471D01*
X152881106Y-74533787D01*
X152854277Y-74457085D01*
X152809563Y-74383363D01*
X152763644Y-74355502D01*
X152705343Y-74379235D01*
X152664326Y-74417673D01*
X152650654Y-74452498D01*
X152679030Y-74515443D01*
X152700313Y-74562909D01*
X152707407Y-74618630D01*
X152693606Y-74692667D01*
X152652202Y-74757933D01*
X152588483Y-74803594D01*
X152507739Y-74818814D01*
X152451215Y-74811935D01*
X152400653Y-74791297D01*
X152356053Y-74756902D01*
X152309232Y-74690862D01*
X152293625Y-74616567D01*
X152298268Y-74562651D01*
X152312199Y-74514411D01*
X152424673Y-74514411D01*
X152424673Y-74595929D01*
X152432928Y-74641332D01*
X152457177Y-74658873D01*
X152500516Y-74663001D01*
X152544371Y-74658358D01*
X152567072Y-74641332D01*
X152576359Y-74591802D01*
X152576359Y-74410192D01*
X152547466Y-74342088D01*
X152489681Y-74331769D01*
X152262669Y-74331769D01*
X152199724Y-74360662D01*
X152160449Y-74409418D01*
X152132395Y-74469008D01*
X152115562Y-74539434D01*
X152109951Y-74620694D01*
X151894977Y-74620694D01*
X151894977Y-74331683D01*
X151897891Y-74272380D01*
X151906603Y-74213649D01*
X151921029Y-74156054D01*
X151941032Y-74100151D01*
X151966418Y-74046477D01*
X151996942Y-73995550D01*
X152032311Y-73947861D01*
X152072184Y-73903867D01*
X152116178Y-73863994D01*
X152163867Y-73828625D01*
X152214794Y-73798101D01*
X152268468Y-73772715D01*
X152324371Y-73752712D01*
X152381966Y-73738286D01*
X152440697Y-73729574D01*
X152500000Y-73726660D01*
X152559303Y-73729574D01*
X152618034Y-73738286D01*
X152675629Y-73752712D01*
X152731532Y-73772715D01*
X152785206Y-73798101D01*
X152836133Y-73828625D01*
X152883822Y-73863994D01*
X152927816Y-73903867D01*
X152967689Y-73947861D01*
X153003058Y-73995550D01*
X153033582Y-74046477D01*
X153058968Y-74100151D01*
X153078971Y-74156054D01*
X153093397Y-74213649D01*
X153102109Y-74272380D01*
X153105023Y-74331683D01*
X153105023Y-75868317D01*
X153102109Y-75927620D01*
G37*
G36*
X150899279Y-79892961D02*
G01*
X150730052Y-79892961D01*
X150681295Y-79875419D01*
X150665043Y-79822793D01*
X150670719Y-79783582D01*
X150689808Y-79762944D01*
X150747593Y-79754689D01*
X150803315Y-79740243D01*
X150821888Y-79680910D01*
X150802799Y-79621577D01*
X150739338Y-79607131D01*
X150689808Y-79585462D01*
X150686713Y-79548314D01*
X150703739Y-79512199D01*
X150754817Y-79501880D01*
X150899279Y-79501880D01*
X150899279Y-79892961D01*
G37*
G36*
X151141208Y-79098918D02*
G01*
X151199840Y-79107615D01*
X151257336Y-79122017D01*
X151313144Y-79141985D01*
X151366726Y-79167328D01*
X151417566Y-79197800D01*
X151465175Y-79233109D01*
X151509093Y-79272914D01*
X151548898Y-79316832D01*
X151584207Y-79364441D01*
X151614679Y-79415281D01*
X151640022Y-79468863D01*
X151659990Y-79524671D01*
X151674392Y-79582167D01*
X151683089Y-79640799D01*
X151685998Y-79700000D01*
X151683089Y-79759201D01*
X151674392Y-79817833D01*
X151659990Y-79875329D01*
X151640022Y-79931137D01*
X151614679Y-79984719D01*
X151584207Y-80035559D01*
X151548898Y-80083168D01*
X151509093Y-80127086D01*
X151465175Y-80166891D01*
X151417566Y-80202200D01*
X151366726Y-80232672D01*
X151313144Y-80258015D01*
X151257336Y-80277983D01*
X151199840Y-80292385D01*
X151141208Y-80301082D01*
X151082007Y-80303991D01*
X148917993Y-80303991D01*
X148858792Y-80301082D01*
X148800160Y-80292385D01*
X148742664Y-80277983D01*
X148686856Y-80258015D01*
X148633274Y-80232672D01*
X148582434Y-80202200D01*
X148534825Y-80166891D01*
X148490907Y-80127086D01*
X148451102Y-80083168D01*
X148415793Y-80035559D01*
X148385321Y-79984719D01*
X148359978Y-79931137D01*
X148340010Y-79875329D01*
X148325608Y-79817833D01*
X148316911Y-79759201D01*
X148314002Y-79700000D01*
X148316911Y-79640799D01*
X148325608Y-79582167D01*
X148340010Y-79524671D01*
X148359978Y-79468863D01*
X148385321Y-79415281D01*
X148397738Y-79394565D01*
X148918079Y-79394565D01*
X148923238Y-79437388D01*
X148940780Y-79459573D01*
X148993406Y-79468860D01*
X149190494Y-79468860D01*
X149190494Y-79987893D01*
X149192042Y-80022977D01*
X149201329Y-80049290D01*
X149228673Y-80070443D01*
X149280267Y-80076634D01*
X149331345Y-80070443D01*
X149358174Y-80049290D01*
X149367461Y-80022461D01*
X149369008Y-79986861D01*
X149369008Y-79695357D01*
X149682698Y-79695357D01*
X149689406Y-79774102D01*
X149709527Y-79846784D01*
X149743063Y-79913405D01*
X149790013Y-79973963D01*
X149846767Y-80024299D01*
X149909711Y-80060253D01*
X149978847Y-80081826D01*
X150054173Y-80089017D01*
X150129662Y-80081923D01*
X150199281Y-80060640D01*
X150263031Y-80025170D01*
X150320913Y-79975511D01*
X150368992Y-79916049D01*
X150403334Y-79851170D01*
X150408627Y-79833112D01*
X150482402Y-79833112D01*
X150491172Y-79898177D01*
X150514734Y-79955790D01*
X150553085Y-80005951D01*
X150602099Y-80044646D01*
X150657648Y-80067863D01*
X150719733Y-80075603D01*
X150991116Y-80075603D01*
X151048385Y-80065800D01*
X151075730Y-80036391D01*
X151081921Y-79982734D01*
X151081921Y-79410043D01*
X151080373Y-79373927D01*
X151070570Y-79347099D01*
X151043226Y-79326203D01*
X150990084Y-79319238D01*
X150730052Y-79319238D01*
X150670203Y-79326576D01*
X150617233Y-79348589D01*
X150571143Y-79385278D01*
X150533881Y-79432974D01*
X150511523Y-79486631D01*
X150504071Y-79546251D01*
X150513874Y-79611517D01*
X150543282Y-79671107D01*
X150509460Y-79721211D01*
X150489166Y-79775212D01*
X150482402Y-79833112D01*
X150408627Y-79833112D01*
X150423939Y-79780873D01*
X150430808Y-79705159D01*
X150423069Y-79622222D01*
X150399852Y-79544703D01*
X150363736Y-79475954D01*
X150317302Y-79419330D01*
X150261838Y-79374185D01*
X150198636Y-79339876D01*
X150130532Y-79318206D01*
X150060365Y-79310983D01*
X149986521Y-79317884D01*
X149917708Y-79338586D01*
X149853925Y-79373089D01*
X149795173Y-79421394D01*
X149745965Y-79479920D01*
X149710817Y-79545090D01*
X149689728Y-79616902D01*
X149682698Y-79695357D01*
X149369008Y-79695357D01*
X149369008Y-79468860D01*
X149567128Y-79468860D01*
X149615627Y-79461121D01*
X149636264Y-79436872D01*
X149641423Y-79393533D01*
X149636264Y-79350710D01*
X149618722Y-79328525D01*
X149566097Y-79319238D01*
X148992374Y-79319238D01*
X148943876Y-79326977D01*
X148923238Y-79351226D01*
X148918079Y-79394565D01*
X148397738Y-79394565D01*
X148415793Y-79364441D01*
X148451102Y-79316832D01*
X148490907Y-79272914D01*
X148534825Y-79233109D01*
X148582434Y-79197800D01*
X148633274Y-79167328D01*
X148686856Y-79141985D01*
X148742664Y-79122017D01*
X148800160Y-79107615D01*
X148858792Y-79098918D01*
X148917993Y-79096009D01*
X151082007Y-79096009D01*
X151141208Y-79098918D01*
G37*
G36*
X150126921Y-79507942D02*
G01*
X150189349Y-79550894D01*
X150222025Y-79592914D01*
X150241631Y-79642616D01*
X150248166Y-79700000D01*
X150241573Y-79757384D01*
X150221796Y-79807086D01*
X150188833Y-79849106D01*
X150126018Y-79892058D01*
X150056237Y-79906375D01*
X149986586Y-79892445D01*
X149924157Y-79850654D01*
X149891481Y-79809264D01*
X149871876Y-79759390D01*
X149865340Y-79701032D01*
X149871933Y-79642559D01*
X149891710Y-79592341D01*
X149924673Y-79550378D01*
X149987489Y-79507813D01*
X150057269Y-79493625D01*
X150126921Y-79507942D01*
G37*
G36*
X150600569Y-75821185D02*
G01*
X150591879Y-75879766D01*
X150577489Y-75937213D01*
X150557538Y-75992974D01*
X150532217Y-76046510D01*
X150501771Y-76097306D01*
X150466492Y-76144874D01*
X150426721Y-76188755D01*
X150382840Y-76228526D01*
X150335273Y-76263805D01*
X150284476Y-76294251D01*
X150230940Y-76319572D01*
X150175180Y-76339523D01*
X150117732Y-76353913D01*
X150059151Y-76362603D01*
X150000000Y-76365509D01*
X149940849Y-76362603D01*
X149882268Y-76353913D01*
X149824820Y-76339523D01*
X149769060Y-76319572D01*
X149715524Y-76294251D01*
X149664727Y-76263805D01*
X149617160Y-76228526D01*
X149573279Y-76188755D01*
X149533508Y-76144874D01*
X149498229Y-76097306D01*
X149467783Y-76046510D01*
X149442462Y-75992974D01*
X149422511Y-75937213D01*
X149408121Y-75879766D01*
X149399431Y-75821185D01*
X149396525Y-75762034D01*
X149396525Y-75515330D01*
X149611499Y-75515330D01*
X149616888Y-75577242D01*
X149633054Y-75635027D01*
X149659997Y-75688685D01*
X149679603Y-75714482D01*
X149686826Y-75722737D01*
X149748738Y-75761948D01*
X149815810Y-75723768D01*
X149849862Y-75663920D01*
X149816842Y-75594784D01*
X149795173Y-75530292D01*
X149814778Y-75462188D01*
X149868952Y-75440003D01*
X149923641Y-75464252D01*
X149943763Y-75519457D01*
X149925189Y-75568987D01*
X149901456Y-75625224D01*
X149921062Y-75690232D01*
X149952534Y-75738215D01*
X149977815Y-75749565D01*
X150026055Y-75744406D01*
X150143947Y-75728928D01*
X150260033Y-75713192D01*
X150302855Y-75707258D01*
X150324525Y-75700035D01*
X150352385Y-75685073D01*
X150374571Y-75658244D01*
X150384373Y-75616453D01*
X150383342Y-75459608D01*
X150383342Y-75362612D01*
X150381794Y-75326497D01*
X150371991Y-75299668D01*
X150344130Y-75278772D01*
X150289441Y-75271807D01*
X150239653Y-75278256D01*
X150214114Y-75297604D01*
X150204311Y-75322885D01*
X150202763Y-75356421D01*
X150202763Y-75536999D01*
X150124341Y-75547318D01*
X150126405Y-75511202D01*
X150118207Y-75448028D01*
X150093614Y-75389212D01*
X150052626Y-75334752D01*
X149999771Y-75291183D01*
X149939578Y-75265043D01*
X149872047Y-75256329D01*
X149804173Y-75264584D01*
X149742948Y-75289349D01*
X149688374Y-75330624D01*
X149645666Y-75384167D01*
X149620041Y-75445735D01*
X149611499Y-75515330D01*
X149396525Y-75515330D01*
X149396525Y-74831197D01*
X149626977Y-74831197D01*
X149640907Y-74880211D01*
X149677539Y-74914778D01*
X150255389Y-75199576D01*
X150304919Y-75215054D01*
X150339487Y-75199834D01*
X150370959Y-75154173D01*
X150388501Y-75102064D01*
X150384373Y-75074719D01*
X150369927Y-75057177D01*
X150342583Y-75040151D01*
X150313690Y-75026350D01*
X150256937Y-75000424D01*
X150184061Y-74967275D01*
X150106799Y-74931804D01*
X150029537Y-74896205D01*
X149956661Y-74862669D01*
X149901585Y-74837259D01*
X149877723Y-74826037D01*
X150329684Y-74619662D01*
X150360640Y-74605216D01*
X150388501Y-74559813D01*
X150370959Y-74498933D01*
X150339487Y-74453272D01*
X150304919Y-74438052D01*
X150255389Y-74453530D01*
X149677539Y-74738328D01*
X149640907Y-74772896D01*
X149626977Y-74820878D01*
X149626977Y-74831197D01*
X149396525Y-74831197D01*
X149396525Y-74437966D01*
X149399431Y-74378815D01*
X149408121Y-74320234D01*
X149422511Y-74262787D01*
X149442462Y-74207026D01*
X149467783Y-74153490D01*
X149498229Y-74102694D01*
X149533508Y-74055126D01*
X149573279Y-74011245D01*
X149617160Y-73971474D01*
X149664727Y-73936195D01*
X149715524Y-73905749D01*
X149769060Y-73880428D01*
X149824820Y-73860477D01*
X149882268Y-73846087D01*
X149940849Y-73837397D01*
X150000000Y-73834491D01*
X150059151Y-73837397D01*
X150117732Y-73846087D01*
X150175180Y-73860477D01*
X150230940Y-73880428D01*
X150284476Y-73905749D01*
X150335273Y-73936195D01*
X150382840Y-73971474D01*
X150426721Y-74011245D01*
X150466492Y-74055126D01*
X150501771Y-74102694D01*
X150532217Y-74153490D01*
X150557538Y-74207026D01*
X150577489Y-74262787D01*
X150591879Y-74320234D01*
X150600569Y-74378815D01*
X150603475Y-74437966D01*
X150603475Y-75762034D01*
X150600569Y-75821185D01*
G37*
G36*
X149319994Y-70585554D02*
G01*
X149189978Y-70585554D01*
X149129097Y-70562852D01*
X149099173Y-70494749D01*
X149129097Y-70426129D01*
X149191010Y-70402912D01*
X149319994Y-70402912D01*
X149319994Y-70585554D01*
G37*
G36*
X150013930Y-70407942D02*
G01*
X150076359Y-70450894D01*
X150109035Y-70492914D01*
X150128640Y-70542616D01*
X150135176Y-70600000D01*
X150128583Y-70657384D01*
X150108805Y-70707086D01*
X150075843Y-70749106D01*
X150013027Y-70792058D01*
X149943247Y-70806375D01*
X149873595Y-70792445D01*
X149811167Y-70750654D01*
X149778491Y-70709264D01*
X149758885Y-70659390D01*
X149752350Y-70601032D01*
X149758943Y-70542559D01*
X149778720Y-70492341D01*
X149811683Y-70450378D01*
X149874498Y-70407813D01*
X149944279Y-70393625D01*
X150013930Y-70407942D01*
G37*
G36*
X151141724Y-69998918D02*
G01*
X151200356Y-70007615D01*
X151257852Y-70022017D01*
X151313660Y-70041985D01*
X151367242Y-70067328D01*
X151418082Y-70097800D01*
X151465691Y-70133109D01*
X151509609Y-70172914D01*
X151549414Y-70216832D01*
X151584723Y-70264441D01*
X151615195Y-70315281D01*
X151640538Y-70368863D01*
X151660506Y-70424671D01*
X151674908Y-70482167D01*
X151683605Y-70540799D01*
X151686514Y-70600000D01*
X151683605Y-70659201D01*
X151674908Y-70717833D01*
X151660506Y-70775329D01*
X151640538Y-70831137D01*
X151615195Y-70884719D01*
X151584723Y-70935559D01*
X151549414Y-70983168D01*
X151509609Y-71027086D01*
X151465691Y-71066891D01*
X151418082Y-71102200D01*
X151367242Y-71132672D01*
X151313660Y-71158015D01*
X151257852Y-71177983D01*
X151200356Y-71192385D01*
X151141724Y-71201082D01*
X151082523Y-71203991D01*
X148917477Y-71203991D01*
X148858276Y-71201082D01*
X148799644Y-71192385D01*
X148742148Y-71177983D01*
X148686340Y-71158015D01*
X148632758Y-71132672D01*
X148581918Y-71102200D01*
X148534309Y-71066891D01*
X148490391Y-71027086D01*
X148450586Y-70983168D01*
X148415277Y-70935559D01*
X148384805Y-70884719D01*
X148359462Y-70831137D01*
X148339494Y-70775329D01*
X148325092Y-70717833D01*
X148316395Y-70659201D01*
X148313486Y-70600000D01*
X148316395Y-70540799D01*
X148323226Y-70494749D01*
X148917563Y-70494749D01*
X148924270Y-70558596D01*
X148944392Y-70615994D01*
X148975090Y-70664621D01*
X149013527Y-70702156D01*
X149071312Y-70738845D01*
X149130473Y-70760858D01*
X149191010Y-70768196D01*
X149319994Y-70768196D01*
X149319994Y-70884798D01*
X149321542Y-70920397D01*
X149331345Y-70947742D01*
X149358690Y-70968637D01*
X149411831Y-70975603D01*
X149469100Y-70966058D01*
X149496445Y-70937423D01*
X149502636Y-70883766D01*
X149502636Y-70595357D01*
X149569708Y-70595357D01*
X149576415Y-70674102D01*
X149596537Y-70746784D01*
X149630073Y-70813405D01*
X149677023Y-70873963D01*
X149733776Y-70924299D01*
X149796721Y-70960253D01*
X149865856Y-70981826D01*
X149941183Y-70989017D01*
X150016671Y-70981923D01*
X150086291Y-70960640D01*
X150150041Y-70925170D01*
X150207923Y-70875511D01*
X150256002Y-70816049D01*
X150290344Y-70751170D01*
X150310949Y-70680873D01*
X150317817Y-70605159D01*
X150310078Y-70522222D01*
X150286861Y-70444703D01*
X150250746Y-70375954D01*
X150204311Y-70319330D01*
X150173886Y-70294565D01*
X150359092Y-70294565D01*
X150364252Y-70337388D01*
X150381794Y-70359573D01*
X150434419Y-70368860D01*
X150631507Y-70368860D01*
X150631507Y-70887893D01*
X150633055Y-70922977D01*
X150642342Y-70949290D01*
X150669687Y-70970443D01*
X150721281Y-70976634D01*
X150772358Y-70970443D01*
X150799187Y-70949290D01*
X150808474Y-70922461D01*
X150810022Y-70886861D01*
X150810022Y-70368860D01*
X151008142Y-70368860D01*
X151056640Y-70361121D01*
X151077277Y-70336872D01*
X151082437Y-70293533D01*
X151077277Y-70250710D01*
X151059736Y-70228525D01*
X151007110Y-70219238D01*
X150433387Y-70219238D01*
X150384889Y-70226977D01*
X150364252Y-70251226D01*
X150359092Y-70294565D01*
X150173886Y-70294565D01*
X150148848Y-70274185D01*
X150085646Y-70239876D01*
X150017542Y-70218206D01*
X149947374Y-70210983D01*
X149873531Y-70217884D01*
X149804718Y-70238586D01*
X149740935Y-70273089D01*
X149682182Y-70321394D01*
X149632975Y-70379920D01*
X149597827Y-70445090D01*
X149576738Y-70516902D01*
X149569708Y-70595357D01*
X149502636Y-70595357D01*
X149502636Y-70311075D01*
X149501088Y-70275475D01*
X149491286Y-70248131D01*
X149463941Y-70227235D01*
X149410799Y-70220270D01*
X149189978Y-70220270D01*
X149130015Y-70227608D01*
X149071198Y-70249621D01*
X149013527Y-70286310D01*
X148975090Y-70323973D01*
X148944392Y-70372987D01*
X148924270Y-70430772D01*
X148917563Y-70494749D01*
X148323226Y-70494749D01*
X148325092Y-70482167D01*
X148339494Y-70424671D01*
X148359462Y-70368863D01*
X148384805Y-70315281D01*
X148415277Y-70264441D01*
X148450586Y-70216832D01*
X148490391Y-70172914D01*
X148534309Y-70133109D01*
X148581918Y-70097800D01*
X148632758Y-70067328D01*
X148686340Y-70041985D01*
X148742148Y-70022017D01*
X148799644Y-70007615D01*
X148858276Y-69998918D01*
X148917477Y-69996009D01*
X151082523Y-69996009D01*
X151141724Y-69998918D01*
G37*
M02*
