G04 #@! TF.GenerationSoftware,KiCad,Pcbnew,6.0.0-d3dd2cf0fa~116~ubuntu21.10.1*
G04 #@! TF.CreationDate,2022-02-12T15:33:20+00:00*
G04 #@! TF.ProjectId,feederFloor,66656564-6572-4466-9c6f-6f722e6b6963,rev?*
G04 #@! TF.SameCoordinates,Original*
G04 #@! TF.FileFunction,Copper,L1,Top*
G04 #@! TF.FilePolarity,Positive*
%FSLAX46Y46*%
G04 Gerber Fmt 4.6, Leading zero omitted, Abs format (unit mm)*
G04 Created by KiCad (PCBNEW 6.0.0-d3dd2cf0fa~116~ubuntu21.10.1) date 2022-02-12 15:33:20*
%MOMM*%
%LPD*%
G01*
G04 APERTURE LIST*
G04 Aperture macros list*
%AMRoundRect*
0 Rectangle with rounded corners*
0 $1 Rounding radius*
0 $2 $3 $4 $5 $6 $7 $8 $9 X,Y pos of 4 corners*
0 Add a 4 corners polygon primitive as box body*
4,1,4,$2,$3,$4,$5,$6,$7,$8,$9,$2,$3,0*
0 Add four circle primitives for the rounded corners*
1,1,$1+$1,$2,$3*
1,1,$1+$1,$4,$5*
1,1,$1+$1,$6,$7*
1,1,$1+$1,$8,$9*
0 Add four rect primitives between the rounded corners*
20,1,$1+$1,$2,$3,$4,$5,0*
20,1,$1+$1,$4,$5,$6,$7,0*
20,1,$1+$1,$6,$7,$8,$9,0*
20,1,$1+$1,$8,$9,$2,$3,0*%
G04 Aperture macros list end*
G04 #@! TA.AperFunction,SMDPad,CuDef*
%ADD10R,1.270000X2.250000*%
G04 #@! TD*
G04 #@! TA.AperFunction,SMDPad,CuDef*
%ADD11RoundRect,0.250000X0.262500X0.450000X-0.262500X0.450000X-0.262500X-0.450000X0.262500X-0.450000X0*%
G04 #@! TD*
G04 #@! TA.AperFunction,SMDPad,CuDef*
%ADD12R,1.330000X0.530000*%
G04 #@! TD*
G04 #@! TA.AperFunction,ComponentPad*
%ADD13C,5.700000*%
G04 #@! TD*
G04 #@! TA.AperFunction,ConnectorPad*
%ADD14C,10.600000*%
G04 #@! TD*
G04 #@! TA.AperFunction,ComponentPad*
%ADD15R,1.727200X1.727200*%
G04 #@! TD*
G04 #@! TA.AperFunction,ComponentPad*
%ADD16O,1.727200X1.727200*%
G04 #@! TD*
G04 #@! TA.AperFunction,ViaPad*
%ADD17C,0.800000*%
G04 #@! TD*
G04 #@! TA.AperFunction,Conductor*
%ADD18C,0.250000*%
G04 #@! TD*
G04 #@! TA.AperFunction,Conductor*
%ADD19C,1.000000*%
G04 #@! TD*
G04 #@! TA.AperFunction,Conductor*
%ADD20C,0.200000*%
G04 #@! TD*
G04 APERTURE END LIST*
D10*
X186650000Y-29100000D03*
X189190000Y-29100000D03*
X191730000Y-29100000D03*
X194270000Y-29100000D03*
X196810000Y-29100000D03*
X196810000Y-21550000D03*
X194270000Y-21550000D03*
X191730000Y-21550000D03*
X189190000Y-21543500D03*
X186650000Y-21543500D03*
D11*
X192742500Y-49740000D03*
X190917500Y-49740000D03*
D12*
X190265000Y-32130000D03*
X190265000Y-33400000D03*
X190265000Y-34670000D03*
X193315000Y-34670000D03*
X193315000Y-33400000D03*
X193315000Y-32130000D03*
D13*
X191700000Y-41350000D03*
D14*
X191700000Y-41350000D03*
D15*
X190500000Y-57200000D03*
D16*
X193040000Y-57200000D03*
X190500000Y-54660000D03*
X193040000Y-54660000D03*
X190500000Y-52120000D03*
X193040000Y-52120000D03*
D17*
X195020000Y-49560000D03*
X187230000Y-33560000D03*
X186580000Y-24180000D03*
X196510000Y-33560000D03*
D18*
X189190000Y-33240000D02*
X189190000Y-29100000D01*
X189350000Y-33400000D02*
X189190000Y-33240000D01*
X190265000Y-33400000D02*
X189350000Y-33400000D01*
D19*
X190500000Y-54660000D02*
X193040000Y-54660000D01*
X197700001Y-29990001D02*
X196810000Y-29100000D01*
X196810000Y-29100000D02*
X196810000Y-21550000D01*
X193040000Y-54660000D02*
X197700001Y-49999999D01*
X197700001Y-49999999D02*
X197700001Y-29990001D01*
D18*
X190917500Y-51702500D02*
X190500000Y-52120000D01*
D20*
X190621103Y-48255000D02*
X190917500Y-48551397D01*
X191275000Y-26105000D02*
X188426800Y-26105000D01*
X185475000Y-45003200D02*
X188726800Y-48255000D01*
X188426800Y-26105000D02*
X187685000Y-26846800D01*
X190917500Y-48551397D02*
X190917500Y-49740000D01*
X188726800Y-48255000D02*
X190621103Y-48255000D01*
D18*
X190917500Y-49740000D02*
X190917500Y-51702500D01*
D20*
X194270000Y-29100000D02*
X191275000Y-26105000D01*
X185475000Y-33296800D02*
X185475000Y-45003200D01*
X187685000Y-31086800D02*
X185475000Y-33296800D01*
X187685000Y-26846800D02*
X187685000Y-31086800D01*
X186461507Y-35014709D02*
X186398098Y-34992521D01*
X186398098Y-35577478D02*
X186461507Y-35555290D01*
X186158243Y-35592521D02*
X186225000Y-35585000D01*
D18*
X192742500Y-49740000D02*
X192742500Y-51822500D01*
D20*
X186565891Y-35472046D02*
X186601632Y-35415165D01*
X186631342Y-35285000D02*
X186623820Y-35218243D01*
X186158243Y-34977478D02*
X186094834Y-34955290D01*
X186565891Y-36672046D02*
X186601632Y-36615165D01*
X185932521Y-35818243D02*
X185954709Y-35754834D01*
X186331342Y-36185000D02*
X186225000Y-36185000D01*
X186565891Y-36297953D02*
X186518388Y-36250450D01*
X191088603Y-26555000D02*
X191730000Y-27196397D01*
X185925000Y-35885000D02*
X185932521Y-35818243D01*
X185925000Y-44816800D02*
X185925000Y-37085000D01*
X186225000Y-35585000D02*
X186331342Y-35585000D01*
X186461507Y-36755290D02*
X186518388Y-36719549D01*
X185990450Y-35697953D02*
X186037953Y-35650450D01*
X185932521Y-35951756D02*
X185925000Y-35885000D01*
X186601632Y-36615165D02*
X186623820Y-36551756D01*
X185932521Y-37018243D02*
X185954709Y-36954834D01*
X186037953Y-36119549D02*
X185990450Y-36072046D01*
X186037953Y-36850450D02*
X186094834Y-36814709D01*
X186225000Y-34985000D02*
X186158243Y-34977478D01*
X186331342Y-35585000D02*
X186398098Y-35577478D01*
X186631342Y-36485000D02*
X186623820Y-36418243D01*
X186623820Y-35351756D02*
X186631342Y-35285000D01*
X185954709Y-36015165D02*
X185932521Y-35951756D01*
X185925000Y-34685000D02*
X185925000Y-33483200D01*
X186094834Y-35614709D02*
X186158243Y-35592521D01*
X191730000Y-27196397D02*
X191730000Y-29100000D01*
X190807500Y-47805000D02*
X188913200Y-47805000D01*
X185954709Y-34815165D02*
X185932521Y-34751756D01*
X186094834Y-34955290D02*
X186037953Y-34919549D01*
X186623820Y-36418243D02*
X186601632Y-36354834D01*
D18*
X192742500Y-51822500D02*
X193040000Y-52120000D01*
D20*
X186037953Y-34919549D02*
X185990450Y-34872046D01*
X185990450Y-36897953D02*
X186037953Y-36850450D01*
X186461507Y-36214709D02*
X186398098Y-36192521D01*
X186601632Y-36354834D02*
X186565891Y-36297953D01*
X186037953Y-35650450D02*
X186094834Y-35614709D01*
X186158243Y-36792521D02*
X186225000Y-36785000D01*
X188613200Y-26555000D02*
X191088603Y-26555000D01*
X186398098Y-34992521D02*
X186331342Y-34985000D01*
X186623820Y-35218243D02*
X186601632Y-35154834D01*
X188135000Y-31273200D02*
X188135000Y-27033200D01*
X186398098Y-36192521D02*
X186331342Y-36185000D01*
X186158243Y-36177478D02*
X186094834Y-36155290D01*
X185990450Y-36072046D02*
X185954709Y-36015165D01*
X186398098Y-36777478D02*
X186461507Y-36755290D01*
X186461507Y-35555290D02*
X186518388Y-35519549D01*
X185925000Y-33483200D02*
X188135000Y-31273200D01*
X185954709Y-36954834D02*
X185990450Y-36897953D01*
X186601632Y-35154834D02*
X186565891Y-35097953D01*
X186565891Y-35097953D02*
X186518388Y-35050450D01*
X185954709Y-35754834D02*
X185990450Y-35697953D01*
X188135000Y-27033200D02*
X188613200Y-26555000D01*
X185932521Y-34751756D02*
X185925000Y-34685000D01*
X186518388Y-36719549D02*
X186565891Y-36672046D01*
X186518388Y-36250450D02*
X186461507Y-36214709D01*
X186601632Y-35415165D02*
X186623820Y-35351756D01*
X186225000Y-36785000D02*
X186331342Y-36785000D01*
X186518388Y-35519549D02*
X186565891Y-35472046D01*
X192742500Y-49740000D02*
X190807500Y-47805000D01*
X186094834Y-36814709D02*
X186158243Y-36792521D01*
X186225000Y-36185000D02*
X186158243Y-36177478D01*
X188913200Y-47805000D02*
X185925000Y-44816800D01*
X185990450Y-34872046D02*
X185954709Y-34815165D01*
X186331342Y-36785000D02*
X186398098Y-36777478D01*
X185925000Y-37085000D02*
X185932521Y-37018243D01*
X186623820Y-36551756D02*
X186631342Y-36485000D01*
X186518388Y-35050450D02*
X186461507Y-35014709D01*
X186331342Y-34985000D02*
X186225000Y-34985000D01*
X186094834Y-36155290D02*
X186037953Y-36119549D01*
G04 #@! TA.AperFunction,Conductor*
G36*
X185716512Y-46105149D02*
G01*
X185723095Y-46111278D01*
X188262780Y-48650963D01*
X188273648Y-48663355D01*
X188288068Y-48682148D01*
X188288072Y-48682152D01*
X188293098Y-48688702D01*
X188324991Y-48713174D01*
X188420127Y-48786175D01*
X188479413Y-48810732D01*
X188560424Y-48844288D01*
X188560427Y-48844289D01*
X188568054Y-48847448D01*
X188726800Y-48868347D01*
X188734988Y-48867269D01*
X188734989Y-48867269D01*
X188758468Y-48864178D01*
X188774914Y-48863100D01*
X189823313Y-48863100D01*
X189891434Y-48883102D01*
X189937927Y-48936758D01*
X189948031Y-49007032D01*
X189942906Y-49028768D01*
X189907597Y-49135220D01*
X189896900Y-49239627D01*
X189896901Y-50240372D01*
X189907869Y-50346084D01*
X189963815Y-50513775D01*
X189967664Y-50519995D01*
X190053605Y-50658875D01*
X190072442Y-50727327D01*
X190051280Y-50795097D01*
X189996840Y-50840668D01*
X189985604Y-50844943D01*
X189971544Y-50849538D01*
X189971538Y-50849541D01*
X189966623Y-50851147D01*
X189766549Y-50955299D01*
X189762416Y-50958402D01*
X189762413Y-50958404D01*
X189630088Y-51057756D01*
X189586171Y-51090730D01*
X189430336Y-51253803D01*
X189303226Y-51440138D01*
X189208257Y-51644731D01*
X189147979Y-51862088D01*
X189124010Y-52086372D01*
X189136994Y-52311558D01*
X189138131Y-52316604D01*
X189138132Y-52316610D01*
X189162442Y-52424478D01*
X189186583Y-52531600D01*
X189271444Y-52740588D01*
X189389299Y-52932910D01*
X189536983Y-53103401D01*
X189710529Y-53247482D01*
X189764841Y-53279219D01*
X189813563Y-53330855D01*
X189826635Y-53400638D01*
X189799904Y-53466410D01*
X189769205Y-53493916D01*
X189766549Y-53495299D01*
X189762413Y-53498404D01*
X189762412Y-53498405D01*
X189591592Y-53626660D01*
X189586171Y-53630730D01*
X189430336Y-53793803D01*
X189303226Y-53980138D01*
X189208257Y-54184731D01*
X189147979Y-54402088D01*
X189124010Y-54626372D01*
X189136994Y-54851558D01*
X189138131Y-54856604D01*
X189138132Y-54856610D01*
X189159375Y-54950868D01*
X189186583Y-55071600D01*
X189188525Y-55076382D01*
X189188526Y-55076386D01*
X189227078Y-55171328D01*
X189271444Y-55280588D01*
X189389299Y-55472910D01*
X189534864Y-55640954D01*
X189534864Y-55640955D01*
X189536983Y-55643401D01*
X189536478Y-55643838D01*
X189569265Y-55702418D01*
X189564941Y-55773282D01*
X189522991Y-55830560D01*
X189490660Y-55848469D01*
X189398348Y-55883075D01*
X189382751Y-55891614D01*
X189280676Y-55968115D01*
X189268115Y-55980676D01*
X189191614Y-56082751D01*
X189183076Y-56098346D01*
X189137922Y-56218794D01*
X189134295Y-56234049D01*
X189128769Y-56284914D01*
X189128400Y-56291728D01*
X189128400Y-56927885D01*
X189132875Y-56943124D01*
X189134265Y-56944329D01*
X189141948Y-56946000D01*
X194372367Y-56946000D01*
X194385898Y-56942027D01*
X194387203Y-56932947D01*
X194344133Y-56761477D01*
X194340813Y-56751726D01*
X194254999Y-56554365D01*
X194250133Y-56545290D01*
X194133239Y-56364601D01*
X194126947Y-56356430D01*
X193982113Y-56197260D01*
X193974580Y-56190234D01*
X193805691Y-56056855D01*
X193797108Y-56051153D01*
X193777695Y-56040436D01*
X193727724Y-55990003D01*
X193712952Y-55920560D01*
X193738068Y-55854155D01*
X193765420Y-55827548D01*
X193826224Y-55784177D01*
X193928409Y-55711290D01*
X194088182Y-55552073D01*
X194219806Y-55368899D01*
X194319745Y-55166687D01*
X194385316Y-54950868D01*
X194411651Y-54750839D01*
X194440374Y-54685912D01*
X194447478Y-54678191D01*
X197776905Y-51348764D01*
X197839217Y-51314738D01*
X197910032Y-51319803D01*
X197966868Y-51362350D01*
X197991679Y-51428870D01*
X197992000Y-51437859D01*
X197992000Y-62266000D01*
X197971998Y-62334121D01*
X197918342Y-62380614D01*
X197866000Y-62392000D01*
X185634000Y-62392000D01*
X185565879Y-62371998D01*
X185519386Y-62318342D01*
X185508000Y-62266000D01*
X185508000Y-58108269D01*
X189128401Y-58108269D01*
X189128771Y-58115090D01*
X189134295Y-58165952D01*
X189137921Y-58181204D01*
X189183076Y-58301654D01*
X189191614Y-58317249D01*
X189268115Y-58419324D01*
X189280676Y-58431885D01*
X189382751Y-58508386D01*
X189398346Y-58516924D01*
X189518794Y-58562078D01*
X189534049Y-58565705D01*
X189584914Y-58571231D01*
X189591728Y-58571600D01*
X190227885Y-58571600D01*
X190243124Y-58567125D01*
X190244329Y-58565735D01*
X190246000Y-58558052D01*
X190246000Y-58553484D01*
X190754000Y-58553484D01*
X190758475Y-58568723D01*
X190759865Y-58569928D01*
X190767548Y-58571599D01*
X191408269Y-58571599D01*
X191415090Y-58571229D01*
X191465952Y-58565705D01*
X191481204Y-58562079D01*
X191601654Y-58516924D01*
X191617249Y-58508386D01*
X191719324Y-58431885D01*
X191731885Y-58419324D01*
X191808386Y-58317249D01*
X191816924Y-58301654D01*
X191852041Y-58207981D01*
X191894683Y-58151217D01*
X191961245Y-58126517D01*
X192030593Y-58141725D01*
X192065263Y-58169716D01*
X192073674Y-58179427D01*
X192081032Y-58186633D01*
X192246606Y-58324095D01*
X192255053Y-58330010D01*
X192440859Y-58438586D01*
X192450146Y-58443036D01*
X192651198Y-58519810D01*
X192661091Y-58522684D01*
X192768248Y-58544485D01*
X192782300Y-58543290D01*
X192786000Y-58532945D01*
X192786000Y-58532229D01*
X193294000Y-58532229D01*
X193298064Y-58546071D01*
X193311479Y-58548105D01*
X193321025Y-58546882D01*
X193331095Y-58544742D01*
X193537225Y-58482900D01*
X193546832Y-58479134D01*
X193740076Y-58384464D01*
X193748934Y-58379185D01*
X193924141Y-58254211D01*
X193932003Y-58247567D01*
X194084445Y-58095656D01*
X194091122Y-58087811D01*
X194216702Y-57913047D01*
X194222013Y-57904208D01*
X194317358Y-57711292D01*
X194321156Y-57701699D01*
X194383716Y-57495791D01*
X194385893Y-57485721D01*
X194387705Y-57471960D01*
X194385493Y-57457778D01*
X194372336Y-57454000D01*
X193312115Y-57454000D01*
X193296876Y-57458475D01*
X193295671Y-57459865D01*
X193294000Y-57467548D01*
X193294000Y-58532229D01*
X192786000Y-58532229D01*
X192786000Y-57472115D01*
X192781525Y-57456876D01*
X192780135Y-57455671D01*
X192772452Y-57454000D01*
X190772115Y-57454000D01*
X190756876Y-57458475D01*
X190755671Y-57459865D01*
X190754000Y-57467548D01*
X190754000Y-58553484D01*
X190246000Y-58553484D01*
X190246000Y-57472115D01*
X190241525Y-57456876D01*
X190240135Y-57455671D01*
X190232452Y-57454000D01*
X189146516Y-57454000D01*
X189131277Y-57458475D01*
X189130072Y-57459865D01*
X189128401Y-57467548D01*
X189128401Y-58108269D01*
X185508000Y-58108269D01*
X185508000Y-46200373D01*
X185528002Y-46132252D01*
X185581658Y-46085759D01*
X185651932Y-46075655D01*
X185716512Y-46105149D01*
G37*
G04 #@! TD.AperFunction*
G04 #@! TA.AperFunction,Conductor*
G36*
X196649444Y-44656401D02*
G01*
X196687176Y-44716541D01*
X196691901Y-44750723D01*
X196691901Y-49530241D01*
X196671899Y-49598362D01*
X196654996Y-49619336D01*
X194550517Y-51723815D01*
X194488205Y-51757841D01*
X194417390Y-51752776D01*
X194360554Y-51710229D01*
X194343187Y-51677300D01*
X194342969Y-51676433D01*
X194253027Y-51469581D01*
X194130508Y-51280196D01*
X194110380Y-51258075D01*
X194046245Y-51187592D01*
X193978703Y-51113364D01*
X193908291Y-51057756D01*
X193805744Y-50976768D01*
X193805740Y-50976766D01*
X193801689Y-50973566D01*
X193764271Y-50952910D01*
X193709162Y-50922489D01*
X193620900Y-50873766D01*
X193570930Y-50823335D01*
X193556158Y-50753892D01*
X193581274Y-50687486D01*
X193592614Y-50674448D01*
X193603989Y-50663053D01*
X193696749Y-50512568D01*
X193752403Y-50344780D01*
X193763100Y-50240373D01*
X193763099Y-49239628D01*
X193752131Y-49133916D01*
X193696185Y-48966225D01*
X193603163Y-48815902D01*
X193478053Y-48691011D01*
X193327568Y-48598251D01*
X193320619Y-48595946D01*
X193166311Y-48544763D01*
X193166309Y-48544762D01*
X193159780Y-48542597D01*
X193055373Y-48531900D01*
X192955536Y-48531900D01*
X192446574Y-48531901D01*
X192378453Y-48511899D01*
X192357479Y-48494996D01*
X191271516Y-47409033D01*
X191260648Y-47396641D01*
X191246228Y-47377848D01*
X191241202Y-47371298D01*
X191234652Y-47366272D01*
X191229948Y-47361568D01*
X191195922Y-47299256D01*
X191200987Y-47228441D01*
X191243534Y-47171605D01*
X191310054Y-47146794D01*
X191328819Y-47146853D01*
X191484414Y-47158962D01*
X191484422Y-47158962D01*
X191486988Y-47159162D01*
X191489559Y-47159151D01*
X191489565Y-47159151D01*
X191725343Y-47158122D01*
X191963698Y-47157082D01*
X192438635Y-47115948D01*
X192441185Y-47115514D01*
X192441196Y-47115513D01*
X192906052Y-47036471D01*
X192906054Y-47036471D01*
X192908604Y-47036037D01*
X193110877Y-46984290D01*
X193367961Y-46918521D01*
X193367967Y-46918519D01*
X193370446Y-46917885D01*
X193372863Y-46917050D01*
X193372871Y-46917048D01*
X193602799Y-46837653D01*
X193821053Y-46762289D01*
X194257395Y-46570294D01*
X194259668Y-46569063D01*
X194259673Y-46569060D01*
X194674253Y-46344430D01*
X194674260Y-46344426D01*
X194676539Y-46343191D01*
X194999502Y-46132252D01*
X195073490Y-46083928D01*
X195073497Y-46083923D01*
X195075665Y-46082507D01*
X195452088Y-45789997D01*
X195764440Y-45503277D01*
X195801371Y-45469377D01*
X195801377Y-45469371D01*
X195803278Y-45467626D01*
X195805027Y-45465734D01*
X195805033Y-45465728D01*
X196125122Y-45119457D01*
X196126872Y-45117564D01*
X196420695Y-44742164D01*
X196460650Y-44681454D01*
X196514808Y-44635547D01*
X196585187Y-44626208D01*
X196649444Y-44656401D01*
G37*
G04 #@! TD.AperFunction*
G04 #@! TA.AperFunction,Conductor*
G36*
X188474932Y-31897417D02*
G01*
X188531768Y-31939964D01*
X188556579Y-32006484D01*
X188556900Y-32015473D01*
X188556900Y-33161291D01*
X188556374Y-33172460D01*
X188554700Y-33179947D01*
X188554949Y-33187872D01*
X188554949Y-33187873D01*
X188556838Y-33247985D01*
X188556900Y-33251942D01*
X188556900Y-33279833D01*
X188557396Y-33283756D01*
X188557403Y-33283813D01*
X188558336Y-33295660D01*
X188559724Y-33339826D01*
X188561936Y-33347439D01*
X188561937Y-33347446D01*
X188565371Y-33359267D01*
X188569380Y-33378623D01*
X188571916Y-33398697D01*
X188574833Y-33406063D01*
X188574834Y-33406069D01*
X188588180Y-33439775D01*
X188592026Y-33451008D01*
X188602139Y-33485819D01*
X188602142Y-33485825D01*
X188604352Y-33493433D01*
X188608387Y-33500256D01*
X188608388Y-33500258D01*
X188614652Y-33510850D01*
X188623349Y-33528602D01*
X188630801Y-33547422D01*
X188635459Y-33553833D01*
X188635460Y-33553835D01*
X188656765Y-33583158D01*
X188663283Y-33593081D01*
X188685777Y-33631116D01*
X188691381Y-33636720D01*
X188700084Y-33645422D01*
X188712930Y-33660463D01*
X188720161Y-33670416D01*
X188724822Y-33676831D01*
X188730930Y-33681884D01*
X188758862Y-33704991D01*
X188767643Y-33712981D01*
X188846672Y-33792011D01*
X188854202Y-33800286D01*
X188858311Y-33806761D01*
X188864087Y-33812185D01*
X188907954Y-33853379D01*
X188910796Y-33856134D01*
X188930497Y-33875835D01*
X188933619Y-33878257D01*
X188933626Y-33878263D01*
X188933683Y-33878307D01*
X188942705Y-33886013D01*
X188974915Y-33916260D01*
X188981864Y-33920080D01*
X188992650Y-33926010D01*
X189009173Y-33936863D01*
X189025164Y-33949267D01*
X189065723Y-33966818D01*
X189076352Y-33972025D01*
X189102124Y-33986193D01*
X189152182Y-34036538D01*
X189167075Y-34105955D01*
X189152707Y-34154528D01*
X189149739Y-34158489D01*
X189098650Y-34294771D01*
X189091900Y-34356904D01*
X189091900Y-34983096D01*
X189098650Y-35045229D01*
X189101422Y-35052622D01*
X189101422Y-35052624D01*
X189103832Y-35059053D01*
X189149739Y-35181511D01*
X189237024Y-35297976D01*
X189353489Y-35385261D01*
X189407955Y-35405679D01*
X189482376Y-35433578D01*
X189482378Y-35433578D01*
X189489771Y-35436350D01*
X189497621Y-35437203D01*
X189497622Y-35437203D01*
X189544991Y-35442349D01*
X189551904Y-35443100D01*
X190341107Y-35443100D01*
X190409228Y-35463102D01*
X190455721Y-35516758D01*
X190465825Y-35587032D01*
X190436331Y-35651612D01*
X190376605Y-35689996D01*
X190365256Y-35692764D01*
X190355368Y-35694695D01*
X190355365Y-35694696D01*
X190352834Y-35695190D01*
X190350356Y-35695889D01*
X190350347Y-35695891D01*
X190056657Y-35778720D01*
X189894017Y-35824589D01*
X189891590Y-35825494D01*
X189449761Y-35990248D01*
X189449751Y-35990252D01*
X189447346Y-35991149D01*
X189445016Y-35992243D01*
X189018150Y-36192655D01*
X189018142Y-36192659D01*
X189015825Y-36193747D01*
X188915861Y-36251113D01*
X188604583Y-36429744D01*
X188604575Y-36429749D01*
X188602355Y-36431023D01*
X188488108Y-36509690D01*
X188211833Y-36699923D01*
X188211822Y-36699931D01*
X188209718Y-36701380D01*
X188207730Y-36703004D01*
X188207729Y-36703005D01*
X187842551Y-37001367D01*
X187842543Y-37001374D01*
X187840553Y-37003000D01*
X187497344Y-37333855D01*
X187495652Y-37335778D01*
X187495643Y-37335787D01*
X187405923Y-37437734D01*
X187182399Y-37691719D01*
X187180864Y-37693782D01*
X187180856Y-37693792D01*
X187100950Y-37801190D01*
X186897836Y-38074186D01*
X186896463Y-38076388D01*
X186896460Y-38076392D01*
X186766012Y-38285558D01*
X186712992Y-38332775D01*
X186642862Y-38343831D01*
X186577887Y-38315217D01*
X186538697Y-38256017D01*
X186533100Y-38218882D01*
X186533100Y-37468135D01*
X186553102Y-37400014D01*
X186613075Y-37350842D01*
X186614165Y-37350414D01*
X186622182Y-37348426D01*
X186628979Y-37344670D01*
X186634644Y-37342687D01*
X186642296Y-37341387D01*
X186683858Y-37322321D01*
X186694764Y-37317923D01*
X186699971Y-37316101D01*
X186723304Y-37304322D01*
X186727519Y-37302293D01*
X186747536Y-37293110D01*
X186747540Y-37293108D01*
X186751291Y-37291387D01*
X186755967Y-37288449D01*
X186766225Y-37282654D01*
X186799647Y-37265782D01*
X186807020Y-37262060D01*
X186812813Y-37256883D01*
X186817887Y-37253695D01*
X186825062Y-37250723D01*
X186861327Y-37222896D01*
X186870993Y-37216173D01*
X186872172Y-37215432D01*
X186872177Y-37215429D01*
X186875666Y-37213236D01*
X186895798Y-37196555D01*
X186899450Y-37193642D01*
X186920197Y-37177723D01*
X186924089Y-37173831D01*
X186932795Y-37165902D01*
X186961647Y-37141997D01*
X186961647Y-37141996D01*
X186968005Y-37136729D01*
X186972499Y-37130395D01*
X186976737Y-37126157D01*
X186983071Y-37121663D01*
X187012244Y-37086453D01*
X187020173Y-37077747D01*
X187024065Y-37073855D01*
X187039984Y-37053108D01*
X187042902Y-37049450D01*
X187056946Y-37032501D01*
X187056949Y-37032497D01*
X187059578Y-37029324D01*
X187061774Y-37025830D01*
X187062515Y-37024651D01*
X187069238Y-37014985D01*
X187092038Y-36985271D01*
X187097065Y-36978720D01*
X187100037Y-36971545D01*
X187103225Y-36966471D01*
X187108402Y-36960678D01*
X187128997Y-36919881D01*
X187134791Y-36909625D01*
X187135533Y-36908444D01*
X187135534Y-36908442D01*
X187137729Y-36904949D01*
X187148635Y-36881177D01*
X187150664Y-36876962D01*
X187162443Y-36853629D01*
X187164265Y-36848422D01*
X187168663Y-36837516D01*
X187187729Y-36795954D01*
X187189030Y-36788298D01*
X187191009Y-36782641D01*
X187194768Y-36775840D01*
X187205770Y-36731478D01*
X187209133Y-36720200D01*
X187209593Y-36718885D01*
X187209594Y-36718882D01*
X187210959Y-36714981D01*
X187216304Y-36689366D01*
X187217341Y-36684823D01*
X187222642Y-36663449D01*
X187222643Y-36663442D01*
X187223633Y-36659451D01*
X187224095Y-36655354D01*
X187224251Y-36653971D01*
X187226114Y-36642349D01*
X187233765Y-36605679D01*
X187233765Y-36605678D01*
X187235452Y-36597593D01*
X187235016Y-36589837D01*
X187235688Y-36583880D01*
X187237839Y-36576412D01*
X187238694Y-36530712D01*
X187239463Y-36518969D01*
X187239620Y-36517574D01*
X187240081Y-36513484D01*
X187239592Y-36487351D01*
X187239592Y-36482642D01*
X187240004Y-36460633D01*
X187240081Y-36456517D01*
X187239463Y-36451031D01*
X187238694Y-36439289D01*
X187237993Y-36401845D01*
X187237839Y-36393589D01*
X187235688Y-36386123D01*
X187235017Y-36380162D01*
X187235452Y-36372406D01*
X187226113Y-36327646D01*
X187224250Y-36316020D01*
X187224096Y-36314650D01*
X187224094Y-36314637D01*
X187223633Y-36310549D01*
X187222642Y-36306553D01*
X187222640Y-36306542D01*
X187217349Y-36285209D01*
X187216300Y-36280617D01*
X187211801Y-36259053D01*
X187211801Y-36259051D01*
X187210959Y-36255018D01*
X187209595Y-36251121D01*
X187209593Y-36251113D01*
X187209132Y-36249795D01*
X187205769Y-36238518D01*
X187196756Y-36202177D01*
X187194768Y-36194160D01*
X187191010Y-36187361D01*
X187189030Y-36181701D01*
X187187729Y-36174045D01*
X187168663Y-36132483D01*
X187164264Y-36121574D01*
X187163805Y-36120263D01*
X187162443Y-36116370D01*
X187150664Y-36093037D01*
X187148635Y-36088822D01*
X187139452Y-36068805D01*
X187139450Y-36068801D01*
X187137729Y-36065050D01*
X187134791Y-36060374D01*
X187128996Y-36050116D01*
X187112124Y-36016694D01*
X187108402Y-36009321D01*
X187103225Y-36003528D01*
X187100037Y-35998454D01*
X187097065Y-35991279D01*
X187092040Y-35984730D01*
X187092038Y-35984727D01*
X187074372Y-35961705D01*
X187048771Y-35895484D01*
X187063035Y-35825936D01*
X187074371Y-35808297D01*
X187092036Y-35785276D01*
X187092041Y-35785268D01*
X187097065Y-35778720D01*
X187100037Y-35771545D01*
X187103225Y-35766471D01*
X187108402Y-35760678D01*
X187128997Y-35719881D01*
X187134791Y-35709625D01*
X187135533Y-35708444D01*
X187135534Y-35708442D01*
X187137729Y-35704949D01*
X187141885Y-35695891D01*
X187148635Y-35681177D01*
X187150664Y-35676962D01*
X187162443Y-35653629D01*
X187164265Y-35648422D01*
X187168663Y-35637516D01*
X187187729Y-35595954D01*
X187189030Y-35588298D01*
X187191009Y-35582641D01*
X187194768Y-35575840D01*
X187205770Y-35531478D01*
X187209133Y-35520200D01*
X187209593Y-35518885D01*
X187209594Y-35518882D01*
X187210959Y-35514981D01*
X187216304Y-35489366D01*
X187217341Y-35484823D01*
X187222642Y-35463449D01*
X187222643Y-35463442D01*
X187223633Y-35459451D01*
X187224095Y-35455354D01*
X187224251Y-35453971D01*
X187226114Y-35442349D01*
X187233765Y-35405679D01*
X187233765Y-35405678D01*
X187235452Y-35397593D01*
X187235016Y-35389837D01*
X187235688Y-35383880D01*
X187237839Y-35376412D01*
X187238694Y-35330712D01*
X187239463Y-35318969D01*
X187239620Y-35317574D01*
X187240081Y-35313484D01*
X187239592Y-35287351D01*
X187239592Y-35282642D01*
X187240004Y-35260633D01*
X187240081Y-35256517D01*
X187239463Y-35251031D01*
X187238694Y-35239289D01*
X187237993Y-35201845D01*
X187237839Y-35193589D01*
X187235688Y-35186123D01*
X187235017Y-35180162D01*
X187235452Y-35172406D01*
X187226113Y-35127646D01*
X187224250Y-35116020D01*
X187224096Y-35114650D01*
X187224094Y-35114637D01*
X187223633Y-35110549D01*
X187222642Y-35106553D01*
X187222640Y-35106542D01*
X187217349Y-35085209D01*
X187216300Y-35080617D01*
X187211801Y-35059053D01*
X187211801Y-35059051D01*
X187210959Y-35055018D01*
X187209595Y-35051121D01*
X187209593Y-35051113D01*
X187209132Y-35049795D01*
X187205769Y-35038518D01*
X187196756Y-35002177D01*
X187194768Y-34994160D01*
X187191010Y-34987361D01*
X187189030Y-34981701D01*
X187187729Y-34974045D01*
X187168663Y-34932483D01*
X187164264Y-34921574D01*
X187163805Y-34920263D01*
X187162443Y-34916370D01*
X187150664Y-34893037D01*
X187148635Y-34888822D01*
X187139452Y-34868805D01*
X187139450Y-34868801D01*
X187137729Y-34865050D01*
X187134791Y-34860374D01*
X187128996Y-34850116D01*
X187112124Y-34816694D01*
X187108402Y-34809321D01*
X187103225Y-34803528D01*
X187100037Y-34798454D01*
X187097065Y-34791279D01*
X187069238Y-34755014D01*
X187062515Y-34745348D01*
X187061774Y-34744169D01*
X187061771Y-34744164D01*
X187059578Y-34740675D01*
X187042897Y-34720543D01*
X187039984Y-34716891D01*
X187024065Y-34696144D01*
X187020173Y-34692252D01*
X187012244Y-34683546D01*
X186988339Y-34654694D01*
X186988338Y-34654694D01*
X186983071Y-34648336D01*
X186976737Y-34643842D01*
X186972499Y-34639604D01*
X186968005Y-34633270D01*
X186932795Y-34604097D01*
X186924089Y-34596168D01*
X186920197Y-34592276D01*
X186899450Y-34576357D01*
X186895792Y-34573439D01*
X186878843Y-34559395D01*
X186878839Y-34559392D01*
X186875666Y-34556763D01*
X186872177Y-34554570D01*
X186872172Y-34554567D01*
X186870993Y-34553826D01*
X186861327Y-34547103D01*
X186831613Y-34524303D01*
X186825062Y-34519276D01*
X186817887Y-34516304D01*
X186812813Y-34513116D01*
X186807020Y-34507939D01*
X186766223Y-34487344D01*
X186755967Y-34481550D01*
X186754786Y-34480808D01*
X186754784Y-34480807D01*
X186751291Y-34478612D01*
X186747540Y-34476891D01*
X186747536Y-34476889D01*
X186727519Y-34467706D01*
X186723304Y-34465677D01*
X186699971Y-34453898D01*
X186694764Y-34452076D01*
X186683858Y-34447678D01*
X186642296Y-34428612D01*
X186634638Y-34427311D01*
X186628978Y-34425330D01*
X186622174Y-34421570D01*
X186614157Y-34419582D01*
X186613069Y-34419155D01*
X186556964Y-34375649D01*
X186533100Y-34301864D01*
X186533100Y-33787273D01*
X186553102Y-33719152D01*
X186570005Y-33698178D01*
X188341805Y-31926378D01*
X188404117Y-31892352D01*
X188474932Y-31897417D01*
G37*
G04 #@! TD.AperFunction*
G04 #@! TA.AperFunction,Conductor*
G36*
X187989021Y-20528002D02*
G01*
X188035514Y-20581658D01*
X188046900Y-20634000D01*
X188046900Y-22716596D01*
X188053650Y-22778729D01*
X188104739Y-22915011D01*
X188192024Y-23031476D01*
X188308489Y-23118761D01*
X188399266Y-23152791D01*
X188437376Y-23167078D01*
X188437378Y-23167078D01*
X188444771Y-23169850D01*
X188452621Y-23170703D01*
X188452622Y-23170703D01*
X188502568Y-23176129D01*
X188506904Y-23176600D01*
X189873096Y-23176600D01*
X189877432Y-23176129D01*
X189927378Y-23170703D01*
X189927379Y-23170703D01*
X189935229Y-23169850D01*
X189942622Y-23167078D01*
X189942624Y-23167078D01*
X189980734Y-23152791D01*
X190071511Y-23118761D01*
X190187976Y-23031476D01*
X190275261Y-22915011D01*
X190326350Y-22778729D01*
X190333100Y-22716596D01*
X190333100Y-20634000D01*
X190353102Y-20565879D01*
X190406758Y-20519386D01*
X190459100Y-20508000D01*
X190460900Y-20508000D01*
X190529021Y-20528002D01*
X190575514Y-20581658D01*
X190586900Y-20634000D01*
X190586900Y-22723096D01*
X190593650Y-22785229D01*
X190644739Y-22921511D01*
X190732024Y-23037976D01*
X190848489Y-23125261D01*
X190936846Y-23158384D01*
X190977376Y-23173578D01*
X190977378Y-23173578D01*
X190984771Y-23176350D01*
X190992621Y-23177203D01*
X190992622Y-23177203D01*
X191043507Y-23182731D01*
X191046904Y-23183100D01*
X192413096Y-23183100D01*
X192416493Y-23182731D01*
X192467378Y-23177203D01*
X192467379Y-23177203D01*
X192475229Y-23176350D01*
X192482622Y-23173578D01*
X192482624Y-23173578D01*
X192523154Y-23158384D01*
X192611511Y-23125261D01*
X192727976Y-23037976D01*
X192815261Y-22921511D01*
X192866350Y-22785229D01*
X192873100Y-22723096D01*
X192873100Y-20634000D01*
X192893102Y-20565879D01*
X192946758Y-20519386D01*
X192999100Y-20508000D01*
X193000900Y-20508000D01*
X193069021Y-20528002D01*
X193115514Y-20581658D01*
X193126900Y-20634000D01*
X193126900Y-22723096D01*
X193133650Y-22785229D01*
X193184739Y-22921511D01*
X193272024Y-23037976D01*
X193388489Y-23125261D01*
X193476846Y-23158384D01*
X193517376Y-23173578D01*
X193517378Y-23173578D01*
X193524771Y-23176350D01*
X193532621Y-23177203D01*
X193532622Y-23177203D01*
X193583507Y-23182731D01*
X193586904Y-23183100D01*
X194953096Y-23183100D01*
X194956493Y-23182731D01*
X195007378Y-23177203D01*
X195007379Y-23177203D01*
X195015229Y-23176350D01*
X195022622Y-23173578D01*
X195022624Y-23173578D01*
X195063154Y-23158384D01*
X195151511Y-23125261D01*
X195267976Y-23037976D01*
X195355261Y-22921511D01*
X195406350Y-22785229D01*
X195413100Y-22723096D01*
X195413100Y-20634000D01*
X195433102Y-20565879D01*
X195486758Y-20519386D01*
X195539100Y-20508000D01*
X195540900Y-20508000D01*
X195609021Y-20528002D01*
X195655514Y-20581658D01*
X195666900Y-20634000D01*
X195666900Y-22723096D01*
X195673650Y-22785229D01*
X195724739Y-22921511D01*
X195730119Y-22928690D01*
X195730121Y-22928693D01*
X195776726Y-22990877D01*
X195801574Y-23057383D01*
X195801900Y-23066442D01*
X195801900Y-27583558D01*
X195781898Y-27651679D01*
X195776726Y-27659123D01*
X195730121Y-27721307D01*
X195730119Y-27721310D01*
X195724739Y-27728489D01*
X195673650Y-27864771D01*
X195666900Y-27926904D01*
X195666900Y-30273096D01*
X195673650Y-30335229D01*
X195724739Y-30471511D01*
X195812024Y-30587976D01*
X195928489Y-30675261D01*
X196019266Y-30709291D01*
X196057376Y-30723578D01*
X196057378Y-30723578D01*
X196064771Y-30726350D01*
X196072621Y-30727203D01*
X196072622Y-30727203D01*
X196122587Y-30732631D01*
X196126904Y-30733100D01*
X196565901Y-30733100D01*
X196634022Y-30753102D01*
X196680515Y-30806758D01*
X196691901Y-30859100D01*
X196691901Y-37953142D01*
X196671899Y-38021263D01*
X196618243Y-38067756D01*
X196547969Y-38077860D01*
X196483389Y-38048366D01*
X196463004Y-38025862D01*
X196307134Y-37805311D01*
X196307132Y-37805308D01*
X196305632Y-37803186D01*
X196210644Y-37689783D01*
X196001187Y-37439719D01*
X196001183Y-37439714D01*
X195999524Y-37437734D01*
X195997716Y-37435904D01*
X195997708Y-37435895D01*
X195666320Y-37100434D01*
X195666316Y-37100430D01*
X195664501Y-37098593D01*
X195302816Y-36788043D01*
X194916902Y-36508174D01*
X194914697Y-36506836D01*
X194914691Y-36506832D01*
X194511569Y-36262212D01*
X194511563Y-36262209D01*
X194509352Y-36260867D01*
X194212801Y-36112689D01*
X194085232Y-36048946D01*
X194085227Y-36048944D01*
X194082910Y-36047786D01*
X193640441Y-35870363D01*
X193285009Y-35760678D01*
X193187383Y-35730551D01*
X193187380Y-35730550D01*
X193184923Y-35729792D01*
X193014368Y-35692137D01*
X192952161Y-35657919D01*
X192918329Y-35595502D01*
X192923613Y-35524702D01*
X192966335Y-35467999D01*
X193032932Y-35443394D01*
X193041532Y-35443100D01*
X194028096Y-35443100D01*
X194035009Y-35442349D01*
X194082378Y-35437203D01*
X194082379Y-35437203D01*
X194090229Y-35436350D01*
X194097622Y-35433578D01*
X194097624Y-35433578D01*
X194172045Y-35405679D01*
X194226511Y-35385261D01*
X194342976Y-35297976D01*
X194430261Y-35181511D01*
X194476168Y-35059053D01*
X194478578Y-35052624D01*
X194478578Y-35052622D01*
X194481350Y-35045229D01*
X194488100Y-34983096D01*
X194488100Y-34356904D01*
X194481350Y-34294771D01*
X194430261Y-34158489D01*
X194424881Y-34151310D01*
X194424879Y-34151307D01*
X194394344Y-34110565D01*
X194369496Y-34044059D01*
X194384549Y-33974676D01*
X194394344Y-33959435D01*
X194424879Y-33918693D01*
X194424881Y-33918690D01*
X194430261Y-33911511D01*
X194481350Y-33775229D01*
X194488100Y-33713096D01*
X194488100Y-33086904D01*
X194481350Y-33024771D01*
X194430261Y-32888489D01*
X194424881Y-32881310D01*
X194424879Y-32881307D01*
X194394344Y-32840565D01*
X194369496Y-32774059D01*
X194384549Y-32704676D01*
X194394344Y-32689435D01*
X194424879Y-32648693D01*
X194424881Y-32648690D01*
X194430261Y-32641511D01*
X194481350Y-32505229D01*
X194488100Y-32443096D01*
X194488100Y-31816904D01*
X194481350Y-31754771D01*
X194472580Y-31731375D01*
X194433411Y-31626893D01*
X194430261Y-31618489D01*
X194342976Y-31502024D01*
X194226511Y-31414739D01*
X194108630Y-31370548D01*
X194097624Y-31366422D01*
X194097622Y-31366422D01*
X194090229Y-31363650D01*
X194082379Y-31362797D01*
X194082378Y-31362797D01*
X194031493Y-31357269D01*
X194031492Y-31357269D01*
X194028096Y-31356900D01*
X192601904Y-31356900D01*
X192598508Y-31357269D01*
X192598507Y-31357269D01*
X192547622Y-31362797D01*
X192547621Y-31362797D01*
X192539771Y-31363650D01*
X192532378Y-31366422D01*
X192532376Y-31366422D01*
X192521370Y-31370548D01*
X192403489Y-31414739D01*
X192287024Y-31502024D01*
X192199739Y-31618489D01*
X192196589Y-31626893D01*
X192157421Y-31731375D01*
X192148650Y-31754771D01*
X192141900Y-31816904D01*
X192141900Y-32443096D01*
X192148650Y-32505229D01*
X192199739Y-32641511D01*
X192205119Y-32648690D01*
X192205121Y-32648693D01*
X192235656Y-32689435D01*
X192260504Y-32755941D01*
X192245451Y-32825324D01*
X192235656Y-32840565D01*
X192205121Y-32881307D01*
X192205119Y-32881310D01*
X192199739Y-32888489D01*
X192148650Y-33024771D01*
X192141900Y-33086904D01*
X192141900Y-33713096D01*
X192148650Y-33775229D01*
X192199739Y-33911511D01*
X192205119Y-33918690D01*
X192205121Y-33918693D01*
X192235656Y-33959435D01*
X192260504Y-34025941D01*
X192245451Y-34095324D01*
X192235656Y-34110565D01*
X192205121Y-34151307D01*
X192205119Y-34151310D01*
X192199739Y-34158489D01*
X192148650Y-34294771D01*
X192141900Y-34356904D01*
X192141900Y-34983096D01*
X192148650Y-35045229D01*
X192151422Y-35052622D01*
X192151422Y-35052624D01*
X192153832Y-35059053D01*
X192199739Y-35181511D01*
X192287024Y-35297976D01*
X192294204Y-35303357D01*
X192339107Y-35337010D01*
X192381622Y-35393869D01*
X192386648Y-35464688D01*
X192352588Y-35526981D01*
X192290257Y-35560971D01*
X192251678Y-35563276D01*
X192249611Y-35563080D01*
X192247058Y-35562733D01*
X192244494Y-35562596D01*
X192244490Y-35562596D01*
X191773597Y-35537505D01*
X191773587Y-35537505D01*
X191771018Y-35537368D01*
X191768444Y-35537442D01*
X191768433Y-35537442D01*
X191338717Y-35549820D01*
X191270048Y-35531787D01*
X191222030Y-35479493D01*
X191209907Y-35409539D01*
X191237528Y-35344135D01*
X191259526Y-35323045D01*
X191285794Y-35303359D01*
X191285796Y-35303357D01*
X191292976Y-35297976D01*
X191380261Y-35181511D01*
X191426168Y-35059053D01*
X191428578Y-35052624D01*
X191428578Y-35052622D01*
X191431350Y-35045229D01*
X191438100Y-34983096D01*
X191438100Y-34356904D01*
X191431350Y-34294771D01*
X191380261Y-34158489D01*
X191374881Y-34151310D01*
X191374879Y-34151307D01*
X191344344Y-34110565D01*
X191319496Y-34044059D01*
X191334549Y-33974676D01*
X191344344Y-33959435D01*
X191374879Y-33918693D01*
X191374881Y-33918690D01*
X191380261Y-33911511D01*
X191431350Y-33775229D01*
X191438100Y-33713096D01*
X191438100Y-33086904D01*
X191431350Y-33024771D01*
X191380261Y-32888489D01*
X191374881Y-32881310D01*
X191374879Y-32881307D01*
X191344281Y-32840481D01*
X191319433Y-32773975D01*
X191334486Y-32704592D01*
X191344281Y-32689351D01*
X191374786Y-32648648D01*
X191383324Y-32633054D01*
X191428478Y-32512606D01*
X191432105Y-32497351D01*
X191437631Y-32446486D01*
X191438000Y-32439672D01*
X191438000Y-32402115D01*
X191433525Y-32386876D01*
X191432135Y-32385671D01*
X191424452Y-32384000D01*
X190137000Y-32384000D01*
X190068879Y-32363998D01*
X190022386Y-32310342D01*
X190011000Y-32258000D01*
X190011000Y-31857885D01*
X190519000Y-31857885D01*
X190523475Y-31873124D01*
X190524865Y-31874329D01*
X190532548Y-31876000D01*
X191419884Y-31876000D01*
X191435123Y-31871525D01*
X191436328Y-31870135D01*
X191437999Y-31862452D01*
X191437999Y-31820331D01*
X191437629Y-31813510D01*
X191432105Y-31762648D01*
X191428479Y-31747396D01*
X191383324Y-31626946D01*
X191374786Y-31611351D01*
X191298285Y-31509276D01*
X191285724Y-31496715D01*
X191183649Y-31420214D01*
X191168054Y-31411676D01*
X191047606Y-31366522D01*
X191032351Y-31362895D01*
X190981486Y-31357369D01*
X190974672Y-31357000D01*
X190537115Y-31357000D01*
X190521876Y-31361475D01*
X190520671Y-31362865D01*
X190519000Y-31370548D01*
X190519000Y-31857885D01*
X190011000Y-31857885D01*
X190011000Y-31375116D01*
X190006525Y-31359877D01*
X190005135Y-31358672D01*
X189997452Y-31357001D01*
X189949100Y-31357001D01*
X189880979Y-31336999D01*
X189834486Y-31283343D01*
X189823100Y-31231001D01*
X189823100Y-30851550D01*
X189843102Y-30783429D01*
X189896758Y-30736936D01*
X189919954Y-30728967D01*
X189927368Y-30727204D01*
X189935229Y-30726350D01*
X190071511Y-30675261D01*
X190187976Y-30587976D01*
X190275261Y-30471511D01*
X190326350Y-30335229D01*
X190333100Y-30273096D01*
X190333100Y-27926904D01*
X190326350Y-27864771D01*
X190275261Y-27728489D01*
X190187976Y-27612024D01*
X190071511Y-27524739D01*
X189942888Y-27476521D01*
X189942624Y-27476422D01*
X189942622Y-27476422D01*
X189935229Y-27473650D01*
X189927379Y-27472797D01*
X189927378Y-27472797D01*
X189876493Y-27467269D01*
X189876492Y-27467269D01*
X189873096Y-27466900D01*
X188869100Y-27466900D01*
X188800979Y-27446898D01*
X188754486Y-27393242D01*
X188743100Y-27340900D01*
X188743100Y-27337273D01*
X188763102Y-27269152D01*
X188780005Y-27248178D01*
X188828178Y-27200005D01*
X188890490Y-27165979D01*
X188917273Y-27163100D01*
X190784530Y-27163100D01*
X190852651Y-27183102D01*
X190873625Y-27200005D01*
X190964581Y-27290961D01*
X190998607Y-27353273D01*
X190993542Y-27424088D01*
X190950995Y-27480924D01*
X190919715Y-27498038D01*
X190848489Y-27524739D01*
X190732024Y-27612024D01*
X190644739Y-27728489D01*
X190593650Y-27864771D01*
X190586900Y-27926904D01*
X190586900Y-30273096D01*
X190593650Y-30335229D01*
X190644739Y-30471511D01*
X190732024Y-30587976D01*
X190848489Y-30675261D01*
X190939266Y-30709291D01*
X190977376Y-30723578D01*
X190977378Y-30723578D01*
X190984771Y-30726350D01*
X190992621Y-30727203D01*
X190992622Y-30727203D01*
X191042587Y-30732631D01*
X191046904Y-30733100D01*
X192413096Y-30733100D01*
X192417413Y-30732631D01*
X192467378Y-30727203D01*
X192467379Y-30727203D01*
X192475229Y-30726350D01*
X192482622Y-30723578D01*
X192482624Y-30723578D01*
X192520734Y-30709291D01*
X192611511Y-30675261D01*
X192727976Y-30587976D01*
X192815261Y-30471511D01*
X192866350Y-30335229D01*
X192873100Y-30273096D01*
X192873100Y-28867273D01*
X192893102Y-28799152D01*
X192946758Y-28752659D01*
X193017032Y-28742555D01*
X193081612Y-28772049D01*
X193088195Y-28778178D01*
X193089995Y-28779978D01*
X193124021Y-28842290D01*
X193126900Y-28869073D01*
X193126900Y-30273096D01*
X193133650Y-30335229D01*
X193184739Y-30471511D01*
X193272024Y-30587976D01*
X193388489Y-30675261D01*
X193479266Y-30709291D01*
X193517376Y-30723578D01*
X193517378Y-30723578D01*
X193524771Y-30726350D01*
X193532621Y-30727203D01*
X193532622Y-30727203D01*
X193582587Y-30732631D01*
X193586904Y-30733100D01*
X194953096Y-30733100D01*
X194957413Y-30732631D01*
X195007378Y-30727203D01*
X195007379Y-30727203D01*
X195015229Y-30726350D01*
X195022622Y-30723578D01*
X195022624Y-30723578D01*
X195060734Y-30709291D01*
X195151511Y-30675261D01*
X195267976Y-30587976D01*
X195355261Y-30471511D01*
X195406350Y-30335229D01*
X195413100Y-30273096D01*
X195413100Y-27926904D01*
X195406350Y-27864771D01*
X195355261Y-27728489D01*
X195267976Y-27612024D01*
X195151511Y-27524739D01*
X195022888Y-27476521D01*
X195022624Y-27476422D01*
X195022622Y-27476422D01*
X195015229Y-27473650D01*
X195007379Y-27472797D01*
X195007378Y-27472797D01*
X194956493Y-27467269D01*
X194956492Y-27467269D01*
X194953096Y-27466900D01*
X193586904Y-27466900D01*
X193583515Y-27467268D01*
X193583500Y-27467269D01*
X193565716Y-27469201D01*
X193495834Y-27456672D01*
X193463016Y-27433033D01*
X191739020Y-25709037D01*
X191728152Y-25696645D01*
X191713732Y-25677852D01*
X191713728Y-25677848D01*
X191708702Y-25671298D01*
X191660073Y-25633984D01*
X191581674Y-25573826D01*
X191574042Y-25570665D01*
X191574041Y-25570664D01*
X191538347Y-25555879D01*
X191441376Y-25515712D01*
X191441373Y-25515711D01*
X191433746Y-25512552D01*
X191425558Y-25511474D01*
X191314859Y-25496900D01*
X191314854Y-25496900D01*
X191275000Y-25491653D01*
X191266812Y-25492731D01*
X191243333Y-25495822D01*
X191226887Y-25496900D01*
X188474920Y-25496900D01*
X188458473Y-25495822D01*
X188434988Y-25492730D01*
X188426800Y-25491652D01*
X188268054Y-25512552D01*
X188120127Y-25573825D01*
X188038381Y-25636551D01*
X187993098Y-25671298D01*
X187988072Y-25677848D01*
X187973650Y-25696643D01*
X187962783Y-25709034D01*
X187289037Y-26382780D01*
X187276645Y-26393648D01*
X187257852Y-26408068D01*
X187257848Y-26408072D01*
X187251298Y-26413098D01*
X187226826Y-26444991D01*
X187153826Y-26540126D01*
X187153826Y-26540127D01*
X187092552Y-26688054D01*
X187078527Y-26794588D01*
X187071653Y-26846800D01*
X187072731Y-26854988D01*
X187075822Y-26878467D01*
X187076900Y-26894913D01*
X187076900Y-27341000D01*
X187056898Y-27409121D01*
X187003242Y-27455614D01*
X186950900Y-27467000D01*
X186922115Y-27467000D01*
X186906876Y-27471475D01*
X186905671Y-27472865D01*
X186904000Y-27480548D01*
X186904000Y-30714884D01*
X186908475Y-30730123D01*
X186913154Y-30734177D01*
X186968970Y-30764654D01*
X187002996Y-30826966D01*
X186997932Y-30897782D01*
X186968971Y-30942846D01*
X185723095Y-32188722D01*
X185660783Y-32222748D01*
X185589968Y-32217683D01*
X185533132Y-32175136D01*
X185508321Y-32108616D01*
X185508000Y-32099627D01*
X185508000Y-30731800D01*
X185528002Y-30663679D01*
X185581658Y-30617186D01*
X185651932Y-30607082D01*
X185709565Y-30630974D01*
X185761352Y-30669786D01*
X185776946Y-30678324D01*
X185897394Y-30723478D01*
X185912649Y-30727105D01*
X185963514Y-30732631D01*
X185970328Y-30733000D01*
X186377885Y-30733000D01*
X186393124Y-30728525D01*
X186394329Y-30727135D01*
X186396000Y-30719452D01*
X186396000Y-27485116D01*
X186391525Y-27469877D01*
X186390135Y-27468672D01*
X186382452Y-27467001D01*
X185970331Y-27467001D01*
X185963510Y-27467371D01*
X185912648Y-27472895D01*
X185897396Y-27476521D01*
X185776946Y-27521676D01*
X185761352Y-27530214D01*
X185709565Y-27569026D01*
X185643059Y-27593874D01*
X185573676Y-27578821D01*
X185523446Y-27528647D01*
X185508000Y-27468200D01*
X185508000Y-23175300D01*
X185528002Y-23107179D01*
X185581658Y-23060686D01*
X185651932Y-23050582D01*
X185709565Y-23074474D01*
X185761352Y-23113286D01*
X185776946Y-23121824D01*
X185897394Y-23166978D01*
X185912649Y-23170605D01*
X185963514Y-23176131D01*
X185970328Y-23176500D01*
X186377885Y-23176500D01*
X186393124Y-23172025D01*
X186394329Y-23170635D01*
X186396000Y-23162952D01*
X186396000Y-23158384D01*
X186904000Y-23158384D01*
X186908475Y-23173623D01*
X186909865Y-23174828D01*
X186917548Y-23176499D01*
X187329669Y-23176499D01*
X187336490Y-23176129D01*
X187387352Y-23170605D01*
X187402604Y-23166979D01*
X187523054Y-23121824D01*
X187538649Y-23113286D01*
X187640724Y-23036785D01*
X187653285Y-23024224D01*
X187729786Y-22922149D01*
X187738324Y-22906554D01*
X187783478Y-22786106D01*
X187787105Y-22770851D01*
X187792631Y-22719986D01*
X187793000Y-22713172D01*
X187793000Y-21815615D01*
X187788525Y-21800376D01*
X187787135Y-21799171D01*
X187779452Y-21797500D01*
X186922115Y-21797500D01*
X186906876Y-21801975D01*
X186905671Y-21803365D01*
X186904000Y-21811048D01*
X186904000Y-23158384D01*
X186396000Y-23158384D01*
X186396000Y-21415500D01*
X186416002Y-21347379D01*
X186469658Y-21300886D01*
X186522000Y-21289500D01*
X187774884Y-21289500D01*
X187790123Y-21285025D01*
X187791328Y-21283635D01*
X187792999Y-21275952D01*
X187792999Y-20634000D01*
X187813001Y-20565879D01*
X187866657Y-20519386D01*
X187918999Y-20508000D01*
X187920900Y-20508000D01*
X187989021Y-20528002D01*
G37*
G04 #@! TD.AperFunction*
M02*
