G04 #@! TF.GenerationSoftware,KiCad,Pcbnew,6.0.0-d3dd2cf0fa~116~ubuntu21.10.1*
G04 #@! TF.CreationDate,2022-02-12T15:33:20+00:00*
G04 #@! TF.ProjectId,feederFloor,66656564-6572-4466-9c6f-6f722e6b6963,rev?*
G04 #@! TF.SameCoordinates,Original*
G04 #@! TF.FileFunction,Copper,L2,Bot*
G04 #@! TF.FilePolarity,Positive*
%FSLAX46Y46*%
G04 Gerber Fmt 4.6, Leading zero omitted, Abs format (unit mm)*
G04 Created by KiCad (PCBNEW 6.0.0-d3dd2cf0fa~116~ubuntu21.10.1) date 2022-02-12 15:33:20*
%MOMM*%
%LPD*%
G01*
G04 APERTURE LIST*
G04 #@! TA.AperFunction,ComponentPad*
%ADD10C,5.700000*%
G04 #@! TD*
G04 #@! TA.AperFunction,ComponentPad*
%ADD11R,1.727200X1.727200*%
G04 #@! TD*
G04 #@! TA.AperFunction,ComponentPad*
%ADD12O,1.727200X1.727200*%
G04 #@! TD*
G04 #@! TA.AperFunction,ViaPad*
%ADD13C,0.800000*%
G04 #@! TD*
G04 APERTURE END LIST*
D10*
X191700000Y-41350000D03*
D11*
X190500000Y-57200000D03*
D12*
X193040000Y-57200000D03*
X190500000Y-54660000D03*
X193040000Y-54660000D03*
X190500000Y-52120000D03*
X193040000Y-52120000D03*
D13*
X195020000Y-49560000D03*
X187230000Y-33560000D03*
X186580000Y-24180000D03*
X196510000Y-33560000D03*
G04 #@! TA.AperFunction,Conductor*
G36*
X197934121Y-20528002D02*
G01*
X197980614Y-20581658D01*
X197992000Y-20634000D01*
X197992000Y-62266000D01*
X197971998Y-62334121D01*
X197918342Y-62380614D01*
X197866000Y-62392000D01*
X185634000Y-62392000D01*
X185565879Y-62371998D01*
X185519386Y-62318342D01*
X185508000Y-62266000D01*
X185508000Y-58108269D01*
X189128401Y-58108269D01*
X189128771Y-58115090D01*
X189134295Y-58165952D01*
X189137921Y-58181204D01*
X189183076Y-58301654D01*
X189191614Y-58317249D01*
X189268115Y-58419324D01*
X189280676Y-58431885D01*
X189382751Y-58508386D01*
X189398346Y-58516924D01*
X189518794Y-58562078D01*
X189534049Y-58565705D01*
X189584914Y-58571231D01*
X189591728Y-58571600D01*
X190227885Y-58571600D01*
X190243124Y-58567125D01*
X190244329Y-58565735D01*
X190246000Y-58558052D01*
X190246000Y-58553484D01*
X190754000Y-58553484D01*
X190758475Y-58568723D01*
X190759865Y-58569928D01*
X190767548Y-58571599D01*
X191408269Y-58571599D01*
X191415090Y-58571229D01*
X191465952Y-58565705D01*
X191481204Y-58562079D01*
X191601654Y-58516924D01*
X191617249Y-58508386D01*
X191719324Y-58431885D01*
X191731885Y-58419324D01*
X191808386Y-58317249D01*
X191816924Y-58301654D01*
X191852041Y-58207981D01*
X191894683Y-58151217D01*
X191961245Y-58126517D01*
X192030593Y-58141725D01*
X192065263Y-58169716D01*
X192073674Y-58179427D01*
X192081032Y-58186633D01*
X192246606Y-58324095D01*
X192255053Y-58330010D01*
X192440859Y-58438586D01*
X192450146Y-58443036D01*
X192651198Y-58519810D01*
X192661091Y-58522684D01*
X192768248Y-58544485D01*
X192782300Y-58543290D01*
X192786000Y-58532945D01*
X192786000Y-58532229D01*
X193294000Y-58532229D01*
X193298064Y-58546071D01*
X193311479Y-58548105D01*
X193321025Y-58546882D01*
X193331095Y-58544742D01*
X193537225Y-58482900D01*
X193546832Y-58479134D01*
X193740076Y-58384464D01*
X193748934Y-58379185D01*
X193924141Y-58254211D01*
X193932003Y-58247567D01*
X194084445Y-58095656D01*
X194091122Y-58087811D01*
X194216702Y-57913047D01*
X194222013Y-57904208D01*
X194317358Y-57711292D01*
X194321156Y-57701699D01*
X194383716Y-57495791D01*
X194385893Y-57485721D01*
X194387705Y-57471960D01*
X194385493Y-57457778D01*
X194372336Y-57454000D01*
X193312115Y-57454000D01*
X193296876Y-57458475D01*
X193295671Y-57459865D01*
X193294000Y-57467548D01*
X193294000Y-58532229D01*
X192786000Y-58532229D01*
X192786000Y-57472115D01*
X192781525Y-57456876D01*
X192780135Y-57455671D01*
X192772452Y-57454000D01*
X190772115Y-57454000D01*
X190756876Y-57458475D01*
X190755671Y-57459865D01*
X190754000Y-57467548D01*
X190754000Y-58553484D01*
X190246000Y-58553484D01*
X190246000Y-57472115D01*
X190241525Y-57456876D01*
X190240135Y-57455671D01*
X190232452Y-57454000D01*
X189146516Y-57454000D01*
X189131277Y-57458475D01*
X189130072Y-57459865D01*
X189128401Y-57467548D01*
X189128401Y-58108269D01*
X185508000Y-58108269D01*
X185508000Y-54626372D01*
X189124010Y-54626372D01*
X189124307Y-54631524D01*
X189124307Y-54631528D01*
X189129826Y-54727237D01*
X189136994Y-54851558D01*
X189138131Y-54856604D01*
X189138132Y-54856610D01*
X189159375Y-54950868D01*
X189186583Y-55071600D01*
X189188525Y-55076382D01*
X189188526Y-55076386D01*
X189227078Y-55171328D01*
X189271444Y-55280588D01*
X189389299Y-55472910D01*
X189534864Y-55640954D01*
X189534864Y-55640955D01*
X189536983Y-55643401D01*
X189536478Y-55643838D01*
X189569265Y-55702418D01*
X189564941Y-55773282D01*
X189522991Y-55830560D01*
X189490660Y-55848469D01*
X189398348Y-55883075D01*
X189382751Y-55891614D01*
X189280676Y-55968115D01*
X189268115Y-55980676D01*
X189191614Y-56082751D01*
X189183076Y-56098346D01*
X189137922Y-56218794D01*
X189134295Y-56234049D01*
X189128769Y-56284914D01*
X189128400Y-56291728D01*
X189128400Y-56927885D01*
X189132875Y-56943124D01*
X189134265Y-56944329D01*
X189141948Y-56946000D01*
X194372367Y-56946000D01*
X194385898Y-56942027D01*
X194387203Y-56932947D01*
X194344133Y-56761477D01*
X194340813Y-56751726D01*
X194254999Y-56554365D01*
X194250133Y-56545290D01*
X194133239Y-56364601D01*
X194126947Y-56356430D01*
X193982113Y-56197260D01*
X193974580Y-56190234D01*
X193805691Y-56056855D01*
X193797108Y-56051153D01*
X193777695Y-56040436D01*
X193727724Y-55990003D01*
X193712952Y-55920560D01*
X193738068Y-55854155D01*
X193765420Y-55827548D01*
X193826224Y-55784177D01*
X193928409Y-55711290D01*
X194088182Y-55552073D01*
X194219806Y-55368899D01*
X194319745Y-55166687D01*
X194385316Y-54950868D01*
X194414758Y-54727237D01*
X194416401Y-54660000D01*
X194397919Y-54435198D01*
X194342969Y-54216433D01*
X194253027Y-54009581D01*
X194130508Y-53820196D01*
X194110380Y-53798075D01*
X194082237Y-53767147D01*
X193978703Y-53653364D01*
X193914961Y-53603023D01*
X193805744Y-53516768D01*
X193805740Y-53516766D01*
X193801689Y-53513566D01*
X193777786Y-53500371D01*
X193727815Y-53449938D01*
X193713043Y-53380496D01*
X193738159Y-53314090D01*
X193765511Y-53287483D01*
X193817936Y-53250089D01*
X193928409Y-53171290D01*
X194088182Y-53012073D01*
X194219806Y-52828899D01*
X194319745Y-52626687D01*
X194385316Y-52410868D01*
X194414758Y-52187237D01*
X194416401Y-52120000D01*
X194397919Y-51895198D01*
X194342969Y-51676433D01*
X194253027Y-51469581D01*
X194130508Y-51280196D01*
X194110380Y-51258075D01*
X194082237Y-51227147D01*
X193978703Y-51113364D01*
X193914961Y-51063023D01*
X193805744Y-50976768D01*
X193805740Y-50976766D01*
X193801689Y-50973566D01*
X193764271Y-50952910D01*
X193747801Y-50943818D01*
X193604218Y-50864557D01*
X193599349Y-50862833D01*
X193599345Y-50862831D01*
X193396471Y-50790989D01*
X193396467Y-50790988D01*
X193391596Y-50789263D01*
X193386506Y-50788356D01*
X193386501Y-50788355D01*
X193266289Y-50766943D01*
X193169531Y-50749708D01*
X193085480Y-50748681D01*
X192949157Y-50747015D01*
X192949155Y-50747015D01*
X192943987Y-50746952D01*
X192816015Y-50766534D01*
X192726131Y-50780288D01*
X192726128Y-50780289D01*
X192721022Y-50781070D01*
X192716110Y-50782675D01*
X192716112Y-50782675D01*
X192511536Y-50849541D01*
X192511534Y-50849542D01*
X192506623Y-50851147D01*
X192306549Y-50955299D01*
X192302416Y-50958402D01*
X192302413Y-50958404D01*
X192130306Y-51087625D01*
X192126171Y-51090730D01*
X191970336Y-51253803D01*
X191967422Y-51258075D01*
X191967418Y-51258080D01*
X191873495Y-51395765D01*
X191818584Y-51440768D01*
X191748059Y-51448939D01*
X191684312Y-51417685D01*
X191663615Y-51393202D01*
X191593315Y-51284535D01*
X191590508Y-51280196D01*
X191570380Y-51258075D01*
X191542237Y-51227147D01*
X191438703Y-51113364D01*
X191374961Y-51063023D01*
X191265744Y-50976768D01*
X191265740Y-50976766D01*
X191261689Y-50973566D01*
X191224271Y-50952910D01*
X191207801Y-50943818D01*
X191064218Y-50864557D01*
X191059349Y-50862833D01*
X191059345Y-50862831D01*
X190856471Y-50790989D01*
X190856467Y-50790988D01*
X190851596Y-50789263D01*
X190846506Y-50788356D01*
X190846501Y-50788355D01*
X190726289Y-50766943D01*
X190629531Y-50749708D01*
X190545480Y-50748681D01*
X190409157Y-50747015D01*
X190409155Y-50747015D01*
X190403987Y-50746952D01*
X190276015Y-50766534D01*
X190186131Y-50780288D01*
X190186128Y-50780289D01*
X190181022Y-50781070D01*
X190176110Y-50782675D01*
X190176112Y-50782675D01*
X189971536Y-50849541D01*
X189971534Y-50849542D01*
X189966623Y-50851147D01*
X189766549Y-50955299D01*
X189762416Y-50958402D01*
X189762413Y-50958404D01*
X189590306Y-51087625D01*
X189586171Y-51090730D01*
X189430336Y-51253803D01*
X189303226Y-51440138D01*
X189208257Y-51644731D01*
X189206875Y-51649713D01*
X189206875Y-51649714D01*
X189199465Y-51676433D01*
X189147979Y-51862088D01*
X189124010Y-52086372D01*
X189124307Y-52091524D01*
X189124307Y-52091528D01*
X189129826Y-52187237D01*
X189136994Y-52311558D01*
X189138131Y-52316604D01*
X189138132Y-52316610D01*
X189159375Y-52410868D01*
X189186583Y-52531600D01*
X189188525Y-52536382D01*
X189188526Y-52536386D01*
X189227078Y-52631328D01*
X189271444Y-52740588D01*
X189389299Y-52932910D01*
X189536983Y-53103401D01*
X189710529Y-53247482D01*
X189764841Y-53279219D01*
X189813563Y-53330855D01*
X189826635Y-53400638D01*
X189799904Y-53466410D01*
X189769205Y-53493916D01*
X189766549Y-53495299D01*
X189762413Y-53498404D01*
X189762412Y-53498405D01*
X189742220Y-53513566D01*
X189586171Y-53630730D01*
X189430336Y-53793803D01*
X189303226Y-53980138D01*
X189208257Y-54184731D01*
X189206875Y-54189713D01*
X189206875Y-54189714D01*
X189199465Y-54216433D01*
X189147979Y-54402088D01*
X189124010Y-54626372D01*
X185508000Y-54626372D01*
X185508000Y-41338261D01*
X188336988Y-41338261D01*
X188355391Y-41701533D01*
X188355928Y-41704888D01*
X188355929Y-41704894D01*
X188361534Y-41739884D01*
X188412919Y-42060692D01*
X188508900Y-42411538D01*
X188642210Y-42749966D01*
X188811290Y-43072017D01*
X188813191Y-43074846D01*
X188813197Y-43074856D01*
X189000415Y-43353463D01*
X189014163Y-43373923D01*
X189248455Y-43652154D01*
X189511425Y-43903454D01*
X189799998Y-44124883D01*
X189802911Y-44126654D01*
X190107882Y-44312080D01*
X190107887Y-44312083D01*
X190110797Y-44313852D01*
X190113885Y-44315298D01*
X190113884Y-44315298D01*
X190437102Y-44466705D01*
X190437112Y-44466709D01*
X190440186Y-44468149D01*
X190443404Y-44469251D01*
X190443407Y-44469252D01*
X190781090Y-44584867D01*
X190781098Y-44584869D01*
X190784313Y-44585970D01*
X190787641Y-44586720D01*
X191135826Y-44665187D01*
X191135832Y-44665188D01*
X191139151Y-44665936D01*
X191142530Y-44666321D01*
X191142536Y-44666322D01*
X191293818Y-44683558D01*
X191500551Y-44707112D01*
X191503956Y-44707130D01*
X191503959Y-44707130D01*
X191699354Y-44708153D01*
X191864283Y-44709017D01*
X191867669Y-44708667D01*
X191867671Y-44708667D01*
X192222702Y-44671978D01*
X192222710Y-44671977D01*
X192226094Y-44671627D01*
X192229427Y-44670912D01*
X192229430Y-44670912D01*
X192404599Y-44633359D01*
X192581751Y-44595381D01*
X192927092Y-44481171D01*
X192930176Y-44479765D01*
X192930185Y-44479762D01*
X193254972Y-44331747D01*
X193254973Y-44331747D01*
X193258079Y-44330331D01*
X193353787Y-44273504D01*
X193567895Y-44146376D01*
X193567900Y-44146373D01*
X193570840Y-44144627D01*
X193861715Y-43926232D01*
X194127303Y-43677700D01*
X194129515Y-43675128D01*
X194129522Y-43675121D01*
X194362269Y-43404526D01*
X194364495Y-43401938D01*
X194472648Y-43244575D01*
X194568589Y-43104981D01*
X194568594Y-43104974D01*
X194570519Y-43102172D01*
X194742962Y-42781909D01*
X194879809Y-42444896D01*
X194979458Y-42095075D01*
X195040744Y-41736537D01*
X195042680Y-41704894D01*
X195062840Y-41375275D01*
X195062950Y-41373478D01*
X195063032Y-41350000D01*
X195043362Y-40986795D01*
X194984580Y-40627838D01*
X194887375Y-40277330D01*
X194884257Y-40269493D01*
X194754144Y-39942533D01*
X194752885Y-39939369D01*
X194582681Y-39617910D01*
X194580776Y-39615096D01*
X194380662Y-39319528D01*
X194380655Y-39319519D01*
X194378756Y-39316714D01*
X194376560Y-39314124D01*
X194376555Y-39314118D01*
X194285367Y-39206593D01*
X194143494Y-39039303D01*
X193879648Y-38788922D01*
X193590304Y-38568502D01*
X193556388Y-38548042D01*
X193281763Y-38382377D01*
X193281757Y-38382374D01*
X193278848Y-38380619D01*
X192948922Y-38227472D01*
X192604386Y-38110853D01*
X192595126Y-38108800D01*
X192252608Y-38032866D01*
X192249270Y-38032126D01*
X192220546Y-38028955D01*
X191891112Y-37992585D01*
X191891105Y-37992585D01*
X191887730Y-37992212D01*
X191884331Y-37992206D01*
X191884330Y-37992206D01*
X191712834Y-37991907D01*
X191523993Y-37991577D01*
X191409141Y-38003851D01*
X191165697Y-38029867D01*
X191165689Y-38029868D01*
X191162314Y-38030229D01*
X191158991Y-38030953D01*
X191158988Y-38030954D01*
X191041931Y-38056477D01*
X190806926Y-38107716D01*
X190461985Y-38223132D01*
X190131527Y-38375126D01*
X190128593Y-38376882D01*
X190128591Y-38376883D01*
X190124747Y-38379184D01*
X189819416Y-38561920D01*
X189816690Y-38563982D01*
X189816688Y-38563983D01*
X189807983Y-38570567D01*
X189529305Y-38781330D01*
X189526820Y-38783672D01*
X189526815Y-38783676D01*
X189282202Y-39014187D01*
X189264587Y-39030787D01*
X189028358Y-39307376D01*
X188823383Y-39607859D01*
X188652058Y-39928721D01*
X188516388Y-40266210D01*
X188417961Y-40616377D01*
X188357927Y-40975126D01*
X188336988Y-41338261D01*
X185508000Y-41338261D01*
X185508000Y-20634000D01*
X185528002Y-20565879D01*
X185581658Y-20519386D01*
X185634000Y-20508000D01*
X197866000Y-20508000D01*
X197934121Y-20528002D01*
G37*
G04 #@! TD.AperFunction*
M02*
